<svg width="32" height="32" viewBox="0 0 32 32" fill="none" xmlns="http://www.w3.org/2000/svg">
<path d="M5.3335 13.3333H26.6668M5.3335 8H26.6668M24.0002 24H8.00016C6.74283 24 6.11483 24 5.72416 23.6093C5.3335 23.2187 5.3335 22.5907 5.3335 21.3333C5.3335 20.076 5.3335 19.448 5.72416 19.0573C6.11483 18.6667 6.74283 18.6667 8.00016 18.6667H24.0002C25.2575 18.6667 25.8855 18.6667 26.2762 19.0573C26.6668 19.448 26.6668 20.076 26.6668 21.3333C26.6668 22.5907 26.6668 23.2187 26.2762 23.6093C25.8855 24 25.2575 24 24.0002 24Z" stroke="black" stroke-width="1.5" stroke-linecap="round" stroke-linejoin="round"/>
</svg>
