<svg width="100" height="100" viewBox="0 0 100 100" fill="none" xmlns="http://www.w3.org/2000/svg">
<path d="M81.6255 64.5833L74.0422 59.1667C75.2922 54.6667 75.3755 49.7917 74.0422 44.9167L81.6255 39.5833L75.5838 29.1667L67.1255 33C63.8338 29.6667 59.6672 27.0833 54.7922 25.875L53.9588 16.6667H41.8755L41.0422 25.875C36.1672 27.0833 32.0005 29.6667 28.7088 33L20.2505 29.1667L14.2088 39.5833L21.7922 44.9167C20.4588 49.7917 20.5422 54.6667 21.7922 59.1667L14.2088 64.5833L20.2505 75L28.7088 71.125C32.0005 74.4167 36.1672 76.9167 41.0422 78.2083L41.8755 87.5H53.9588L54.7922 78.2083C59.6672 76.9167 63.8338 74.4167 67.1255 71.125L75.5838 75L81.6255 64.5833ZM56.2505 12.5C57.3755 12.5 58.3338 13.3333 58.3338 14.4167L59.0838 22.9167C62.2505 24.0833 65.0838 25.7917 67.6255 27.8333L75.3338 24.2083C76.2922 23.7083 77.5005 24.0417 78.0838 25L86.4172 39.5833C87.0005 40.4583 86.6672 41.6667 85.7505 42.2917L78.7922 47.1667C79.3338 50.5 79.2922 53.7917 78.7922 57L85.7505 61.875C86.6672 62.5 87.0005 63.7083 86.4172 64.5833L78.0838 79.1667C77.5005 80.0417 76.2922 80.375 75.3338 79.875L67.6255 76.2917C65.0838 78.3333 62.2505 80 59.0838 81.25L58.3338 89.5833C58.3338 90.7917 57.3755 91.6667 56.2505 91.6667H39.5838C39.0313 91.6667 38.5014 91.4472 38.1107 91.0565C37.72 90.6658 37.5005 90.1359 37.5005 89.5833L36.7505 81.25C33.5838 80 30.7505 78.3333 28.2088 76.2917L20.5005 79.875C19.5422 80.375 18.3338 80.0417 17.7505 79.1667L9.41716 64.5833C8.83382 63.7083 9.16716 62.5 10.0838 61.875L17.0422 57C16.5422 53.7917 16.5005 50.5 17.0422 47.1667L10.0838 42.2917C9.16716 41.6667 8.83382 40.4583 9.41716 39.5833L17.7505 25C18.3338 24.0417 19.5422 23.7083 20.5005 24.2083L28.2088 27.8333C30.7505 25.7917 33.5838 24.0833 36.7505 22.9167L37.5005 14.4167C37.5005 13.3333 38.4588 12.5 39.5838 12.5H56.2505ZM47.9172 37.5C51.7849 37.5 55.4942 39.0365 58.2291 41.7714C60.964 44.5063 62.5005 48.2156 62.5005 52.0833C62.5005 55.9511 60.964 59.6604 58.2291 62.3953C55.4942 65.1302 51.7849 66.6667 47.9172 66.6667C44.0494 66.6667 40.3401 65.1302 37.6052 62.3953C34.8703 59.6604 33.3338 55.9511 33.3338 52.0833C33.3338 48.2156 34.8703 44.5063 37.6052 41.7714C40.3401 39.0365 44.0494 37.5 47.9172 37.5ZM47.9172 41.6667C45.1545 41.6667 42.505 42.7641 40.5515 44.7176C38.598 46.6711 37.5005 49.3207 37.5005 52.0833C37.5005 54.846 38.598 57.4955 40.5515 59.449C42.505 61.4025 45.1545 62.5 47.9172 62.5C50.6798 62.5 53.3293 61.4025 55.2829 59.449C57.2364 57.4955 58.3338 54.846 58.3338 52.0833C58.3338 49.3207 57.2364 46.6711 55.2829 44.7176C53.3293 42.7641 50.6798 41.6667 47.9172 41.6667Z" fill="#A9023A"/>
</svg>
