<svg width="120" height="112" viewBox="0 0 120 112" fill="none" xmlns="http://www.w3.org/2000/svg">
<path d="M8.53077 4.09377C8.7115 4.09271 8.89224 4.09165 9.07845 4.09055C9.6823 4.08784 10.286 4.08997 10.8899 4.09209C11.3279 4.09114 11.7659 4.08989 12.2039 4.08837C13.4062 4.08508 14.6085 4.08605 15.8108 4.08773C17.108 4.08881 18.4052 4.08596 19.7023 4.08362C22.2431 4.0797 24.7839 4.07952 27.3247 4.08071C29.3898 4.08163 31.4548 4.0813 33.5199 4.08008C33.8137 4.07991 34.1076 4.07974 34.4103 4.07957C35.0072 4.07922 35.6042 4.07887 36.2011 4.07851C40.2093 4.07627 44.2176 4.07533 48.2258 4.07706C48.3825 4.07713 48.5392 4.0772 48.7007 4.07727C49.9732 4.07783 51.2458 4.07842 52.5183 4.07902C57.4817 4.08132 62.445 4.07942 67.4083 4.07412C72.9862 4.06818 78.5641 4.06526 84.1419 4.06687C87.0948 4.06767 90.0476 4.06716 93.0004 4.06317C95.5141 4.05982 98.0278 4.05967 100.541 4.06364C101.824 4.06558 103.106 4.06606 104.389 4.06258C105.563 4.05943 106.738 4.0605 107.912 4.06491C108.336 4.06577 108.761 4.0651 109.185 4.06272C113.802 4.03873 113.802 4.03873 115.693 5.52359C115.809 5.66781 115.925 5.81203 116.044 5.96062C116.165 6.10308 116.285 6.24554 116.408 6.39232C117.53 8.13096 117.531 9.60072 117.522 11.6362C117.523 11.9565 117.525 12.2767 117.527 12.597C117.53 13.4749 117.53 14.3528 117.529 15.2307C117.528 16.1784 117.531 17.1261 117.534 18.0738C117.539 19.9296 117.54 21.7854 117.54 23.6413C117.539 25.15 117.54 26.6587 117.542 28.1675C117.542 28.6022 117.543 29.0369 117.543 29.4716C117.544 29.7962 117.544 29.7962 117.544 30.1273C117.548 34.219 117.548 38.3107 117.546 42.4024C117.545 46.1442 117.55 49.886 117.558 53.6277C117.565 57.4711 117.569 61.3144 117.568 65.1578C117.567 67.315 117.568 69.4722 117.574 71.6295C117.579 73.4661 117.58 75.3027 117.575 77.1394C117.573 78.076 117.573 79.0126 117.578 79.9493C117.582 80.8078 117.581 81.666 117.576 82.5245C117.574 82.9801 117.579 83.4357 117.583 83.8913C117.562 86.0119 117.086 87.4746 115.773 89.1454C113.697 90.7421 111.578 90.6669 109.068 90.6446C108.661 90.6443 108.255 90.6445 107.849 90.645C106.751 90.6452 105.653 90.6399 104.555 90.6335C103.406 90.6278 102.257 90.6273 101.108 90.6262C98.9337 90.6234 96.7598 90.6159 94.5858 90.6068C92.1099 90.5966 89.634 90.5915 87.158 90.587C82.0669 90.5775 76.9757 90.5614 71.8846 90.5411C71.9633 90.8224 72.042 91.1037 72.1231 91.3935C72.2273 91.7664 72.3315 92.1393 72.4357 92.5122C72.4874 92.6971 72.5392 92.882 72.5925 93.0726C72.9992 94.5286 73.3877 95.9886 73.7621 97.4531C74.038 98.5143 74.3587 99.5466 74.729 100.579C74.8601 101.023 74.8601 101.023 74.8601 101.706C75.0066 101.703 75.1531 101.699 75.3041 101.696C75.9715 101.681 76.6388 101.673 77.3062 101.664C77.6521 101.655 77.6521 101.655 78.005 101.646C80.1945 101.625 80.1945 101.625 81.0399 102.39C81.7688 103.296 81.8138 104.025 81.798 105.167C81.7972 105.448 81.7963 105.728 81.7954 106.017C81.7265 106.719 81.7265 106.719 81.2688 107.175C80.6985 107.22 80.1537 107.237 79.5832 107.233C79.4074 107.234 79.2316 107.235 79.0505 107.235C78.4584 107.237 77.8662 107.236 77.274 107.234C76.8508 107.235 76.4275 107.236 76.0043 107.237C74.8523 107.239 73.7004 107.238 72.5484 107.236C71.3451 107.235 70.1418 107.236 68.9384 107.237C66.9173 107.238 64.8962 107.237 62.8751 107.235C60.5356 107.232 58.1961 107.233 55.8567 107.235C53.8511 107.238 51.8455 107.238 49.8398 107.237C48.6407 107.236 47.4415 107.236 46.2423 107.237C45.1151 107.239 43.988 107.238 42.8608 107.235C42.4461 107.235 42.0315 107.235 41.6168 107.236C41.0527 107.237 40.4886 107.235 39.9245 107.233C39.7587 107.234 39.5929 107.235 39.4221 107.236C38.2912 107.227 38.2912 107.227 37.7812 106.719C37.458 103.801 37.458 103.801 38.196 102.675C38.9745 101.878 39.46 101.65 40.5519 101.612C40.7769 101.603 41.0019 101.594 41.2337 101.585C41.5853 101.575 41.5853 101.575 41.944 101.564C42.1811 101.555 42.4181 101.546 42.6624 101.537C43.2478 101.516 43.8332 101.496 44.4188 101.479C45.5965 98.2317 46.4393 94.9254 47.243 91.5692C47.3942 90.9968 47.3942 90.9968 47.6231 90.5411C47.4117 90.5422 47.2003 90.5432 46.9825 90.5443C41.8341 90.5696 36.6857 90.5883 31.5372 90.6001C29.0475 90.606 26.5577 90.614 24.068 90.6271C21.8974 90.6384 19.7269 90.6458 17.5563 90.6483C16.4074 90.6498 15.2586 90.6533 14.1097 90.6616C13.0272 90.6693 11.9449 90.6717 10.8624 90.67C10.4662 90.6703 10.07 90.6725 9.67383 90.6769C5.62873 90.7195 5.62873 90.7195 3.90669 89.4018C2.69225 88.1137 2.01951 86.8766 2.01611 85.0845C2.0145 84.8112 2.01288 84.538 2.01121 84.2564C2.01177 83.957 2.01232 83.6576 2.01289 83.3492C2.01187 83.0273 2.01065 82.7054 2.00926 82.3835C2.00601 81.4989 2.00563 80.6143 2.00573 79.7297C2.00535 78.7757 2.00236 77.8216 1.99974 76.8676C1.99451 74.7815 1.99269 72.6954 1.99154 70.6093C1.99079 69.3066 1.9893 68.004 1.98764 66.7014C1.98317 63.0945 1.97941 59.4877 1.97875 55.8808C1.9787 55.65 1.97866 55.4192 1.97862 55.1813C1.97853 54.7134 1.97845 54.2455 1.97837 53.7776C1.97832 53.5453 1.97828 53.3131 1.97824 53.0737C1.9782 52.8412 1.97816 52.6086 1.97811 52.369C1.9773 48.6005 1.97112 44.8321 1.96256 41.0636C1.95385 37.1943 1.94941 33.3249 1.94934 29.4556C1.94921 27.2832 1.94727 25.1108 1.94065 22.9385C1.93504 21.0887 1.93337 19.239 1.93681 17.3892C1.93845 16.4456 1.93826 15.5022 1.93306 14.5586C1.92834 13.6941 1.92894 12.8298 1.93371 11.9653C1.93489 11.5059 1.93045 11.0464 1.92578 10.587C1.94384 8.64283 2.25897 7.25307 3.61512 5.81115C5.00293 4.47729 6.6436 4.0762 8.53077 4.09377Z" fill="white"/>
<path d="M8.53077 4.09377C8.7115 4.09271 8.89224 4.09165 9.07845 4.09055C9.6823 4.08784 10.286 4.08997 10.8899 4.09209C11.3279 4.09114 11.7659 4.08989 12.2039 4.08837C13.4062 4.08508 14.6085 4.08605 15.8108 4.08773C17.108 4.08881 18.4052 4.08596 19.7023 4.08362C22.2431 4.0797 24.7839 4.07952 27.3247 4.08071C29.3898 4.08163 31.4548 4.0813 33.5199 4.08008C33.8137 4.07991 34.1076 4.07974 34.4103 4.07957C35.0072 4.07922 35.6042 4.07887 36.2011 4.07851C40.2093 4.07627 44.2176 4.07533 48.2258 4.07706C48.3825 4.07713 48.5392 4.0772 48.7007 4.07727C49.9732 4.07783 51.2458 4.07842 52.5183 4.07902C57.4817 4.08132 62.445 4.07942 67.4083 4.07412C72.9862 4.06818 78.5641 4.06526 84.1419 4.06687C87.0948 4.06767 90.0476 4.06716 93.0004 4.06317C95.5141 4.05982 98.0278 4.05967 100.541 4.06364C101.824 4.06558 103.106 4.06606 104.389 4.06258C105.563 4.05943 106.738 4.0605 107.912 4.06491C108.336 4.06577 108.761 4.0651 109.185 4.06272C113.802 4.03873 113.802 4.03873 115.693 5.52359C115.809 5.66781 115.925 5.81203 116.044 5.96062C116.165 6.10308 116.285 6.24554 116.408 6.39232C117.53 8.13096 117.531 9.60072 117.522 11.6362C117.523 11.9565 117.525 12.2767 117.527 12.597C117.53 13.4749 117.53 14.3528 117.529 15.2307C117.528 16.1784 117.531 17.1261 117.534 18.0738C117.539 19.9296 117.54 21.7854 117.54 23.6413C117.539 25.15 117.54 26.6587 117.542 28.1675C117.542 28.6022 117.543 29.0369 117.543 29.4716C117.544 29.7962 117.544 29.7962 117.544 30.1273C117.548 34.219 117.548 38.3107 117.546 42.4024C117.545 46.1442 117.55 49.886 117.558 53.6277C117.565 57.4711 117.569 61.3144 117.568 65.1578C117.567 67.315 117.568 69.4722 117.574 71.6295C117.579 73.4661 117.58 75.3027 117.575 77.1394C117.573 78.076 117.573 79.0126 117.578 79.9493C117.582 80.8078 117.581 81.666 117.576 82.5245C117.574 82.9801 117.579 83.4357 117.583 83.8913C117.562 86.0119 117.086 87.4746 115.773 89.1454C113.697 90.7421 111.578 90.6669 109.068 90.6446C108.661 90.6443 108.255 90.6445 107.849 90.645C106.751 90.6452 105.653 90.6399 104.555 90.6335C103.406 90.6278 102.257 90.6273 101.108 90.6262C98.9337 90.6234 96.7598 90.6159 94.5858 90.6068C92.1099 90.5965 89.634 90.5916 87.158 90.587C82.0669 90.5775 76.9757 90.5614 71.8846 90.5411C71.9633 90.8224 72.042 91.1037 72.1231 91.3935C72.2273 91.7664 72.3315 92.1393 72.4357 92.5122C72.4874 92.6971 72.5392 92.882 72.5925 93.0726C72.9992 94.5286 73.3877 95.9886 73.7621 97.4531C74.038 98.5143 74.3587 99.5466 74.729 100.579C74.8601 101.023 74.8601 101.023 74.8601 101.706C75.0066 101.703 75.1531 101.699 75.3041 101.696C75.9715 101.681 76.6388 101.673 77.3062 101.664C77.6521 101.655 77.6521 101.655 78.005 101.646C80.1945 101.625 80.1945 101.625 81.0399 102.39C81.7688 103.296 81.8138 104.025 81.798 105.167C81.7972 105.448 81.7963 105.728 81.7954 106.017C81.7265 106.719 81.7265 106.719 81.2688 107.175C80.6985 107.22 80.1537 107.237 79.5832 107.233C79.4074 107.234 79.2316 107.235 79.0505 107.235C78.4584 107.237 77.8662 107.236 77.274 107.234C76.8508 107.235 76.4275 107.236 76.0043 107.237C74.8523 107.239 73.7004 107.238 72.5484 107.236C71.3451 107.235 70.1418 107.236 68.9384 107.237C66.9173 107.238 64.8962 107.237 62.8751 107.235C60.5356 107.232 58.1961 107.233 55.8567 107.235C53.8511 107.238 51.8455 107.238 49.8398 107.237C48.6407 107.236 47.4415 107.236 46.2423 107.237C45.1151 107.239 43.988 107.238 42.8608 107.235C42.4461 107.235 42.0315 107.235 41.6168 107.236C41.0527 107.237 40.4886 107.235 39.9245 107.233C39.7587 107.234 39.5929 107.235 39.4221 107.236C38.2912 107.227 38.2912 107.227 37.7812 106.719C37.458 103.801 37.458 103.801 38.196 102.675C38.9745 101.878 39.46 101.65 40.5519 101.612C40.7769 101.603 41.0019 101.594 41.2337 101.585C41.5853 101.575 41.5853 101.575 41.944 101.564C42.1811 101.555 42.4181 101.546 42.6624 101.537C43.2478 101.516 43.8332 101.496 44.4188 101.479C45.5965 98.2317 46.4393 94.9254 47.243 91.5692C47.3942 90.9968 47.3942 90.9968 47.6231 90.5411C47.4117 90.5422 47.2003 90.5432 46.9825 90.5443C41.8341 90.5696 36.6857 90.5883 31.5372 90.6001C29.0475 90.606 26.5577 90.614 24.068 90.6271C21.8974 90.6384 19.7269 90.6458 17.5563 90.6483C16.4074 90.6498 15.2586 90.6533 14.1097 90.6616C13.0272 90.6693 11.9449 90.6717 10.8624 90.67C10.4662 90.6703 10.07 90.6725 9.67383 90.6769C5.62873 90.7195 5.62873 90.7195 3.90669 89.4018C2.69225 88.1137 2.01951 86.8766 2.01611 85.0845C2.0145 84.8112 2.01288 84.538 2.01121 84.2564C2.01177 83.957 2.01232 83.6576 2.01289 83.3492C2.01187 83.0273 2.01065 82.7054 2.00926 82.3835C2.00601 81.4989 2.00563 80.6143 2.00573 79.7297C2.00535 78.7757 2.00236 77.8216 1.99974 76.8676C1.99451 74.7815 1.99269 72.6954 1.99154 70.6093C1.99079 69.3066 1.9893 68.004 1.98764 66.7014C1.98317 63.0945 1.97941 59.4877 1.97875 55.8808C1.9787 55.65 1.97866 55.4192 1.97862 55.1813C1.97853 54.7134 1.97845 54.2455 1.97837 53.7776C1.97832 53.5453 1.97828 53.3131 1.97824 53.0737C1.9782 52.8412 1.97816 52.6086 1.97811 52.369C1.9773 48.6005 1.97112 44.8321 1.96256 41.0636C1.95385 37.1943 1.94941 33.3249 1.94934 29.4556C1.94921 27.2832 1.94727 25.1108 1.94065 22.9385C1.93504 21.0887 1.93337 19.239 1.93681 17.3892C1.93845 16.4456 1.93826 15.5022 1.93306 14.5586C1.92834 13.6941 1.92894 12.8298 1.93371 11.9653C1.93489 11.5059 1.93045 11.0464 1.92578 10.587C1.94384 8.64283 2.25897 7.25307 3.61512 5.81115C5.00293 4.47729 6.6436 4.0762 8.53077 4.09377ZM7.79768 9.87705C7.79768 31.7589 7.79768 53.6407 7.79768 76.1856C42.0888 76.1856 76.3798 76.1856 111.71 76.1856C111.71 54.3038 111.71 32.422 111.71 9.87705C77.419 9.87705 43.1279 9.87705 7.79768 9.87705Z" fill="#A9023A"/>
<path d="M3.9047 78.0078C40.7638 78.0078 77.623 78.0078 115.599 78.0078C115.599 85.7552 115.599 85.7552 114.684 87.5781C113.425 88.575 112.446 88.7512 110.884 88.748C110.705 88.7486 110.525 88.7491 110.34 88.7497C109.733 88.7512 109.126 88.7511 108.518 88.751C108.081 88.7517 107.643 88.7526 107.205 88.7535C105.999 88.7558 104.792 88.7567 103.585 88.7573C102.286 88.7581 100.986 88.7603 99.6859 88.7623C96.5452 88.7668 93.4044 88.7691 90.2636 88.7711C88.7857 88.7721 87.3078 88.7734 85.8299 88.7746C80.9191 88.7784 76.0083 88.7817 71.0976 88.7834C70.78 88.7835 70.4623 88.7836 70.1447 88.7837C69.9872 88.7838 69.8297 88.7838 69.6674 88.7839C68.8693 88.7841 68.0712 88.7844 67.2732 88.7847C67.1148 88.7848 66.9564 88.7848 66.7932 88.7849C61.6565 88.7867 56.5197 88.792 51.3829 88.7994C45.9537 88.8072 40.5245 88.8117 35.0953 88.8125C32.1351 88.813 29.1749 88.815 26.2146 88.8208C23.6943 88.8257 21.1741 88.8276 18.6538 88.8253C17.3672 88.8243 16.0807 88.8248 14.7942 88.8292C13.6172 88.8332 12.4402 88.833 11.2631 88.8294C10.8366 88.8289 10.4101 88.8299 9.98364 88.8326C9.40501 88.836 8.82666 88.8338 8.24804 88.8302C8.08146 88.8326 7.91488 88.8349 7.74326 88.8373C6.5882 88.8216 5.94222 88.5215 5.04911 87.806C2.5124 85.0075 3.9047 82.5071 3.9047 78.0078Z" fill="white"/>
<path d="M8.46928 5.91688C8.64924 5.91582 8.8292 5.91475 9.01461 5.91366C9.61856 5.91093 10.2224 5.91308 10.8264 5.9152C11.2633 5.91425 11.7003 5.913 12.1373 5.91148C13.339 5.90818 14.5405 5.90916 15.7422 5.91084C17.0378 5.91191 18.3334 5.90907 19.629 5.90673C22.1676 5.90281 24.7061 5.90262 27.2447 5.90382C29.3077 5.90474 31.3707 5.90441 33.4337 5.90319C33.7271 5.90302 34.0205 5.90285 34.3228 5.90267C34.9188 5.90232 35.5148 5.90197 36.1108 5.90162C40.1137 5.89938 44.1166 5.89843 48.1195 5.90017C48.2761 5.90024 48.4326 5.9003 48.5939 5.90037C49.8652 5.90093 51.1365 5.90153 52.4078 5.90213C57.3665 5.90443 62.3251 5.90252 67.2838 5.89723C72.8546 5.89129 78.4254 5.88837 83.9962 5.88998C86.946 5.89078 89.8957 5.89026 92.8454 5.88628C95.3566 5.88293 97.8677 5.88277 100.379 5.88675C101.66 5.88869 102.942 5.88917 104.223 5.88569C105.396 5.88254 106.569 5.8836 107.742 5.88802C108.167 5.88888 108.591 5.8882 109.015 5.88583C109.592 5.88284 110.169 5.88546 110.746 5.88948C110.911 5.88728 111.076 5.88508 111.246 5.88281C112.664 5.90307 113.838 6.34904 114.878 7.30474C115.74 8.67881 115.756 9.93543 115.736 11.5264C115.737 11.8043 115.738 12.0822 115.739 12.3685C115.74 13.1361 115.737 13.9034 115.731 14.671C115.726 15.5001 115.728 16.3292 115.729 17.1583C115.729 18.5936 115.726 20.0287 115.719 21.4639C115.71 23.539 115.707 25.614 115.705 27.689C115.703 31.0559 115.695 34.4228 115.684 37.7896C115.674 41.0596 115.666 44.3296 115.661 47.5996C115.661 47.8013 115.66 48.003 115.66 48.2107C115.659 49.2225 115.657 50.2342 115.656 51.246C115.644 59.6352 115.624 68.0245 115.598 76.4137C114.918 76.4137 114.239 76.4137 113.538 76.4137C113.538 76.2701 113.537 76.1265 113.537 75.9786C113.513 67.477 113.489 58.9754 113.462 50.4738C113.459 49.4541 113.456 48.4344 113.453 47.4146C113.452 47.2116 113.452 47.0086 113.451 46.7995C113.441 43.5078 113.432 40.2162 113.423 36.9246C113.413 33.5496 113.403 30.1747 113.392 26.7998C113.386 24.7156 113.38 22.6313 113.375 20.5471C113.371 19.1199 113.366 17.6926 113.361 16.2654C113.358 15.4407 113.356 14.616 113.354 13.7913C113.353 12.8993 113.349 12.0073 113.346 11.1153C113.345 10.72 113.345 10.72 113.345 10.3167C113.344 10.0797 113.342 9.84273 113.341 9.59856C113.34 9.39238 113.34 9.18619 113.339 8.97375C113.361 8.51121 113.361 8.51121 113.08 8.28218C112.513 8.25967 111.951 8.25216 111.383 8.25415C111.202 8.25388 111.022 8.25362 110.835 8.25335C110.222 8.25274 109.608 8.25377 108.995 8.25478C108.554 8.25468 108.113 8.25448 107.672 8.25419C106.454 8.25368 105.235 8.2546 104.017 8.25574C102.706 8.25672 101.395 8.25639 100.083 8.25622C97.8092 8.2561 95.5351 8.25681 93.2611 8.25809C89.9731 8.25994 86.6852 8.26054 83.3973 8.26082C78.0635 8.26132 72.7296 8.26284 67.3958 8.26499C62.213 8.26709 57.0302 8.2687 51.8475 8.26967C51.5217 8.26973 51.196 8.26979 50.8703 8.26985C48.3485 8.27033 45.8267 8.27077 43.305 8.27121C30.9342 8.27336 18.5634 8.27795 6.19265 8.28218C6.11712 30.7656 6.04158 53.249 5.96377 76.4137C5.28399 76.4137 4.60421 76.4137 3.90383 76.4137C3.87239 67.7942 3.8482 59.1748 3.8337 50.5552C3.83198 49.5376 3.83021 48.5199 3.82839 47.5023C3.82803 47.2997 3.82767 47.0971 3.8273 46.8883C3.82132 43.6081 3.8105 40.3279 3.79788 37.0476C3.78503 33.6817 3.77741 30.3158 3.77462 26.9499C3.77273 24.873 3.76678 22.7961 3.75563 20.7192C3.74837 19.295 3.74618 17.8707 3.74796 16.4464C3.74884 15.6247 3.74749 14.8031 3.74013 13.9814C3.73219 13.0899 3.73493 12.1987 3.73868 11.3071C3.73468 11.0482 3.73068 10.7893 3.72656 10.5226C3.74293 9.08465 3.93436 8.1842 4.84841 7.05432C5.96865 6.09485 7.03253 5.90358 8.46928 5.91688Z" fill="white"/>
<path d="M38.5519 17.1118C38.7915 17.11 39.0311 17.1083 39.2779 17.1064C44.9791 17.1205 49.5868 19.5094 53.6375 23.3629C57.4742 27.38 59.0059 32.6415 58.8911 38.0682C58.7409 42.1688 57.3083 45.7774 54.9581 49.1214C54.4878 49.5255 54.4878 49.5255 53.811 49.6439C52.9528 49.498 52.6761 49.2419 52.0702 48.6283C50.947 47.5442 49.7661 46.7501 48.443 45.934C47.8502 45.424 47.8502 45.424 47.6222 44.7074C47.622 44.4927 47.6217 44.278 47.6214 44.0568C47.7724 43.9064 47.9235 43.756 48.0791 43.601C48.9762 43.6715 49.4407 43.9795 50.1391 44.5125C50.3656 44.5125 50.5922 44.5125 50.8257 44.5125C52.1862 42.1034 52.9864 39.5323 53.1145 36.7651C52.9711 36.7704 52.8277 36.7757 52.68 36.7811C52.4929 36.7852 52.3059 36.7894 52.1132 36.7936C51.9273 36.7989 51.7414 36.8042 51.5499 36.8096C51.0546 36.7651 51.0546 36.7651 50.5968 36.3094C50.724 35.2713 50.724 35.2713 51.0546 34.9422C51.6658 34.91 52.2732 34.9325 52.8856 34.9422C52.611 32.0982 51.034 29.3577 49.2235 27.1948C49.0583 27.3828 48.8931 27.5708 48.7228 27.7645C48.0791 28.3341 48.0791 28.3341 47.464 28.4338C46.9347 28.3341 46.9347 28.3341 46.4769 27.8784C46.544 27.0108 46.7586 26.6316 47.3925 26.0555C47.3925 25.9051 47.3925 25.7547 47.3925 25.5997C46.933 25.2586 46.933 25.2586 46.3482 24.9304C46.1544 24.8155 45.9605 24.7007 45.7608 24.5824C44.3831 23.849 43.0981 23.4191 41.5703 23.1644C41.4028 23.1349 41.2354 23.1054 41.0629 23.075C40.6554 23.0034 40.2474 22.9341 39.8394 22.8654C39.8488 23.1145 39.8582 23.3635 39.868 23.6202C39.8394 24.4604 39.8394 24.4604 39.3816 25.144C38.2658 24.9446 38.2658 24.9446 38.0083 24.6883C37.9919 24.3421 37.9891 23.9952 37.994 23.6487C37.9961 23.4604 37.9981 23.2721 38.0003 23.0781C38.0029 22.9327 38.0056 22.7873 38.0083 22.6375C35.1415 23.1938 32.6815 23.9703 30.2263 25.5997C30.4899 26.1621 30.695 26.5221 31.1419 26.9669C31.0147 28.005 31.0147 28.005 30.6841 28.3341C30.1691 28.4196 30.1691 28.4196 29.5397 28.3341C29.1475 27.9653 28.7648 27.5861 28.3953 27.1948C26.5652 29.6786 25.4912 31.9351 24.7332 34.9422C24.8766 34.9369 25.0199 34.9316 25.1677 34.9262C25.3547 34.9221 25.5418 34.9179 25.7345 34.9137C25.9204 34.9084 26.1063 34.9031 26.2978 34.8977C26.7931 34.9422 26.7931 34.9422 27.2509 35.3979C27.1237 36.436 27.1237 36.436 26.7931 36.7651C26.4072 36.7815 26.0206 36.7842 25.6344 36.7793C25.3188 36.7763 25.3188 36.7763 24.9969 36.7731C24.7531 36.7692 24.7531 36.7692 24.5043 36.7651C25.1292 41.0629 25.1292 41.0629 27.2509 44.7404C27.3532 44.6555 27.4556 44.5706 27.5611 44.4831C28.7018 43.5945 28.7018 43.5945 29.5111 43.6295C29.9974 43.8289 29.9974 43.8289 30.2263 44.0568C30.3139 44.5819 30.3139 44.5819 30.2263 45.1961C29.7382 45.6678 29.7382 45.6678 29.0533 46.136C28.8016 46.3111 28.5504 46.4867 28.2996 46.663C28.1664 46.7558 28.0333 46.8486 27.896 46.9442C27.4579 47.2628 27.0411 47.5991 26.6241 47.9447C26.483 48.0607 26.3418 48.1767 26.1964 48.2962C25.9211 48.5238 25.6476 48.7538 25.3763 48.9862C24.7932 49.4609 24.4243 49.75 23.6576 49.7676C21.594 48.8189 20.4943 45.2343 19.6897 43.2423C19.5158 42.7576 19.3706 42.2761 19.24 41.7781C19.1934 41.6089 19.1468 41.4397 19.0987 41.2654C17.9638 36.3127 18.9554 31.0518 21.494 26.6972C24.4812 22.0559 29.0395 18.5957 34.4875 17.3699C35.8431 17.1135 37.1757 17.1017 38.5519 17.1118Z" fill="#A9023A"/>
<path d="M49.4559 90.541C56.2537 90.541 63.0515 90.541 70.0553 90.541C70.6966 92.8393 71.3212 95.1137 71.8908 97.4259C72.1769 98.5254 72.5125 99.6056 72.8627 100.686C73.0308 101.251 73.0308 101.251 73.0308 101.706C64.2692 101.706 55.5076 101.706 46.4805 101.706C46.8444 100.378 47.2084 99.0525 47.588 97.729C48.1022 95.9269 48.5506 94.1199 48.9396 92.2869C49.2058 91.0391 49.2058 91.0391 49.4559 90.541Z" fill="#FCFBFC"/>
<path d="M90.4212 18.9922C91.3907 18.9809 92.3602 18.9726 93.3297 18.9671C93.6596 18.9648 93.9895 18.9617 94.3194 18.9578C94.7933 18.9523 95.267 18.9497 95.7409 18.9477C96.1688 18.9441 96.1688 18.9441 96.6054 18.9404C97.2876 18.9922 97.2876 18.9922 97.7454 19.4479C97.803 19.9653 97.803 19.9653 97.8035 20.6242C97.8048 20.8734 97.8061 21.1226 97.8075 21.3794C97.8065 21.654 97.8056 21.9287 97.8046 22.2116C97.8054 22.4999 97.8062 22.7882 97.8071 23.0852C97.8092 23.877 97.8083 24.6689 97.8069 25.4607C97.8057 26.2883 97.8068 27.1159 97.8075 27.9435C97.8084 29.3334 97.8073 30.7234 97.8051 32.1133C97.8026 33.7217 97.8034 35.33 97.8059 36.9384C97.808 38.3178 97.8083 39.6972 97.8071 41.0765C97.8064 41.9011 97.8063 42.7256 97.8078 43.5501C97.8094 44.4689 97.8072 45.3877 97.8046 46.3065C97.8056 46.5812 97.8065 46.8558 97.8075 47.1388C97.8055 47.5126 97.8055 47.5126 97.8035 47.894C97.8034 48.1114 97.8032 48.3288 97.803 48.5529C97.7454 49.0703 97.7454 49.0703 97.2876 49.526C96.6336 49.585 96.6336 49.585 95.8071 49.5865C95.5111 49.5871 95.2152 49.5877 94.9103 49.5883C94.7559 49.5874 94.6015 49.5864 94.4424 49.5854C93.9707 49.583 93.4991 49.5854 93.0274 49.5883C92.7315 49.5877 92.4355 49.5872 92.1307 49.5865C91.8579 49.586 91.5851 49.5855 91.3041 49.585C90.6501 49.526 90.6501 49.526 90.1923 49.0703C90.1353 48.5529 90.1353 48.5529 90.1357 47.894C90.1348 47.6448 90.1338 47.3955 90.1328 47.1388C90.1341 46.8641 90.1354 46.5895 90.1367 46.3065C90.1363 46.0183 90.1358 45.73 90.1354 45.433C90.1343 44.6412 90.136 43.8493 90.1384 43.0575C90.1404 42.2299 90.14 41.4023 90.1399 40.5747C90.1401 39.1848 90.1421 37.7948 90.1452 36.4049C90.1488 34.7965 90.15 33.1882 90.1498 31.5798C90.1497 30.0344 90.1509 28.489 90.1528 26.9436C90.1536 26.2851 90.154 25.6266 90.1541 24.9681C90.1544 24.0493 90.1566 23.1305 90.1591 22.2116C90.159 21.937 90.1589 21.6624 90.1587 21.3794C90.1597 21.1302 90.1607 20.881 90.1617 20.6242C90.1621 20.4068 90.1625 20.1893 90.1629 19.9653C90.1923 19.4479 90.1923 19.4479 90.4212 18.9922Z" fill="#A9023A"/>
<path d="M82.4843 27.3483C82.7153 27.3491 82.7153 27.3491 82.9509 27.3498C83.4201 27.3505 83.8891 27.3452 84.3583 27.3394C84.6535 27.3393 84.9487 27.3391 85.2528 27.339C85.5244 27.3383 85.796 27.3376 86.0758 27.3369C86.8383 27.4321 86.9834 27.5201 87.4424 28.1053C87.5102 28.778 87.5362 29.4026 87.5312 30.0756C87.5324 30.2768 87.5336 30.4781 87.5349 30.6854C87.5379 31.3517 87.5359 32.0178 87.5336 32.684C87.534 33.1463 87.5347 33.6086 87.5356 34.0709C87.5366 35.0401 87.5351 36.0093 87.5319 36.9786C87.528 38.2223 87.5303 39.4658 87.5344 40.7095C87.5368 41.6642 87.5361 42.6189 87.5343 43.5736C87.5338 44.0322 87.5344 44.4909 87.536 44.9495C87.5377 45.59 87.5351 46.2303 87.5312 46.8708C87.5333 47.1563 87.5333 47.1563 87.5355 47.4477C87.5211 48.7407 87.5211 48.7407 87.1361 49.2316C86.538 49.6924 85.997 49.6093 85.2528 49.6074C84.81 49.6072 84.81 49.6072 84.3583 49.607C84.2048 49.6051 84.0513 49.6032 83.8932 49.6012C83.4235 49.5958 82.9541 49.5965 82.4843 49.598C80.1793 49.5854 80.1793 49.5854 79.6604 49.0689C79.6149 48.3986 79.598 47.7497 79.6012 47.0791C79.6 46.77 79.6 46.77 79.5987 46.4548C79.5967 45.7714 79.5981 45.0881 79.5996 44.4048C79.5993 43.9314 79.5989 43.458 79.5983 42.9847C79.5976 41.9916 79.5986 40.9986 79.6007 40.0056C79.6033 38.7305 79.6018 37.4554 79.5991 36.1803C79.5974 35.2026 79.598 34.2248 79.5992 33.2471C79.5995 32.7768 79.5991 32.3066 79.598 31.8363C79.5969 31.1799 79.5986 30.5236 79.6012 29.8673C79.6003 29.6715 79.5993 29.4757 79.5984 29.274C79.6142 27.0922 80.5775 27.3588 82.4843 27.3483Z" fill="#A9023A"/>
<path d="M50.5997 22.9632C54.1078 25.9335 56.6628 30.2137 57.0514 34.8328C57.273 39.1069 56.7362 43.8908 53.7987 47.2459C53.1314 47.0011 52.705 46.8407 52.1965 46.3344C52.2884 45.5958 52.6245 44.9933 52.969 44.3406C54.9426 40.4562 55.3931 35.9254 54.0275 31.7511C52.1966 27.1234 49.0936 24.178 44.5991 22.1311C41.416 20.759 36.6539 20.6469 33.3978 21.8808C33.1812 21.9798 32.9647 22.0788 32.7415 22.1808C32.4967 22.2915 32.2518 22.4022 31.9995 22.5163C27.9122 24.5413 25.159 27.7184 23.5863 31.9789C22.3335 36.1789 22.7838 40.3599 24.7307 44.2836C24.9132 44.5895 25.0987 44.8937 25.2886 45.1951C25.6462 45.8787 25.6462 45.8787 25.5461 46.3914C25.1029 46.8856 24.6303 47.1665 24.044 47.4737C21.1571 43.5626 20.0807 38.7808 20.6722 33.9883C21.5543 28.7662 24.7122 24.5828 28.9471 21.5568C35.6487 17.2246 44.4628 18.0454 50.5997 22.9632Z" fill="#F9F7F8"/>
<path d="M23.8903 62.2267C24.2799 62.2247 24.2799 62.2247 24.6774 62.2227C24.9652 62.2235 25.253 62.2244 25.5495 62.2253C25.8564 62.2246 26.1633 62.2237 26.4702 62.2227C27.3164 62.2203 28.1626 62.2208 29.0088 62.2218C29.9203 62.2223 30.8318 62.2203 31.7433 62.2186C33.53 62.2157 35.3167 62.2153 37.1034 62.2158C38.555 62.2162 40.0066 62.2158 41.4581 62.2148C41.6644 62.2147 41.8706 62.2146 42.0831 62.2144C42.5021 62.2142 42.921 62.2139 43.34 62.2136C47.2724 62.2111 51.2048 62.2116 55.1373 62.213C58.7387 62.2142 62.3401 62.2116 65.9415 62.2073C69.6354 62.2029 73.3293 62.201 77.0232 62.2018C79.0987 62.2023 81.1742 62.2017 83.2496 62.1985C85.0163 62.1958 86.783 62.1954 88.5497 62.1982C89.4518 62.1996 90.3539 62.1998 91.256 62.1971C92.0808 62.1946 92.9055 62.1953 93.7303 62.1985C94.1723 62.1994 94.6143 62.1969 95.0563 62.1943C95.4459 62.1968 95.4459 62.1968 95.8434 62.1993C96.0689 62.1993 96.2945 62.1993 96.5268 62.1993C96.7028 62.2275 96.8788 62.2557 97.0601 62.2847C97.5179 62.9683 97.5179 62.9683 97.4464 63.4525C97.289 63.8798 97.289 63.8798 97.0601 64.1076C96.6631 64.13 96.265 64.1362 95.8673 64.1363C95.6071 64.1369 95.3469 64.1375 95.0787 64.1381C94.7892 64.1376 94.4997 64.1371 94.2015 64.1366C93.8937 64.1368 93.5859 64.1372 93.278 64.1376C92.4283 64.1386 91.5785 64.1381 90.7287 64.1374C89.8138 64.1369 88.8989 64.1377 87.984 64.1383C86.1901 64.1393 84.3962 64.1391 82.6024 64.1384C81.1451 64.1379 79.6879 64.1379 78.2307 64.1381C77.9202 64.1382 77.9202 64.1382 77.6034 64.1382C77.183 64.1383 76.7626 64.1384 76.3422 64.1384C72.395 64.1391 68.4478 64.1383 64.5007 64.1371C61.1099 64.1361 57.7192 64.1363 54.3285 64.1373C50.396 64.1385 46.4635 64.139 42.5309 64.1383C42.112 64.1383 41.6931 64.1382 41.2741 64.1381C41.068 64.1381 40.8619 64.138 40.6495 64.138C39.1931 64.1378 37.7367 64.1381 36.2803 64.1387C34.5068 64.1393 32.7332 64.1391 30.9597 64.1379C30.0539 64.1373 29.1481 64.1371 28.2423 64.1378C27.4144 64.1385 26.5866 64.1382 25.7587 64.1369C25.3145 64.1366 24.8703 64.1373 24.4261 64.1381C24.0357 64.1372 24.0357 64.1372 23.6375 64.1363C23.411 64.1363 23.1846 64.1362 22.9513 64.1362C22.4447 64.1076 22.4447 64.1076 22.2158 63.8798C22.1729 63.3243 22.1729 63.3243 22.2158 62.7404C22.8127 62.1462 23.0586 62.2274 23.8903 62.2267Z" fill="#A9023A"/>
<path d="M23.8576 57.015C24.2454 57.0139 24.2454 57.0139 24.641 57.0127C24.9285 57.0131 25.2161 57.0134 25.5124 57.0138C25.8181 57.0134 26.1239 57.0128 26.4296 57.0122C27.2738 57.0108 28.1179 57.0109 28.962 57.0111C29.8708 57.0112 30.7796 57.0099 31.6885 57.0088C33.4705 57.0069 35.2525 57.0063 37.0345 57.0062C38.4823 57.0061 39.93 57.0056 41.3777 57.0049C45.4778 57.0029 49.5778 57.0018 53.6778 57.002C53.8991 57.002 54.1204 57.002 54.3483 57.002C54.6806 57.0021 54.6806 57.0021 55.0196 57.0021C58.6114 57.0022 62.2032 57 65.7951 56.9968C69.4786 56.9935 73.1622 56.9919 76.8457 56.9921C78.9156 56.9922 80.9854 56.9916 83.0552 56.9891C84.8173 56.987 86.5794 56.9865 88.3415 56.9881C89.2413 56.9888 90.1411 56.9888 91.0409 56.9869C91.8635 56.9851 92.6862 56.9854 93.5088 56.9874C93.9497 56.9879 94.3905 56.9862 94.8314 56.9844C95.0905 56.9854 95.3496 56.9865 95.6165 56.9876C95.954 56.9875 95.954 56.9875 96.2982 56.9874C96.8303 57.0443 96.8303 57.0443 97.2881 57.5C97.331 58.0839 97.331 58.0839 97.2881 58.6393C96.8991 59.0266 96.4031 58.8961 95.8706 58.8965C95.6113 58.8972 95.352 58.898 95.0849 58.8987C94.7964 58.8984 94.508 58.898 94.2108 58.8976C93.9041 58.8981 93.5974 58.8986 93.2907 58.8992C92.4439 58.9006 91.5972 58.9006 90.7505 58.9003C89.8389 58.9003 88.9272 58.9015 88.0156 58.9026C86.2281 58.9045 84.4405 58.9051 82.653 58.9052C81.2008 58.9054 79.7486 58.9058 78.2964 58.9065C74.1837 58.9086 70.071 58.9096 65.9583 58.9094C65.7363 58.9094 65.5144 58.9094 65.2857 58.9094C65.0635 58.9094 64.8413 58.9094 64.6123 58.9094C61.0094 58.9093 57.4065 58.9115 53.8036 58.9147C50.1087 58.9179 46.4138 58.9195 42.7188 58.9193C40.6426 58.9193 38.5663 58.9199 36.4901 58.9223C34.7226 58.9244 32.9551 58.9249 31.1875 58.9234C30.285 58.9226 29.3824 58.9226 28.4798 58.9246C27.6546 58.9264 26.8294 58.9261 26.0042 58.9241C25.562 58.9235 25.1198 58.9253 24.6776 58.9271C24.4177 58.926 24.1578 58.925 23.89 58.9239C23.6643 58.9239 23.4387 58.924 23.2062 58.924C22.6726 58.8672 22.6726 58.8672 22.2148 58.4115C22.3763 57.0937 22.5688 57.0159 23.8576 57.015Z" fill="#A9023A"/>
<path d="M92.0195 20.8145C93.3036 20.8145 94.5876 20.8145 95.9105 20.8145C95.9105 29.6875 95.9105 38.5605 95.9105 47.7025C94.6265 47.7025 93.3425 47.7025 92.0195 47.7025C92.0195 38.8294 92.0195 29.9564 92.0195 20.8145Z" fill="#FEFEFE"/>
<path d="M71.1262 36.0202C71.2769 36.0198 71.4276 36.0194 71.5828 36.0189C71.9014 36.0186 72.22 36.0194 72.5386 36.0213C73.0269 36.0238 73.5151 36.0214 74.0034 36.0185C74.3127 36.0188 74.622 36.0193 74.9314 36.0202C75.3549 36.021 75.3549 36.021 75.787 36.0218C76.462 36.0808 76.462 36.0808 76.9198 36.5365C76.9779 37.064 76.9779 37.064 76.979 37.7314C76.9805 37.9808 76.9819 38.2303 76.9834 38.4872C76.9825 38.7576 76.9816 39.0279 76.9806 39.3065C76.9813 39.7211 76.9813 39.7211 76.9819 40.1442C76.9822 40.7296 76.9814 41.3149 76.9795 41.9003C76.977 42.799 76.9795 43.6976 76.9824 44.5963C76.9821 45.1639 76.9815 45.7315 76.9806 46.2991C76.9815 46.5694 76.9825 46.8398 76.9834 47.1183C76.982 47.3677 76.9805 47.6171 76.979 47.8741C76.9787 48.0943 76.9783 48.3146 76.9779 48.5415C76.9198 49.069 76.9198 49.069 76.462 49.5248C75.787 49.5837 75.787 49.5837 74.9314 49.5853C74.7807 49.5857 74.63 49.5862 74.4748 49.5866C74.1562 49.5869 73.8376 49.5861 73.519 49.5842C73.0307 49.5817 72.5426 49.5842 72.0543 49.5871C71.7449 49.5868 71.4356 49.5862 71.1262 49.5853C70.8439 49.5848 70.5615 49.5843 70.2706 49.5837C69.5956 49.5248 69.5956 49.5248 69.1378 49.069C69.0797 48.5415 69.0797 48.5415 69.0786 47.8741C69.0771 47.6247 69.0757 47.3753 69.0742 47.1183C69.0751 46.848 69.0761 46.5776 69.077 46.2991C69.0766 46.0226 69.0762 45.7462 69.0757 45.4613C69.0754 44.876 69.0762 44.2906 69.0781 43.7052C69.0806 42.8065 69.0782 41.9079 69.0752 41.0092C69.0755 40.4416 69.0761 39.8741 69.077 39.3065C69.0756 38.9009 69.0756 38.9009 69.0742 38.4872C69.0757 38.2378 69.0771 37.9884 69.0786 37.7314C69.079 37.5112 69.0793 37.2909 69.0797 37.064C69.2145 35.8405 70.1091 36.0221 71.1262 36.0202Z" fill="#A9023A"/>
<path d="M41.8511 103.213C42.0896 103.212 42.0896 103.212 42.3329 103.21C42.867 103.207 43.4009 103.21 43.9349 103.212C44.3172 103.211 44.6995 103.21 45.0819 103.208C46.1213 103.205 47.1607 103.206 48.2001 103.208C49.2866 103.21 50.3732 103.208 51.4597 103.207C53.2846 103.206 55.1094 103.208 56.9342 103.211C59.0455 103.215 61.1568 103.214 63.2681 103.21C65.0791 103.207 66.8902 103.206 68.7012 103.208C69.7836 103.209 70.866 103.209 71.9484 103.207C72.9659 103.205 73.9833 103.206 75.0008 103.21C75.3747 103.211 75.7487 103.211 76.1227 103.209C76.6321 103.208 77.1414 103.21 77.6508 103.213C77.9362 103.214 78.2216 103.214 78.5157 103.214C79.2059 103.3 79.2059 103.3 79.6465 103.562C79.8926 103.984 79.8926 103.984 79.8926 105.351C66.5991 105.351 53.3057 105.351 39.6094 105.351C39.6094 103.984 39.6094 103.984 39.8555 103.562C40.5216 103.166 41.0793 103.214 41.8511 103.213Z" fill="#F4EBED"/>
<path d="M23.8437 67.4639C24.0075 67.4648 24.1714 67.4656 24.3402 67.4665C24.6008 67.4652 24.6008 67.4652 24.8667 67.4639C25.452 67.4615 26.0373 67.4624 26.6226 67.4633C27.041 67.4623 27.4593 67.4612 27.8777 67.4598C29.0164 67.4567 30.1552 67.4566 31.2939 67.4572C32.2432 67.4574 33.1926 67.4563 34.142 67.4552C36.381 67.4527 38.62 67.4526 40.8591 67.454C43.1718 67.4554 45.4844 67.4526 47.7971 67.4477C49.7802 67.4437 51.7632 67.4423 53.7463 67.4431C54.9318 67.4435 56.1173 67.4429 57.3028 67.4397C58.4174 67.4368 59.5319 67.4373 60.6465 67.4403C61.0563 67.4408 61.4661 67.4402 61.8758 67.4383C62.4339 67.4359 62.9918 67.4377 63.5499 67.4406C63.7132 67.439 63.8765 67.4373 64.0448 67.4355C64.7102 67.4429 65.1453 67.4557 65.6984 67.8428C65.9322 68.2095 65.9322 68.2095 65.875 68.6937C65.7033 69.121 65.7033 69.121 65.4744 69.3488C64.9191 69.3716 64.3703 69.3795 63.8149 69.3778C63.5513 69.3783 63.5513 69.3783 63.2823 69.3788C62.6889 69.3798 62.0955 69.379 61.5021 69.3783C61.0785 69.3786 60.6549 69.379 60.2313 69.3795C59.0775 69.3806 57.9236 69.3802 56.7698 69.3794C55.5651 69.3789 54.3605 69.3794 53.1558 69.3798C51.1323 69.3802 49.1089 69.3796 47.0854 69.3785C44.7425 69.3773 42.3995 69.3777 40.0565 69.379C38.0488 69.38 36.0411 69.3801 34.0333 69.3795C32.8325 69.3792 31.6316 69.3791 30.4308 69.3799C29.3021 69.3805 28.1735 69.3801 27.0448 69.3788C26.6293 69.3785 26.2138 69.3786 25.7983 69.3791C25.2336 69.3797 24.6689 69.3789 24.1042 69.3778C23.8543 69.3785 23.8543 69.3785 23.5994 69.3793C22.4708 69.3748 22.4708 69.3748 22.2158 69.121C22.1729 68.5655 22.1729 68.5655 22.2158 67.9816C22.7755 67.4244 23.0798 67.4707 23.8437 67.4639Z" fill="#A9023A"/>
<path d="M81.4961 29.2451C82.8557 29.2451 84.2152 29.2451 85.616 29.2451C85.616 35.3359 85.616 41.4268 85.616 47.7021C84.2564 47.7021 82.8969 47.7021 81.4961 47.7021C81.4961 41.6113 81.4961 35.5205 81.4961 29.2451Z" fill="#FCFAFA"/>
<path d="M44.873 29.7003C44.9863 29.8131 44.9863 29.8131 45.1019 29.9282C45.0212 31.2473 44.5968 32.1486 43.9575 33.2892C43.2562 34.5996 42.8937 35.6249 42.8551 37.1282C42.7849 38.0423 42.4468 38.7694 41.8976 39.4985C40.7311 40.4227 39.7768 40.7238 38.315 40.7001C37.0764 40.5565 36.388 39.9867 35.6176 39.0428C35.0491 37.8884 35.0098 36.6425 35.26 35.3969C35.8619 34.36 36.6471 33.5594 37.7777 33.1183C38.0921 33.1031 38.4071 33.0988 38.7218 33.104C40.2365 32.9724 41.105 31.8635 42.1264 30.8396C43.0079 29.9855 43.5817 29.5209 44.873 29.7003Z" fill="#A9023A"/>
<path d="M6.42188 7.82673C16.6308 7.82283 26.8398 7.8192 37.0487 7.81708C37.1997 7.81705 37.3507 7.81702 37.5062 7.81698C40.7869 7.8163 44.0676 7.81567 47.3483 7.81509C48.957 7.81481 50.5658 7.81451 52.1745 7.81421C52.3346 7.81418 52.4947 7.81415 52.6596 7.81412C57.8534 7.81315 63.0471 7.81144 68.2409 7.80934C73.727 7.80713 79.213 7.80577 84.6991 7.80529C87.9876 7.80497 91.276 7.80398 94.5644 7.80214C96.8161 7.80094 99.0678 7.80057 101.319 7.80086C102.621 7.80101 103.922 7.80078 105.223 7.79956C106.412 7.79846 107.601 7.79839 108.791 7.79918C109.223 7.79928 109.655 7.79898 110.087 7.79827C110.671 7.79737 111.254 7.79784 111.838 7.79869C112.094 7.79779 112.094 7.79779 112.356 7.79688C113.512 7.80072 113.512 7.80072 113.767 8.05459C113.79 8.41806 113.796 8.78252 113.796 9.14667C113.796 9.38445 113.797 9.62223 113.797 9.86722C113.796 10.1317 113.796 10.3961 113.795 10.6685C113.795 11.0861 113.795 11.0861 113.796 11.5122C113.796 12.2885 113.795 13.0648 113.794 13.8411C113.793 14.6769 113.793 15.5127 113.794 16.3485C113.794 17.7978 113.793 19.2471 113.792 20.6964C113.79 22.7918 113.789 24.8872 113.789 26.9827C113.788 30.382 113.787 33.7814 113.785 37.1807C113.783 40.4837 113.781 43.7867 113.78 47.0897C113.78 47.3949 113.78 47.3949 113.78 47.7062C113.78 48.7268 113.779 49.7474 113.779 50.768C113.777 59.2407 113.773 67.7134 113.767 76.1861C114.296 76.1861 114.825 76.1861 115.37 76.1861C115.37 53.9283 115.37 31.6705 115.37 8.73819C115.445 8.73819 115.521 8.73819 115.599 8.73819C115.599 31.0712 115.599 53.4042 115.599 76.414C114.919 76.414 114.239 76.414 113.539 76.414C113.538 76.2704 113.538 76.1268 113.537 75.9788C113.514 67.4772 113.489 58.9756 113.463 50.474C113.46 49.4543 113.456 48.4346 113.453 47.4149C113.453 47.2119 113.452 47.0089 113.451 46.7997C113.441 43.5081 113.432 40.2165 113.423 36.9248C113.414 33.5499 113.404 30.175 113.393 26.8001C113.386 24.7158 113.38 22.6316 113.375 20.5474C113.371 19.1201 113.367 17.6929 113.362 16.2657C113.359 15.441 113.356 14.6163 113.355 13.7916C113.353 12.8996 113.35 12.0076 113.346 11.1156C113.346 10.7203 113.346 10.7203 113.345 10.317C113.344 10.08 113.343 9.84301 113.341 9.59884C113.341 9.39265 113.34 9.18646 113.34 8.97402C113.361 8.51148 113.361 8.51148 113.081 8.28246C112.514 8.25878 111.954 8.25008 111.387 8.25086C111.207 8.25021 111.026 8.24956 110.84 8.2489C110.228 8.24698 109.616 8.2467 109.004 8.2464C108.564 8.24536 108.124 8.24423 107.684 8.24299C106.468 8.23989 105.253 8.23821 104.037 8.23674C102.728 8.23493 101.42 8.2318 100.111 8.22884C97.8422 8.22387 95.573 8.21974 93.3038 8.21616C90.0229 8.211 86.742 8.20459 83.4612 8.19786C78.1388 8.18699 72.8163 8.17713 67.4939 8.16791C62.3223 8.15895 57.1506 8.14951 51.9789 8.13943C51.8196 8.13912 51.6603 8.13881 51.4961 8.13849C49.8962 8.13537 48.2962 8.13224 46.6963 8.12911C33.2715 8.1028 19.8467 8.07813 6.42188 8.05459C6.42188 7.9794 6.42188 7.9042 6.42188 7.82673Z" fill="#DFBCC3"/>
<path d="M61.3974 80.2148C62.4342 80.7789 63.0376 81.439 63.4145 82.5647C63.5474 83.9148 63.3072 84.9022 62.4989 85.9826C61.6947 86.716 60.8506 87.1826 59.7524 87.2644C58.6534 87.1825 57.8112 86.7153 57.0058 85.9826C56.2857 85.0382 55.9062 83.9879 55.9722 82.797C56.2819 81.5894 57.1282 80.7412 58.1359 80.0582C59.3395 79.6669 60.2515 79.6941 61.3974 80.2148Z" fill="#A9023A"/>
<path d="M70.9648 37.9043C72.3244 37.9043 73.684 37.9043 75.0847 37.9043C75.0847 41.1377 75.0847 44.3711 75.0847 47.7025C73.7252 47.7025 72.3656 47.7025 70.9648 47.7025C70.9648 44.4691 70.9648 41.2357 70.9648 37.9043Z" fill="#FBFAFB"/>
<path d="M39.6099 34.9408C40.2679 35.2826 40.2679 35.2826 40.7543 35.8522C40.9368 36.9971 40.9428 37.4102 40.2679 38.3587C39.6099 38.8145 39.6099 38.8145 38.9232 38.9569C38.0207 38.7697 37.6813 38.3622 37.0922 37.6751C37.0166 37.6 36.9411 37.5248 36.8633 37.4473C36.8989 36.5081 36.9534 36.0062 37.5928 35.2968C38.3611 34.8719 38.7442 34.7971 39.6099 34.9408Z" fill="#F7F5F7"/>
<path d="M59.7469 81.5117C60.6795 81.7051 61.0159 82.0363 61.578 82.7935C61.7353 83.4771 61.7353 83.4771 61.578 84.1606C60.9596 84.8192 60.5058 85.2268 59.6182 85.4424C58.7795 85.2283 58.4343 84.839 57.9159 84.1606C57.7728 83.4771 57.7728 83.4771 57.9159 82.7935C58.478 82.0363 58.8144 81.7051 59.7469 81.5117Z" fill="#F7F2F5"/>
<path d="M112.852 7.82617C113.154 7.90137 113.456 7.97656 113.767 8.05404C113.767 14.596 113.767 21.138 113.767 27.8783C113.692 27.8783 113.616 27.8783 113.538 27.8783C113.536 27.6371 113.535 27.396 113.533 27.1476C113.515 24.8776 113.495 22.6076 113.472 20.3377C113.461 19.1706 113.45 18.0035 113.442 16.8364C113.433 15.7106 113.423 14.5848 113.41 13.459C113.406 13.029 113.403 12.599 113.4 12.169C113.396 11.5677 113.39 10.9666 113.382 10.3653C113.382 10.1867 113.381 10.008 113.381 9.82397C113.367 8.96188 113.344 8.56113 112.852 7.82617Z" fill="#E3CFD5"/>
<path d="M60.4348 79.8318C60.5103 79.9822 60.5859 80.1326 60.6637 80.2875C60.5309 80.2934 60.3982 80.2993 60.2614 80.3053C58.9766 80.3982 58.2401 80.6279 57.2305 81.4269C57.2305 81.2013 57.2305 80.9757 57.2305 80.7433C58.3692 80.0029 59.0346 79.718 60.4348 79.8318Z" fill="#B54F64"/>
<path d="M25.8732 21.9531C25.4953 22.9312 24.7888 23.5207 24.0421 24.2318C23.8155 24.1566 23.5889 24.0814 23.3555 24.0039C23.6878 23.6608 24.022 23.3193 24.3568 22.9785C24.6356 22.693 24.6356 22.693 24.9201 22.4017C25.4154 21.9531 25.4154 21.9531 25.8732 21.9531Z" fill="#B24E5F"/>
<path d="M48.0789 43.6006C48.381 43.6006 48.6831 43.6006 48.9944 43.6006C48.9944 43.751 48.9944 43.9014 48.9944 44.0563C48.5454 44.3729 48.0876 44.6775 47.6211 44.9678C47.8214 43.8569 47.8214 43.8569 48.0789 43.6006Z" fill="#BB5B70"/>
<path d="M112.852 7.82617C113.154 7.90137 113.456 7.97656 113.767 8.05404C113.767 8.95638 113.767 9.85872 113.767 10.7884C113.692 10.7884 113.616 10.7884 113.538 10.7884C113.521 10.5536 113.521 10.5536 113.504 10.314C113.487 10.1087 113.47 9.90335 113.452 9.69181C113.436 9.48826 113.421 9.2847 113.404 9.07498C113.34 8.45417 113.34 8.45417 112.852 7.82617Z" fill="#E6D9E0"/>
</svg>
