<svg width="64" height="64" viewBox="0 0 64 64" fill="none" xmlns="http://www.w3.org/2000/svg">
<rect width="64" height="64" rx="32" fill="#A9023A"/>
<path d="M51.422 20.291C51.214 19.7822 50.8161 19.3779 50.3153 19.1666C50.0689 19.0599 49.8043 19.0033 49.5365 19H39.2895C38.746 19 38.2247 19.2194 37.8404 19.6099C37.456 20.0004 37.2401 20.5301 37.2401 21.0823C37.2401 21.6346 37.456 22.1642 37.8404 22.5548C38.2247 22.9453 38.746 23.1647 39.2895 23.1647H44.5975L33.1413 34.8049L26.3987 27.9332C26.2082 27.738 25.9816 27.5831 25.7318 27.4774C25.4821 27.3717 25.2142 27.3172 24.9437 27.3172C24.6731 27.3172 24.4052 27.3717 24.1555 27.4774C23.9058 27.5831 23.6791 27.738 23.4886 27.9332L11.1921 40.4271C11.0001 40.6207 10.8476 40.851 10.7436 41.1048C10.6395 41.3585 10.5859 41.6307 10.5859 41.9056C10.5859 42.1805 10.6395 42.4527 10.7436 42.7064C10.8476 42.9602 11.0001 43.1905 11.1921 43.384C11.3827 43.5792 11.6093 43.7341 11.8591 43.8399C12.1088 43.9456 12.3767 44 12.6472 44C12.9178 44 13.1856 43.9456 13.4354 43.8399C13.6851 43.7341 13.9118 43.5792 14.1023 43.384L24.9437 32.3477L31.6862 39.2194C31.8767 39.4146 32.1034 39.5695 32.3531 39.6752C32.6029 39.7809 32.8707 39.8353 33.1413 39.8353C33.4118 39.8353 33.6797 39.7809 33.9294 39.6752C34.1792 39.5695 34.4058 39.4146 34.5964 39.2194L47.4871 26.1007V31.494C47.4871 32.0462 47.703 32.5759 48.0874 32.9664C48.4717 33.3569 48.993 33.5763 49.5365 33.5763C50.0801 33.5763 50.6013 33.3569 50.9857 32.9664C51.37 32.5759 51.5859 32.0462 51.5859 31.494V21.0823C51.5827 20.8102 51.527 20.5414 51.422 20.291Z" fill="white"/>
</svg>
