<svg width="76" height="121" viewBox="0 0 76 121" fill="none" xmlns="http://www.w3.org/2000/svg">
<rect x="4.13281" y="1.41992" width="67.5547" height="118" rx="6" fill="white" stroke="#A9023A" stroke-width="2"/>
<rect x="13.1641" y="18.938" width="49.4885" height="83.8394" rx="1" stroke="#A9023A" stroke-width="2"/>
<path d="M48.2969 11.8066L29.3267 11.8066" stroke="#A9023A" stroke-width="2" stroke-linecap="round"/>
<path d="M44.6836 109.91H30.2307" stroke="#A9023A" stroke-width="2" stroke-linecap="round"/>
<rect x="27.7461" y="46.1567" width="19.3794" height="27.7876" stroke="#A9023A"/>
<rect x="33.1641" y="65.9663" width="8.54837" height="2.56283" rx="1.28141" stroke="#A9023A"/>
<circle cx="37.4339" cy="77.366" r="0.996387" stroke="#A9023A"/>
<line x1="30.3135" y1="50.8614" x2="43.9923" y2="50.9955" stroke="#A9023A" stroke-linecap="round"/>
<line x1="30.3135" y1="50.8614" x2="43.9923" y2="50.9955" stroke="#A9023A" stroke-linecap="round"/>
<line x1="30.3135" y1="50.8614" x2="43.9923" y2="50.9955" stroke="#A9023A" stroke-linecap="round"/>
<line x1="30.4619" y1="53.9971" x2="44.1408" y2="54.1312" stroke="#A9023A" stroke-linecap="round"/>
<line x1="30.4619" y1="53.9971" x2="44.1408" y2="54.1312" stroke="#A9023A" stroke-linecap="round"/>
<line x1="30.4619" y1="53.9971" x2="44.1408" y2="54.1312" stroke="#A9023A" stroke-linecap="round"/>
<line x1="33.3006" y1="59.6855" x2="41.279" y2="59.5588" stroke="#A9023A" stroke-linecap="round"/>
<line x1="33.3006" y1="59.6855" x2="41.279" y2="59.5588" stroke="#A9023A" stroke-linecap="round"/>
<line x1="33.3006" y1="59.6855" x2="41.279" y2="59.5588" stroke="#A9023A" stroke-linecap="round"/>
<line x1="36.8672" y1="82.4951" x2="37.7199" y2="82.4951" stroke="#A9023A" stroke-linecap="round"/>
<line x1="36.8672" y1="82.4951" x2="37.7199" y2="82.4951" stroke="#A9023A" stroke-linecap="round"/>
<line x1="36.8672" y1="82.4951" x2="37.7199" y2="82.4951" stroke="#A9023A" stroke-linecap="round"/>
<path d="M37.5107 42.8789C44.3086 42.8789 47.5349 43.2721 49.0488 43.6484C49.729 43.8175 50.0148 43.9734 50.1221 44.0518V77.4443C50.1189 77.4567 50.1056 77.5012 50.0566 77.5703C49.9495 77.7211 49.6596 78.0086 48.9072 78.3203C47.3907 78.9487 44.1597 79.6088 37.3701 79.5732C30.5798 79.5377 27.3451 78.8781 25.8242 78.2646C25.0678 77.9596 24.778 77.6828 24.6729 77.541C24.633 77.4873 24.619 77.4516 24.6143 77.4375V44.0879C24.7383 43.9998 25.0624 43.8306 25.8242 43.6494C27.4129 43.2716 30.7144 42.8789 37.5107 42.8789ZM50.126 77.5L50.125 77.498C50.1248 77.4965 50.1252 77.4946 50.125 77.4932L50.124 77.4844L50.126 77.5Z" stroke="#A9023A"/>
<path d="M41.499 79.8569V83.6313C41.4989 84.2427 41.2501 84.5551 40.9473 84.73C40.6093 84.9251 40.1434 84.9786 39.7178 84.9185C39.423 84.8768 39.3398 84.751 39.0381 84.4419C38.8913 84.2915 38.6986 84.1139 38.4209 83.981C38.1417 83.8474 37.8091 83.774 37.3926 83.7739C36.9659 83.7739 36.6282 83.8597 36.3496 84.0142C36.0769 84.1654 35.8953 84.3641 35.7637 84.5161C35.6177 84.6848 35.5534 84.7663 35.4658 84.8296C35.4052 84.8733 35.3235 84.9136 35.1582 84.9136C34.6416 84.9136 34.192 84.859 33.873 84.7104C33.593 84.5799 33.4147 84.3826 33.375 84.0063C33.3178 83.4635 33.2876 82.3126 33.2725 81.2729C33.265 80.7585 33.2616 80.2789 33.2598 79.9282C33.2596 79.9038 33.2599 79.8801 33.2598 79.8569H41.499Z" stroke="#A9023A"/>
<rect x="35.1523" y="28.0244" width="4.41672" height="4.41672" fill="#A9023A"/>
<rect x="40.6758" y="28.0244" width="4.41672" height="4.41672" fill="#A9023A"/>
<rect x="29.6328" y="28.0244" width="4.41672" height="4.41672" fill="#A9023A"/>
</svg>
