<svg width="100" height="100" viewBox="0 0 100 100" fill="none" xmlns="http://www.w3.org/2000/svg">
<path d="M83.334 66.6663V16.6663H33.334V66.6663M91.6673 66.6663C91.6673 71.2497 87.9173 74.9997 83.334 74.9997H33.334C28.7507 74.9997 25.0007 71.2497 25.0007 66.6663V16.6663C25.0007 12.083 28.7507 8.33301 33.334 8.33301H83.334C87.9173 8.33301 91.6673 12.083 91.6673 16.6663M66.6673 83.333V91.6664H16.6673C12.084 91.6664 8.33398 87.9163 8.33398 83.333V29.1663H16.6673V83.333M66.6673 45.833H75.0007V58.333H66.6673M54.1673 24.9997H62.5007V58.333H54.1673M41.6673 33.333H50.0007V58.333H41.6673V33.333Z" fill="#A9023A"/>
</svg>
