<svg width="64" height="100" viewBox="0 0 64 100" fill="none" xmlns="http://www.w3.org/2000/svg">
<rect x="5.13086" y="2.76709" width="53.0641" height="93" rx="6" fill="white" stroke="#A9023A" stroke-width="2"/>
<rect x="12.2812" y="16.6348" width="38.7618" height="65.9562" rx="1" stroke="#A9023A" stroke-width="2"/>
<path d="M39.8828 10.7812L24.8648 10.7813" stroke="#A9023A" stroke-width="2" stroke-linecap="round"/>
<path d="M37.0254 88.4463H25.5835" stroke="#A9023A" stroke-width="2" stroke-linecap="round"/>
<rect x="23.4707" y="37.8296" width="15.6337" height="22.2902" stroke="#A9023A" stroke-width="0.5"/>
<rect x="27.7617" y="53.5117" width="7.05913" height="2.32057" rx="1.16029" stroke="#A9023A" stroke-width="0.5"/>
<path d="M31.29 61.7476C31.8062 61.7476 32.2246 62.166 32.2246 62.6821C32.2246 63.1983 31.8062 63.6167 31.29 63.6167C30.7739 63.6167 30.3555 63.1983 30.3555 62.6821C30.3555 62.166 30.7739 61.7476 31.29 61.7476Z" stroke="#A9023A" stroke-width="0.5"/>
<line x1="25.5024" y1="41.8438" x2="36.6232" y2="41.9528" stroke="#A9023A" stroke-width="0.5" stroke-linecap="round"/>
<line x1="25.5024" y1="41.8438" x2="36.6232" y2="41.9528" stroke="#A9023A" stroke-width="0.5" stroke-linecap="round"/>
<line x1="25.5024" y1="41.8438" x2="36.6232" y2="41.9528" stroke="#A9023A" stroke-width="0.5" stroke-linecap="round"/>
<line x1="25.6196" y1="44.3257" x2="36.7404" y2="44.4347" stroke="#A9023A" stroke-width="0.5" stroke-linecap="round"/>
<line x1="25.6196" y1="44.3257" x2="36.7404" y2="44.4347" stroke="#A9023A" stroke-width="0.5" stroke-linecap="round"/>
<line x1="25.6196" y1="44.3257" x2="36.7404" y2="44.4347" stroke="#A9023A" stroke-width="0.5" stroke-linecap="round"/>
<line x1="27.8749" y1="48.8335" x2="34.4828" y2="48.7286" stroke="#A9023A" stroke-width="0.5" stroke-linecap="round"/>
<line x1="27.8749" y1="48.8335" x2="34.4828" y2="48.7286" stroke="#A9023A" stroke-width="0.5" stroke-linecap="round"/>
<line x1="27.8749" y1="48.8335" x2="34.4828" y2="48.7286" stroke="#A9023A" stroke-width="0.5" stroke-linecap="round"/>
<line x1="30.6953" y1="66.8882" x2="31.662" y2="66.8882" stroke="#A9023A" stroke-width="0.5" stroke-linecap="round"/>
<line x1="30.6953" y1="66.8882" x2="31.662" y2="66.8882" stroke="#A9023A" stroke-width="0.5" stroke-linecap="round"/>
<line x1="30.6953" y1="66.8882" x2="31.662" y2="66.8882" stroke="#A9023A" stroke-width="0.5" stroke-linecap="round"/>
<path d="M31.3506 35.2339C36.7335 35.2339 39.3026 35.5447 40.5195 35.8472C41.1316 35.9993 41.3714 36.1425 41.457 36.2183C41.4672 36.2273 41.4744 36.235 41.4795 36.2407V62.7563C41.4792 62.7598 41.4795 62.7662 41.4775 62.7749C41.4717 62.8007 41.4536 62.8535 41.4014 62.9272C41.2957 63.0763 41.0401 63.3184 40.4287 63.5718C39.2002 64.0808 36.6179 64.6038 31.2383 64.5757C25.8585 64.5475 23.2746 64.0252 22.0439 63.5288C21.4312 63.2816 21.1753 63.0491 21.0703 62.9077C21.0186 62.838 21.0022 62.7886 20.9971 62.7671C20.9957 62.7613 20.9954 62.757 20.9951 62.7544V36.2681C21.0036 36.2591 21.017 36.2461 21.0381 36.23C21.1493 36.1451 21.4255 35.9994 22.0654 35.8472C23.3405 35.544 25.9683 35.2339 31.3506 35.2339Z" stroke="#A9023A" stroke-width="0.5"/>
<path d="M34.6514 64.5083V67.6421C34.6513 68.1762 34.4289 68.4727 34.1426 68.6382C33.8385 68.8138 33.4335 68.8568 33.0752 68.8062C32.7823 68.7647 32.6802 68.6179 32.4531 68.3853C32.3417 68.2711 32.204 68.1446 32.0068 68.0503C31.8088 67.9555 31.5672 67.9009 31.2549 67.9009C30.9376 67.9009 30.6955 67.9643 30.5 68.0728C30.3076 68.1795 30.1779 68.3205 30.0762 68.438C29.967 68.5641 29.9016 68.6466 29.8145 68.7095C29.741 68.7624 29.6468 68.8032 29.4863 68.8032C29.0722 68.8032 28.6896 68.76 28.4072 68.6284C28.1445 68.5059 27.9671 68.3087 27.9297 67.9546C27.8836 67.5169 27.8596 66.598 27.8477 65.7769C27.8417 65.3691 27.8394 64.9893 27.8379 64.7114C27.8375 64.6356 27.8371 64.5674 27.8369 64.5083H34.6514Z" stroke="#A9023A" stroke-width="0.5"/>
<rect x="29.4805" y="23.6206" width="3.49657" height="3.49657" fill="#A9023A"/>
<rect x="33.8535" y="23.6206" width="3.49657" height="3.49657" fill="#A9023A"/>
<rect x="25.1094" y="23.6206" width="3.49657" height="3.49657" fill="#A9023A"/>
</svg>
