<svg width="107" height="100" viewBox="0 0 107 100" fill="none" xmlns="http://www.w3.org/2000/svg">
<path d="M7.6082 3.65533C7.76935 3.65438 7.93051 3.65343 8.09655 3.65245C8.63498 3.65003 9.1733 3.65193 9.71173 3.65383C10.1023 3.65298 10.4928 3.65186 10.8834 3.65051C11.9555 3.64757 13.0275 3.64843 14.0996 3.64993C15.2562 3.65089 16.4129 3.64835 17.5695 3.64627C19.8351 3.64277 22.1006 3.6426 24.3661 3.64366C26.2075 3.64449 28.0488 3.64419 29.8902 3.64311C30.1522 3.64295 30.4142 3.6428 30.6841 3.64264C31.2164 3.64233 31.7486 3.64202 32.2809 3.64171C35.8549 3.63971 39.4289 3.63886 43.0029 3.64041C43.1427 3.64047 43.2824 3.64053 43.4264 3.64059C44.5611 3.64109 45.6957 3.64162 46.8304 3.64215C51.2561 3.64421 55.6817 3.64251 60.1073 3.63778C65.081 3.63248 70.0546 3.62987 75.0282 3.63131C77.6611 3.63202 80.294 3.63156 82.9269 3.628C85.1683 3.62501 87.4097 3.62488 89.6511 3.62842C90.7946 3.63016 91.9381 3.63059 93.0817 3.62748C94.1288 3.62467 95.1759 3.62562 96.2231 3.62956C96.6016 3.63033 96.9801 3.62973 97.3586 3.62761C101.475 3.60619 101.475 3.60619 103.161 4.93195C103.265 5.06072 103.368 5.18949 103.475 5.32216C103.582 5.44936 103.689 5.57655 103.799 5.7076C104.799 7.25996 104.8 8.57225 104.792 10.3896C104.793 10.6756 104.795 10.9615 104.796 11.2475C104.799 12.0313 104.799 12.8152 104.798 13.599C104.797 14.4452 104.8 15.2913 104.803 16.1375C104.807 17.7945 104.808 19.4515 104.808 21.1085C104.807 22.4556 104.808 23.8026 104.81 25.1497C104.81 25.5378 104.811 25.926 104.811 26.3141C104.811 26.6039 104.811 26.6039 104.812 26.8995C104.815 30.5529 104.815 34.2062 104.814 37.8595C104.813 41.2004 104.817 44.5412 104.824 47.8821C104.831 51.3137 104.834 54.7452 104.833 58.1768C104.832 60.1029 104.833 62.029 104.838 63.955C104.843 65.5949 104.843 67.2347 104.84 68.8746C104.838 69.7109 104.838 70.5472 104.842 71.3835C104.846 72.15 104.845 72.9163 104.84 73.6827C104.839 74.0895 104.842 74.4963 104.846 74.9031C104.828 76.7966 104.403 78.1025 103.232 79.5943C101.382 81.0199 99.4921 80.9528 97.2535 80.9328C96.8913 80.9326 96.5291 80.9327 96.1669 80.9332C95.1879 80.9334 94.209 80.9287 93.23 80.923C92.2053 80.9179 91.1807 80.9174 90.156 80.9164C88.2175 80.9139 86.279 80.9072 84.3406 80.8991C82.1329 80.89 79.9252 80.8855 77.7175 80.8814C73.1779 80.8729 68.6383 80.8586 64.0987 80.8405C64.1689 81.0916 64.239 81.3428 64.3113 81.6015C64.4042 81.9344 64.4972 82.2674 64.5901 82.6003C64.6362 82.7654 64.6824 82.9306 64.7299 83.1007C65.0926 84.4007 65.439 85.7043 65.7728 87.0119C66.0188 87.9593 66.3048 88.8811 66.6349 89.803C66.7518 90.1992 66.7518 90.1992 66.7518 90.8095C66.8825 90.8063 67.0131 90.8031 67.1478 90.7998C67.7428 90.7871 68.3379 90.7792 68.933 90.7714C69.2414 90.7637 69.2414 90.7637 69.556 90.7559C71.5084 90.7366 71.5084 90.7366 72.2621 91.4199C72.9121 92.2287 72.9522 92.8796 72.9382 93.8994C72.9374 94.1499 72.9366 94.4004 72.9358 94.6584C72.8744 95.2854 72.8744 95.2854 72.4662 95.6923C71.9578 95.7325 71.472 95.7471 70.9633 95.744C70.8065 95.7446 70.6498 95.7453 70.4883 95.7459C69.9603 95.7476 69.4323 95.7463 68.9043 95.745C68.5269 95.7455 68.1495 95.7463 67.7721 95.7472C66.7449 95.749 65.7178 95.7483 64.6906 95.747C63.6176 95.746 62.5447 95.7469 61.4717 95.7476C59.6695 95.7483 57.8674 95.7473 56.0652 95.7454C53.9792 95.7432 51.8932 95.7439 49.8071 95.7461C48.0188 95.748 46.2305 95.7482 44.4421 95.7472C43.3729 95.7465 42.3036 95.7465 41.2343 95.7478C40.2293 95.749 39.2242 95.7482 38.2191 95.7458C37.8494 95.7453 37.4797 95.7454 37.1099 95.7463C36.6069 95.7474 36.104 95.746 35.6009 95.744C35.4531 95.7449 35.3053 95.7458 35.153 95.7468C34.1446 95.7388 34.1446 95.7388 33.6898 95.2854C33.4016 92.6797 33.4016 92.6796 34.0597 91.6742C34.7539 90.9624 35.1867 90.7589 36.1604 90.7253C36.361 90.7174 36.5616 90.7095 36.7683 90.7014C37.0818 90.692 37.0818 90.692 37.4016 90.6824C37.613 90.6745 37.8244 90.6666 38.0422 90.6585C38.5642 90.6393 39.0862 90.6219 39.6083 90.6061C40.6585 87.707 41.41 84.755 42.1266 81.7584C42.2615 81.2474 42.2615 81.2474 42.4655 80.8405C42.277 80.8414 42.0886 80.8423 41.8943 80.8433C37.3037 80.8659 32.713 80.8826 28.1223 80.8932C25.9022 80.8984 23.6822 80.9055 21.4622 80.9172C19.5268 80.9274 17.5914 80.9339 15.6559 80.9362C14.6315 80.9375 13.6072 80.9406 12.5828 80.948C11.6175 80.9549 10.6524 80.957 9.68719 80.9555C9.33393 80.9558 8.98066 80.9578 8.62743 80.9617C5.02055 80.9997 5.02054 80.9997 3.48506 79.8232C2.40218 78.6731 1.80232 77.5686 1.7993 75.9685C1.79785 75.7245 1.79641 75.4805 1.79493 75.2291C1.79542 74.9618 1.79591 74.6945 1.79642 74.4191C1.79551 74.1317 1.79443 73.8442 1.79318 73.5568C1.79029 72.767 1.78995 71.9772 1.79004 71.1874C1.7897 70.3356 1.78704 69.4838 1.78469 68.6319C1.78003 66.7694 1.77841 64.9068 1.77738 63.0442C1.77672 61.8811 1.77538 60.718 1.77391 59.555C1.76992 56.3346 1.76657 53.1142 1.76598 49.8937C1.76594 49.6877 1.7659 49.4816 1.76586 49.2692C1.76579 48.8515 1.76571 48.4337 1.76564 48.0159C1.7656 47.8085 1.76556 47.6011 1.76553 47.3874C1.76549 47.1798 1.76545 46.9722 1.76541 46.7582C1.76469 43.3935 1.75918 40.0288 1.75155 36.6641C1.74377 33.2093 1.73982 29.7546 1.73976 26.2998C1.73964 24.3602 1.73791 22.4206 1.73201 20.4809C1.727 18.8294 1.72552 17.1778 1.72859 15.5263C1.73005 14.6838 1.72987 13.8414 1.72524 12.9989C1.72103 12.2271 1.72157 11.4553 1.72582 10.6835C1.72687 10.2733 1.72291 9.86306 1.71875 9.45288C1.73486 7.71699 2.01585 6.47613 3.22508 5.1887C4.46254 3.99775 5.92547 3.63964 7.6082 3.65533Z" fill="white"/>
<path d="M7.6082 3.65533C7.76935 3.65438 7.93051 3.65343 8.09655 3.65245C8.63498 3.65003 9.1733 3.65193 9.71173 3.65383C10.1023 3.65298 10.4928 3.65186 10.8834 3.65051C11.9555 3.64757 13.0275 3.64843 14.0996 3.64993C15.2562 3.65089 16.4129 3.64835 17.5695 3.64627C19.8351 3.64277 22.1006 3.6426 24.3661 3.64366C26.2075 3.64449 28.0488 3.64419 29.8902 3.64311C30.1522 3.64295 30.4142 3.6428 30.6841 3.64264C31.2164 3.64233 31.7486 3.64202 32.2809 3.64171C35.8549 3.63971 39.4289 3.63886 43.0029 3.64041C43.1427 3.64047 43.2824 3.64053 43.4264 3.64059C44.5611 3.64109 45.6957 3.64162 46.8304 3.64215C51.2561 3.64421 55.6817 3.64251 60.1073 3.63778C65.081 3.63248 70.0546 3.62987 75.0282 3.63131C77.6611 3.63202 80.294 3.63156 82.9269 3.628C85.1683 3.62501 87.4097 3.62488 89.6511 3.62842C90.7946 3.63016 91.9381 3.63059 93.0817 3.62748C94.1288 3.62467 95.1759 3.62562 96.2231 3.62956C96.6016 3.63033 96.9801 3.62973 97.3586 3.62761C101.475 3.60619 101.475 3.60619 103.161 4.93195C103.265 5.06072 103.368 5.18949 103.475 5.32216C103.582 5.44936 103.689 5.57655 103.799 5.7076C104.799 7.25996 104.8 8.57225 104.792 10.3896C104.793 10.6756 104.795 10.9615 104.796 11.2475C104.799 12.0313 104.799 12.8152 104.798 13.599C104.797 14.4452 104.8 15.2913 104.803 16.1375C104.807 17.7945 104.808 19.4515 104.808 21.1085C104.807 22.4556 104.808 23.8026 104.81 25.1497C104.81 25.5378 104.811 25.926 104.811 26.3141C104.811 26.6039 104.811 26.6039 104.812 26.8995C104.815 30.5529 104.815 34.2062 104.814 37.8595C104.813 41.2004 104.817 44.5412 104.824 47.8821C104.831 51.3137 104.834 54.7452 104.833 58.1768C104.832 60.1029 104.833 62.029 104.838 63.9551C104.843 65.5949 104.843 67.2347 104.84 68.8746C104.838 69.7109 104.838 70.5472 104.842 71.3835C104.846 72.15 104.845 72.9163 104.84 73.6827C104.839 74.0895 104.842 74.4963 104.846 74.9031C104.828 76.7966 104.403 78.1025 103.232 79.5943C101.382 81.0199 99.4921 80.9528 97.2535 80.9328C96.8913 80.9326 96.5291 80.9327 96.1669 80.9332C95.1879 80.9334 94.209 80.9287 93.23 80.923C92.2053 80.9179 91.1807 80.9174 90.156 80.9164C88.2175 80.9139 86.279 80.9072 84.3406 80.8991C82.1329 80.89 79.9252 80.8855 77.7175 80.8814C73.1779 80.8729 68.6383 80.8586 64.0987 80.8405C64.1689 81.0916 64.239 81.3428 64.3113 81.6015C64.4042 81.9344 64.4972 82.2674 64.5901 82.6003C64.6362 82.7655 64.6824 82.9306 64.7299 83.1007C65.0926 84.4007 65.439 85.7043 65.7728 87.0119C66.0188 87.9594 66.3048 88.8811 66.6349 89.803C66.7518 90.1992 66.7518 90.1992 66.7518 90.8095C66.8825 90.8063 67.0132 90.8031 67.1478 90.7999C67.7428 90.7871 68.3379 90.7792 68.933 90.7714C69.2414 90.7637 69.2414 90.7637 69.556 90.7559C71.5084 90.7366 71.5084 90.7366 72.2621 91.4199C72.9121 92.2287 72.9522 92.8796 72.9382 93.8994C72.9374 94.1499 72.9366 94.4004 72.9358 94.6584C72.8744 95.2854 72.8744 95.2854 72.4662 95.6923C71.9578 95.7325 71.472 95.7471 70.9633 95.744C70.8065 95.7447 70.6498 95.7453 70.4883 95.7459C69.9603 95.7476 69.4323 95.7463 68.9043 95.745C68.5269 95.7456 68.1495 95.7463 67.7721 95.7472C66.7449 95.749 65.7178 95.7483 64.6906 95.747C63.6176 95.746 62.5447 95.7469 61.4717 95.7476C59.6695 95.7483 57.8674 95.7473 56.0652 95.7454C53.9792 95.7432 51.8932 95.7439 49.8071 95.7461C48.0188 95.748 46.2305 95.7483 44.4421 95.7472C43.3729 95.7466 42.3036 95.7465 41.2343 95.7478C40.2293 95.749 39.2242 95.7482 38.2191 95.7458C37.8494 95.7453 37.4797 95.7454 37.1099 95.7463C36.6069 95.7474 36.104 95.7461 35.601 95.744C35.4531 95.7449 35.3053 95.7458 35.153 95.7468C34.1446 95.7388 34.1446 95.7388 33.6898 95.2854C33.4016 92.6797 33.4016 92.6797 34.0597 91.6742C34.7539 90.9624 35.1867 90.759 36.1604 90.7253C36.361 90.7174 36.5616 90.7096 36.7683 90.7015C37.0818 90.692 37.0818 90.692 37.4017 90.6824C37.613 90.6745 37.8244 90.6666 38.0422 90.6585C38.5642 90.6394 39.0862 90.6219 39.6083 90.6061C40.6585 87.707 41.41 84.755 42.1266 81.7584C42.2615 81.2474 42.2615 81.2474 42.4655 80.8405C42.2771 80.8414 42.0886 80.8423 41.8943 80.8433C37.3037 80.8659 32.713 80.8826 28.1223 80.8932C25.9022 80.8984 23.6822 80.9055 21.4622 80.9172C19.5268 80.9274 17.5914 80.9339 15.6559 80.9362C14.6315 80.9375 13.6072 80.9406 12.5828 80.948C11.6175 80.9549 10.6524 80.957 9.68719 80.9555C9.33393 80.9558 8.98066 80.9578 8.62743 80.9617C5.02055 80.9997 5.02054 80.9997 3.48506 79.8232C2.40218 78.6731 1.80232 77.5686 1.7993 75.9685C1.79785 75.7245 1.79641 75.4805 1.79493 75.2291C1.79542 74.9618 1.79591 74.6945 1.79642 74.4191C1.79551 74.1317 1.79443 73.8443 1.79318 73.5568C1.79029 72.767 1.78995 71.9772 1.79004 71.1874C1.7897 70.3356 1.78704 69.4838 1.78469 68.6319C1.78003 66.7694 1.77841 64.9068 1.77738 63.0442C1.77672 61.8811 1.77538 60.718 1.77391 59.555C1.76992 56.3346 1.76657 53.1142 1.76598 49.8937C1.76594 49.6877 1.7659 49.4816 1.76586 49.2692C1.76579 48.8515 1.76571 48.4337 1.76564 48.0159C1.7656 47.8085 1.76556 47.6011 1.76553 47.3874C1.76549 47.1798 1.76545 46.9722 1.76541 46.7582C1.76469 43.3935 1.75918 40.0288 1.75155 36.6641C1.74377 33.2093 1.73982 29.7546 1.73976 26.2998C1.73964 24.3602 1.73791 22.4206 1.73201 20.4809C1.727 18.8294 1.72552 17.1778 1.72859 15.5263C1.73005 14.6838 1.72987 13.8414 1.72524 12.9989C1.72103 12.2271 1.72157 11.4553 1.72582 10.6835C1.72687 10.2733 1.72291 9.86306 1.71875 9.45288C1.73486 7.71699 2.01585 6.47613 3.22508 5.1887C4.46254 3.99775 5.92547 3.63964 7.6082 3.65533ZM6.95453 8.81897C6.95453 28.3563 6.95453 47.8937 6.95453 68.0231C37.5307 68.0231 68.1069 68.0231 99.6097 68.0231C99.6097 48.4857 99.6097 28.9484 99.6097 8.81897C69.0335 8.81897 38.4573 8.81897 6.95453 8.81897Z" fill="#A9023A"/>
<path d="M3.48058 69.6499C36.3466 69.6499 69.2127 69.6499 103.075 69.6499C103.075 76.5672 103.075 76.5672 102.258 78.1948C101.137 79.0849 100.264 79.2422 98.8708 79.2394C98.7105 79.2399 98.5503 79.2403 98.3852 79.2408C97.8439 79.2422 97.3025 79.2421 96.7612 79.242C96.3709 79.2427 95.9806 79.2434 95.5904 79.2443C94.5145 79.2463 93.4385 79.2471 92.3626 79.2476C91.2036 79.2484 90.0445 79.2504 88.8855 79.2521C86.085 79.2562 83.2845 79.2582 80.4839 79.26C79.1661 79.2609 77.8483 79.262 76.5305 79.2631C72.1518 79.2665 67.773 79.2695 63.3942 79.271C63.111 79.271 62.8278 79.2711 62.5446 79.2712C62.4041 79.2713 62.2637 79.2713 62.119 79.2714C61.4074 79.2716 60.6957 79.2719 59.9841 79.2721C59.8429 79.2722 59.7017 79.2722 59.5562 79.2723C54.9759 79.2739 50.3956 79.2787 45.8154 79.2853C40.9743 79.2922 36.1333 79.2962 31.2922 79.2969C28.6527 79.2974 26.0131 79.2992 23.3736 79.3043C21.1263 79.3087 18.8791 79.3104 16.6318 79.3084C15.4847 79.3075 14.3376 79.3079 13.1904 79.3118C12.1409 79.3154 11.0914 79.3152 10.0419 79.312C9.66156 79.3116 9.28126 79.3125 8.90097 79.3149C8.38503 79.3179 7.86934 79.316 7.3534 79.3128C7.20486 79.3149 7.05633 79.3169 6.9033 79.3191C5.87337 79.3051 5.29738 79.0371 4.50101 78.3983C2.23912 75.8997 3.48058 73.6672 3.48058 69.6499Z" fill="white"/>
<path d="M7.55315 5.28286C7.71361 5.28191 7.87407 5.28096 8.03939 5.27998C8.57792 5.27755 9.11634 5.27947 9.65486 5.28136C10.0445 5.28051 10.4342 5.2794 10.8238 5.27804C11.8953 5.27509 12.9667 5.27596 14.0381 5.27746C15.1934 5.27842 16.3487 5.27588 17.5039 5.2738C19.7675 5.27029 22.031 5.27013 24.2945 5.2712C26.1341 5.27202 27.9736 5.27172 29.8131 5.27064C30.0747 5.27048 30.3363 5.27033 30.6059 5.27017C31.1373 5.26986 31.6687 5.26955 32.2001 5.26924C35.7694 5.26724 39.3387 5.26639 42.908 5.26794C43.0475 5.268 43.1871 5.26806 43.331 5.26812C44.4645 5.26862 45.5981 5.26915 46.7317 5.26969C51.1531 5.27174 55.5746 5.27004 59.996 5.26531C64.9634 5.26001 69.9307 5.2574 74.898 5.25884C77.5282 5.25955 80.1584 5.25909 82.7885 5.25553C85.0276 5.25254 87.2667 5.2524 89.5058 5.25596C90.6485 5.25769 91.7911 5.25811 92.9338 5.25501C93.9797 5.2522 95.0255 5.25315 96.0714 5.25709C96.4499 5.25786 96.8284 5.25725 97.2068 5.25514C97.7213 5.25246 98.2356 5.25481 98.7501 5.25839C98.897 5.25643 99.044 5.25446 99.1954 5.25244C100.46 5.27053 101.507 5.66872 102.434 6.52202C103.203 7.74887 103.217 8.87085 103.199 10.2913C103.2 10.5395 103.201 10.7876 103.202 11.0433C103.203 11.7286 103.2 12.4137 103.195 13.099C103.19 13.8393 103.192 14.5796 103.193 15.3199C103.193 16.6013 103.19 17.8827 103.184 19.1642C103.176 21.0169 103.173 22.8696 103.172 24.7223C103.17 27.7284 103.163 30.7346 103.153 33.7407C103.144 36.6603 103.137 39.5799 103.132 42.4996C103.132 42.6797 103.132 42.8597 103.132 43.0452C103.13 43.9486 103.129 44.8519 103.128 45.7553C103.117 53.2457 103.099 60.7361 103.076 68.2265C102.47 68.2265 101.864 68.2265 101.24 68.2265C101.239 68.0982 101.239 67.97 101.239 67.8379C101.218 60.2472 101.195 52.6565 101.172 45.0658C101.169 44.1553 101.166 43.2449 101.164 42.3344C101.163 42.1532 101.163 41.9719 101.162 41.7852C101.153 38.8462 101.145 35.9073 101.137 32.9683C101.128 29.955 101.119 26.9417 101.11 23.9283C101.104 22.0674 101.098 20.2065 101.094 18.3456C101.09 17.0712 101.086 15.7969 101.082 14.5226C101.079 13.7863 101.077 13.0499 101.076 12.3136C101.074 11.5172 101.071 10.7208 101.068 9.92434C101.068 9.57137 101.068 9.57137 101.067 9.21128C101.066 8.99968 101.065 8.78809 101.064 8.57008C101.063 8.38598 101.063 8.20188 101.062 8.01221C101.081 7.59923 101.081 7.59923 100.831 7.39474C100.325 7.37463 99.8243 7.36793 99.3179 7.3697C99.1567 7.36947 98.9956 7.36923 98.8295 7.36899C98.2825 7.36845 97.7356 7.36937 97.1886 7.37027C96.7953 7.37018 96.402 7.37001 96.0087 7.36975C94.9225 7.36929 93.8363 7.37011 92.7501 7.37112C91.5808 7.372 90.4115 7.37171 89.2422 7.37155C87.2145 7.37144 85.1868 7.37209 83.1592 7.37323C80.2274 7.37488 77.2957 7.37541 74.3639 7.37567C69.6079 7.37611 64.8519 7.37747 60.0959 7.37939C55.4746 7.38126 50.8533 7.3827 46.232 7.38356C45.9416 7.38362 45.6511 7.38367 45.3607 7.38373C43.1121 7.38415 40.8635 7.38455 38.615 7.38494C27.5844 7.38686 16.5537 7.39095 5.52314 7.39474C5.4558 27.4692 5.38845 47.5437 5.31906 68.2265C4.71292 68.2265 4.10679 68.2265 3.48228 68.2265C3.45425 60.5305 3.43268 52.8345 3.41975 45.1385C3.41822 44.2299 3.41663 43.3213 3.41502 42.4127C3.4147 42.2318 3.41437 42.0509 3.41404 41.8645C3.40872 38.9357 3.39906 36.007 3.38781 33.0782C3.37635 30.0729 3.36955 27.0676 3.36707 24.0623C3.36539 22.2079 3.36008 20.3536 3.35014 18.4992C3.34366 17.2276 3.34171 15.9559 3.3433 14.6843C3.34408 13.9506 3.34288 13.217 3.33631 12.4833C3.32924 11.6874 3.33168 10.8916 3.33503 10.0956C3.33146 9.86444 3.32789 9.63328 3.32422 9.39511C3.33882 8.11123 3.50951 7.30725 4.32453 6.29843C5.32341 5.44176 6.27204 5.27098 7.55315 5.28286Z" fill="white"/>
<path d="M34.3745 15.2782C34.5881 15.2766 34.8017 15.2751 35.0218 15.2734C40.1053 15.286 44.2139 17.419 47.8258 20.8596C51.2469 24.4462 52.6127 29.144 52.5103 33.9893C52.3764 37.6506 51.0989 40.8725 49.0033 43.8582C48.584 44.219 48.584 44.219 47.9805 44.3247C47.2153 44.1945 46.9685 43.9658 46.4283 43.418C45.4268 42.45 44.3738 41.741 43.194 41.0123C42.6655 40.5569 42.6655 40.5569 42.4622 39.9172C42.4619 39.7255 42.4617 39.5338 42.4614 39.3362C42.5961 39.202 42.7308 39.0677 42.8696 38.9293C43.6694 38.9923 44.0837 39.2672 44.7063 39.7431C44.9084 39.7431 45.1104 39.7431 45.3186 39.7431C46.5317 37.5921 47.2453 35.2965 47.3595 32.8258C47.2316 32.8305 47.1038 32.8353 46.972 32.8401C46.8052 32.8438 46.6384 32.8475 46.4666 32.8512C46.3008 32.856 46.1351 32.8607 45.9643 32.8655C45.5227 32.8258 45.5227 32.8258 45.1145 32.4189C45.2279 31.4921 45.2279 31.4921 45.5227 31.1982C46.0677 31.1695 46.6093 31.1896 47.1554 31.1982C46.9105 28.659 45.5043 26.212 43.89 24.2809C43.7427 24.4487 43.5954 24.6166 43.4436 24.7895C42.8696 25.2981 42.8696 25.2981 42.3211 25.3872C41.8491 25.2981 41.8491 25.2981 41.441 24.8912C41.5007 24.1166 41.6921 23.7781 42.2573 23.2636C42.2573 23.1294 42.2573 22.9951 42.2573 22.8567C41.8476 22.5522 41.8476 22.5522 41.3262 22.2591C41.1533 22.1566 40.9805 22.054 40.8024 21.9484C39.5739 21.2936 38.4282 20.9097 37.0659 20.6824C36.9166 20.656 36.7673 20.6296 36.6134 20.6025C36.2501 20.5386 35.8863 20.4767 35.5225 20.4153C35.5309 20.6377 35.5393 20.8601 35.548 21.0893C35.5225 21.8395 35.5225 21.8395 35.1143 22.4498C34.1194 22.2718 34.1194 22.2718 33.8898 22.0429C33.8751 21.7338 33.8726 21.4241 33.877 21.1147C33.8789 20.9466 33.8807 20.7785 33.8826 20.6053C33.885 20.4755 33.8873 20.3456 33.8898 20.2119C31.3335 20.7086 29.14 21.4018 26.9508 22.8567C27.1859 23.3589 27.3688 23.6803 27.7672 24.0774C27.6538 25.0043 27.6538 25.0043 27.359 25.2981C26.8998 25.3744 26.8998 25.3744 26.3386 25.2981C25.9889 24.9689 25.6476 24.6303 25.3181 24.2809C23.6863 26.4986 22.7286 28.5133 22.0528 31.1982C22.1806 31.1935 22.3085 31.1888 22.4402 31.1839C22.607 31.1802 22.7738 31.1766 22.9456 31.1728C23.1114 31.1681 23.2771 31.1633 23.4479 31.1585C23.8895 31.1982 23.8895 31.1982 24.2977 31.6051C24.1843 32.5319 24.1843 32.5319 23.8895 32.8258C23.5454 32.8405 23.2007 32.8429 22.8564 32.8385C22.575 32.8358 22.575 32.8358 22.2879 32.833C22.0705 32.8294 22.0705 32.8294 21.8487 32.8258C22.4059 36.6632 22.4059 36.6632 24.2977 39.9466C24.389 39.8708 24.4803 39.795 24.5743 39.7169C25.5915 38.9235 25.5915 38.9235 26.3131 38.9548C26.7467 39.1328 26.7467 39.1328 26.9508 39.3362C27.029 39.8051 27.029 39.8051 26.9508 40.3535C26.5156 40.7747 26.5156 40.7747 25.9049 41.1927C25.6805 41.349 25.4565 41.5058 25.2328 41.6632C25.1141 41.7461 24.9953 41.8289 24.873 41.9143C24.4823 42.1987 24.1106 42.499 23.7389 42.8076C23.613 42.9112 23.4872 43.0147 23.3575 43.1214C23.112 43.3247 22.8681 43.53 22.6263 43.7375C22.1063 44.1614 21.7774 44.4194 21.0937 44.4352C19.2537 43.5881 18.2731 40.3876 17.5557 38.6091C17.4006 38.1762 17.2711 37.7463 17.1547 37.3017C17.1131 37.1507 17.0716 36.9996 17.0287 36.844C16.0168 32.4219 16.9009 27.7246 19.1645 23.8366C21.8281 19.6926 25.8925 16.6032 30.7503 15.5087C31.9591 15.2797 33.1474 15.2692 34.3745 15.2782Z" fill="#A9023A"/>
<path d="M44.0984 80.8398C50.1598 80.8398 56.2212 80.8398 62.4662 80.8398C63.038 82.8919 63.595 84.9226 64.1029 86.9871C64.358 87.9688 64.6572 88.9332 64.9694 89.8982C65.1193 90.402 65.1193 90.402 65.1193 90.8089C57.3069 90.8089 49.4945 90.8089 41.4453 90.8089C41.7698 89.6228 42.0944 88.4394 42.4329 87.2577C42.8913 85.6487 43.2912 84.0353 43.638 82.3987C43.8754 81.2845 43.8754 81.2845 44.0984 80.8398Z" fill="#FCFBFC"/>
<path d="M80.6243 16.9568C81.4888 16.9468 82.3532 16.9394 83.2178 16.9345C83.5119 16.9324 83.8061 16.9297 84.1003 16.9261C84.5228 16.9212 84.9452 16.9189 85.3677 16.9171C85.7493 16.9139 85.7493 16.9139 86.1385 16.9106C86.7469 16.9568 86.7469 16.9568 87.1551 17.3637C87.2065 17.8257 87.2065 17.8257 87.2069 18.414C87.2081 18.6365 87.2092 18.8591 87.2104 19.0883C87.2096 19.3335 87.2088 19.5787 87.2079 19.8314C87.2086 20.0887 87.2093 20.3461 87.2101 20.6113C87.2119 21.3183 87.2112 22.0253 87.2099 22.7323C87.2089 23.4712 87.2098 24.2102 87.2105 24.9491C87.2112 26.1901 87.2102 27.4311 87.2083 28.6721C87.2061 30.1082 87.2068 31.5442 87.209 32.9803C87.2109 34.2119 87.2112 35.4434 87.2101 36.675C87.2095 37.4112 87.2094 38.1474 87.2107 38.8836C87.2121 39.7039 87.2102 40.5243 87.2079 41.3447C87.2087 41.5899 87.2096 41.8351 87.2104 42.0877C87.2087 42.4215 87.2087 42.4215 87.2069 42.762C87.2068 42.9562 87.2066 43.1503 87.2065 43.3503C87.1551 43.8123 87.1551 43.8123 86.7469 44.2192C86.1638 44.2719 86.1638 44.2719 85.4267 44.2733C85.1629 44.2738 84.899 44.2743 84.6271 44.2748C84.4894 44.274 84.3517 44.2731 84.2099 44.2723C83.7893 44.2701 83.3688 44.2722 82.9482 44.2748C82.6843 44.2743 82.4205 44.2738 82.1486 44.2733C81.9054 44.2728 81.6622 44.2723 81.4116 44.2719C80.8284 44.2192 80.8284 44.2192 80.4202 43.8123C80.3694 43.3503 80.3694 43.3503 80.3698 42.762C80.3689 42.5395 80.3681 42.317 80.3672 42.0877C80.3683 41.8425 80.3695 41.5973 80.3707 41.3447C80.3703 41.0873 80.3699 40.8299 80.3695 40.5648C80.3685 39.8577 80.3701 39.1507 80.3721 38.4437C80.3739 37.7048 80.3736 36.9659 80.3735 36.227C80.3737 34.9859 80.3755 33.7449 80.3782 32.5039C80.3814 31.0679 80.3825 29.6318 80.3824 28.1958C80.3822 26.816 80.3833 25.4362 80.385 24.0564C80.3857 23.4684 80.3861 22.8804 80.3862 22.2925C80.3864 21.4721 80.3884 20.6517 80.3906 19.8314C80.3905 19.5862 80.3904 19.3409 80.3903 19.0883C80.3912 18.8658 80.3921 18.6433 80.393 18.414C80.3933 18.2199 80.3936 18.0257 80.394 17.8257C80.4202 17.3637 80.4202 17.3637 80.6243 16.9568Z" fill="#A9023A"/>
<path d="M73.5505 24.4179C73.7564 24.4186 73.7564 24.4186 73.9665 24.4192C74.3849 24.4199 74.8031 24.4151 75.2215 24.41C75.4847 24.4098 75.7479 24.4097 76.0191 24.4096C76.2612 24.4089 76.5034 24.4083 76.7529 24.4077C77.4328 24.4927 77.5622 24.5713 77.9715 25.0938C78.0319 25.6944 78.0551 26.2521 78.0507 26.8529C78.0517 27.0326 78.0528 27.2123 78.0539 27.3974C78.0566 27.9923 78.0548 28.587 78.0528 29.1819C78.0532 29.5947 78.0538 30.0074 78.0545 30.4202C78.0554 31.2856 78.0541 32.151 78.0513 33.0164C78.0478 34.1268 78.0498 35.2371 78.0535 36.3475C78.0557 37.2 78.055 38.0524 78.0534 38.9048C78.053 39.3143 78.0535 39.7237 78.0549 40.1332C78.0565 40.7051 78.0541 41.2768 78.0507 41.8487C78.0525 42.1036 78.0525 42.1036 78.0544 42.3637C78.0416 43.5182 78.0416 43.5182 77.6984 43.9565C77.165 44.368 76.6826 44.2937 76.0191 44.2921C75.6243 44.2919 75.6243 44.2919 75.2215 44.2917C75.0846 44.29 74.9478 44.2883 74.8068 44.2866C74.3879 44.2818 73.9694 44.2824 73.5505 44.2837C71.4952 44.2725 71.4952 44.2725 71.0325 43.8113C70.9919 43.2128 70.9769 42.6334 70.9797 42.0346C70.9786 41.7587 70.9786 41.7587 70.9775 41.4772C70.9757 40.8671 70.9769 40.257 70.9783 39.6469C70.978 39.2242 70.9776 38.8016 70.9771 38.3789C70.9765 37.4923 70.9774 36.6057 70.9793 35.719C70.9816 34.5806 70.9803 33.4421 70.9778 32.3036C70.9764 31.4306 70.9768 30.5576 70.9779 29.6846C70.9782 29.2648 70.9778 28.8449 70.9769 28.425C70.9759 27.839 70.9774 27.253 70.9797 26.667C70.9789 26.4922 70.9781 26.3173 70.9772 26.1372C70.9913 24.1892 71.8502 24.4272 73.5505 24.4179Z" fill="#A9023A"/>
<path d="M45.1179 20.503C48.246 23.1551 50.5242 26.9767 50.8707 31.1009C51.0683 34.9171 50.5896 39.1884 47.9703 42.184C47.3754 41.9655 46.9952 41.8222 46.5417 41.3702C46.6237 40.7107 46.9233 40.1728 47.2305 39.59C48.9904 36.1218 49.3921 32.0765 48.1744 28.3493C46.5418 24.2175 43.775 21.5877 39.7674 19.7601C36.9291 18.535 32.6829 18.4349 29.7796 19.5366C29.5865 19.625 29.3934 19.7134 29.1944 19.8044C28.9761 19.9033 28.7577 20.0022 28.5327 20.104C24.8882 21.9121 22.4333 24.7488 21.031 28.5528C19.9139 32.3028 20.3154 36.0358 22.0514 39.5391C22.2142 39.8122 22.3796 40.0838 22.5489 40.3529C22.8677 40.9633 22.8677 40.9633 22.7784 41.421C22.3833 41.8623 21.9619 42.1132 21.4391 42.3874C18.865 38.8954 17.9051 34.6259 18.4325 30.3469C19.2191 25.6843 22.035 21.9491 25.811 19.2473C31.7866 15.3793 39.6458 16.1122 45.1179 20.503Z" fill="#F9F7F8"/>
<path d="M21.3031 55.5597C21.6505 55.5579 21.6505 55.5579 22.0049 55.5561C22.2615 55.5568 22.5181 55.5576 22.7825 55.5584C23.0562 55.5578 23.3298 55.557 23.6035 55.556C24.358 55.5539 25.1125 55.5544 25.8671 55.5553C26.6798 55.5558 27.4926 55.5539 28.3053 55.5524C29.8985 55.5498 31.4916 55.5495 33.0848 55.5499C34.3791 55.5503 35.6734 55.5499 36.9677 55.5491C37.1516 55.549 37.3355 55.5488 37.525 55.5487C37.8986 55.5485 38.2721 55.5482 38.6457 55.548C42.1521 55.5457 45.6585 55.5462 49.165 55.5474C52.3762 55.5485 55.5875 55.5462 58.7987 55.5423C62.0925 55.5384 65.3862 55.5367 68.6799 55.5375C70.5306 55.5379 72.3812 55.5373 74.2318 55.5345C75.8071 55.5321 77.3824 55.5318 78.9577 55.5342C79.7621 55.5354 80.5664 55.5356 81.3708 55.5332C82.1063 55.531 82.8416 55.5316 83.5771 55.5345C83.9712 55.5353 84.3653 55.5331 84.7594 55.5308C85.1068 55.533 85.1068 55.533 85.4612 55.5352C85.6623 55.5352 85.8634 55.5352 86.0707 55.5352C86.2276 55.5603 86.3845 55.5855 86.5462 55.6114C86.9543 56.2218 86.9543 56.2218 86.8906 56.6541C86.7503 57.0356 86.7503 57.0356 86.5462 57.239C86.1921 57.259 85.8372 57.2646 85.4826 57.2647C85.2505 57.2652 85.0185 57.2657 84.7794 57.2663C84.5213 57.2658 84.2631 57.2654 83.9972 57.2649C83.7227 57.2651 83.4483 57.2654 83.1738 57.2658C82.4161 57.2667 81.6584 57.2663 80.9007 57.2656C80.0849 57.2652 79.2691 57.2659 78.4533 57.2665C76.8537 57.2674 75.2542 57.2672 73.6547 57.2666C72.3553 57.2661 71.0559 57.2661 69.7565 57.2663C69.4797 57.2663 69.4797 57.2663 69.1973 57.2664C68.8224 57.2664 68.4475 57.2665 68.0726 57.2666C64.5531 57.2671 61.0335 57.2665 57.514 57.2654C54.4906 57.2645 51.4672 57.2646 48.4438 57.2656C44.9373 57.2667 41.4308 57.2671 37.9243 57.2665C37.5507 57.2664 37.1772 57.2663 36.8037 57.2663C36.6198 57.2662 36.436 57.2662 36.2466 57.2662C34.9481 57.266 33.6495 57.2663 32.3509 57.2668C30.7694 57.2673 29.188 57.2672 27.6066 57.2661C26.7989 57.2656 25.9912 57.2654 25.1836 57.266C24.4454 57.2666 23.7072 57.2663 22.969 57.2652C22.573 57.2649 22.1769 57.2656 21.7808 57.2663C21.4327 57.2655 21.4327 57.2655 21.0776 57.2647C20.8757 57.2646 20.6738 57.2646 20.4658 57.2646C20.014 57.239 20.014 57.239 19.8099 57.0356C19.7717 56.5397 19.7717 56.5397 19.8099 56.0183C20.3422 55.4878 20.5615 55.5603 21.3031 55.5597Z" fill="#A9023A"/>
<path d="M21.2734 50.9062C21.6192 50.9052 21.6192 50.9052 21.9719 50.9042C22.2283 50.9045 22.4847 50.9048 22.7489 50.9052C23.0215 50.9048 23.2942 50.9043 23.5668 50.9038C24.3195 50.9025 25.0721 50.9026 25.8248 50.9028C26.6352 50.9028 27.4455 50.9017 28.2559 50.9008C29.8449 50.8991 31.4338 50.8985 33.0228 50.8984C34.3137 50.8983 35.6046 50.8979 36.8955 50.8972C40.5514 50.8954 44.2072 50.8945 47.8631 50.8947C48.0604 50.8947 48.2577 50.8947 48.461 50.8947C48.7572 50.8947 48.7572 50.8947 49.0595 50.8947C52.2622 50.8948 55.4649 50.8928 58.6676 50.89C61.9521 50.8871 65.2366 50.8856 68.5211 50.8858C70.3667 50.8859 72.2123 50.8853 74.0579 50.8831C75.6291 50.8813 77.2003 50.8808 78.7715 50.8822C79.5738 50.8829 80.3761 50.8829 81.1785 50.8811C81.912 50.8795 82.6455 50.8798 83.3791 50.8816C83.7722 50.8821 84.1652 50.8805 84.5583 50.8789C84.7894 50.8798 85.0204 50.8808 85.2584 50.8817C85.5593 50.8817 85.5593 50.8817 85.8663 50.8816C86.3408 50.9324 86.3408 50.9324 86.7489 51.3393C86.7872 51.8606 86.7872 51.8606 86.7489 52.3565C86.402 52.7023 85.9598 52.5858 85.485 52.5862C85.2538 52.5868 85.0226 52.5875 84.7844 52.5881C84.5272 52.5878 84.27 52.5875 84.005 52.5872C83.7315 52.5876 83.458 52.588 83.1845 52.5886C82.4295 52.5898 81.6746 52.5898 80.9196 52.5896C80.1067 52.5895 79.2938 52.5906 78.4809 52.5916C76.887 52.5933 75.2932 52.5939 73.6993 52.594C72.4044 52.5941 71.1095 52.5945 69.8146 52.5951C66.1475 52.5969 62.4803 52.5979 58.8131 52.5977C58.6152 52.5977 58.4173 52.5977 58.2135 52.5977C58.0153 52.5977 57.8172 52.5977 57.613 52.5977C54.4004 52.5976 51.1878 52.5995 47.9752 52.6024C44.6806 52.6053 41.386 52.6067 38.0913 52.6065C36.24 52.6065 34.3887 52.607 32.5374 52.6092C30.9613 52.6111 29.3853 52.6115 27.8093 52.6101C27.0044 52.6095 26.1996 52.6095 25.3948 52.6112C24.659 52.6128 23.9233 52.6125 23.1875 52.6108C22.7931 52.6103 22.3988 52.6118 22.0045 52.6135C21.7728 52.6125 21.541 52.6116 21.3023 52.6106C21.1011 52.6107 20.8998 52.6107 20.6925 52.6108C20.2168 52.56 20.2168 52.56 19.8086 52.1531C19.9525 50.9765 20.1242 50.907 21.2734 50.9062Z" fill="#A9023A"/>
<path d="M82.0508 18.584C83.1957 18.584 84.3406 18.584 85.5202 18.584C85.5202 26.5063 85.5202 34.4287 85.5202 42.5911C84.3753 42.5911 83.2304 42.5911 82.0508 42.5911C82.0508 34.6688 82.0508 26.7464 82.0508 18.584Z" fill="#FEFEFE"/>
<path d="M63.4196 32.1609C63.5539 32.1605 63.6883 32.1601 63.8267 32.1597C64.1108 32.1595 64.3949 32.1602 64.679 32.1619C65.1144 32.1641 65.5496 32.1619 65.985 32.1593C66.2608 32.1596 66.5367 32.1601 66.8125 32.1609C67.1901 32.1616 67.1901 32.1616 67.5754 32.1623C68.1773 32.215 68.1773 32.215 68.5855 32.6219C68.6373 33.0929 68.6373 33.0929 68.6383 33.6888C68.6396 33.9115 68.6409 34.1342 68.6422 34.3636C68.6414 34.605 68.6406 34.8464 68.6397 35.0951C68.6403 35.4653 68.6403 35.4653 68.6409 35.843C68.6412 36.3657 68.6404 36.8883 68.6387 37.411C68.6365 38.2134 68.6387 39.0157 68.6413 39.8181C68.641 40.3249 68.6405 40.8317 68.6397 41.3384C68.6405 41.5798 68.6414 41.8212 68.6422 42.0699C68.6409 42.2926 68.6396 42.5153 68.6383 42.7447C68.638 42.9414 68.6377 43.138 68.6373 43.3406C68.5855 43.8116 68.5855 43.8116 68.1773 44.2185C67.5754 44.2712 67.5754 44.2712 66.8125 44.2726C66.6781 44.273 66.5438 44.2734 66.4054 44.2738C66.1213 44.274 65.8372 44.2733 65.5531 44.2716C65.1177 44.2694 64.6825 44.2716 64.2471 44.2742C63.9712 44.2739 63.6954 44.2734 63.4196 44.2726C63.1678 44.2721 62.916 44.2717 62.6566 44.2712C62.0547 44.2185 62.0547 44.2185 61.6466 43.8116C61.5947 43.3406 61.5947 43.3406 61.5937 42.7447C61.5925 42.522 61.5912 42.2994 61.5898 42.0699C61.5907 41.8285 61.5915 41.5871 61.5923 41.3384C61.592 41.0916 61.5916 40.8448 61.5912 40.5905C61.5909 40.0678 61.5916 39.5452 61.5933 39.0225C61.5955 38.2201 61.5934 37.4178 61.5908 36.6154C61.591 36.1086 61.5915 35.6018 61.5923 35.0951C61.5911 34.733 61.5911 34.733 61.5898 34.3636C61.5911 34.1409 61.5924 33.9182 61.5937 33.6888C61.5941 33.4921 61.5944 33.2955 61.5947 33.0929C61.7149 32.0005 62.5126 32.1626 63.4196 32.1609Z" fill="#A9023A"/>
<path d="M37.3192 92.1549C37.5319 92.1535 37.5319 92.1535 37.7488 92.152C38.225 92.1496 38.7011 92.1515 39.1772 92.1534C39.5181 92.1526 39.859 92.1515 40.2 92.1502C41.1268 92.1474 42.0535 92.1485 42.9804 92.1504C43.9492 92.152 44.918 92.1506 45.8869 92.1496C47.514 92.1485 49.1411 92.1499 50.7683 92.1529C52.6509 92.1562 54.5334 92.1551 56.416 92.1517C58.0308 92.149 59.6457 92.1486 61.2605 92.1502C62.2257 92.1511 63.1908 92.1512 64.1559 92.1492C65.0632 92.1475 65.9704 92.1487 66.8776 92.1522C67.2111 92.153 67.5445 92.1528 67.878 92.1515C68.3322 92.1498 68.7863 92.1519 69.2406 92.1549C69.4951 92.1551 69.7496 92.1554 70.0118 92.1556C70.6272 92.2324 70.6272 92.2324 71.02 92.4662C71.2395 92.8428 71.2395 92.8428 71.2395 94.0635C59.3862 94.0635 47.5328 94.0635 35.3203 94.0635C35.3203 92.8428 35.3203 92.8428 35.5398 92.4662C36.1337 92.1128 36.631 92.1555 37.3192 92.1549Z" fill="#F4EBED"/>
<path d="M21.2615 60.2353C21.4076 60.236 21.5537 60.2368 21.7042 60.2376C21.9366 60.2364 21.9366 60.2364 22.1737 60.2352C22.6956 60.2331 23.2174 60.234 23.7394 60.2348C24.1124 60.2339 24.4855 60.2328 24.8585 60.2316C25.8739 60.2289 26.8892 60.2288 27.9046 60.2293C28.7511 60.2295 29.5976 60.2285 30.4441 60.2275C32.4406 60.2253 34.4371 60.2252 36.4336 60.2264C38.4957 60.2276 40.5578 60.2251 42.62 60.2208C44.3882 60.2172 46.1564 60.216 47.9247 60.2167C48.9817 60.217 50.0388 60.2165 51.0959 60.2137C52.0897 60.2111 53.0835 60.2115 54.0774 60.2142C54.4428 60.2146 54.8081 60.2141 55.1735 60.2124C55.6711 60.2103 56.1686 60.2119 56.6662 60.2145C56.8118 60.213 56.9575 60.2115 57.1075 60.21C57.7008 60.2165 58.0887 60.228 58.582 60.5736C58.7904 60.901 58.7904 60.901 58.7394 61.3333C58.5863 61.7148 58.5863 61.7148 58.3823 61.9182C57.8871 61.9386 57.3977 61.9456 56.9025 61.9441C56.6674 61.9446 56.6674 61.9446 56.4276 61.945C55.8985 61.9459 55.3694 61.9452 54.8402 61.9446C54.4625 61.9448 54.0848 61.9452 53.7071 61.9457C52.6783 61.9466 51.6495 61.9462 50.6206 61.9456C49.5465 61.9451 48.4723 61.9455 47.3981 61.9459C45.5939 61.9462 43.7896 61.9457 41.9854 61.9448C39.8962 61.9437 37.8071 61.944 35.7179 61.9451C33.9277 61.9461 32.1375 61.9462 30.3473 61.9457C29.2765 61.9453 28.2058 61.9453 27.135 61.946C26.1286 61.9466 25.1222 61.9462 24.1158 61.945C23.7453 61.9447 23.3749 61.9448 23.0044 61.9452C22.5008 61.9458 21.9973 61.9451 21.4938 61.9441C21.271 61.9448 21.271 61.9448 21.0436 61.9455C20.0373 61.9415 20.0373 61.9415 19.8099 61.7148C19.7717 61.2189 19.7717 61.2189 19.8099 60.6975C20.309 60.2 20.5803 60.2414 21.2615 60.2353Z" fill="#A9023A"/>
<path d="M72.668 26.1118C73.8802 26.1118 75.0925 26.1118 76.3415 26.1118C76.3415 31.55 76.3415 36.9883 76.3415 42.5913C75.1292 42.5913 73.917 42.5913 72.668 42.5913C72.668 37.1531 72.668 31.7148 72.668 26.1118Z" fill="#FCFAFA"/>
<path d="M40.011 26.5185C40.1121 26.6192 40.1121 26.6192 40.2151 26.7219C40.1432 27.8997 39.7647 28.7044 39.1947 29.7228C38.5693 30.8929 38.2461 31.8083 38.2117 33.1505C38.1492 33.9667 37.8477 34.6159 37.3579 35.2668C36.3179 36.0921 35.4669 36.3609 34.1635 36.3397C33.0591 36.2115 32.4452 35.7028 31.7583 34.8599C31.2514 33.8293 31.2163 32.7168 31.4394 31.6047C31.9761 30.6789 32.6762 29.9641 33.6844 29.5702C33.9647 29.5566 34.2456 29.5529 34.5262 29.5575C35.8768 29.44 36.6512 28.4499 37.562 27.5357C38.348 26.7731 38.8596 26.3583 40.011 26.5185Z" fill="#A9023A"/>
<path d="M5.72656 6.98808C14.8295 6.9846 23.9325 6.98136 33.0355 6.97946C33.1701 6.97944 33.3047 6.97941 33.4434 6.97938C36.3687 6.97877 39.294 6.97821 42.2193 6.97769C43.6537 6.97744 45.0882 6.97717 46.5226 6.9769C46.6654 6.97688 46.8081 6.97685 46.9552 6.97682C51.5863 6.97596 56.2174 6.97443 60.8485 6.97256C65.7403 6.97059 70.632 6.96936 75.5238 6.96894C78.456 6.96866 81.3882 6.96777 84.3204 6.96612C86.3281 6.96505 88.3358 6.96472 90.3436 6.96499C91.5038 6.96512 92.6641 6.96491 93.8243 6.96383C94.8846 6.96284 95.9449 6.96278 97.0053 6.96348C97.3906 6.96357 97.776 6.96331 98.1614 6.96267C98.6817 6.96187 99.2019 6.96229 99.7222 6.96305C99.9512 6.96224 99.9512 6.96224 100.185 6.96143C101.216 6.96486 101.216 6.96486 101.443 7.19153C101.463 7.51606 101.468 7.84147 101.468 8.1666C101.469 8.3789 101.469 8.59121 101.469 8.80995C101.469 9.04605 101.468 9.28215 101.468 9.5254C101.468 9.89828 101.468 9.89828 101.468 10.2787C101.468 10.9718 101.468 11.6649 101.467 12.358C101.466 13.1043 101.466 13.8506 101.466 14.5968C101.466 15.8908 101.466 17.1848 101.465 18.4788C101.463 20.3497 101.462 22.2207 101.462 24.0916C101.462 27.1267 101.46 30.1619 101.458 33.197C101.457 36.1461 101.455 39.0952 101.454 42.0443C101.454 42.3168 101.454 42.3168 101.454 42.5948C101.454 43.506 101.454 44.4173 101.453 45.3285C101.451 52.8934 101.448 60.4583 101.443 68.0232C101.914 68.0232 102.386 68.0232 102.872 68.0232C102.872 48.1502 102.872 28.2771 102.872 7.80188C102.939 7.80188 103.006 7.80188 103.076 7.80188C103.076 27.7421 103.076 47.6823 103.076 68.2267C102.47 68.2267 101.863 68.2267 101.239 68.2267C101.239 68.0985 101.238 67.9703 101.238 67.8382C101.217 60.2475 101.195 52.6567 101.171 45.066C101.169 44.1556 101.166 43.2451 101.163 42.3347C101.162 42.1534 101.162 41.9722 101.161 41.7854C101.152 38.8464 101.144 35.9075 101.136 32.9685C101.128 29.9552 101.119 26.9419 101.109 23.9286C101.103 22.0677 101.098 20.2067 101.093 18.3458C101.09 17.0715 101.086 15.7972 101.081 14.5229C101.079 13.7865 101.076 13.0502 101.075 12.3138C101.073 11.5174 101.07 10.721 101.067 9.92458C101.067 9.57162 101.067 9.57162 101.067 9.21152C101.065 8.99993 101.064 8.78833 101.063 8.57032C101.063 8.38622 101.062 8.20213 101.062 8.01245C101.081 7.59947 101.081 7.59947 100.831 7.39498C100.325 7.37384 99.8258 7.36608 99.3204 7.36677C99.1596 7.36619 98.9988 7.36561 98.8331 7.36502C98.2873 7.36331 97.7415 7.36306 97.1957 7.36279C96.8032 7.36186 96.4108 7.36085 96.0183 7.35975C94.9344 7.35697 93.8506 7.35547 92.7667 7.35417C91.5999 7.35254 90.4331 7.34975 89.2663 7.3471C87.243 7.34267 85.2196 7.33898 83.1963 7.33579C80.2708 7.33118 77.3454 7.32545 74.4199 7.31945C69.6741 7.30974 64.9283 7.30094 60.1825 7.29271C55.5711 7.28471 50.9597 7.27628 46.3483 7.26728C46.2062 7.267 46.0641 7.26672 45.9178 7.26644C44.4911 7.26365 43.0645 7.26086 41.6379 7.25806C29.6674 7.23457 17.697 7.21255 5.72656 7.19153C5.72656 7.12439 5.72656 7.05725 5.72656 6.98808Z" fill="#DFBCC3"/>
<path d="M54.7464 71.6201C55.6709 72.1237 56.2089 72.7131 56.5449 73.7182C56.6635 74.9237 56.4493 75.8052 55.7286 76.7699C55.0115 77.4247 54.2588 77.8413 53.2795 77.9143C52.2997 77.8413 51.5487 77.4241 50.8305 76.7699C50.1884 75.9267 49.85 74.9889 49.9089 73.9256C50.1851 72.8474 50.9397 72.0901 51.8382 71.4802C52.9114 71.1309 53.7246 71.1552 54.7464 71.6201Z" fill="#A9023A"/>
<path d="M63.2773 33.8428C64.4896 33.8428 65.7019 33.8428 66.9509 33.8428C66.9509 36.7297 66.9509 39.6167 66.9509 42.5911C65.7386 42.5911 64.5264 42.5911 63.2773 42.5911C63.2773 39.7042 63.2773 36.8172 63.2773 33.8428Z" fill="#FBFAFB"/>
<path d="M35.3201 31.1973C35.9069 31.5025 35.9069 31.5025 36.3406 32.0111C36.5033 33.0333 36.5086 33.4021 35.9069 34.249C35.3201 34.6559 35.3201 34.6559 34.7079 34.7831C33.9031 34.616 33.6005 34.2521 33.0752 33.6387C33.0078 33.5716 32.9405 33.5044 32.8711 33.4352C32.9028 32.5967 32.9515 32.1485 33.5216 31.5152C34.2066 31.1358 34.5482 31.069 35.3201 31.1973Z" fill="#F7F5F7"/>
<path d="M53.2752 72.7783C54.1067 72.951 54.4067 73.2467 54.9079 73.9227C55.0482 74.5331 55.0482 74.5331 54.9079 75.1434C54.3566 75.7314 53.9519 76.0954 53.1604 76.2878C52.4126 76.0967 52.1048 75.7491 51.6425 75.1434C51.515 74.5331 51.515 74.5331 51.6425 73.9227C52.1438 73.2467 52.4437 72.951 53.2752 72.7783Z" fill="#F7F2F5"/>
<path d="M100.625 6.9873C100.894 7.05444 101.164 7.12158 101.441 7.19076C101.441 13.0318 101.441 18.8729 101.441 24.891C101.374 24.891 101.307 24.891 101.237 24.891C101.236 24.6757 101.234 24.4604 101.232 24.2385C101.216 22.2118 101.199 20.185 101.179 18.1583C101.168 17.1163 101.159 16.0742 101.151 15.0322C101.144 14.027 101.134 13.0218 101.123 12.0166C101.12 11.6327 101.116 11.2488 101.114 10.8648C101.111 10.328 101.105 9.79123 101.098 9.25442C101.098 9.09491 101.097 8.9354 101.097 8.77105C101.085 8.00133 101.064 7.64352 100.625 6.9873Z" fill="#E3CFD5"/>
<path d="M53.8885 71.278C53.9558 71.4122 54.0232 71.5465 54.0925 71.6849C53.9742 71.6901 53.8558 71.6953 53.7338 71.7007C52.5883 71.7837 51.9315 71.9887 51.0312 72.7021C51.0312 72.5007 51.0312 72.2993 51.0312 72.0918C52.0466 71.4307 52.6399 71.1763 53.8885 71.278Z" fill="#B54F64"/>
<path d="M23.0731 19.6011C22.7361 20.4744 22.1062 21.0007 21.4404 21.6356C21.2383 21.5684 21.0363 21.5013 20.8281 21.4321C21.1245 21.1257 21.4224 20.8208 21.721 20.5166C21.9696 20.2617 21.9696 20.2617 22.2232 20.0016C22.6649 19.6011 22.6649 19.6011 23.0731 19.6011Z" fill="#B24E5F"/>
<path d="M42.873 38.9292C43.1424 38.9292 43.4118 38.9292 43.6894 38.9292C43.6894 39.0635 43.6894 39.1978 43.6894 39.3361C43.2891 39.6188 42.8808 39.8907 42.4648 40.1499C42.6434 39.1581 42.6434 39.1581 42.873 38.9292Z" fill="#BB5B70"/>
<path d="M100.625 6.9873C100.894 7.05444 101.164 7.12158 101.441 7.19076C101.441 7.99642 101.441 8.80208 101.441 9.63216C101.374 9.63216 101.307 9.63216 101.237 9.63216C101.222 9.42248 101.222 9.42248 101.207 9.20857C101.192 9.02525 101.176 8.84193 101.161 8.65306C101.147 8.47131 101.132 8.28956 101.118 8.10231C101.06 7.54802 101.06 7.54802 100.625 6.9873Z" fill="#E6D9E0"/>
</svg>
