<svg width="100" height="100" viewBox="0 0 100 100" fill="none" xmlns="http://www.w3.org/2000/svg">
<path d="M43.75 56.25H12.5C9.0625 56.25 6.25 59.0625 6.25 62.5V81.25C6.25 84.6875 9.0625 87.5 12.5 87.5H20L25.3125 96.875L30.625 93.75L23.4375 81.25H12.5V62.5H43.75V81.25H34.375V87.5H43.75C47.1875 87.5 50 84.6875 50 81.25V62.5C50 59.0625 47.1875 56.25 43.75 56.25ZM59.375 81.25H65.625C77.8125 81.25 87.5 71.5625 87.5 59.375V53.125H81.25V59.375C81.25 68.125 74.375 75 65.625 75H59.375V81.25ZM56.25 34.375H75V40.625H56.25V34.375ZM56.25 21.875H93.75V28.125H56.25V21.875ZM56.25 9.375H93.75V15.625H56.25V9.375ZM12.5 43.75H18.75V37.5C18.75 28.75 25.625 21.875 34.375 21.875H46.875V15.625H34.375C22.1875 15.625 12.5 25.3125 12.5 37.5V43.75Z" fill="#A9023A"/>
</svg>
