<svg width="107" height="100" viewBox="0 0 107 100" fill="none" xmlns="http://www.w3.org/2000/svg">
<path d="M7.60625 3.65533C7.7674 3.65438 7.92856 3.65343 8.09459 3.65245C8.63302 3.65003 9.17135 3.65193 9.70978 3.65383C10.1003 3.65298 10.4909 3.65186 10.8814 3.65051C11.9535 3.64757 13.0255 3.64843 14.0976 3.64993C15.2543 3.65089 16.4109 3.64835 17.5676 3.64627C19.8331 3.64277 22.0986 3.6426 24.3642 3.64366C26.2055 3.64449 28.0469 3.64419 29.8882 3.64311C30.1502 3.64295 30.4122 3.6428 30.6822 3.64264C31.2144 3.64233 31.7467 3.64202 32.2789 3.64171C35.853 3.63971 39.427 3.63886 43.001 3.64041C43.1407 3.64047 43.2805 3.64053 43.4244 3.64059C44.5591 3.64109 45.6938 3.64162 46.8285 3.64215C51.2541 3.64421 55.6798 3.64251 60.1054 3.63778C65.079 3.63248 70.0526 3.62987 75.0262 3.63131C77.6591 3.63202 80.2921 3.63156 82.925 3.628C85.1664 3.62501 87.4077 3.62488 89.6491 3.62842C90.7927 3.63016 91.9362 3.63059 93.0797 3.62748C94.1269 3.62467 95.174 3.62562 96.2211 3.62956C96.5996 3.63033 96.9781 3.62973 97.3566 3.62761C101.473 3.60619 101.473 3.60619 103.159 4.93195C103.263 5.06072 103.366 5.18949 103.473 5.32216C103.58 5.44936 103.687 5.57655 103.797 5.7076C104.797 7.25996 104.798 8.57225 104.79 10.3896C104.791 10.6756 104.793 10.9615 104.794 11.2475C104.798 12.0313 104.797 12.8152 104.796 13.599C104.795 14.4452 104.798 15.2913 104.801 16.1375C104.805 17.7945 104.806 19.4515 104.806 21.1085C104.805 22.4556 104.806 23.8026 104.808 25.1497C104.808 25.5378 104.809 25.926 104.809 26.3141C104.809 26.6039 104.809 26.6039 104.81 26.8995C104.814 30.5529 104.813 34.2062 104.812 37.8595C104.811 41.2004 104.815 44.5412 104.822 47.8821C104.829 51.3137 104.832 54.7452 104.831 58.1768C104.83 60.1029 104.831 62.029 104.837 63.955C104.841 65.5949 104.842 67.2347 104.838 68.8746C104.836 69.7109 104.836 70.5472 104.84 71.3835C104.844 72.15 104.843 72.9163 104.838 73.6827C104.837 74.0895 104.841 74.4963 104.844 74.9031C104.826 76.7966 104.401 78.1025 103.23 79.5943C101.38 81.0199 99.4902 80.9528 97.2515 80.9328C96.8894 80.9326 96.5272 80.9327 96.165 80.9332C95.186 80.9334 94.207 80.9287 93.2281 80.923C92.2034 80.9179 91.1787 80.9174 90.154 80.9164C88.2155 80.9139 86.2771 80.9072 84.3386 80.8991C82.1309 80.89 79.9233 80.8855 77.7156 80.8814C73.1759 80.8729 68.6363 80.8586 64.0967 80.8405C64.1669 81.0916 64.2371 81.3428 64.3094 81.6015C64.4023 81.9344 64.4952 82.2674 64.5881 82.6003C64.6343 82.7654 64.6804 82.9306 64.728 83.1007C65.0906 84.4007 65.437 85.7043 65.7709 87.0119C66.0169 87.9593 66.3028 88.8811 66.633 89.803C66.7499 90.1992 66.7499 90.1992 66.7499 90.8095C66.8805 90.8063 67.0112 90.8031 67.1458 90.7998C67.7409 90.7871 68.3359 90.7792 68.931 90.7714C69.2394 90.7637 69.2394 90.7637 69.5541 90.7559C71.5064 90.7366 71.5064 90.7366 72.2602 91.4199C72.9101 92.2287 72.9502 92.8796 72.9362 93.8994C72.9354 94.1499 72.9346 94.4004 72.9338 94.6584C72.8725 95.2854 72.8725 95.2854 72.4643 95.6923C71.9558 95.7325 71.47 95.7471 70.9613 95.744C70.8046 95.7446 70.6479 95.7453 70.4864 95.7459C69.9583 95.7476 69.4304 95.7463 68.9023 95.745C68.5249 95.7455 68.1475 95.7463 67.7701 95.7472C66.743 95.749 65.7158 95.7483 64.6887 95.747C63.6157 95.746 62.5427 95.7469 61.4697 95.7476C59.6676 95.7483 57.8654 95.7473 56.0632 95.7454C53.9772 95.7432 51.8912 95.7439 49.8052 95.7461C48.0168 95.748 46.2285 95.7482 44.4402 95.7472C43.3709 95.7465 42.3016 95.7465 41.2324 95.7478C40.2273 95.749 39.2223 95.7482 38.2172 95.7458C37.8474 95.7453 37.4777 95.7454 37.108 95.7463C36.605 95.7474 36.102 95.746 35.599 95.744C35.4512 95.7449 35.3034 95.7458 35.1511 95.7468C34.1426 95.7388 34.1426 95.7388 33.6879 95.2854C33.3997 92.6797 33.3997 92.6796 34.0578 91.6742C34.7519 90.9624 35.1848 90.7589 36.1584 90.7253C36.359 90.7174 36.5596 90.7095 36.7663 90.7014C37.0798 90.692 37.0798 90.692 37.3997 90.6824C37.6111 90.6745 37.8225 90.6666 38.0403 90.6585C38.5623 90.6393 39.0843 90.6219 39.6064 90.6061C40.6565 87.707 41.408 84.755 42.1246 81.7584C42.2595 81.2474 42.2595 81.2474 42.4636 80.8405C42.2751 80.8414 42.0866 80.8423 41.8924 80.8433C37.3017 80.8659 32.7111 80.8826 28.1203 80.8932C25.9003 80.8984 23.6803 80.9055 21.4602 80.9172C19.5248 80.9274 17.5894 80.9339 15.654 80.9362C14.6296 80.9375 13.6052 80.9406 12.5808 80.948C11.6156 80.9549 10.6505 80.957 9.68524 80.9555C9.33198 80.9558 8.97871 80.9578 8.62547 80.9617C5.01859 80.9997 5.01859 80.9997 3.48311 79.8232C2.40023 78.6731 1.80037 77.5686 1.79734 75.9685C1.7959 75.7245 1.79446 75.4805 1.79297 75.2291C1.79347 74.9618 1.79396 74.6945 1.79447 74.4191C1.79356 74.1317 1.79247 73.8442 1.79123 73.5568C1.78833 72.767 1.788 71.9772 1.78809 71.1874C1.78775 70.3356 1.78508 69.4838 1.78274 68.6319C1.77808 66.7694 1.77646 64.9068 1.77543 63.0442C1.77476 61.8811 1.77343 60.718 1.77196 59.555C1.76796 56.3346 1.76462 53.1142 1.76402 49.8937C1.76399 49.6877 1.76395 49.4816 1.76391 49.2692C1.76383 48.8515 1.76376 48.4337 1.76368 48.0159C1.76365 47.8085 1.76361 47.6011 1.76357 47.3874C1.76354 47.1798 1.7635 46.9722 1.76346 46.7582C1.76274 43.3935 1.75722 40.0288 1.74959 36.6641C1.74182 33.2093 1.73787 29.7546 1.73781 26.2998C1.73769 24.3602 1.73595 22.4206 1.73005 20.4809C1.72505 18.8294 1.72356 17.1778 1.72663 15.5263C1.7281 14.6838 1.72792 13.8414 1.72328 12.9989C1.71908 12.2271 1.71962 11.4553 1.72387 10.6835C1.72492 10.2733 1.72096 9.86306 1.7168 9.45288C1.7329 7.71699 2.01389 6.47613 3.22313 5.1887C4.46059 3.99775 5.92352 3.63964 7.60625 3.65533Z" fill="white"/>
<path d="M7.60625 3.65533C7.7674 3.65438 7.92856 3.65343 8.09459 3.65245C8.63302 3.65003 9.17135 3.65193 9.70978 3.65383C10.1003 3.65298 10.4909 3.65186 10.8814 3.65051C11.9535 3.64757 13.0255 3.64843 14.0976 3.64993C15.2543 3.65089 16.4109 3.64835 17.5676 3.64627C19.8331 3.64277 22.0986 3.6426 24.3642 3.64366C26.2055 3.64449 28.0469 3.64419 29.8882 3.64311C30.1502 3.64295 30.4122 3.6428 30.6822 3.64264C31.2144 3.64233 31.7467 3.64202 32.2789 3.64171C35.853 3.63971 39.427 3.63886 43.001 3.64041C43.1407 3.64047 43.2805 3.64053 43.4244 3.64059C44.5591 3.64109 45.6938 3.64162 46.8285 3.64215C51.2541 3.64421 55.6798 3.64251 60.1054 3.63778C65.079 3.63248 70.0526 3.62987 75.0262 3.63131C77.6591 3.63202 80.2921 3.63156 82.925 3.628C85.1664 3.62501 87.4078 3.62488 89.6491 3.62842C90.7927 3.63016 91.9362 3.63059 93.0797 3.62748C94.1269 3.62467 95.174 3.62562 96.2211 3.62956C96.5996 3.63033 96.9781 3.62973 97.3566 3.62761C101.473 3.60619 101.473 3.60619 103.159 4.93195C103.263 5.06072 103.366 5.18949 103.473 5.32216C103.58 5.44936 103.687 5.57655 103.797 5.7076C104.797 7.25996 104.798 8.57225 104.79 10.3896C104.791 10.6756 104.793 10.9615 104.794 11.2475C104.798 12.0313 104.797 12.8152 104.796 13.599C104.795 14.4452 104.798 15.2913 104.801 16.1375C104.805 17.7945 104.806 19.4515 104.806 21.1085C104.805 22.4556 104.806 23.8026 104.808 25.1497C104.808 25.5378 104.809 25.926 104.809 26.3141C104.809 26.6039 104.809 26.6039 104.81 26.8995C104.814 30.5529 104.813 34.2062 104.812 37.8595C104.811 41.2004 104.815 44.5412 104.822 47.8821C104.829 51.3137 104.832 54.7452 104.831 58.1768C104.83 60.1029 104.831 62.029 104.837 63.9551C104.841 65.5949 104.842 67.2347 104.838 68.8746C104.836 69.7109 104.836 70.5472 104.84 71.3835C104.844 72.15 104.843 72.9163 104.838 73.6827C104.837 74.0895 104.841 74.4963 104.844 74.9031C104.826 76.7966 104.401 78.1025 103.23 79.5943C101.38 81.0199 99.4902 80.9528 97.2515 80.9328C96.8894 80.9326 96.5272 80.9327 96.165 80.9332C95.186 80.9334 94.207 80.9287 93.2281 80.923C92.2034 80.9179 91.1787 80.9174 90.154 80.9164C88.2155 80.9139 86.2771 80.9072 84.3386 80.8991C82.1309 80.89 79.9233 80.8855 77.7156 80.8814C73.1759 80.8729 68.6363 80.8586 64.0967 80.8405C64.1669 81.0916 64.2371 81.3428 64.3094 81.6015C64.4023 81.9344 64.4952 82.2674 64.5881 82.6003C64.6343 82.7655 64.6804 82.9306 64.728 83.1007C65.0906 84.4007 65.437 85.7043 65.7709 87.0119C66.0169 87.9594 66.3028 88.8811 66.633 89.803C66.7499 90.1992 66.7499 90.1992 66.7499 90.8095C66.8805 90.8063 67.0112 90.8031 67.1458 90.7999C67.7409 90.7871 68.3359 90.7792 68.931 90.7714C69.2394 90.7637 69.2394 90.7637 69.5541 90.7559C71.5064 90.7366 71.5064 90.7366 72.2602 91.4199C72.9101 92.2287 72.9502 92.8796 72.9362 93.8994C72.9354 94.1499 72.9346 94.4004 72.9338 94.6584C72.8725 95.2854 72.8725 95.2854 72.4643 95.6923C71.9558 95.7325 71.47 95.7471 70.9613 95.744C70.8046 95.7447 70.6479 95.7453 70.4864 95.7459C69.9583 95.7476 69.4304 95.7463 68.9023 95.745C68.5249 95.7456 68.1475 95.7463 67.7701 95.7472C66.743 95.749 65.7158 95.7483 64.6887 95.747C63.6157 95.746 62.5427 95.7469 61.4697 95.7476C59.6676 95.7483 57.8654 95.7473 56.0632 95.7454C53.9772 95.7432 51.8912 95.7439 49.8052 95.7461C48.0168 95.748 46.2285 95.7483 44.4402 95.7472C43.3709 95.7466 42.3016 95.7465 41.2324 95.7478C40.2273 95.749 39.2223 95.7482 38.2172 95.7458C37.8475 95.7453 37.4777 95.7454 37.108 95.7463C36.605 95.7474 36.102 95.7461 35.599 95.744C35.4512 95.7449 35.3034 95.7458 35.1511 95.7468C34.1426 95.7388 34.1426 95.7388 33.6879 95.2854C33.3997 92.6797 33.3997 92.6797 34.0578 91.6742C34.7519 90.9624 35.1848 90.759 36.1584 90.7253C36.359 90.7174 36.5596 90.7096 36.7663 90.7015C37.0798 90.692 37.0798 90.692 37.3997 90.6824C37.6111 90.6745 37.8225 90.6666 38.0403 90.6585C38.5623 90.6394 39.0843 90.6219 39.6064 90.6061C40.6565 87.707 41.408 84.755 42.1246 81.7584C42.2595 81.2474 42.2595 81.2474 42.4636 80.8405C42.2751 80.8414 42.0866 80.8423 41.8924 80.8433C37.3017 80.8659 32.7111 80.8826 28.1203 80.8932C25.9003 80.8984 23.6803 80.9055 21.4602 80.9172C19.5248 80.9274 17.5894 80.9339 15.654 80.9362C14.6296 80.9375 13.6052 80.9406 12.5808 80.948C11.6156 80.9549 10.6505 80.957 9.68524 80.9555C9.33198 80.9558 8.97871 80.9578 8.62547 80.9617C5.01859 80.9997 5.01859 80.9997 3.48311 79.8232C2.40023 78.6731 1.80037 77.5686 1.79734 75.9685C1.7959 75.7245 1.79446 75.4805 1.79297 75.2291C1.79347 74.9618 1.79396 74.6945 1.79447 74.4191C1.79356 74.1317 1.79247 73.8443 1.79123 73.5568C1.78833 72.767 1.788 71.9772 1.78809 71.1874C1.78775 70.3356 1.78508 69.4838 1.78274 68.6319C1.77808 66.7694 1.77646 64.9068 1.77543 63.0442C1.77476 61.8811 1.77343 60.718 1.77196 59.555C1.76796 56.3346 1.76462 53.1142 1.76402 49.8937C1.76399 49.6877 1.76395 49.4816 1.76391 49.2692C1.76383 48.8515 1.76376 48.4337 1.76368 48.0159C1.76365 47.8085 1.76361 47.6011 1.76357 47.3874C1.76354 47.1798 1.7635 46.9722 1.76346 46.7582C1.76274 43.3935 1.75722 40.0288 1.74959 36.6641C1.74182 33.2093 1.73787 29.7546 1.73781 26.2998C1.73769 24.3602 1.73595 22.4206 1.73005 20.4809C1.72505 18.8294 1.72356 17.1778 1.72663 15.5263C1.7281 14.6838 1.72792 13.8414 1.72328 12.9989C1.71908 12.2271 1.71962 11.4553 1.72387 10.6835C1.72492 10.2733 1.72096 9.86306 1.7168 9.45288C1.7329 7.71699 2.01389 6.47613 3.22313 5.1887C4.46059 3.99775 5.92352 3.63964 7.60625 3.65533ZM6.95258 8.81897C6.95258 28.3563 6.95258 47.8937 6.95258 68.0231C37.5288 68.0231 68.105 68.0231 99.6078 68.0231C99.6078 48.4857 99.6078 28.9484 99.6078 8.81897C69.0315 8.81897 38.4553 8.81897 6.95258 8.81897Z" fill="#A9023A"/>
<path d="M3.48058 69.6504C36.3466 69.6504 69.2127 69.6504 103.075 69.6504C103.075 76.5677 103.075 76.5677 102.258 78.1953C101.137 79.0854 100.264 79.2427 98.8708 79.2399C98.7105 79.2403 98.5503 79.2408 98.3852 79.2413C97.8439 79.2427 97.3025 79.2426 96.7612 79.2425C96.3709 79.2432 95.9806 79.2439 95.5904 79.2448C94.5145 79.2468 93.4385 79.2476 92.3626 79.2481C91.2036 79.2489 90.0445 79.2508 88.8855 79.2526C86.085 79.2566 83.2845 79.2587 80.4839 79.2605C79.1661 79.2614 77.8483 79.2625 76.5305 79.2636C72.1518 79.267 67.773 79.27 63.3942 79.2714C63.111 79.2715 62.8278 79.2716 62.5446 79.2717C62.4041 79.2718 62.2637 79.2718 62.119 79.2719C61.4074 79.2721 60.6957 79.2724 59.9841 79.2726C59.8429 79.2727 59.7017 79.2727 59.5562 79.2728C54.9759 79.2744 50.3956 79.2791 45.8154 79.2857C40.9743 79.2927 36.1333 79.2967 31.2922 79.2974C28.6527 79.2978 26.0131 79.2996 23.3736 79.3048C21.1263 79.3092 18.8791 79.3109 16.6318 79.3089C15.4847 79.308 14.3376 79.3084 13.1904 79.3123C12.1409 79.3159 11.0914 79.3157 10.0419 79.3125C9.66156 79.312 9.28126 79.3129 8.90097 79.3153C8.38503 79.3184 7.86934 79.3165 7.3534 79.3133C7.20486 79.3153 7.05633 79.3174 6.9033 79.3196C5.87337 79.3056 5.29738 79.0376 4.50101 78.3988C2.23912 75.9001 3.48058 73.6676 3.48058 69.6504Z" fill="white"/>
<path d="M7.55315 5.28237C7.71361 5.28142 7.87407 5.28047 8.03939 5.2795C8.57792 5.27706 9.11634 5.27898 9.65486 5.28087C10.0445 5.28002 10.4342 5.27891 10.8238 5.27755C11.8953 5.2746 12.9667 5.27548 14.0381 5.27697C15.1934 5.27793 16.3487 5.27539 17.5039 5.27331C19.7675 5.26981 22.031 5.26964 24.2945 5.27071C26.1341 5.27153 27.9736 5.27124 29.8131 5.27015C30.0747 5.27 30.3363 5.26984 30.6059 5.26969C31.1373 5.26937 31.6687 5.26906 32.2001 5.26875C35.7694 5.26675 39.3387 5.2659 42.908 5.26745C43.0475 5.26751 43.1871 5.26757 43.331 5.26763C44.4645 5.26813 45.5981 5.26866 46.7317 5.2692C51.1531 5.27125 55.5746 5.26955 59.996 5.26482C64.9634 5.25952 69.9307 5.25692 74.898 5.25835C77.5282 5.25906 80.1584 5.2586 82.7885 5.25505C85.0276 5.25205 87.2667 5.25192 89.5058 5.25547C90.6485 5.2572 91.7911 5.25763 92.9338 5.25452C93.9797 5.25171 95.0255 5.25266 96.0714 5.2566C96.4499 5.25737 96.8284 5.25676 97.2068 5.25465C97.7213 5.25198 98.2356 5.25432 98.7501 5.2579C98.897 5.25594 99.044 5.25398 99.1954 5.25195C100.46 5.27004 101.507 5.66823 102.434 6.52153C103.203 7.74838 103.217 8.87036 103.199 10.2908C103.2 10.539 103.201 10.7871 103.202 11.0428C103.203 11.7281 103.2 12.4132 103.195 13.0986C103.19 13.8388 103.192 14.5791 103.193 15.3194C103.193 16.6008 103.19 17.8822 103.184 19.1637C103.176 21.0164 103.173 22.8691 103.172 24.7218C103.17 27.728 103.163 30.7341 103.153 33.7402C103.144 36.6598 103.137 39.5795 103.132 42.4991C103.132 42.6792 103.132 42.8592 103.132 43.0447C103.13 43.9481 103.129 44.8514 103.128 45.7548C103.117 53.2452 103.099 60.7356 103.076 68.226C102.47 68.226 101.864 68.226 101.24 68.226C101.239 68.0978 101.239 67.9695 101.239 67.8374C101.218 60.2467 101.195 52.656 101.172 45.0653C101.169 44.1549 101.166 43.2444 101.164 42.334C101.163 42.1527 101.163 41.9714 101.162 41.7847C101.153 38.8457 101.145 35.9068 101.137 32.9678C101.128 29.9545 101.119 26.9412 101.11 23.9278C101.104 22.0669 101.098 20.206 101.094 18.3451C101.09 17.0708 101.086 15.7964 101.082 14.5221C101.079 13.7858 101.077 13.0494 101.076 12.3131C101.074 11.5167 101.071 10.7203 101.068 9.92385C101.068 9.57089 101.068 9.57089 101.067 9.21079C101.066 8.9992 101.065 8.7876 101.064 8.56959C101.063 8.38549 101.063 8.20139 101.062 8.01172C101.081 7.59874 101.081 7.59874 100.831 7.39425C100.325 7.37415 99.8243 7.36744 99.3179 7.36922C99.1567 7.36898 98.9956 7.36875 98.8295 7.3685C98.2825 7.36796 97.7356 7.36888 97.1886 7.36978C96.7953 7.3697 96.402 7.36952 96.0087 7.36926C94.9225 7.3688 93.8363 7.36962 92.7501 7.37064C91.5808 7.37151 90.4115 7.37122 89.2422 7.37106C87.2145 7.37096 85.1868 7.3716 83.1592 7.37274C80.2274 7.37439 77.2957 7.37492 74.3639 7.37518C69.6079 7.37562 64.8519 7.37698 60.0959 7.3789C55.4746 7.38077 50.8533 7.38221 46.232 7.38307C45.9416 7.38313 45.6511 7.38318 45.3607 7.38324C43.1121 7.38366 40.8635 7.38406 38.615 7.38445C27.5844 7.38637 16.5537 7.39046 5.52314 7.39425C5.4558 27.4687 5.38845 47.5432 5.31906 68.226C4.71292 68.226 4.10679 68.226 3.48228 68.226C3.45425 60.53 3.43268 52.834 3.41975 45.138C3.41822 44.2294 3.41663 43.3208 3.41502 42.4122C3.4147 42.2313 3.41437 42.0504 3.41404 41.864C3.40872 38.9352 3.39906 36.0065 3.38781 33.0777C3.37635 30.0724 3.36955 27.0671 3.36707 24.0618C3.36539 22.2074 3.36008 20.3531 3.35014 18.4988C3.34366 17.2271 3.34171 15.9555 3.3433 14.6838C3.34408 13.9501 3.34288 13.2165 3.33631 12.4829C3.32924 11.6869 3.33168 10.8911 3.33503 10.0951C3.33146 9.86395 3.32789 9.63279 3.32422 9.39462C3.33882 8.11074 3.50951 7.30676 4.32453 6.29794C5.32341 5.44127 6.27204 5.2705 7.55315 5.28237Z" fill="white"/>
<path d="M34.3745 15.2782C34.5881 15.2766 34.8017 15.2751 35.0218 15.2734C40.1053 15.286 44.2139 17.419 47.8258 20.8596C51.2469 24.4462 52.6127 29.144 52.5103 33.9893C52.3764 37.6506 51.0989 40.8725 49.0033 43.8582C48.584 44.219 48.584 44.219 47.9805 44.3247C47.2153 44.1945 46.9685 43.9658 46.4283 43.418C45.4268 42.45 44.3738 41.741 43.194 41.0123C42.6655 40.5569 42.6655 40.5569 42.4622 39.9172C42.4619 39.7255 42.4617 39.5338 42.4614 39.3362C42.5961 39.202 42.7308 39.0677 42.8696 38.9293C43.6694 38.9923 44.0837 39.2672 44.7063 39.7431C44.9084 39.7431 45.1104 39.7431 45.3186 39.7431C46.5317 37.5921 47.2453 35.2965 47.3595 32.8258C47.2316 32.8305 47.1038 32.8353 46.972 32.8401C46.8052 32.8438 46.6384 32.8475 46.4666 32.8512C46.3008 32.856 46.1351 32.8607 45.9643 32.8655C45.5227 32.8258 45.5227 32.8258 45.1145 32.4189C45.2279 31.4921 45.2279 31.4921 45.5227 31.1982C46.0677 31.1695 46.6093 31.1896 47.1554 31.1982C46.9105 28.659 45.5043 26.212 43.89 24.2809C43.7427 24.4487 43.5954 24.6166 43.4436 24.7895C42.8696 25.2981 42.8696 25.2981 42.3211 25.3872C41.8491 25.2981 41.8491 25.2981 41.441 24.8912C41.5007 24.1166 41.6921 23.7781 42.2573 23.2636C42.2573 23.1294 42.2573 22.9951 42.2573 22.8567C41.8476 22.5522 41.8476 22.5522 41.3262 22.2591C41.1533 22.1566 40.9805 22.054 40.8024 21.9484C39.5739 21.2936 38.4282 20.9097 37.0659 20.6824C36.9166 20.656 36.7673 20.6296 36.6134 20.6025C36.2501 20.5386 35.8863 20.4767 35.5225 20.4153C35.5309 20.6377 35.5393 20.8601 35.548 21.0893C35.5225 21.8395 35.5225 21.8395 35.1143 22.4498C34.1194 22.2718 34.1194 22.2718 33.8898 22.0429C33.8751 21.7338 33.8726 21.4241 33.877 21.1147C33.8789 20.9466 33.8807 20.7785 33.8826 20.6053C33.885 20.4755 33.8873 20.3456 33.8898 20.2119C31.3335 20.7086 29.14 21.4018 26.9508 22.8567C27.1859 23.3589 27.3688 23.6803 27.7672 24.0774C27.6538 25.0043 27.6538 25.0043 27.359 25.2981C26.8998 25.3744 26.8998 25.3744 26.3386 25.2981C25.9889 24.9689 25.6476 24.6303 25.3181 24.2809C23.6863 26.4986 22.7286 28.5133 22.0528 31.1982C22.1806 31.1935 22.3085 31.1888 22.4402 31.1839C22.607 31.1802 22.7738 31.1766 22.9456 31.1728C23.1114 31.1681 23.2771 31.1633 23.4479 31.1585C23.8895 31.1982 23.8895 31.1982 24.2977 31.6051C24.1843 32.5319 24.1843 32.5319 23.8895 32.8258C23.5454 32.8405 23.2007 32.8429 22.8564 32.8385C22.575 32.8358 22.575 32.8358 22.2879 32.833C22.0705 32.8294 22.0705 32.8294 21.8487 32.8258C22.4059 36.6632 22.4059 36.6632 24.2977 39.9466C24.389 39.8708 24.4803 39.795 24.5743 39.7169C25.5915 38.9235 25.5915 38.9235 26.3131 38.9548C26.7467 39.1328 26.7467 39.1328 26.9508 39.3362C27.029 39.8051 27.029 39.8051 26.9508 40.3535C26.5156 40.7747 26.5156 40.7747 25.9049 41.1927C25.6805 41.349 25.4565 41.5058 25.2328 41.6632C25.1141 41.7461 24.9953 41.8289 24.873 41.9143C24.4823 42.1987 24.1106 42.499 23.7389 42.8076C23.613 42.9112 23.4872 43.0147 23.3575 43.1214C23.112 43.3247 22.8681 43.53 22.6263 43.7375C22.1063 44.1614 21.7774 44.4194 21.0937 44.4352C19.2537 43.5881 18.2731 40.3876 17.5557 38.6091C17.4006 38.1762 17.2711 37.7463 17.1547 37.3017C17.1131 37.1507 17.0716 36.9996 17.0287 36.844C16.0168 32.4219 16.9009 27.7246 19.1645 23.8366C21.8281 19.6926 25.8925 16.6032 30.7503 15.5087C31.9591 15.2797 33.1474 15.2692 34.3745 15.2782Z" fill="#A9023A"/>
<path d="M44.0965 80.8398C50.1578 80.8398 56.2192 80.8398 62.4642 80.8398C63.036 82.8919 63.5931 84.9226 64.1009 86.9871C64.356 87.9688 64.6552 88.9332 64.9675 89.8982C65.1174 90.402 65.1174 90.402 65.1174 90.8089C57.3049 90.8089 49.4925 90.8089 41.4434 90.8089C41.7679 89.6228 42.0925 88.4394 42.4309 87.2577C42.8894 85.6487 43.2893 84.0353 43.636 82.3987C43.8734 81.2845 43.8734 81.2845 44.0965 80.8398Z" fill="#FCFBFC"/>
<path d="M80.6243 16.9573C81.4888 16.9473 82.3532 16.9399 83.2178 16.935C83.5119 16.9329 83.8061 16.9301 84.1003 16.9266C84.5228 16.9217 84.9452 16.9194 85.3677 16.9176C85.7493 16.9144 85.7493 16.9144 86.1385 16.9111C86.7469 16.9573 86.7469 16.9573 87.1551 17.3642C87.2065 17.8262 87.2065 17.8262 87.2069 18.4145C87.2081 18.637 87.2092 18.8595 87.2104 19.0888C87.2096 19.334 87.2088 19.5792 87.2079 19.8319C87.2086 20.0892 87.2093 20.3466 87.2101 20.6118C87.2119 21.3188 87.2112 22.0258 87.2099 22.7328C87.2089 23.4717 87.2098 24.2106 87.2105 24.9496C87.2112 26.1906 87.2102 27.4316 87.2083 28.6726C87.2061 30.1087 87.2068 31.5447 87.209 32.9807C87.2109 34.2123 87.2112 35.4439 87.2101 36.6755C87.2095 37.4117 87.2094 38.1479 87.2107 38.884C87.2121 39.7044 87.2102 40.5248 87.2079 41.3452C87.2087 41.5904 87.2096 41.8356 87.2104 42.0882C87.2087 42.422 87.2087 42.422 87.2069 42.7625C87.2068 42.9566 87.2066 43.1508 87.2065 43.3508C87.1551 43.8128 87.1551 43.8128 86.7469 44.2197C86.1638 44.2723 86.1638 44.2723 85.4267 44.2737C85.1629 44.2743 84.899 44.2748 84.6271 44.2753C84.4894 44.2745 84.3517 44.2736 84.2099 44.2727C83.7893 44.2706 83.3688 44.2727 82.9482 44.2753C82.6843 44.2748 82.4205 44.2743 82.1486 44.2737C81.9054 44.2733 81.6622 44.2728 81.4116 44.2723C80.8284 44.2197 80.8284 44.2197 80.4202 43.8128C80.3694 43.3508 80.3694 43.3508 80.3698 42.7625C80.3689 42.54 80.3681 42.3175 80.3672 42.0882C80.3683 41.843 80.3695 41.5978 80.3707 41.3452C80.3703 41.0878 80.3699 40.8304 80.3695 40.5652C80.3685 39.8582 80.3701 39.1512 80.3721 38.4442C80.3739 37.7053 80.3736 36.9664 80.3735 36.2275C80.3737 34.9864 80.3755 33.7454 80.3782 32.5044C80.3814 31.0684 80.3825 29.6323 80.3824 28.1963C80.3822 26.8165 80.3833 25.4367 80.385 24.0568C80.3857 23.4689 80.3861 22.8809 80.3862 22.293C80.3864 21.4726 80.3884 20.6522 80.3906 19.8319C80.3905 19.5866 80.3904 19.3414 80.3903 19.0888C80.3912 18.8663 80.3921 18.6438 80.393 18.4145C80.3933 18.2204 80.3936 18.0262 80.394 17.8262C80.4202 17.3642 80.4202 17.3642 80.6243 16.9573Z" fill="#A9023A"/>
<path d="M73.5505 24.4174C73.7564 24.4181 73.7564 24.4181 73.9665 24.4188C74.3849 24.4194 74.8031 24.4146 75.2215 24.4095C75.4847 24.4093 75.7479 24.4092 76.0191 24.4091C76.2612 24.4085 76.5034 24.4079 76.7529 24.4072C77.4328 24.4922 77.5622 24.5708 77.9715 25.0933C78.0319 25.6939 78.0551 26.2516 78.0507 26.8525C78.0517 27.0321 78.0528 27.2118 78.0539 27.397C78.0566 27.9918 78.0548 28.5866 78.0528 29.1814C78.0532 29.5942 78.0538 30.0069 78.0545 30.4197C78.0554 31.2851 78.0541 32.1505 78.0513 33.0159C78.0478 34.1263 78.0498 35.2366 78.0535 36.347C78.0557 37.1995 78.055 38.0519 78.0534 38.9043C78.053 39.3138 78.0535 39.7233 78.0549 40.1327C78.0565 40.7046 78.0541 41.2763 78.0507 41.8482C78.0525 42.1031 78.0525 42.1031 78.0544 42.3632C78.0416 43.5177 78.0416 43.5177 77.6984 43.956C77.165 44.3675 76.6826 44.2932 76.0191 44.2916C75.6243 44.2914 75.6243 44.2914 75.2215 44.2912C75.0846 44.2895 74.9478 44.2878 74.8068 44.2861C74.3879 44.2813 73.9694 44.2819 73.5505 44.2832C71.4952 44.272 71.4952 44.272 71.0325 43.8108C70.9919 43.2123 70.9769 42.6329 70.9797 42.0342C70.9786 41.7582 70.9786 41.7582 70.9775 41.4767C70.9757 40.8666 70.9769 40.2565 70.9783 39.6464C70.978 39.2237 70.9776 38.8011 70.9771 38.3784C70.9765 37.4918 70.9774 36.6052 70.9793 35.7185C70.9816 34.5801 70.9803 33.4416 70.9778 32.3031C70.9764 31.4301 70.9768 30.5572 70.9779 29.6841C70.9782 29.2643 70.9778 28.8444 70.9769 28.4245C70.9759 27.8385 70.9774 27.2525 70.9797 26.6665C70.9789 26.4917 70.9781 26.3168 70.9772 26.1367C70.9913 24.1887 71.8502 24.4267 73.5505 24.4174Z" fill="#A9023A"/>
<path d="M45.1179 20.503C48.246 23.1551 50.5242 26.9767 50.8707 31.1009C51.0683 34.9171 50.5896 39.1884 47.9703 42.184C47.3754 41.9655 46.9952 41.8222 46.5417 41.3702C46.6237 40.7107 46.9233 40.1728 47.2305 39.59C48.9904 36.1218 49.3921 32.0765 48.1744 28.3493C46.5418 24.2175 43.775 21.5877 39.7674 19.7601C36.9291 18.535 32.6829 18.4349 29.7796 19.5366C29.5865 19.625 29.3934 19.7134 29.1944 19.8044C28.9761 19.9033 28.7577 20.0022 28.5327 20.104C24.8882 21.9121 22.4333 24.7488 21.031 28.5528C19.9139 32.3028 20.3154 36.0358 22.0514 39.5391C22.2142 39.8122 22.3796 40.0838 22.5489 40.3529C22.8677 40.9633 22.8677 40.9633 22.7784 41.421C22.3833 41.8623 21.9619 42.1132 21.4391 42.3874C18.865 38.8954 17.9051 34.6259 18.4325 30.3469C19.2191 25.6843 22.035 21.9491 25.811 19.2473C31.7866 15.3793 39.6458 16.1122 45.1179 20.503Z" fill="#F9F7F8"/>
<path d="M21.3031 55.5592C21.6505 55.5574 21.6505 55.5574 22.0049 55.5556C22.2615 55.5564 22.5181 55.5571 22.7825 55.5579C23.0562 55.5573 23.3298 55.5565 23.6035 55.5556C24.358 55.5535 25.1125 55.5539 25.8671 55.5548C26.6798 55.5553 27.4926 55.5535 28.3053 55.5519C29.8985 55.5493 31.4916 55.549 33.0848 55.5494C34.3791 55.5498 35.6734 55.5495 36.9677 55.5486C37.1516 55.5485 37.3355 55.5483 37.525 55.5482C37.8986 55.548 38.2721 55.5477 38.6457 55.5475C42.1521 55.5453 45.6585 55.5457 49.165 55.5469C52.3762 55.548 55.5875 55.5457 58.7987 55.5418C62.0925 55.5379 65.3862 55.5362 68.6799 55.537C70.5306 55.5374 72.3812 55.5369 74.2318 55.534C75.8071 55.5316 77.3824 55.5313 78.9577 55.5337C79.7621 55.5349 80.5664 55.5351 81.3708 55.5327C82.1063 55.5305 82.8416 55.5311 83.5771 55.534C83.9712 55.5348 84.3653 55.5326 84.7594 55.5303C85.1068 55.5325 85.1068 55.5325 85.4612 55.5347C85.6623 55.5347 85.8634 55.5347 86.0707 55.5347C86.2276 55.5599 86.3845 55.585 86.5462 55.611C86.9543 56.2213 86.9543 56.2213 86.8906 56.6536C86.7503 57.0351 86.7503 57.0351 86.5462 57.2386C86.1921 57.2585 85.8372 57.2641 85.4826 57.2642C85.2505 57.2647 85.0185 57.2652 84.7794 57.2658C84.5213 57.2653 84.2631 57.2649 83.9972 57.2644C83.7227 57.2646 83.4483 57.265 83.1738 57.2654C82.4161 57.2662 81.6584 57.2658 80.9007 57.2652C80.0849 57.2647 79.2691 57.2654 78.4533 57.266C76.8537 57.2669 75.2542 57.2667 73.6547 57.2661C72.3553 57.2656 71.0559 57.2656 69.7565 57.2658C69.4797 57.2658 69.4797 57.2658 69.1973 57.2659C68.8224 57.2659 68.4475 57.266 68.0726 57.2661C64.5531 57.2667 61.0335 57.266 57.514 57.2649C54.4906 57.264 51.4672 57.2641 48.4438 57.2651C44.9373 57.2662 41.4308 57.2666 37.9243 57.266C37.5507 57.2659 37.1772 57.2658 36.8037 57.2658C36.6198 57.2658 36.436 57.2657 36.2466 57.2657C34.9481 57.2655 33.6495 57.2658 32.3509 57.2663C30.7694 57.2669 29.188 57.2667 27.6066 57.2656C26.7989 57.2651 25.9912 57.2649 25.1836 57.2656C24.4454 57.2662 23.7072 57.2658 22.969 57.2647C22.573 57.2644 22.1769 57.2651 21.7808 57.2658C21.4327 57.265 21.4327 57.265 21.0776 57.2642C20.8757 57.2641 20.6738 57.2641 20.4658 57.2641C20.014 57.2386 20.014 57.2386 19.8099 57.0351C19.7717 56.5392 19.7717 56.5392 19.8099 56.0179C20.3422 55.4873 20.5615 55.5598 21.3031 55.5592Z" fill="#A9023A"/>
<path d="M21.2734 50.9062C21.6192 50.9052 21.6192 50.9052 21.9719 50.9042C22.2283 50.9045 22.4847 50.9048 22.7489 50.9052C23.0215 50.9048 23.2942 50.9043 23.5668 50.9038C24.3195 50.9025 25.0721 50.9026 25.8248 50.9028C26.6352 50.9028 27.4455 50.9017 28.2559 50.9008C29.8449 50.8991 31.4338 50.8985 33.0228 50.8984C34.3137 50.8983 35.6046 50.8979 36.8955 50.8972C40.5514 50.8954 44.2072 50.8945 47.8631 50.8947C48.0604 50.8947 48.2577 50.8947 48.461 50.8947C48.7572 50.8947 48.7572 50.8947 49.0595 50.8947C52.2622 50.8948 55.4649 50.8928 58.6676 50.89C61.9521 50.8871 65.2366 50.8856 68.5211 50.8858C70.3667 50.8859 72.2123 50.8853 74.0579 50.8831C75.6291 50.8813 77.2003 50.8808 78.7715 50.8822C79.5738 50.8829 80.3761 50.8829 81.1785 50.8811C81.912 50.8795 82.6455 50.8798 83.3791 50.8816C83.7722 50.8821 84.1652 50.8805 84.5583 50.8789C84.7894 50.8798 85.0204 50.8808 85.2584 50.8817C85.5593 50.8817 85.5593 50.8817 85.8663 50.8816C86.3408 50.9324 86.3408 50.9324 86.7489 51.3393C86.7872 51.8606 86.7872 51.8606 86.7489 52.3565C86.402 52.7023 85.9598 52.5858 85.485 52.5862C85.2538 52.5868 85.0226 52.5875 84.7844 52.5881C84.5272 52.5878 84.27 52.5875 84.005 52.5872C83.7315 52.5876 83.458 52.588 83.1845 52.5886C82.4295 52.5898 81.6746 52.5898 80.9196 52.5896C80.1067 52.5895 79.2938 52.5906 78.4809 52.5916C76.887 52.5933 75.2932 52.5939 73.6993 52.594C72.4044 52.5941 71.1095 52.5945 69.8146 52.5951C66.1475 52.5969 62.4803 52.5979 58.8131 52.5977C58.6152 52.5977 58.4173 52.5977 58.2135 52.5977C58.0153 52.5977 57.8172 52.5977 57.613 52.5977C54.4004 52.5976 51.1878 52.5995 47.9752 52.6024C44.6806 52.6053 41.386 52.6067 38.0913 52.6065C36.24 52.6065 34.3887 52.607 32.5374 52.6092C30.9613 52.6111 29.3853 52.6115 27.8093 52.6101C27.0044 52.6095 26.1996 52.6095 25.3948 52.6112C24.659 52.6128 23.9233 52.6125 23.1875 52.6108C22.7931 52.6103 22.3988 52.6118 22.0045 52.6135C21.7728 52.6125 21.541 52.6116 21.3023 52.6106C21.1011 52.6107 20.8998 52.6107 20.6925 52.6108C20.2168 52.56 20.2168 52.56 19.8086 52.1531C19.9525 50.9765 20.1242 50.907 21.2734 50.9062Z" fill="#A9023A"/>
<path d="M82.0527 18.584C83.1977 18.584 84.3426 18.584 85.5222 18.584C85.5222 26.5063 85.5222 34.4287 85.5222 42.5911C84.3773 42.5911 83.2324 42.5911 82.0527 42.5911C82.0527 34.6688 82.0527 26.7464 82.0527 18.584Z" fill="#FEFEFE"/>
<path d="M63.4215 32.1609C63.5559 32.1605 63.6902 32.1601 63.8286 32.1597C64.1127 32.1595 64.3968 32.1602 64.6809 32.1619C65.1163 32.1641 65.5515 32.1619 65.9869 32.1593C66.2628 32.1596 66.5386 32.1601 66.8144 32.1609C67.1921 32.1616 67.1921 32.1616 67.5774 32.1623C68.1793 32.215 68.1793 32.215 68.5874 32.6219C68.6393 33.0929 68.6393 33.0929 68.6403 33.6888C68.6415 33.9115 68.6428 34.1342 68.6442 34.3636C68.6433 34.605 68.6425 34.8464 68.6417 35.0951C68.6422 35.4653 68.6422 35.4653 68.6428 35.843C68.6431 36.3657 68.6424 36.8883 68.6407 37.411C68.6385 38.2134 68.6406 39.0157 68.6432 39.8181C68.643 40.3249 68.6425 40.8317 68.6417 41.3384C68.6425 41.5798 68.6433 41.8212 68.6442 42.0699C68.6429 42.2926 68.6416 42.5153 68.6403 42.7447C68.6399 42.9414 68.6396 43.138 68.6393 43.3406C68.5874 43.8116 68.5874 43.8116 68.1793 44.2185C67.5774 44.2712 67.5774 44.2712 66.8144 44.2726C66.6801 44.273 66.5457 44.2734 66.4073 44.2738C66.1232 44.274 65.8391 44.2733 65.555 44.2716C65.1196 44.2694 64.6844 44.2716 64.249 44.2742C63.9732 44.2739 63.6973 44.2734 63.4215 44.2726C63.1697 44.2721 62.918 44.2717 62.6586 44.2712C62.0567 44.2185 62.0567 44.2185 61.6485 43.8116C61.5967 43.3406 61.5967 43.3406 61.5957 42.7447C61.5944 42.522 61.5931 42.2994 61.5918 42.0699C61.5926 41.8285 61.5934 41.5871 61.5943 41.3384C61.5939 41.0916 61.5935 40.8448 61.5931 40.5905C61.5928 40.0678 61.5936 39.5452 61.5953 39.0225C61.5975 38.2201 61.5953 37.4178 61.5927 36.6154C61.593 36.1086 61.5935 35.6018 61.5943 35.0951C61.5931 34.733 61.5931 34.733 61.5918 34.3636C61.5931 34.1409 61.5944 33.9182 61.5957 33.6888C61.596 33.4921 61.5963 33.2955 61.5967 33.0929C61.7169 32.0005 62.5145 32.1626 63.4215 32.1609Z" fill="#A9023A"/>
<path d="M37.3173 92.1549C37.5299 92.1535 37.5299 92.1535 37.7469 92.152C38.223 92.1496 38.6991 92.1515 39.1753 92.1534C39.5162 92.1526 39.8571 92.1515 40.198 92.1502C41.1248 92.1474 42.0516 92.1485 42.9784 92.1504C43.9472 92.152 44.9161 92.1506 45.8849 92.1496C47.5121 92.1485 49.1392 92.1499 50.7663 92.1529C52.6489 92.1562 54.5315 92.1551 56.414 92.1517C58.0289 92.149 59.6437 92.1486 61.2586 92.1502C62.2237 92.1511 63.1888 92.1512 64.154 92.1492C65.0612 92.1475 65.9684 92.1487 66.8757 92.1522C67.2091 92.153 67.5426 92.1528 67.876 92.1515C68.3303 92.1498 68.7844 92.1519 69.2386 92.1549C69.4931 92.1551 69.7476 92.1554 70.0098 92.1556C70.6253 92.2324 70.6253 92.2324 71.0181 92.4662C71.2375 92.8428 71.2375 92.8428 71.2375 94.0635C59.3842 94.0635 47.5309 94.0635 35.3184 94.0635C35.3184 92.8428 35.3184 92.8428 35.5378 92.4662C36.1317 92.1128 36.629 92.1555 37.3173 92.1549Z" fill="#F4EBED"/>
<path d="M21.2615 60.2353C21.4076 60.236 21.5537 60.2368 21.7042 60.2376C21.9366 60.2364 21.9366 60.2364 22.1737 60.2352C22.6956 60.2331 23.2174 60.234 23.7394 60.2348C24.1124 60.2339 24.4855 60.2328 24.8585 60.2316C25.8739 60.2289 26.8892 60.2288 27.9046 60.2293C28.7511 60.2295 29.5976 60.2285 30.4441 60.2275C32.4406 60.2253 34.4371 60.2252 36.4336 60.2264C38.4957 60.2276 40.5578 60.2251 42.62 60.2208C44.3882 60.2172 46.1564 60.216 47.9247 60.2167C48.9817 60.217 50.0388 60.2165 51.0959 60.2137C52.0897 60.2111 53.0835 60.2115 54.0774 60.2142C54.4428 60.2146 54.8081 60.2141 55.1735 60.2124C55.6711 60.2103 56.1686 60.2119 56.6662 60.2145C56.8118 60.213 56.9575 60.2115 57.1075 60.21C57.7008 60.2165 58.0887 60.228 58.582 60.5736C58.7904 60.901 58.7904 60.901 58.7394 61.3333C58.5863 61.7148 58.5863 61.7148 58.3823 61.9182C57.8871 61.9386 57.3977 61.9456 56.9025 61.9441C56.6674 61.9446 56.6674 61.9446 56.4276 61.945C55.8985 61.9459 55.3694 61.9452 54.8402 61.9446C54.4625 61.9448 54.0848 61.9452 53.7071 61.9457C52.6783 61.9466 51.6495 61.9462 50.6206 61.9456C49.5465 61.9451 48.4723 61.9455 47.3981 61.9459C45.5939 61.9462 43.7896 61.9457 41.9854 61.9448C39.8962 61.9437 37.8071 61.944 35.7179 61.9451C33.9277 61.9461 32.1375 61.9462 30.3473 61.9457C29.2765 61.9453 28.2058 61.9453 27.135 61.946C26.1286 61.9466 25.1222 61.9462 24.1158 61.945C23.7453 61.9447 23.3749 61.9448 23.0044 61.9452C22.5008 61.9458 21.9973 61.9451 21.4938 61.9441C21.271 61.9448 21.271 61.9448 21.0436 61.9455C20.0373 61.9415 20.0373 61.9415 19.8099 61.7148C19.7717 61.2189 19.7717 61.2189 19.8099 60.6975C20.309 60.2 20.5803 60.2414 21.2615 60.2353Z" fill="#A9023A"/>
<path d="M72.668 26.1113C73.8802 26.1113 75.0925 26.1113 76.3415 26.1113C76.3415 31.5496 76.3415 36.9878 76.3415 42.5908C75.1292 42.5908 73.917 42.5908 72.668 42.5908C72.668 37.1526 72.668 31.7144 72.668 26.1113Z" fill="#FCFAFA"/>
<path d="M40.011 26.5185C40.1121 26.6192 40.1121 26.6192 40.2151 26.7219C40.1432 27.8997 39.7647 28.7044 39.1947 29.7228C38.5693 30.8929 38.2461 31.8083 38.2117 33.1505C38.1492 33.9667 37.8477 34.6159 37.3579 35.2668C36.3179 36.0921 35.4669 36.3609 34.1635 36.3397C33.0591 36.2115 32.4452 35.7028 31.7583 34.8599C31.2514 33.8293 31.2163 32.7168 31.4394 31.6047C31.9761 30.6789 32.6762 29.9641 33.6844 29.5702C33.9647 29.5566 34.2456 29.5529 34.5262 29.5575C35.8768 29.44 36.6512 28.4499 37.562 27.5357C38.348 26.7731 38.8596 26.3583 40.011 26.5185Z" fill="#A9023A"/>
<path d="M5.72656 6.98759C14.8295 6.98411 23.9325 6.98087 33.0355 6.97898C33.1701 6.97895 33.3047 6.97892 33.4434 6.97889C36.3687 6.97828 39.294 6.97772 42.2193 6.9772C43.6537 6.97695 45.0882 6.97668 46.5226 6.97642C46.6654 6.97639 46.8081 6.97636 46.9552 6.97633C51.5863 6.97547 56.2174 6.97394 60.8485 6.97207C65.7403 6.9701 70.632 6.96888 75.5238 6.96845C78.456 6.96817 81.3882 6.96728 84.3204 6.96564C86.3281 6.96456 88.3358 6.96423 90.3436 6.9645C91.5038 6.96463 92.6641 6.96442 93.8243 6.96334C94.8846 6.96236 95.9449 6.96229 97.0053 6.96299C97.3906 6.96308 97.776 6.96282 98.1614 6.96218C98.6817 6.96138 99.2019 6.9618 99.7222 6.96256C99.9512 6.96176 99.9512 6.96176 100.185 6.96094C101.216 6.96437 101.216 6.96437 101.443 7.19104C101.463 7.51557 101.468 7.84098 101.468 8.16611C101.469 8.37841 101.469 8.59072 101.469 8.80946C101.469 9.04556 101.468 9.28166 101.468 9.52491C101.468 9.89779 101.468 9.89779 101.468 10.2782C101.468 10.9713 101.468 11.6644 101.467 12.3575C101.466 13.1038 101.466 13.8501 101.466 14.5963C101.466 15.8903 101.466 17.1843 101.465 18.4783C101.463 20.3493 101.462 22.2202 101.462 24.0911C101.462 27.1262 101.46 30.1614 101.458 33.1965C101.457 36.1456 101.455 39.0947 101.454 42.0438C101.454 42.3163 101.454 42.3163 101.454 42.5943C101.454 43.5055 101.454 44.4168 101.453 45.328C101.451 52.8929 101.448 60.4578 101.443 68.0228C101.914 68.0228 102.386 68.0228 102.872 68.0228C102.872 48.1497 102.872 28.2767 102.872 7.80139C102.939 7.80139 103.006 7.80139 103.076 7.80139C103.076 27.7416 103.076 47.6818 103.076 68.2262C102.47 68.2262 101.863 68.2262 101.239 68.2262C101.239 68.098 101.238 67.9698 101.238 67.8377C101.217 60.247 101.195 52.6563 101.171 45.0655C101.169 44.1551 101.166 43.2446 101.163 42.3342C101.162 42.1529 101.162 41.9717 101.161 41.7849C101.152 38.846 101.144 35.907 101.136 32.9681C101.128 29.9547 101.119 26.9414 101.109 23.9281C101.103 22.0672 101.098 20.2062 101.093 18.3453C101.09 17.071 101.086 15.7967 101.081 14.5224C101.079 13.786 101.076 13.0497 101.075 12.3133C101.073 11.5169 101.07 10.7205 101.067 9.92409C101.067 9.57113 101.067 9.57113 101.067 9.21103C101.065 8.99944 101.064 8.78784 101.063 8.56983C101.063 8.38573 101.062 8.20164 101.062 8.01196C101.081 7.59898 101.081 7.59898 100.831 7.39449C100.325 7.37335 99.8258 7.36559 99.3204 7.36628C99.1596 7.3657 98.9988 7.36512 98.8331 7.36453C98.2873 7.36282 97.7415 7.36257 97.1957 7.3623C96.8032 7.36137 96.4108 7.36036 96.0183 7.35926C94.9344 7.35648 93.8506 7.35498 92.7667 7.35368C91.5999 7.35206 90.4331 7.34927 89.2663 7.34662C87.243 7.34218 85.2196 7.33849 83.1963 7.3353C80.2708 7.33069 77.3454 7.32497 74.4199 7.31896C69.6741 7.30925 64.9283 7.30045 60.1825 7.29222C55.5711 7.28422 50.9597 7.27579 46.3483 7.26679C46.2062 7.26651 46.0641 7.26623 45.9178 7.26595C44.4911 7.26317 43.0645 7.26037 41.6379 7.25757C29.6674 7.23409 17.697 7.21206 5.72656 7.19104C5.72656 7.1239 5.72656 7.05676 5.72656 6.98759Z" fill="#DFBCC3"/>
<path d="M54.7464 71.6206C55.6709 72.1242 56.2089 72.7136 56.5449 73.7187C56.6635 74.9241 56.4493 75.8057 55.7286 76.7704C55.0115 77.4252 54.2588 77.8418 53.2795 77.9148C52.2997 77.8418 51.5487 77.4246 50.8305 76.7704C50.1884 75.9272 49.85 74.9894 49.9089 73.9261C50.1851 72.8479 50.9397 72.0905 51.8382 71.4807C52.9114 71.1313 53.7246 71.1557 54.7464 71.6206Z" fill="#A9023A"/>
<path d="M63.2773 33.8428C64.4896 33.8428 65.7019 33.8428 66.9509 33.8428C66.9509 36.7297 66.9509 39.6167 66.9509 42.5911C65.7386 42.5911 64.5264 42.5911 63.2773 42.5911C63.2773 39.7042 63.2773 36.8172 63.2773 33.8428Z" fill="#FBFAFB"/>
<path d="M35.3182 31.1973C35.9049 31.5025 35.9049 31.5025 36.3386 32.0111C36.5014 33.0333 36.5067 33.4021 35.9049 34.249C35.3182 34.6559 35.3182 34.6559 34.7059 34.7831C33.9012 34.616 33.5985 34.2521 33.0732 33.6387C33.0059 33.5716 32.9385 33.5044 32.8691 33.4352C32.9009 32.5967 32.9495 32.1485 33.5197 31.5152C34.2047 31.1358 34.5463 31.069 35.3182 31.1973Z" fill="#F7F5F7"/>
<path d="M53.2752 72.7783C54.1067 72.951 54.4067 73.2467 54.9079 73.9227C55.0482 74.5331 55.0482 74.5331 54.9079 75.1434C54.3566 75.7314 53.9519 76.0954 53.1604 76.2878C52.4126 76.0967 52.1048 75.7491 51.6425 75.1434C51.515 74.5331 51.515 74.5331 51.6425 73.9227C52.1438 73.2467 52.4437 72.951 53.2752 72.7783Z" fill="#F7F2F5"/>
<path d="M100.625 6.9873C100.894 7.05444 101.164 7.12158 101.441 7.19076C101.441 13.0318 101.441 18.8729 101.441 24.891C101.374 24.891 101.307 24.891 101.237 24.891C101.236 24.6757 101.234 24.4604 101.232 24.2385C101.216 22.2118 101.199 20.185 101.179 18.1583C101.168 17.1163 101.159 16.0742 101.151 15.0322C101.144 14.027 101.134 13.0218 101.123 12.0166C101.12 11.6327 101.116 11.2488 101.114 10.8648C101.111 10.328 101.105 9.79123 101.098 9.25442C101.098 9.09491 101.097 8.9354 101.097 8.77105C101.085 8.00133 101.064 7.64352 100.625 6.9873Z" fill="#E3CFD5"/>
<path d="M53.8885 71.2784C53.9558 71.4127 54.0232 71.547 54.0925 71.6853C53.9742 71.6906 53.8558 71.6958 53.7338 71.7012C52.5883 71.7842 51.9315 71.9892 51.0312 72.7026C51.0312 72.5012 51.0312 72.2998 51.0312 72.0922C52.0466 71.4312 52.6399 71.1768 53.8885 71.2784Z" fill="#B54F64"/>
<path d="M23.0711 19.6016C22.7342 20.4749 22.1043 21.0012 21.4384 21.6361C21.2364 21.5689 21.0343 21.5018 20.8262 21.4326C21.1225 21.1262 21.4205 20.8213 21.719 20.5171C21.9677 20.2622 21.9677 20.2622 22.2213 20.0021C22.6629 19.6016 22.6629 19.6016 23.0711 19.6016Z" fill="#B24E5F"/>
<path d="M42.8711 38.9287C43.1405 38.9287 43.4099 38.9287 43.6874 38.9287C43.6874 39.063 43.6874 39.1973 43.6874 39.3356C43.2871 39.6183 42.8789 39.8902 42.4629 40.1494C42.6415 39.1576 42.6415 39.1576 42.8711 38.9287Z" fill="#BB5B70"/>
<path d="M100.625 6.9873C100.894 7.05444 101.164 7.12158 101.441 7.19076C101.441 7.99642 101.441 8.80208 101.441 9.63216C101.374 9.63216 101.307 9.63216 101.237 9.63216C101.222 9.42248 101.222 9.42248 101.207 9.20857C101.192 9.02525 101.176 8.84193 101.161 8.65306C101.147 8.47131 101.132 8.28956 101.118 8.10231C101.06 7.54802 101.06 7.54802 100.625 6.9873Z" fill="#E6D9E0"/>
</svg>
