<svg width="120" height="112" viewBox="0 0 120 112" fill="none" xmlns="http://www.w3.org/2000/svg">
<path d="M8.53077 4.09377C8.7115 4.09271 8.89224 4.09165 9.07845 4.09055C9.6823 4.08784 10.286 4.08997 10.8899 4.09209C11.3279 4.09114 11.7659 4.08989 12.2039 4.08837C13.4062 4.08508 14.6085 4.08605 15.8108 4.08773C17.108 4.08881 18.4052 4.08596 19.7023 4.08362C22.2431 4.0797 24.7839 4.07952 27.3247 4.08071C29.3898 4.08163 31.4548 4.0813 33.5199 4.08008C33.8137 4.07991 34.1076 4.07974 34.4103 4.07957C35.0072 4.07922 35.6042 4.07887 36.2011 4.07851C40.2093 4.07627 44.2176 4.07533 48.2258 4.07706C48.3825 4.07713 48.5392 4.0772 48.7007 4.07727C49.9732 4.07783 51.2458 4.07842 52.5183 4.07902C57.4817 4.08132 62.445 4.07942 67.4083 4.07412C72.9862 4.06818 78.5641 4.06526 84.1419 4.06687C87.0948 4.06767 90.0476 4.06716 93.0004 4.06317C95.5141 4.05982 98.0278 4.05967 100.541 4.06364C101.824 4.06558 103.106 4.06606 104.389 4.06258C105.563 4.05943 106.738 4.0605 107.912 4.06491C108.336 4.06577 108.761 4.0651 109.185 4.06272C113.802 4.03873 113.802 4.03873 115.693 5.52359C115.809 5.66781 115.925 5.81203 116.044 5.96062C116.165 6.10308 116.285 6.24554 116.408 6.39232C117.53 8.13096 117.531 9.60072 117.522 11.6362C117.523 11.9565 117.525 12.2767 117.527 12.597C117.53 13.4749 117.53 14.3528 117.529 15.2307C117.528 16.1784 117.531 17.1261 117.534 18.0738C117.539 19.9296 117.54 21.7854 117.54 23.6413C117.539 25.15 117.54 26.6587 117.542 28.1675C117.542 28.6022 117.543 29.0369 117.543 29.4716C117.544 29.7962 117.544 29.7962 117.544 30.1273C117.548 34.219 117.548 38.3107 117.546 42.4024C117.545 46.1442 117.55 49.886 117.558 53.6277C117.565 57.4711 117.569 61.3144 117.568 65.1578C117.567 67.315 117.568 69.4722 117.574 71.6295C117.579 73.4661 117.58 75.3027 117.575 77.1394C117.573 78.076 117.573 79.0126 117.578 79.9493C117.582 80.8078 117.581 81.666 117.576 82.5245C117.574 82.9801 117.579 83.4357 117.583 83.8913C117.562 86.0119 117.086 87.4746 115.773 89.1454C113.697 90.7421 111.578 90.6669 109.068 90.6446C108.661 90.6443 108.255 90.6445 107.849 90.645C106.751 90.6452 105.653 90.6399 104.555 90.6335C103.406 90.6278 102.257 90.6273 101.108 90.6262C98.9337 90.6234 96.7598 90.6159 94.5858 90.6068C92.1099 90.5966 89.634 90.5915 87.158 90.587C82.0669 90.5775 76.9757 90.5614 71.8846 90.5411C71.9633 90.8224 72.042 91.1037 72.1231 91.3935C72.2273 91.7664 72.3315 92.1393 72.4357 92.5122C72.4874 92.6971 72.5392 92.882 72.5925 93.0726C72.9992 94.5286 73.3877 95.9886 73.7621 97.4531C74.038 98.5143 74.3587 99.5466 74.729 100.579C74.8601 101.023 74.8601 101.023 74.8601 101.706C75.0066 101.703 75.1531 101.699 75.3041 101.696C75.9715 101.681 76.6388 101.673 77.3062 101.664C77.6521 101.655 77.6521 101.655 78.005 101.646C80.1945 101.625 80.1945 101.625 81.0399 102.39C81.7688 103.296 81.8138 104.025 81.798 105.167C81.7972 105.448 81.7963 105.728 81.7954 106.017C81.7265 106.719 81.7265 106.719 81.2688 107.175C80.6985 107.22 80.1537 107.237 79.5832 107.233C79.4074 107.234 79.2316 107.235 79.0505 107.235C78.4584 107.237 77.8662 107.236 77.274 107.234C76.8508 107.235 76.4275 107.236 76.0043 107.237C74.8523 107.239 73.7004 107.238 72.5484 107.236C71.3451 107.235 70.1418 107.236 68.9384 107.237C66.9173 107.238 64.8962 107.237 62.8751 107.235C60.5356 107.232 58.1961 107.233 55.8567 107.235C53.8511 107.238 51.8455 107.238 49.8398 107.237C48.6407 107.236 47.4415 107.236 46.2423 107.237C45.1151 107.239 43.988 107.238 42.8608 107.235C42.4461 107.235 42.0315 107.235 41.6168 107.236C41.0527 107.237 40.4886 107.235 39.9245 107.233C39.7587 107.234 39.5929 107.235 39.4221 107.236C38.2912 107.227 38.2912 107.227 37.7812 106.719C37.458 103.801 37.458 103.801 38.196 102.675C38.9745 101.878 39.46 101.65 40.5519 101.612C40.7769 101.603 41.0019 101.594 41.2337 101.585C41.5853 101.575 41.5853 101.575 41.944 101.564C42.1811 101.555 42.4181 101.546 42.6624 101.537C43.2478 101.516 43.8332 101.496 44.4188 101.479C45.5965 98.2317 46.4393 94.9254 47.243 91.5692C47.3942 90.9968 47.3942 90.9968 47.6231 90.5411C47.4117 90.5422 47.2003 90.5432 46.9825 90.5443C41.8341 90.5696 36.6857 90.5883 31.5372 90.6001C29.0475 90.606 26.5577 90.614 24.068 90.6271C21.8974 90.6384 19.7269 90.6458 17.5563 90.6483C16.4074 90.6498 15.2586 90.6533 14.1097 90.6616C13.0272 90.6693 11.9449 90.6717 10.8624 90.67C10.4662 90.6703 10.07 90.6725 9.67383 90.6769C5.62873 90.7195 5.62873 90.7195 3.90669 89.4018C2.69225 88.1137 2.01951 86.8766 2.01611 85.0845C2.0145 84.8112 2.01288 84.538 2.01121 84.2564C2.01177 83.957 2.01232 83.6576 2.01289 83.3492C2.01187 83.0273 2.01065 82.7054 2.00926 82.3835C2.00601 81.4989 2.00563 80.6143 2.00573 79.7297C2.00535 78.7757 2.00236 77.8216 1.99974 76.8676C1.99451 74.7815 1.99269 72.6954 1.99154 70.6093C1.99079 69.3066 1.9893 68.004 1.98764 66.7014C1.98317 63.0945 1.97941 59.4877 1.97875 55.8808C1.9787 55.65 1.97866 55.4192 1.97862 55.1813C1.97853 54.7134 1.97845 54.2455 1.97837 53.7776C1.97832 53.5453 1.97828 53.3131 1.97824 53.0737C1.9782 52.8412 1.97816 52.6086 1.97811 52.369C1.9773 48.6005 1.97112 44.8321 1.96256 41.0636C1.95385 37.1943 1.94941 33.3249 1.94934 29.4556C1.94921 27.2832 1.94727 25.1108 1.94065 22.9385C1.93504 21.0887 1.93337 19.239 1.93681 17.3892C1.93845 16.4456 1.93826 15.5022 1.93306 14.5586C1.92834 13.6941 1.92894 12.8298 1.93371 11.9653C1.93489 11.5059 1.93045 11.0464 1.92578 10.587C1.94384 8.64283 2.25897 7.25307 3.61512 5.81115C5.00293 4.47729 6.6436 4.0762 8.53077 4.09377Z" fill="white"/>
<path d="M8.53077 4.09377C8.7115 4.09271 8.89224 4.09165 9.07845 4.09055C9.6823 4.08784 10.286 4.08997 10.8899 4.09209C11.3279 4.09114 11.7659 4.08989 12.2039 4.08837C13.4062 4.08508 14.6085 4.08605 15.8108 4.08773C17.108 4.08881 18.4052 4.08596 19.7023 4.08362C22.2431 4.0797 24.7839 4.07952 27.3247 4.08071C29.3898 4.08163 31.4548 4.0813 33.5199 4.08008C33.8137 4.07991 34.1076 4.07974 34.4103 4.07957C35.0072 4.07922 35.6042 4.07887 36.2011 4.07851C40.2093 4.07627 44.2176 4.07533 48.2258 4.07706C48.3825 4.07713 48.5392 4.0772 48.7007 4.07727C49.9732 4.07783 51.2458 4.07842 52.5183 4.07902C57.4817 4.08132 62.445 4.07942 67.4083 4.07412C72.9862 4.06818 78.5641 4.06526 84.1419 4.06687C87.0948 4.06767 90.0476 4.06716 93.0004 4.06317C95.5141 4.05982 98.0278 4.05967 100.541 4.06364C101.824 4.06558 103.106 4.06606 104.389 4.06258C105.563 4.05943 106.738 4.0605 107.912 4.06491C108.336 4.06577 108.761 4.0651 109.185 4.06272C113.802 4.03873 113.802 4.03873 115.693 5.52359C115.809 5.66781 115.925 5.81203 116.044 5.96062C116.165 6.10308 116.285 6.24554 116.408 6.39232C117.53 8.13096 117.531 9.60072 117.522 11.6362C117.523 11.9565 117.525 12.2767 117.527 12.597C117.53 13.4749 117.53 14.3528 117.529 15.2307C117.528 16.1784 117.531 17.1261 117.534 18.0738C117.539 19.9296 117.54 21.7854 117.54 23.6413C117.539 25.15 117.54 26.6587 117.542 28.1675C117.542 28.6022 117.543 29.0369 117.543 29.4716C117.544 29.7962 117.544 29.7962 117.544 30.1273C117.548 34.219 117.548 38.3107 117.546 42.4024C117.545 46.1442 117.55 49.886 117.558 53.6277C117.565 57.4711 117.569 61.3144 117.568 65.1578C117.567 67.315 117.568 69.4722 117.574 71.6295C117.579 73.4661 117.58 75.3027 117.575 77.1394C117.573 78.076 117.573 79.0126 117.578 79.9493C117.582 80.8078 117.581 81.666 117.576 82.5245C117.574 82.9801 117.579 83.4357 117.583 83.8913C117.562 86.0119 117.086 87.4746 115.773 89.1454C113.697 90.7421 111.578 90.6669 109.068 90.6446C108.661 90.6443 108.255 90.6445 107.849 90.645C106.751 90.6452 105.653 90.6399 104.555 90.6335C103.406 90.6278 102.257 90.6273 101.108 90.6262C98.9337 90.6234 96.7598 90.6159 94.5858 90.6068C92.1099 90.5965 89.634 90.5916 87.158 90.587C82.0669 90.5775 76.9757 90.5614 71.8846 90.5411C71.9633 90.8224 72.042 91.1037 72.1231 91.3935C72.2273 91.7664 72.3315 92.1393 72.4357 92.5122C72.4874 92.6971 72.5392 92.882 72.5925 93.0726C72.9992 94.5286 73.3877 95.9886 73.7621 97.4531C74.038 98.5143 74.3587 99.5466 74.729 100.579C74.8601 101.023 74.8601 101.023 74.8601 101.706C75.0066 101.703 75.1531 101.699 75.3041 101.696C75.9715 101.681 76.6388 101.673 77.3062 101.664C77.6521 101.655 77.6521 101.655 78.005 101.646C80.1945 101.625 80.1945 101.625 81.0399 102.39C81.7688 103.296 81.8138 104.025 81.798 105.167C81.7972 105.448 81.7963 105.728 81.7954 106.017C81.7265 106.719 81.7265 106.719 81.2688 107.175C80.6985 107.22 80.1537 107.237 79.5832 107.233C79.4074 107.234 79.2316 107.235 79.0505 107.235C78.4584 107.237 77.8662 107.236 77.274 107.234C76.8508 107.235 76.4275 107.236 76.0043 107.237C74.8523 107.239 73.7004 107.238 72.5484 107.236C71.3451 107.235 70.1418 107.236 68.9384 107.237C66.9173 107.238 64.8962 107.237 62.8751 107.235C60.5356 107.232 58.1961 107.233 55.8567 107.235C53.8511 107.238 51.8455 107.238 49.8398 107.237C48.6407 107.236 47.4415 107.236 46.2423 107.237C45.1151 107.239 43.988 107.238 42.8608 107.235C42.4461 107.235 42.0315 107.235 41.6168 107.236C41.0527 107.237 40.4886 107.235 39.9245 107.233C39.7587 107.234 39.5929 107.235 39.4221 107.236C38.2912 107.227 38.2912 107.227 37.7812 106.719C37.458 103.801 37.458 103.801 38.196 102.675C38.9745 101.878 39.46 101.65 40.5519 101.612C40.7769 101.603 41.0019 101.594 41.2337 101.585C41.5853 101.575 41.5853 101.575 41.944 101.564C42.1811 101.555 42.4181 101.546 42.6624 101.537C43.2478 101.516 43.8332 101.496 44.4188 101.479C45.5965 98.2317 46.4393 94.9254 47.243 91.5692C47.3942 90.9968 47.3942 90.9968 47.6231 90.5411C47.4117 90.5422 47.2003 90.5432 46.9825 90.5443C41.8341 90.5696 36.6857 90.5883 31.5372 90.6001C29.0475 90.606 26.5577 90.614 24.068 90.6271C21.8974 90.6384 19.7269 90.6458 17.5563 90.6483C16.4074 90.6498 15.2586 90.6533 14.1097 90.6616C13.0272 90.6693 11.9449 90.6717 10.8624 90.67C10.4662 90.6703 10.07 90.6725 9.67383 90.6769C5.62873 90.7195 5.62873 90.7195 3.90669 89.4018C2.69225 88.1137 2.01951 86.8766 2.01611 85.0845C2.0145 84.8112 2.01288 84.538 2.01121 84.2564C2.01177 83.957 2.01232 83.6576 2.01289 83.3492C2.01187 83.0273 2.01065 82.7054 2.00926 82.3835C2.00601 81.4989 2.00563 80.6143 2.00573 79.7297C2.00535 78.7757 2.00236 77.8216 1.99974 76.8676C1.99451 74.7815 1.99269 72.6954 1.99154 70.6093C1.99079 69.3066 1.9893 68.004 1.98764 66.7014C1.98317 63.0945 1.97941 59.4877 1.97875 55.8808C1.9787 55.65 1.97866 55.4192 1.97862 55.1813C1.97853 54.7134 1.97845 54.2455 1.97837 53.7776C1.97832 53.5453 1.97828 53.3131 1.97824 53.0737C1.9782 52.8412 1.97816 52.6086 1.97811 52.369C1.9773 48.6005 1.97112 44.8321 1.96256 41.0636C1.95385 37.1943 1.94941 33.3249 1.94934 29.4556C1.94921 27.2832 1.94727 25.1108 1.94065 22.9385C1.93504 21.0887 1.93337 19.239 1.93681 17.3892C1.93845 16.4456 1.93826 15.5022 1.93306 14.5586C1.92834 13.6941 1.92894 12.8298 1.93371 11.9653C1.93489 11.5059 1.93045 11.0464 1.92578 10.587C1.94384 8.64283 2.25897 7.25307 3.61512 5.81115C5.00293 4.47729 6.6436 4.0762 8.53077 4.09377ZM7.79768 9.87705C7.79768 31.7589 7.79768 53.6407 7.79768 76.1856C42.0888 76.1856 76.3798 76.1856 111.71 76.1856C111.71 54.3038 111.71 32.422 111.71 9.87705C77.419 9.87705 43.1279 9.87705 7.79768 9.87705Z" fill="#A9023A"/>
<path d="M3.9047 78.0083C40.7638 78.0083 77.623 78.0083 115.599 78.0083C115.599 85.7557 115.599 85.7557 114.684 87.5786C113.425 88.5755 112.446 88.7517 110.884 88.7485C110.705 88.7491 110.525 88.7496 110.34 88.7501C109.733 88.7517 109.126 88.7516 108.518 88.7515C108.081 88.7522 107.643 88.7531 107.205 88.754C105.999 88.7563 104.792 88.7571 103.585 88.7577C102.286 88.7586 100.986 88.7608 99.6859 88.7628C96.5452 88.7673 93.4044 88.7696 90.2636 88.7716C88.7857 88.7726 87.3078 88.7739 85.8299 88.775C80.9191 88.7789 76.0083 88.7822 71.0976 88.7839C70.78 88.784 70.4623 88.7841 70.1447 88.7842C69.9872 88.7843 69.8297 88.7843 69.6674 88.7844C68.8693 88.7846 68.0712 88.7849 67.2732 88.7852C67.1148 88.7852 66.9564 88.7853 66.7932 88.7854C61.6565 88.7872 56.5197 88.7925 51.3829 88.7999C45.9537 88.8077 40.5245 88.8122 35.0953 88.813C32.1351 88.8135 29.1749 88.8155 26.2146 88.8213C23.6943 88.8262 21.1741 88.8281 18.6538 88.8258C17.3672 88.8248 16.0807 88.8252 14.7942 88.8297C13.6172 88.8336 12.4402 88.8335 11.2631 88.8299C10.8366 88.8294 10.4101 88.8304 9.98364 88.8331C9.40501 88.8365 8.82666 88.8343 8.24804 88.8307C8.08146 88.8331 7.91488 88.8354 7.74326 88.8378C6.5882 88.8221 5.94222 88.522 5.04911 87.8065C2.5124 85.008 3.9047 82.5076 3.9047 78.0083Z" fill="white"/>
<path d="M8.47124 5.91639C8.65119 5.91533 8.83115 5.91427 9.01656 5.91317C9.62051 5.91045 10.2243 5.91259 10.8283 5.91471C11.2653 5.91376 11.7023 5.91251 12.1393 5.91099C13.3409 5.90769 14.5425 5.90867 15.7441 5.91035C17.0397 5.91142 18.3354 5.90858 19.631 5.90624C22.1695 5.90232 24.7081 5.90214 27.2466 5.90333C29.3096 5.90425 31.3727 5.90392 33.4357 5.9027C33.7291 5.90253 34.0225 5.90236 34.3247 5.90219C34.9207 5.90184 35.5167 5.90149 36.1127 5.90113C40.1157 5.89889 44.1186 5.89795 48.1215 5.89968C48.278 5.89975 48.4346 5.89982 48.5959 5.89989C49.8672 5.90044 51.1385 5.90104 52.4098 5.90164C57.3684 5.90394 62.3271 5.90204 67.2857 5.89674C72.8565 5.8908 78.4273 5.88788 83.9982 5.88949C86.9479 5.89029 89.8976 5.88977 92.8474 5.88579C95.3585 5.88244 97.8696 5.88228 100.381 5.88626C101.662 5.8882 102.944 5.88868 104.225 5.8852C105.398 5.88206 106.571 5.88311 107.744 5.88753C108.168 5.88839 108.593 5.88771 109.017 5.88534C109.594 5.88235 110.171 5.88497 110.748 5.88899C110.913 5.88679 111.078 5.88459 111.248 5.88232C112.666 5.90258 113.84 6.34855 114.88 7.30425C115.742 8.67832 115.758 9.93494 115.738 11.5259C115.739 11.8038 115.74 12.0817 115.741 12.368C115.742 13.1357 115.739 13.9029 115.733 14.6705C115.728 15.4996 115.73 16.3287 115.731 17.1579C115.731 18.5931 115.728 20.0282 115.721 21.4634C115.712 23.5385 115.709 25.6135 115.707 27.6886C115.705 31.0554 115.697 34.4223 115.686 37.7892C115.676 41.0592 115.668 44.3291 115.663 47.5991C115.663 47.8008 115.662 48.0025 115.662 48.2103C115.661 49.222 115.659 50.2337 115.658 51.2455C115.646 59.6347 115.626 68.024 115.6 76.4132C114.92 76.4132 114.241 76.4132 113.54 76.4132C113.54 76.2696 113.539 76.126 113.539 75.9781C113.515 67.4765 113.491 58.9749 113.464 50.4733C113.461 49.4536 113.458 48.4339 113.455 47.4142C113.454 47.2111 113.454 47.0081 113.453 46.799C113.443 43.5073 113.434 40.2157 113.425 36.9241C113.415 33.5492 113.405 30.1742 113.394 26.7993C113.388 24.7151 113.382 22.6309 113.376 20.5466C113.373 19.1194 113.368 17.6921 113.363 16.2649C113.36 15.4402 113.358 14.6155 113.356 13.7908C113.355 12.8988 113.351 12.0068 113.347 11.1148C113.347 10.7195 113.347 10.7195 113.347 10.3162C113.346 10.0792 113.344 9.84225 113.343 9.59808C113.342 9.39189 113.342 9.1857 113.341 8.97326C113.363 8.51072 113.363 8.51072 113.082 8.2817C112.514 8.25918 111.953 8.25167 111.385 8.25366C111.204 8.2534 111.023 8.25313 110.837 8.25286C110.224 8.25225 109.61 8.25329 108.997 8.25429C108.556 8.2542 108.115 8.254 107.674 8.2537C106.456 8.25319 105.237 8.25411 104.019 8.25525C102.708 8.25623 101.397 8.2559 100.085 8.25573C97.8111 8.25561 95.5371 8.25633 93.263 8.2576C89.9751 8.25945 86.6872 8.26005 83.3992 8.26034C78.0654 8.26084 72.7316 8.26235 67.3977 8.26451C62.215 8.2666 57.0322 8.26821 51.8494 8.26918C51.5237 8.26924 51.198 8.2693 50.8722 8.26936C48.3505 8.26984 45.8287 8.27028 43.3069 8.27072C30.9361 8.27287 18.5654 8.27746 6.1946 8.2817C6.11907 30.7651 6.04354 53.2485 5.96572 76.4132C5.28594 76.4132 4.60616 76.4132 3.90578 76.4132C3.87435 67.7937 3.85015 59.1743 3.83565 50.5547C3.83394 49.5371 3.83216 48.5194 3.83034 47.5018C3.82998 47.2992 3.82962 47.0966 3.82925 46.8879C3.82328 43.6076 3.81245 40.3274 3.79983 37.0471C3.78699 33.6812 3.77936 30.3153 3.77657 26.9494C3.77469 24.8725 3.76874 22.7956 3.75758 20.7187C3.75032 19.2945 3.74813 17.8702 3.74991 16.446C3.75079 15.6242 3.74944 14.8026 3.74208 13.9809C3.73414 13.0895 3.73689 12.1982 3.74064 11.3067C3.73664 11.0478 3.73264 10.7889 3.72852 10.5221C3.74489 9.08417 3.93631 8.18371 4.85036 7.05383C5.9706 6.09436 7.03449 5.90309 8.47124 5.91639Z" fill="white"/>
<path d="M38.5519 17.1118C38.7915 17.11 39.0311 17.1083 39.2779 17.1064C44.9791 17.1205 49.5868 19.5094 53.6375 23.3629C57.4742 27.38 59.0059 32.6415 58.8911 38.0682C58.7409 42.1688 57.3083 45.7774 54.9581 49.1214C54.4878 49.5255 54.4878 49.5255 53.811 49.6439C52.9528 49.498 52.6761 49.2419 52.0702 48.6283C50.947 47.5442 49.7661 46.7501 48.443 45.934C47.8502 45.424 47.8502 45.424 47.6222 44.7074C47.622 44.4927 47.6217 44.278 47.6214 44.0568C47.7724 43.9064 47.9235 43.756 48.0791 43.601C48.9762 43.6715 49.4407 43.9795 50.1391 44.5125C50.3656 44.5125 50.5922 44.5125 50.8257 44.5125C52.1862 42.1034 52.9864 39.5323 53.1145 36.7651C52.9711 36.7704 52.8277 36.7757 52.68 36.7811C52.4929 36.7852 52.3059 36.7894 52.1132 36.7936C51.9273 36.7989 51.7414 36.8042 51.5499 36.8096C51.0546 36.7651 51.0546 36.7651 50.5968 36.3094C50.724 35.2713 50.724 35.2713 51.0546 34.9422C51.6658 34.91 52.2732 34.9325 52.8856 34.9422C52.611 32.0982 51.034 29.3577 49.2235 27.1948C49.0583 27.3828 48.8931 27.5708 48.7228 27.7645C48.0791 28.3341 48.0791 28.3341 47.464 28.4338C46.9347 28.3341 46.9347 28.3341 46.4769 27.8784C46.544 27.0108 46.7586 26.6316 47.3925 26.0555C47.3925 25.9051 47.3925 25.7547 47.3925 25.5997C46.933 25.2586 46.933 25.2586 46.3482 24.9304C46.1544 24.8155 45.9605 24.7007 45.7608 24.5824C44.3831 23.849 43.0981 23.4191 41.5703 23.1644C41.4028 23.1349 41.2354 23.1054 41.0629 23.075C40.6554 23.0034 40.2474 22.9341 39.8394 22.8654C39.8488 23.1145 39.8582 23.3635 39.868 23.6202C39.8394 24.4604 39.8394 24.4604 39.3816 25.144C38.2658 24.9446 38.2658 24.9446 38.0083 24.6883C37.9919 24.3421 37.9891 23.9952 37.994 23.6487C37.9961 23.4604 37.9981 23.2721 38.0003 23.0781C38.0029 22.9327 38.0056 22.7873 38.0083 22.6375C35.1415 23.1938 32.6815 23.9703 30.2263 25.5997C30.4899 26.1621 30.695 26.5221 31.1419 26.9669C31.0147 28.005 31.0147 28.005 30.6841 28.3341C30.1691 28.4196 30.1691 28.4196 29.5397 28.3341C29.1475 27.9653 28.7648 27.5861 28.3953 27.1948C26.5652 29.6786 25.4912 31.9351 24.7332 34.9422C24.8766 34.9369 25.0199 34.9316 25.1677 34.9262C25.3547 34.9221 25.5418 34.9179 25.7345 34.9137C25.9204 34.9084 26.1063 34.9031 26.2978 34.8977C26.7931 34.9422 26.7931 34.9422 27.2509 35.3979C27.1237 36.436 27.1237 36.436 26.7931 36.7651C26.4072 36.7815 26.0206 36.7842 25.6344 36.7793C25.3188 36.7763 25.3188 36.7763 24.9969 36.7731C24.7531 36.7692 24.7531 36.7692 24.5043 36.7651C25.1292 41.0629 25.1292 41.0629 27.2509 44.7404C27.3532 44.6555 27.4556 44.5706 27.5611 44.4831C28.7018 43.5945 28.7018 43.5945 29.5111 43.6295C29.9974 43.8289 29.9974 43.8289 30.2263 44.0568C30.3139 44.5819 30.3139 44.5819 30.2263 45.1961C29.7382 45.6678 29.7382 45.6678 29.0533 46.136C28.8016 46.3111 28.5504 46.4867 28.2996 46.663C28.1664 46.7558 28.0333 46.8486 27.896 46.9442C27.4579 47.2628 27.0411 47.5991 26.6241 47.9447C26.483 48.0607 26.3418 48.1767 26.1964 48.2962C25.9211 48.5238 25.6476 48.7538 25.3763 48.9862C24.7932 49.4609 24.4243 49.75 23.6576 49.7676C21.594 48.8189 20.4943 45.2343 19.6897 43.2423C19.5158 42.7576 19.3706 42.2761 19.24 41.7781C19.1934 41.6089 19.1468 41.4397 19.0987 41.2654C17.9638 36.3127 18.9554 31.0518 21.494 26.6972C24.4812 22.0559 29.0395 18.5957 34.4875 17.3699C35.8431 17.1135 37.1757 17.1017 38.5519 17.1118Z" fill="#A9023A"/>
<path d="M49.454 90.5405C56.2518 90.5405 63.0496 90.5405 70.0533 90.5405C70.6946 92.8388 71.3193 95.1133 71.8889 97.4254C72.175 98.5249 72.5105 99.6051 72.8607 100.686C73.0288 101.25 73.0288 101.25 73.0288 101.706C64.2672 101.706 55.5056 101.706 46.4785 101.706C46.8424 100.377 47.2065 99.052 47.586 97.7285C48.1002 95.9264 48.5487 94.1194 48.9376 92.2864C49.2038 91.0386 49.2038 91.0386 49.454 90.5405Z" fill="#FCFBFC"/>
<path d="M90.4192 18.9917C91.3887 18.9804 92.3582 18.9721 93.3278 18.9666C93.6577 18.9644 93.9876 18.9612 94.3175 18.9573C94.7913 18.9518 95.2651 18.9492 95.739 18.9472C96.1669 18.9436 96.1669 18.9436 96.6034 18.9399C97.2857 18.9917 97.2857 18.9917 97.7435 19.4474C97.8011 19.9648 97.8011 19.9648 97.8016 20.6237C97.8029 20.8729 97.8042 21.1222 97.8055 21.3789C97.8046 21.6536 97.8036 21.9282 97.8027 22.2112C97.8035 22.4994 97.8043 22.7877 97.8051 23.0847C97.8072 23.8765 97.8064 24.6684 97.8049 25.4602C97.8038 26.2878 97.8049 27.1154 97.8056 27.943C97.8064 29.3329 97.8053 30.7229 97.8031 32.1128C97.8006 33.7212 97.8015 35.3295 97.804 36.9379C97.806 38.3173 97.8063 39.6967 97.8051 41.0761C97.8044 41.9006 97.8043 42.7251 97.8058 43.5496C97.8074 44.4684 97.8052 45.3872 97.8027 46.3061C97.8036 46.5807 97.8045 46.8553 97.8055 47.1383C97.8036 47.5121 97.8036 47.5121 97.8016 47.8935C97.8014 48.1109 97.8012 48.3284 97.8011 48.5524C97.7435 49.0698 97.7435 49.0698 97.2857 49.5255C96.6317 49.5845 96.6317 49.5845 95.8051 49.5861C95.5092 49.5866 95.2133 49.5872 94.9084 49.5878C94.7539 49.5869 94.5995 49.5859 94.4404 49.5849C93.9687 49.5825 93.4972 49.5849 93.0255 49.5878C92.7295 49.5873 92.4336 49.5867 92.1287 49.5861C91.8559 49.5855 91.5832 49.585 91.3021 49.5845C90.6481 49.5255 90.6481 49.5255 90.1904 49.0698C90.1334 48.5524 90.1334 48.5524 90.1338 47.8935C90.1328 47.6443 90.1318 47.3951 90.1309 47.1383C90.1321 46.8637 90.1334 46.589 90.1348 46.3061C90.1343 46.0178 90.1339 45.7295 90.1334 45.4325C90.1323 44.6407 90.1341 43.8488 90.1364 43.057C90.1384 42.2294 90.138 41.4018 90.1379 40.5742C90.1381 39.1843 90.1401 37.7943 90.1433 36.4044C90.1469 34.796 90.1481 33.1877 90.1479 31.5793C90.1477 30.0339 90.1489 28.4885 90.1508 26.9431C90.1516 26.2846 90.152 25.6261 90.1522 24.9676C90.1524 24.0488 90.1547 23.13 90.1571 22.2112C90.157 21.9365 90.1569 21.6619 90.1568 21.3789C90.1578 21.1297 90.1587 20.8805 90.1598 20.6237C90.1601 20.4063 90.1605 20.1889 90.1609 19.9648C90.1904 19.4474 90.1904 19.4474 90.4192 18.9917Z" fill="#A9023A"/>
<path d="M82.4863 27.3478C82.7172 27.3486 82.7172 27.3486 82.9528 27.3493C83.4221 27.3501 83.891 27.3447 84.3603 27.3389C84.6554 27.3388 84.9506 27.3386 85.2548 27.3385C85.5263 27.3378 85.7979 27.3371 86.0777 27.3364C86.8403 27.4316 86.9854 27.5196 87.4443 28.1049C87.5122 28.7775 87.5381 29.4022 87.5332 30.0751C87.5344 30.2763 87.5356 30.4776 87.5368 30.6849C87.5399 31.3512 87.5379 32.0173 87.5355 32.6835C87.536 33.1458 87.5367 33.6081 87.5375 34.0704C87.5385 35.0396 87.5371 36.0089 87.5339 36.9781C87.53 38.2218 87.5322 39.4654 87.5363 40.709C87.5388 41.6637 87.538 42.6184 87.5362 43.5731C87.5358 44.0317 87.5363 44.4904 87.5379 44.949C87.5397 45.5895 87.537 46.2298 87.5332 46.8703C87.5353 47.1559 87.5353 47.1559 87.5374 47.4472C87.5231 48.7402 87.5231 48.7402 87.1381 49.2311C86.5399 49.6919 85.9989 49.6088 85.2548 49.6069C84.812 49.6067 84.812 49.6067 84.3603 49.6065C84.2068 49.6046 84.0533 49.6027 83.8952 49.6007C83.4254 49.5953 82.956 49.596 82.4863 49.5976C80.1812 49.5849 80.1812 49.5849 79.6624 49.0684C79.6169 48.3981 79.6 47.7492 79.6031 47.0786C79.6019 46.7696 79.6019 46.7696 79.6007 46.4543C79.5987 45.7709 79.6 45.0876 79.6016 44.4043C79.6013 43.9309 79.6008 43.4575 79.6002 42.9842C79.5996 41.9911 79.6005 40.9981 79.6027 40.0051C79.6053 38.73 79.6038 37.455 79.601 36.1799C79.5994 35.2021 79.5999 34.2243 79.6011 33.2466C79.6014 32.7763 79.601 32.3061 79.6 31.8358C79.5988 31.1794 79.6006 30.5232 79.6031 29.8668C79.6022 29.671 79.6013 29.4752 79.6003 29.2735C79.6161 27.0917 80.5794 27.3583 82.4863 27.3478Z" fill="#A9023A"/>
<path d="M50.5997 22.9632C54.1078 25.9335 56.6628 30.2137 57.0514 34.8328C57.273 39.1069 56.7362 43.8908 53.7987 47.2459C53.1314 47.0011 52.705 46.8407 52.1965 46.3344C52.2884 45.5958 52.6245 44.9933 52.969 44.3406C54.9426 40.4562 55.3931 35.9254 54.0275 31.7511C52.1966 27.1234 49.0936 24.178 44.5991 22.1311C41.416 20.759 36.6539 20.6469 33.3978 21.8808C33.1812 21.9798 32.9647 22.0788 32.7415 22.1808C32.4967 22.2915 32.2518 22.4022 31.9995 22.5163C27.9122 24.5413 25.159 27.7184 23.5863 31.9789C22.3335 36.1789 22.7838 40.3599 24.7307 44.2836C24.9132 44.5895 25.0987 44.8937 25.2886 45.1951C25.6462 45.8787 25.6462 45.8787 25.5461 46.3914C25.1029 46.8856 24.6303 47.1665 24.044 47.4737C21.1571 43.5626 20.0807 38.7808 20.6722 33.9883C21.5543 28.7662 24.7122 24.5828 28.9471 21.5568C35.6487 17.2246 44.4628 18.0454 50.5997 22.9632Z" fill="#F9F7F8"/>
<path d="M23.8923 62.2267C24.2819 62.2247 24.2819 62.2247 24.6794 62.2227C24.9672 62.2235 25.255 62.2244 25.5515 62.2253C25.8584 62.2246 26.1653 62.2237 26.4722 62.2227C27.3184 62.2203 28.1646 62.2208 29.0108 62.2218C29.9223 62.2223 30.8337 62.2203 31.7452 62.2186C33.5319 62.2157 35.3187 62.2153 37.1054 62.2158C38.557 62.2162 40.0085 62.2158 41.4601 62.2148C41.6663 62.2147 41.8726 62.2146 42.0851 62.2144C42.504 62.2142 42.923 62.2139 43.3419 62.2136C47.2744 62.2111 51.2068 62.2116 55.1392 62.213C58.7407 62.2142 62.3421 62.2116 65.9435 62.2073C69.6374 62.2029 73.3313 62.201 77.0252 62.2018C79.1007 62.2023 81.1761 62.2017 83.2516 62.1985C85.0183 62.1958 86.7849 62.1954 88.5516 62.1982C89.4538 62.1996 90.3559 62.1998 91.258 62.1971C92.0828 62.1946 92.9075 62.1953 93.7323 62.1985C94.1742 62.1994 94.6162 62.1969 95.0582 62.1943C95.4478 62.1968 95.4478 62.1968 95.8453 62.1993C96.0709 62.1993 96.2964 62.1993 96.5288 62.1993C96.7048 62.2275 96.8808 62.2557 97.0621 62.2847C97.5199 62.9683 97.5199 62.9683 97.4483 63.4525C97.291 63.8798 97.291 63.8798 97.0621 64.1076C96.665 64.13 96.267 64.1362 95.8693 64.1363C95.609 64.1369 95.3488 64.1375 95.0807 64.1381C94.7912 64.1376 94.5017 64.1371 94.2034 64.1366C93.8956 64.1368 93.5878 64.1372 93.28 64.1376C92.4302 64.1386 91.5804 64.1381 90.7307 64.1374C89.8158 64.1369 88.9008 64.1377 87.9859 64.1383C86.1921 64.1393 84.3982 64.1391 82.6043 64.1384C81.1471 64.1379 79.6898 64.1379 78.2326 64.1381C77.9221 64.1382 77.9221 64.1382 77.6054 64.1382C77.1849 64.1383 76.7645 64.1384 76.3441 64.1384C72.3969 64.1391 68.4498 64.1383 64.5026 64.1371C61.1119 64.1361 57.7212 64.1363 54.3305 64.1373C50.3979 64.1385 46.4654 64.139 42.5329 64.1383C42.1139 64.1383 41.695 64.1382 41.2761 64.1381C41.07 64.1381 40.8638 64.138 40.6514 64.138C39.195 64.1378 37.7387 64.1381 36.2823 64.1387C34.5087 64.1393 32.7352 64.1391 30.9616 64.1379C30.0558 64.1373 29.15 64.1371 28.2442 64.1378C27.4164 64.1385 26.5885 64.1382 25.7606 64.1369C25.3164 64.1366 24.8722 64.1373 24.428 64.1381C24.0377 64.1372 24.0377 64.1372 23.6394 64.1363C23.413 64.1363 23.1865 64.1362 22.9532 64.1362C22.4466 64.1076 22.4466 64.1076 22.2177 63.8798C22.1748 63.3243 22.1748 63.3243 22.2177 62.7404C22.8146 62.1462 23.0606 62.2274 23.8923 62.2267Z" fill="#A9023A"/>
<path d="M23.8576 57.015C24.2454 57.0139 24.2454 57.0139 24.641 57.0127C24.9285 57.0131 25.2161 57.0134 25.5124 57.0138C25.8181 57.0134 26.1239 57.0128 26.4296 57.0122C27.2738 57.0108 28.1179 57.0109 28.962 57.0111C29.8708 57.0112 30.7796 57.0099 31.6885 57.0088C33.4705 57.0069 35.2525 57.0063 37.0345 57.0062C38.4823 57.0061 39.93 57.0056 41.3777 57.0049C45.4778 57.0029 49.5778 57.0018 53.6778 57.002C53.8991 57.002 54.1204 57.002 54.3483 57.002C54.6806 57.0021 54.6806 57.0021 55.0196 57.0021C58.6114 57.0022 62.2032 57 65.7951 56.9968C69.4786 56.9935 73.1622 56.9919 76.8457 56.9921C78.9156 56.9922 80.9854 56.9916 83.0552 56.9891C84.8173 56.987 86.5794 56.9865 88.3415 56.9881C89.2413 56.9888 90.1411 56.9888 91.0409 56.9869C91.8635 56.9851 92.6862 56.9854 93.5088 56.9874C93.9497 56.9879 94.3905 56.9862 94.8314 56.9844C95.0905 56.9854 95.3496 56.9865 95.6165 56.9876C95.954 56.9875 95.954 56.9875 96.2982 56.9874C96.8303 57.0443 96.8303 57.0443 97.2881 57.5C97.331 58.0839 97.331 58.0839 97.2881 58.6393C96.8991 59.0266 96.4031 58.8961 95.8706 58.8965C95.6113 58.8972 95.352 58.898 95.0849 58.8987C94.7964 58.8984 94.508 58.898 94.2108 58.8976C93.9041 58.8981 93.5974 58.8986 93.2907 58.8992C92.4439 58.9006 91.5972 58.9006 90.7505 58.9003C89.8389 58.9003 88.9272 58.9015 88.0156 58.9026C86.2281 58.9045 84.4405 58.9051 82.653 58.9052C81.2008 58.9054 79.7486 58.9058 78.2964 58.9065C74.1837 58.9086 70.071 58.9096 65.9583 58.9094C65.7363 58.9094 65.5144 58.9094 65.2857 58.9094C65.0635 58.9094 64.8413 58.9094 64.6123 58.9094C61.0094 58.9093 57.4065 58.9115 53.8036 58.9147C50.1087 58.9179 46.4138 58.9195 42.7188 58.9193C40.6426 58.9193 38.5663 58.9199 36.4901 58.9223C34.7226 58.9244 32.9551 58.9249 31.1875 58.9234C30.285 58.9226 29.3824 58.9226 28.4798 58.9246C27.6546 58.9264 26.8294 58.9261 26.0042 58.9241C25.562 58.9235 25.1198 58.9253 24.6776 58.9271C24.4177 58.926 24.1578 58.925 23.89 58.9239C23.6643 58.9239 23.4387 58.924 23.2062 58.924C22.6726 58.8672 22.6726 58.8672 22.2148 58.4115C22.3763 57.0937 22.5688 57.0159 23.8576 57.015Z" fill="#A9023A"/>
<path d="M92.0215 20.814C93.3055 20.814 94.5895 20.814 95.9125 20.814C95.9125 29.687 95.9125 38.5601 95.9125 47.702C94.6284 47.702 93.3444 47.702 92.0215 47.702C92.0215 38.8289 92.0215 29.9559 92.0215 20.814Z" fill="#FEFEFE"/>
<path d="M71.1262 36.0202C71.2769 36.0198 71.4276 36.0194 71.5828 36.0189C71.9014 36.0186 72.22 36.0194 72.5386 36.0213C73.0269 36.0238 73.5151 36.0214 74.0034 36.0185C74.3127 36.0188 74.622 36.0193 74.9314 36.0202C75.3549 36.021 75.3549 36.021 75.787 36.0218C76.462 36.0808 76.462 36.0808 76.9198 36.5365C76.9779 37.064 76.9779 37.064 76.979 37.7314C76.9805 37.9808 76.9819 38.2303 76.9834 38.4872C76.9825 38.7576 76.9816 39.0279 76.9806 39.3065C76.9813 39.7211 76.9813 39.7211 76.9819 40.1442C76.9822 40.7296 76.9814 41.3149 76.9795 41.9003C76.977 42.799 76.9795 43.6976 76.9824 44.5963C76.9821 45.1639 76.9815 45.7315 76.9806 46.2991C76.9815 46.5694 76.9825 46.8398 76.9834 47.1183C76.982 47.3677 76.9805 47.6171 76.979 47.8741C76.9787 48.0943 76.9783 48.3146 76.9779 48.5415C76.9198 49.069 76.9198 49.069 76.462 49.5248C75.787 49.5837 75.787 49.5837 74.9314 49.5853C74.7807 49.5857 74.63 49.5862 74.4748 49.5866C74.1562 49.5869 73.8376 49.5861 73.519 49.5842C73.0307 49.5817 72.5426 49.5842 72.0543 49.5871C71.7449 49.5868 71.4356 49.5862 71.1262 49.5853C70.8439 49.5848 70.5615 49.5843 70.2706 49.5837C69.5956 49.5248 69.5956 49.5248 69.1378 49.069C69.0797 48.5415 69.0797 48.5415 69.0786 47.8741C69.0771 47.6247 69.0757 47.3753 69.0742 47.1183C69.0751 46.848 69.0761 46.5776 69.077 46.2991C69.0766 46.0226 69.0762 45.7462 69.0757 45.4613C69.0754 44.876 69.0762 44.2906 69.0781 43.7052C69.0806 42.8065 69.0782 41.9079 69.0752 41.0092C69.0755 40.4416 69.0761 39.8741 69.077 39.3065C69.0756 38.9009 69.0756 38.9009 69.0742 38.4872C69.0757 38.2378 69.0771 37.9884 69.0786 37.7314C69.079 37.5112 69.0793 37.2909 69.0797 37.064C69.2145 35.8405 70.1091 36.0221 71.1262 36.0202Z" fill="#A9023A"/>
<path d="M41.8511 103.213C42.0896 103.212 42.0896 103.212 42.3329 103.21C42.867 103.207 43.4009 103.21 43.9349 103.212C44.3172 103.211 44.6995 103.21 45.0819 103.208C46.1213 103.205 47.1607 103.206 48.2001 103.208C49.2866 103.21 50.3732 103.208 51.4597 103.207C53.2846 103.206 55.1094 103.208 56.9342 103.211C59.0455 103.215 61.1568 103.214 63.2681 103.21C65.0791 103.207 66.8902 103.206 68.7012 103.208C69.7836 103.209 70.866 103.209 71.9484 103.207C72.9659 103.205 73.9833 103.206 75.0008 103.21C75.3747 103.211 75.7487 103.211 76.1227 103.209C76.6321 103.208 77.1414 103.21 77.6508 103.213C77.9362 103.214 78.2216 103.214 78.5157 103.214C79.2059 103.3 79.2059 103.3 79.6465 103.562C79.8926 103.984 79.8926 103.984 79.8926 105.351C66.5991 105.351 53.3057 105.351 39.6094 105.351C39.6094 103.984 39.6094 103.984 39.8555 103.562C40.5216 103.166 41.0793 103.214 41.8511 103.213Z" fill="#F4EBED"/>
<path d="M23.8456 67.4634C24.0095 67.4643 24.1733 67.4651 24.3421 67.466C24.6028 67.4647 24.6028 67.4647 24.8686 67.4634C25.454 67.461 26.0392 67.4619 26.6245 67.4628C27.0429 67.4618 27.4613 67.4607 27.8797 67.4593C29.0184 67.4562 30.1571 67.4561 31.2958 67.4567C32.2452 67.4569 33.1946 67.4558 34.1439 67.4547C36.383 67.4522 38.622 67.4521 40.861 67.4535C43.1737 67.4549 45.4864 67.4521 47.7991 67.4472C49.7821 67.4432 51.7652 67.4418 53.7483 67.4426C54.9338 67.443 56.1192 67.4424 57.3047 67.4392C58.4193 67.4364 59.5339 67.4368 60.6485 67.4398C61.0583 67.4403 61.468 67.4397 61.8778 67.4378C62.4359 67.4354 62.9938 67.4372 63.5518 67.4402C63.7152 67.4385 63.8785 67.4368 64.0468 67.4351C64.7122 67.4424 65.1472 67.4553 65.7004 67.8423C65.9342 68.209 65.9342 68.209 65.8769 68.6932C65.7053 69.1205 65.7053 69.1205 65.4764 69.3483C64.9211 69.3711 64.3723 69.379 63.8168 69.3773C63.5532 69.3778 63.5532 69.3778 63.2843 69.3784C62.6909 69.3793 62.0975 69.3785 61.504 69.3778C61.0805 69.3781 60.6569 69.3785 60.2333 69.379C59.0794 69.3801 57.9256 69.3797 56.7718 69.3789C55.5671 69.3784 54.3624 69.3789 53.1577 69.3793C51.1343 69.3797 49.1108 69.3791 47.0874 69.378C44.7444 69.3768 42.4015 69.3772 40.0585 69.3785C38.0507 69.3795 36.043 69.3796 34.0353 69.379C32.8344 69.3787 31.6336 69.3786 30.4328 69.3794C29.3041 69.3801 28.1754 69.3796 27.0467 69.3783C26.6313 69.378 26.2158 69.3781 25.8003 69.3786C25.2356 69.3792 24.6709 69.3784 24.1062 69.3773C23.8563 69.378 23.8563 69.378 23.6013 69.3788C22.4727 69.3743 22.4727 69.3743 22.2177 69.1205C22.1748 68.5651 22.1748 68.5651 22.2177 67.9812C22.7775 67.4239 23.0817 67.4702 23.8456 67.4634Z" fill="#A9023A"/>
<path d="M81.4961 29.2451C82.8557 29.2451 84.2152 29.2451 85.616 29.2451C85.616 35.3359 85.616 41.4268 85.616 47.7021C84.2564 47.7021 82.8969 47.7021 81.4961 47.7021C81.4961 41.6113 81.4961 35.5205 81.4961 29.2451Z" fill="#FCFAFA"/>
<path d="M44.8711 29.7008C44.9844 29.8136 44.9844 29.8136 45.1 29.9287C45.0192 31.2478 44.5948 32.1491 43.9555 33.2897C43.2542 34.6001 42.8918 35.6254 42.8532 37.1286C42.783 38.0428 42.4449 38.7699 41.8956 39.499C40.7292 40.4232 39.7749 40.7243 38.3131 40.7006C37.0745 40.557 36.386 39.9872 35.6157 39.0432C35.0472 37.8889 35.0078 36.643 35.258 35.3974C35.86 34.3605 36.6451 33.5599 37.7757 33.1188C38.0901 33.1035 38.4052 33.0993 38.7199 33.1045C40.2345 32.9729 41.103 31.864 42.1245 30.8401C43.006 29.986 43.5797 29.5214 44.8711 29.7008Z" fill="#A9023A"/>
<path d="M6.42383 7.82624C16.6328 7.82234 26.8417 7.81872 37.0507 7.81659C37.2016 7.81656 37.3526 7.81653 37.5082 7.8165C40.7889 7.81581 44.0695 7.81518 47.3502 7.8146C48.959 7.81432 50.5677 7.81402 52.1764 7.81372C52.3365 7.81369 52.4966 7.81366 52.6616 7.81363C57.8553 7.81266 63.0491 7.81095 68.2428 7.80885C73.7289 7.80665 79.215 7.80528 84.7011 7.8048C87.9895 7.80449 91.278 7.80349 94.5664 7.80165C96.8181 7.80045 99.0697 7.80008 101.321 7.80038C102.623 7.80052 103.924 7.80029 105.225 7.79908C106.414 7.79798 107.603 7.79791 108.792 7.79869C109.225 7.79879 109.657 7.79849 110.089 7.79778C110.673 7.79688 111.256 7.79735 111.839 7.7982C112.096 7.7973 112.096 7.7973 112.358 7.79639C113.514 7.80023 113.514 7.80023 113.769 8.0541C113.792 8.41758 113.798 8.78203 113.798 9.14618C113.798 9.38396 113.798 9.62174 113.799 9.86673C113.798 10.1312 113.798 10.3956 113.797 10.668C113.797 11.0857 113.797 11.0857 113.798 11.5117C113.798 12.288 113.797 13.0643 113.796 13.8406C113.795 14.6764 113.795 15.5122 113.795 16.348C113.796 17.7973 113.795 19.2466 113.794 20.6959C113.792 22.7913 113.791 24.8867 113.791 26.9822C113.79 30.3815 113.789 33.7809 113.787 37.1802C113.785 40.4832 113.783 43.7862 113.782 47.0892C113.782 47.3944 113.782 47.3944 113.782 47.7057C113.782 48.7263 113.781 49.7469 113.781 50.7675C113.779 59.2402 113.775 67.7129 113.769 76.1856C114.298 76.1856 114.827 76.1856 115.372 76.1856C115.372 53.9278 115.372 31.67 115.372 8.7377C115.447 8.7377 115.523 8.7377 115.6 8.7377C115.6 31.0707 115.6 53.4037 115.6 76.4135C114.921 76.4135 114.241 76.4135 113.541 76.4135C113.54 76.2699 113.54 76.1263 113.539 75.9783C113.516 67.4767 113.491 58.9751 113.465 50.4735C113.462 49.4538 113.458 48.4341 113.455 47.4144C113.455 47.2114 113.454 47.0084 113.453 46.7992C113.443 43.5076 113.434 40.216 113.425 36.9244C113.416 33.5494 113.406 30.1745 113.395 26.7996C113.388 24.7154 113.382 22.6311 113.377 20.5469C113.373 19.1196 113.369 17.6924 113.364 16.2652C113.361 15.4405 113.358 14.6158 113.357 13.7911C113.355 12.8991 113.351 12.0071 113.348 11.1151C113.348 10.7198 113.348 10.7198 113.347 10.3165C113.346 10.0795 113.345 9.84252 113.343 9.59835C113.343 9.39216 113.342 9.18597 113.342 8.97353C113.363 8.51099 113.363 8.51099 113.083 8.28197C112.516 8.25829 111.956 8.2496 111.389 8.25037C111.209 8.24972 111.028 8.24908 110.842 8.24841C110.23 8.24649 109.618 8.24622 109.006 8.24592C108.566 8.24488 108.126 8.24374 107.686 8.24251C106.47 8.2394 105.255 8.23772 104.039 8.23626C102.73 8.23444 101.422 8.23132 100.113 8.22835C97.8441 8.22338 95.5749 8.21925 93.3058 8.21568C90.0249 8.21051 86.744 8.2041 83.4631 8.19737C78.1407 8.1865 72.8183 8.17664 67.4959 8.16742C62.3242 8.15846 57.1525 8.14902 51.9809 8.13894C51.8215 8.13863 51.6622 8.13832 51.4981 8.138C49.8981 8.13488 48.2982 8.13175 46.6982 8.12862C33.2734 8.10231 19.8486 8.07765 6.42383 8.0541C6.42383 7.97891 6.42383 7.90371 6.42383 7.82624Z" fill="#DFBCC3"/>
<path d="M61.3974 80.2148C62.4342 80.7789 63.0376 81.439 63.4145 82.5647C63.5474 83.9148 63.3072 84.9022 62.4989 85.9826C61.6947 86.716 60.8506 87.1826 59.7524 87.2644C58.6534 87.1825 57.8112 86.7153 57.0058 85.9826C56.2857 85.0382 55.9062 83.9879 55.9722 82.797C56.2819 81.5894 57.1282 80.7412 58.1359 80.0582C59.3395 79.6669 60.2515 79.6941 61.3974 80.2148Z" fill="#A9023A"/>
<path d="M70.9648 37.9038C72.3244 37.9038 73.684 37.9038 75.0847 37.9038C75.0847 41.1372 75.0847 44.3706 75.0847 47.702C73.7252 47.702 72.3656 47.702 70.9648 47.702C70.9648 44.4686 70.9648 41.2352 70.9648 37.9038Z" fill="#FBFAFB"/>
<path d="M39.6099 34.9408C40.2679 35.2826 40.2679 35.2826 40.7543 35.8522C40.9368 36.9971 40.9428 37.4102 40.2679 38.3587C39.6099 38.8145 39.6099 38.8145 38.9232 38.9569C38.0207 38.7697 37.6813 38.3622 37.0922 37.6751C37.0166 37.6 36.9411 37.5248 36.8633 37.4473C36.8989 36.5081 36.9534 36.0062 37.5928 35.2968C38.3611 34.8719 38.7442 34.7971 39.6099 34.9408Z" fill="#F7F5F7"/>
<path d="M59.7489 81.5117C60.6814 81.7051 61.0178 82.0363 61.5799 82.7935C61.7373 83.4771 61.7373 83.4771 61.5799 84.1606C60.9616 84.8192 60.5078 85.2268 59.6201 85.4424C58.7815 85.2283 58.4363 84.839 57.9178 84.1606C57.7748 83.4771 57.7748 83.4771 57.9178 82.7935C58.48 82.0363 58.8163 81.7051 59.7489 81.5117Z" fill="#F7F2F5"/>
<path d="M112.852 7.82568C113.154 7.90088 113.456 7.97607 113.767 8.05355C113.767 14.5955 113.767 21.1375 113.767 27.8778C113.692 27.8778 113.616 27.8778 113.538 27.8778C113.536 27.6366 113.535 27.3955 113.533 27.1471C113.515 24.8771 113.495 22.6071 113.472 20.3372C113.461 19.1701 113.45 18.003 113.442 16.836C113.433 15.7101 113.423 14.5843 113.41 13.4585C113.406 13.0285 113.403 12.5985 113.4 12.1685C113.396 11.5673 113.39 10.9661 113.382 10.3648C113.382 10.1862 113.381 10.0075 113.381 9.82348C113.367 8.96139 113.344 8.56064 112.852 7.82568Z" fill="#E3CFD5"/>
<path d="M60.4368 79.8313C60.5123 79.9817 60.5878 80.1321 60.6656 80.2871C60.5329 80.2929 60.4001 80.2988 60.2633 80.3049C58.9786 80.3977 58.2421 80.6274 57.2324 81.4264C57.2324 81.2008 57.2324 80.9752 57.2324 80.7428C58.3711 80.0025 59.0365 79.7175 60.4368 79.8313Z" fill="#B54F64"/>
<path d="M25.8751 21.9536C25.4973 22.9317 24.7908 23.5212 24.0441 24.2323C23.8175 24.1571 23.5909 24.0819 23.3574 24.0044C23.6898 23.6612 24.0239 23.3197 24.3588 22.979C24.6376 22.6935 24.6376 22.6935 24.922 22.4022C25.4174 21.9536 25.4174 21.9536 25.8751 21.9536Z" fill="#B24E5F"/>
<path d="M48.0808 43.6006C48.3829 43.6006 48.6851 43.6006 48.9963 43.6006C48.9963 43.751 48.9963 43.9014 48.9963 44.0563C48.5474 44.3729 48.0896 44.6775 47.623 44.9678C47.8233 43.8569 47.8233 43.8569 48.0808 43.6006Z" fill="#BB5B70"/>
<path d="M112.852 7.82568C113.154 7.90088 113.456 7.97607 113.767 8.05355C113.767 8.95589 113.767 9.85824 113.767 10.7879C113.692 10.7879 113.616 10.7879 113.538 10.7879C113.521 10.5531 113.521 10.5531 113.504 10.3135C113.487 10.1082 113.47 9.90286 113.452 9.69132C113.436 9.48777 113.421 9.28421 113.404 9.07449C113.34 8.45368 113.34 8.45368 112.852 7.82568Z" fill="#E6D9E0"/>
</svg>
