<svg width="70" height="120" viewBox="0 0 70 120" fill="none" xmlns="http://www.w3.org/2000/svg">
<rect x="1" y="1" width="67.5547" height="118" rx="6" fill="white" stroke="#A9023A" stroke-width="2"/>
<rect x="10.0312" y="18.5176" width="49.4885" height="83.8394" rx="1" stroke="#A9023A" stroke-width="2"/>
<path d="M45.1641 11.3867L26.1939 11.3867" stroke="#A9023A" stroke-width="2" stroke-linecap="round"/>
<path d="M41.5469 109.489H27.094" stroke="#A9023A" stroke-width="2" stroke-linecap="round"/>
<circle cx="35" cy="56.623" r="13" stroke="#A9023A" stroke-width="2"/>
<path d="M35 53.9564C35.383 53.9564 35.7623 53.8809 36.1162 53.7344C36.47 53.5878 36.7916 53.3729 37.0624 53.1021C37.3332 52.8313 37.5481 52.5097 37.6946 52.1559C37.8412 51.802 37.9167 51.4227 37.9167 51.0397C37.9167 50.6567 37.8412 50.2774 37.6946 49.9236C37.5481 49.5697 37.3332 49.2482 37.0624 48.9773C36.7916 48.7065 36.47 48.4916 36.1162 48.3451C35.7623 48.1985 35.383 48.123 35 48.123C34.2265 48.123 33.4846 48.4303 32.9376 48.9773C32.3906 49.5243 32.0833 50.2662 32.0833 51.0397C32.0833 51.8133 32.3906 52.5551 32.9376 53.1021C33.4846 53.6491 34.2265 53.9564 35 53.9564ZM27.5 62.623V63.123H42.5V62.623C42.5 60.7564 42.5 59.823 42.1367 59.1097C41.8171 58.4825 41.3072 57.9726 40.68 57.653C39.9667 57.2897 39.0333 57.2897 37.1667 57.2897H32.8333C30.9667 57.2897 30.0333 57.2897 29.32 57.653C28.6928 57.9726 28.1829 58.4825 27.8633 59.1097C27.5 59.823 27.5 60.7564 27.5 62.623Z" fill="#A9023A" stroke="#A9023A" stroke-width="2" stroke-linecap="round" stroke-linejoin="round"/>
<line x1="26" y1="74" x2="44" y2="74" stroke="#A9023A" stroke-width="2"/>
<line x1="20" y1="78" x2="51" y2="78" stroke="#A9023A" stroke-width="2"/>
<line x1="20" y1="82" x2="51" y2="82" stroke="#A9023A" stroke-width="2"/>
</svg>
