<svg width="100" height="100" viewBox="0 0 100 100" fill="none" xmlns="http://www.w3.org/2000/svg">
<path d="M62.4987 41.6663L60.4445 41.3247C60.3949 41.623 60.4109 41.9285 60.4913 42.2201C60.5716 42.5116 60.7145 42.7822 60.91 43.0129C61.1055 43.2437 61.3488 43.4291 61.6232 43.5563C61.8975 43.6836 62.1963 43.7495 62.4987 43.7497V41.6663ZM16.6654 41.6663V39.583C16.1128 39.583 15.5829 39.8025 15.1922 40.1932C14.8015 40.5839 14.582 41.1138 14.582 41.6663H16.6654ZM24.9987 85.4163H72.332V81.2497H24.9987V85.4163ZM77.332 39.583H62.4987V43.7497H77.332V39.583ZM64.5529 42.008L67.9112 21.8622L63.8029 21.1747L60.4445 41.3247L64.5529 42.008ZM61.7487 14.583H60.8612V18.7497H61.7487V14.583ZM48.7237 21.0788L38.2404 36.7997L41.707 39.1122L52.1862 23.3872L48.7237 21.0788ZM33.0404 39.583H16.6654V43.7497H33.0404V39.583ZM14.582 41.6663V74.9997H18.7487V41.6663H14.582ZM82.5487 77.0413L87.5487 52.0413L83.4654 51.2247L78.4654 76.2247L82.5487 77.0413ZM38.2404 36.7997C37.6697 37.6558 36.8965 38.3578 35.9893 38.8433C35.0822 39.3288 34.0693 39.5829 33.0404 39.583V43.7497C34.7551 43.7497 36.4432 43.3264 37.9551 42.5175C39.4669 41.7085 40.7557 40.5388 41.707 39.1122L38.2404 36.7997ZM67.9112 21.8622C68.0607 20.9669 68.0133 20.0498 67.7725 19.1747C67.5317 18.2996 67.1031 17.4874 66.5166 16.7946C65.9302 16.1019 65.1998 15.5452 64.3765 15.1633C63.5531 14.7813 62.6564 14.5833 61.7487 14.583V18.7497C62.0515 18.7492 62.3507 18.8147 62.6255 18.9417C62.9004 19.0687 63.1443 19.254 63.3402 19.4848C63.5361 19.7157 63.6794 19.9864 63.76 20.2783C63.8406 20.5701 63.8567 20.876 63.807 21.1747L67.9112 21.8622ZM77.332 43.7497C78.2567 43.7496 79.1699 43.9547 80.0057 44.3502C80.8415 44.7457 81.5791 45.3218 82.1654 46.0368C82.7517 46.7518 83.1721 47.5881 83.3961 48.4852C83.6202 49.3823 83.6466 50.3179 83.4654 51.2247L87.5487 52.0413C87.8506 50.5307 87.8096 48.9719 87.4365 47.4772C87.0635 45.9825 86.3635 44.5892 85.3872 43.3976C84.4108 42.206 83.1822 41.2458 81.79 40.5862C80.3979 39.9266 78.8767 39.5839 77.3362 39.583L77.332 43.7497ZM72.332 85.4163C74.7407 85.4168 77.075 84.5826 78.9378 83.0556C80.8006 81.5286 82.0766 79.4033 82.5487 77.0413L78.4654 76.2247C78.182 77.6424 77.4159 78.918 76.2975 79.8343C75.1792 80.7505 73.7778 81.2507 72.332 81.2497V85.4163ZM60.857 14.583C58.4555 14.5826 56.091 15.1754 53.9736 16.3086C51.8562 17.4418 50.0514 19.0804 48.7195 21.0788L52.1862 23.3872C53.1375 21.9606 54.4263 20.7909 55.9381 19.9819C57.45 19.1729 59.1382 18.7496 60.8529 18.7497L60.857 14.583ZM24.9987 81.2497C23.3411 81.2497 21.7514 80.5912 20.5793 79.4191C19.4072 78.247 18.7487 76.6573 18.7487 74.9997H14.582C14.582 76.3676 14.8515 77.7222 15.375 78.986C15.8984 80.2498 16.6657 81.3981 17.633 82.3654C18.6003 83.3326 19.7486 84.0999 21.0124 84.6234C22.2762 85.1469 23.6308 85.4163 24.9987 85.4163V81.2497Z" fill="#A9023A"/>
<path d="M33.332 41.666V83.3327" stroke="#A9023A"/>
</svg>
