<svg width="100" height="100" viewBox="0 0 100 100" fill="none" xmlns="http://www.w3.org/2000/svg">
<path d="M49.5918 9.72754C40.7103 9.73798 32.1955 13.2595 25.9153 19.5196C19.6351 25.7797 16.1023 34.2673 16.0918 43.1204C16.0837 50.3548 18.4542 57.3925 22.8405 63.1561C22.8405 63.1561 23.7542 64.3552 23.9034 64.5283L49.5918 94.7275L75.2924 64.5131C75.4264 64.3522 76.3431 63.1561 76.3431 63.1561L76.3461 63.147C80.7295 57.3855 83.0988 50.3513 83.0918 43.1204C83.0813 34.2673 79.5485 25.7797 73.2683 19.5196C66.9881 13.2595 58.4733 9.73798 49.5918 9.72754ZM49.5918 55.2633C47.1825 55.2633 44.8272 54.5511 42.8239 53.2168C40.8207 51.8825 39.2593 49.9861 38.3373 47.7673C37.4153 45.5485 37.174 43.1069 37.6441 40.7514C38.1141 38.396 39.2743 36.2323 40.978 34.5341C42.6816 32.8359 44.8522 31.6794 47.2152 31.2109C49.5783 30.7423 52.0276 30.9828 54.2536 31.9019C56.4795 32.8209 58.3821 34.3773 59.7206 36.3742C61.0592 38.3711 61.7736 40.7188 61.7736 43.1204C61.7696 46.3396 60.4849 49.4259 58.2012 51.7023C55.9175 53.9786 52.8214 55.2592 49.5918 55.2633Z" fill="#A9023A"/>
</svg>
