<svg width="229" height="120" viewBox="0 0 229 120" fill="none" xmlns="http://www.w3.org/2000/svg">
<rect x="34.5" y="18.5" width="158.62" height="82" rx="10.5" stroke="#A9023A" stroke-width="3"/>
<path d="M91.4346 24.875C110.362 24.875 125.706 40.2184 125.706 59.1455C125.706 78.0728 110.362 93.417 91.4346 93.417C72.5075 93.4168 57.1641 78.0727 57.1641 59.1455C57.1642 40.2185 72.5076 24.8752 91.4346 24.875Z" stroke="#9F0136" stroke-width="3"/>
<line x1="143.047" y1="87.3311" x2="172.77" y2="87.3311" stroke="#A9023A" stroke-width="3" stroke-linecap="round"/>
<line x1="143.047" y1="72.9648" x2="172.77" y2="72.9648" stroke="#A9023A" stroke-width="3" stroke-linecap="round"/>
<line x1="143.449" y1="42.6357" x2="173.172" y2="42.6357" stroke="#A9023A" stroke-width="3" stroke-linecap="round"/>
<line x1="143.449" y1="29.0684" x2="173.172" y2="29.0684" stroke="#A9023A" stroke-width="3" stroke-linecap="round"/>
<line x1="143.047" y1="57.8008" x2="172.77" y2="57.8008" stroke="#A9023A" stroke-width="3" stroke-linecap="round"/>
<path d="M92.8754 44.9168C92.0943 44.1358 90.828 44.1358 90.047 44.9168C89.2659 45.6979 89.2659 46.9642 90.047 47.7453L91.4612 46.3311L92.8754 44.9168ZM104.83 59.6996L106.244 61.1138L107.658 59.6996L106.244 58.2854L104.83 59.6996ZM90.047 71.6539C89.2659 72.435 89.2659 73.7013 90.047 74.4824C90.828 75.2634 92.0943 75.2634 92.8754 74.4824L91.4612 73.0681L90.047 71.6539ZM91.4612 46.3311L90.047 47.7453L103.416 61.1138L104.83 59.6996L106.244 58.2854L92.8754 44.9168L91.4612 46.3311ZM104.83 59.6996L103.416 58.2854L90.047 71.6539L91.4612 73.0681L92.8754 74.4824L106.244 61.1138L104.83 59.6996ZM71.3086 59.5001V61.5001H103.233V59.5001V57.5001H71.3086V59.5001Z" fill="#A9023A"/>
</svg>
