<svg width="74" height="120" viewBox="0 0 74 120" fill="none" xmlns="http://www.w3.org/2000/svg">
<rect x="10.1641" y="10.0576" width="54.3162" height="77.5516" stroke="#A9023A" stroke-width="2"/>
<rect x="25.1289" y="64.7988" width="24.3859" height="7.84549" rx="3.92275" stroke="#A9023A" stroke-width="2"/>
<circle cx="37.3226" cy="96.683" r="3.13511" stroke="#A9023A" stroke-width="2"/>
<line x1="17.2637" y1="23.8204" x2="55.8271" y2="24.1985" stroke="#A9023A" stroke-width="2" stroke-linecap="round"/>
<line x1="17.2637" y1="23.8204" x2="55.8271" y2="24.1985" stroke="#A9023A" stroke-width="2" stroke-linecap="round"/>
<line x1="17.2637" y1="23.8204" x2="55.8271" y2="24.1985" stroke="#A9023A" stroke-width="2" stroke-linecap="round"/>
<line x1="17.6582" y1="32.4845" x2="56.2217" y2="32.8625" stroke="#A9023A" stroke-width="2" stroke-linecap="round"/>
<line x1="17.6582" y1="32.4845" x2="56.2217" y2="32.8625" stroke="#A9023A" stroke-width="2" stroke-linecap="round"/>
<line x1="17.6582" y1="32.4845" x2="56.2217" y2="32.8625" stroke="#A9023A" stroke-width="2" stroke-linecap="round"/>
<line x1="25.5074" y1="48.2118" x2="48.3183" y2="47.8497" stroke="#A9023A" stroke-width="2" stroke-linecap="round"/>
<line x1="25.5074" y1="48.2118" x2="48.3183" y2="47.8497" stroke="#A9023A" stroke-width="2" stroke-linecap="round"/>
<line x1="25.5074" y1="48.2118" x2="48.3183" y2="47.8497" stroke="#A9023A" stroke-width="2" stroke-linecap="round"/>
<line x1="35.3672" y1="111.239" x2="38.4868" y2="111.239" stroke="#A9023A" stroke-width="2" stroke-linecap="round"/>
<line x1="35.3672" y1="111.239" x2="38.4868" y2="111.239" stroke="#A9023A" stroke-width="2" stroke-linecap="round"/>
<line x1="35.3672" y1="111.239" x2="38.4868" y2="111.239" stroke="#A9023A" stroke-width="2" stroke-linecap="round"/>
<path d="M37.5215 1C56.3122 1 65.2674 2.08487 69.499 3.13672C71.6307 3.66662 72.4429 4.15988 72.7178 4.40332C72.7321 4.41597 72.7425 4.42926 72.7529 4.43945V96.9443C72.7516 96.9528 72.7503 96.9643 72.7471 96.9785C72.7304 97.0518 72.6763 97.2224 72.5029 97.4668C72.1523 97.9611 71.2826 98.7938 69.1611 99.6729C64.8973 101.44 55.9067 103.263 37.1328 103.165C18.3569 103.067 9.35755 101.245 5.08496 99.5215C2.95677 98.6631 2.08645 97.8625 1.73926 97.3945C1.5686 97.1645 1.5197 97.0089 1.50586 96.9512C1.50399 96.9434 1.5029 96.9368 1.50195 96.9316V4.53613C1.52681 4.51301 1.56012 4.48404 1.60449 4.4502C1.97177 4.17006 2.913 3.66845 5.14062 3.13867C9.57599 2.08386 18.7343 1 37.5215 1ZM72.7598 96.9971C72.7596 96.9954 72.759 96.9938 72.7588 96.9922C72.7583 96.9874 72.7582 96.9828 72.7578 96.9785L72.7598 96.9971Z" stroke="#A9023A" stroke-width="2"/>
<path d="M48.9238 103.185V113.995C48.9238 115.817 48.1675 116.809 47.208 117.363C46.1783 117.958 44.7975 118.106 43.5654 117.932C42.5951 117.794 42.2707 117.325 41.4678 116.502C41.0747 116.099 40.5812 115.646 39.873 115.307C39.1615 114.966 38.2991 114.771 37.1934 114.771C36.0682 114.771 35.2023 114.998 34.498 115.389C33.8052 115.773 33.3389 116.279 32.9814 116.692C32.5948 117.139 32.3806 117.41 32.0918 117.618C31.8575 117.787 31.5548 117.922 31.0205 117.922C29.5793 117.922 28.2682 117.771 27.3086 117.324C26.4263 116.913 25.8391 116.26 25.7139 115.072C25.5536 113.551 25.4705 110.352 25.4287 107.484C25.408 106.061 25.3968 104.736 25.3916 103.767C25.3905 103.555 25.3903 103.36 25.3896 103.185H48.9238Z" stroke="#A9023A" stroke-width="2"/>
</svg>
