<svg width="100" height="100" viewBox="0 0 100 100" fill="none" xmlns="http://www.w3.org/2000/svg">
<path d="M93.75 31.25V93.75H25V68.75H6.25V6.25H75V31.25H93.75ZM87.5 87.5V50H31.25V87.5H87.5ZM25 62.5V31.25H68.75V25H12.5V62.5H25ZM12.5 12.5V18.75H68.75V12.5H12.5ZM87.5 37.5H31.25V43.75H87.5V37.5Z" fill="#A9023A"/>
<path d="M66.0833 71.3333H65.1617L64.835 71.0183C66.0179 69.6464 66.6681 67.8948 66.6667 66.0833C66.6667 64.5835 66.2219 63.1173 65.3886 61.8703C64.5554 60.6232 63.371 59.6512 61.9854 59.0773C60.5997 58.5033 59.0749 58.3531 57.6039 58.6457C56.1329 58.9383 54.7817 59.6606 53.7211 60.7211C52.6606 61.7817 51.9383 63.1329 51.6457 64.6039C51.3531 66.0749 51.5033 67.5997 52.0773 68.9854C52.6512 70.371 53.6232 71.5554 54.8703 72.3886C56.1173 73.2219 57.5835 73.6667 59.0833 73.6667C60.9617 73.6667 62.6883 72.9783 64.0183 71.835L64.3333 72.1617V73.0833L70.1667 78.905L71.905 77.1667L66.0833 71.3333ZM59.0833 71.3333C56.1783 71.3333 53.8333 68.9883 53.8333 66.0833C53.8333 63.1783 56.1783 60.8333 59.0833 60.8333C61.9883 60.8333 64.3333 63.1783 64.3333 66.0833C64.3333 68.9883 61.9883 71.3333 59.0833 71.3333Z" fill="#A9023A"/>
</svg>
