<svg width="100" height="100" viewBox="0 0 100 100" fill="none" xmlns="http://www.w3.org/2000/svg">
<path d="M47.917 12C58.5478 12 68.7437 16.2232 76.2607 23.7402C83.7776 31.2572 88.0009 41.4524 88.001 52.083C88.001 62.7138 83.7778 72.9097 76.2607 80.4268C68.7437 87.9438 58.5478 92.167 47.917 92.167C37.2864 92.1669 27.0912 87.9437 19.5742 80.4268C12.0571 72.9097 7.83398 62.7138 7.83398 52.083C7.83407 41.4524 12.0572 31.2572 19.5742 23.7402C27.0912 16.2232 37.2863 12.0001 47.917 12ZM47.917 17.167C38.6566 17.1671 29.7756 20.8455 23.2275 27.3936C16.6795 33.9416 13.0011 42.8226 13.001 52.083C13.001 61.3435 16.6794 70.2253 23.2275 76.7734C29.7756 83.3214 38.6567 86.9999 47.917 87C52.5023 87 57.043 86.0965 61.2793 84.3418C65.5156 82.5871 69.3651 80.0157 72.6074 76.7734C75.8497 73.5311 78.4211 69.6816 80.1758 65.4453C81.9305 61.209 82.834 56.6683 82.834 52.083C82.8339 42.8227 79.1554 33.9416 72.6074 27.3936C66.0593 20.8454 57.1775 17.167 47.917 17.167ZM50.501 28.667V51.4609L69.834 62.6084L70.2666 62.8584L70.0176 63.291L67.9346 66.916L67.6846 67.3496L67.251 67.0996L45.584 54.5996L45.334 54.4551V28.667H50.501Z" fill="#A9023A" stroke="#A9023A"/>
</svg>
