<svg width="133" height="112" viewBox="0 0 133 112" fill="none" xmlns="http://www.w3.org/2000/svg">
<path d="M21.0308 4.09377C21.2115 4.09271 21.3922 4.09165 21.5785 4.09055C22.1823 4.08784 22.786 4.08997 23.3899 4.09209C23.8279 4.09114 24.2659 4.08989 24.7039 4.08837C25.9062 4.08508 27.1085 4.08605 28.3108 4.08773C29.608 4.08881 30.9052 4.08596 32.2023 4.08362C34.7431 4.0797 37.2839 4.07952 39.8247 4.08071C41.8898 4.08163 43.9548 4.0813 46.0199 4.08008C46.3137 4.07991 46.6076 4.07974 46.9103 4.07957C47.5072 4.07922 48.1042 4.07887 48.7011 4.07851C52.7093 4.07627 56.7176 4.07533 60.7258 4.07706C60.8825 4.07713 61.0392 4.0772 61.2007 4.07727C62.4732 4.07783 63.7458 4.07842 65.0183 4.07902C69.9817 4.08132 74.945 4.07942 79.9083 4.07412C85.4862 4.06818 91.0641 4.06526 96.6419 4.06687C99.5948 4.06767 102.548 4.06716 105.5 4.06317C108.014 4.05982 110.528 4.05967 113.041 4.06364C114.324 4.06558 115.606 4.06606 116.889 4.06258C118.063 4.05943 119.238 4.0605 120.412 4.06491C120.836 4.06577 121.261 4.0651 121.685 4.06272C126.302 4.03873 126.302 4.03873 128.193 5.52359C128.309 5.66781 128.425 5.81203 128.544 5.96062C128.665 6.10308 128.785 6.24554 128.908 6.39232C130.03 8.13096 130.031 9.60072 130.022 11.6362C130.023 11.9565 130.025 12.2767 130.027 12.597C130.03 13.4749 130.03 14.3528 130.029 15.2307C130.028 16.1784 130.031 17.1261 130.034 18.0738C130.039 19.9296 130.04 21.7854 130.04 23.6413C130.039 25.15 130.04 26.6587 130.042 28.1675C130.042 28.6022 130.043 29.0369 130.043 29.4716C130.044 29.7962 130.044 29.7962 130.044 30.1273C130.048 34.219 130.048 38.3107 130.046 42.4024C130.045 46.1442 130.05 49.886 130.058 53.6277C130.065 57.4711 130.069 61.3144 130.068 65.1578C130.067 67.315 130.068 69.4722 130.074 71.6295C130.079 73.4661 130.08 75.3027 130.075 77.1394C130.073 78.076 130.073 79.0126 130.078 79.9493C130.082 80.8078 130.081 81.666 130.076 82.5245C130.074 82.9801 130.079 83.4357 130.083 83.8913C130.062 86.0119 129.586 87.4746 128.273 89.1454C126.197 90.7421 124.078 90.6669 121.568 90.6446C121.161 90.6443 120.755 90.6445 120.349 90.645C119.251 90.6452 118.153 90.6399 117.055 90.6335C115.906 90.6278 114.757 90.6273 113.608 90.6262C111.434 90.6234 109.26 90.6159 107.086 90.6068C104.61 90.5966 102.134 90.5915 99.658 90.587C94.5669 90.5775 89.4757 90.5614 84.3846 90.5411C84.4633 90.8224 84.542 91.1037 84.6231 91.3935C84.7273 91.7664 84.8315 92.1393 84.9357 92.5122C84.9874 92.6971 85.0392 92.882 85.0925 93.0726C85.4992 94.5286 85.8877 95.9886 86.2621 97.4531C86.538 98.5143 86.8587 99.5466 87.229 100.579C87.3601 101.023 87.3601 101.023 87.3601 101.706C87.5066 101.703 87.6531 101.699 87.8041 101.696C88.4715 101.681 89.1388 101.673 89.8062 101.664C90.1521 101.655 90.1521 101.655 90.505 101.646C92.6945 101.625 92.6945 101.625 93.5399 102.39C94.2688 103.296 94.3138 104.025 94.298 105.167C94.2972 105.448 94.2963 105.728 94.2954 106.017C94.2265 106.719 94.2265 106.719 93.7688 107.175C93.1985 107.22 92.6537 107.237 92.0832 107.233C91.9074 107.234 91.7316 107.235 91.5505 107.235C90.9584 107.237 90.3662 107.236 89.774 107.234C89.3508 107.235 88.9275 107.236 88.5043 107.237C87.3523 107.239 86.2004 107.238 85.0484 107.236C83.8451 107.235 82.6418 107.236 81.4384 107.237C79.4173 107.238 77.3962 107.237 75.3751 107.235C73.0356 107.232 70.6961 107.233 68.3567 107.235C66.3511 107.238 64.3455 107.238 62.3398 107.237C61.1407 107.236 59.9415 107.236 58.7423 107.237C57.6151 107.239 56.488 107.238 55.3608 107.235C54.9461 107.235 54.5315 107.235 54.1168 107.236C53.5527 107.237 52.9886 107.235 52.4245 107.233C52.2587 107.234 52.0929 107.235 51.9221 107.236C50.7912 107.227 50.7912 107.227 50.2812 106.719C49.958 103.801 49.958 103.801 50.696 102.675C51.4745 101.878 51.96 101.65 53.0519 101.612C53.2769 101.603 53.5019 101.594 53.7337 101.585C54.0853 101.575 54.0853 101.575 54.444 101.564C54.6811 101.555 54.9181 101.546 55.1624 101.537C55.7478 101.516 56.3332 101.496 56.9188 101.479C58.0965 98.2317 58.9393 94.9254 59.743 91.5692C59.8942 90.9968 59.8942 90.9968 60.1231 90.5411C59.9117 90.5422 59.7003 90.5432 59.4825 90.5443C54.3341 90.5696 49.1857 90.5883 44.0372 90.6001C41.5475 90.606 39.0577 90.614 36.568 90.6271C34.3974 90.6384 32.2269 90.6458 30.0563 90.6483C28.9074 90.6498 27.7586 90.6533 26.6097 90.6616C25.5272 90.6693 24.4449 90.6717 23.3624 90.67C22.9662 90.6703 22.57 90.6725 22.1738 90.6769C18.1287 90.7195 18.1287 90.7195 16.4067 89.4018C15.1923 88.1137 14.5195 86.8766 14.5161 85.0845C14.5145 84.8112 14.5129 84.538 14.5112 84.2564C14.5118 83.957 14.5123 83.6576 14.5129 83.3492C14.5119 83.0273 14.5107 82.7054 14.5093 82.3835C14.506 81.4989 14.5056 80.6143 14.5057 79.7297C14.5054 78.7757 14.5024 77.8216 14.4997 76.8676C14.4945 74.7815 14.4927 72.6954 14.4915 70.6093C14.4908 69.3066 14.4893 68.004 14.4876 66.7014C14.4832 63.0945 14.4794 59.4877 14.4787 55.8808C14.4787 55.65 14.4787 55.4192 14.4786 55.1813C14.4785 54.7134 14.4784 54.2455 14.4784 53.7776C14.4783 53.5453 14.4783 53.3131 14.4782 53.0737C14.4782 52.8412 14.4782 52.6086 14.4781 52.369C14.4773 48.6005 14.4711 44.8321 14.4626 41.0636C14.4538 37.1943 14.4494 33.3249 14.4493 29.4556C14.4492 27.2832 14.4473 25.1108 14.4406 22.9385C14.435 21.0887 14.4334 19.239 14.4368 17.3892C14.4385 16.4456 14.4383 15.5022 14.4331 14.5586C14.4283 13.6941 14.4289 12.8298 14.4337 11.9653C14.4349 11.5059 14.4304 11.0464 14.4258 10.587C14.4438 8.64283 14.759 7.25307 16.1151 5.81115C17.5029 4.47729 19.1436 4.0762 21.0308 4.09377Z" fill="white"/>
<path d="M44.375 44.5C44.2755 44.5 44.1802 44.5 44.1098 44.5C44.0395 44.5 44 44.5 44 44.5C44 44.5 44.0395 44.5 44.1098 44.5C44.1802 44.5 44.2755 44.5 44.375 44.5C44.4745 44.5 44.5698 44.5 44.6402 44.5C44.7105 44.5 44.75 44.5 44.75 44.5C44.75 44.5 44.7105 44.5 44.6402 44.5C44.5698 44.5 44.4745 44.5 44.375 44.5ZM49.625 44.5C49.5255 44.5 49.4302 44.5 49.3598 44.5C49.2895 44.5 49.25 44.5 49.25 44.5C49.25 44.5 49.2895 44.5 49.3598 44.5C49.4302 44.5 49.5255 44.5 49.625 44.5C49.7245 44.5 49.8198 44.5 49.8902 44.5C49.9605 44.5 50 44.5 50 44.5C50 44.5 49.9605 44.5 49.8902 44.5C49.8198 44.5 49.7245 44.5 49.625 44.5Z" fill="#A9023A"/>
<path d="M44.375 44.5C44.2755 44.5 44.1802 44.5 44.1098 44.5C44.0395 44.5 44 44.5 44 44.5C44 44.5 44.0395 44.5 44.1098 44.5C44.1802 44.5 44.2755 44.5 44.375 44.5C44.4745 44.5 44.5698 44.5 44.6402 44.5C44.7105 44.5 44.75 44.5 44.75 44.5C44.75 44.5 44.7105 44.5 44.6402 44.5C44.5698 44.5 44.4745 44.5 44.375 44.5ZM49.625 44.5C49.5255 44.5 49.4302 44.5 49.3598 44.5C49.2895 44.5 49.25 44.5 49.25 44.5C49.25 44.5 49.2895 44.5 49.3598 44.5C49.4302 44.5 49.5255 44.5 49.625 44.5C49.7245 44.5 49.8198 44.5 49.8902 44.5C49.9605 44.5 50 44.5 50 44.5C50 44.5 49.9605 44.5 49.8902 44.5C49.8198 44.5 49.7245 44.5 49.625 44.5Z" stroke="#A9023A" stroke-width="1.5" stroke-linecap="round" stroke-linejoin="round"/>
<path d="M46.5 54.5C50.6422 54.5 54 51.1422 54 47C54 42.8578 50.6422 39.5 46.5 39.5C42.3578 39.5 39 42.8578 39 47C39 51.1422 42.3578 54.5 46.5 54.5Z" stroke="#A9023A" stroke-width="1.5" stroke-linecap="round" stroke-linejoin="round"/>
<path d="M43 49.5C43 49.5 44.1667 48.5 46.5 48.5C48.8333 48.5 50 49.5 50 49.5" stroke="#A9023A" stroke-width="1.5" stroke-linecap="round" stroke-linejoin="round"/>
<path d="M72.499 39.6665C74.5764 39.6665 76.5691 40.4916 78.0381 41.9604C79.507 43.4294 80.3329 45.4221 80.333 47.4995C80.333 49.577 79.5071 51.5695 78.0381 53.0386C76.5691 54.5076 74.5766 55.3335 72.499 55.3335C70.4216 55.3334 68.4289 54.5075 66.96 53.0386C65.4911 51.5696 64.666 49.5769 64.666 47.4995C64.6661 45.4221 65.491 43.4294 66.96 41.9604C68.4289 40.4915 70.4216 39.6666 72.499 39.6665ZM72.499 39.7085C71.4759 39.7085 70.4628 39.9097 69.5176 40.3013C68.5723 40.6928 67.7138 41.2672 66.9902 41.9907C66.2667 42.7142 65.6923 43.5727 65.3008 44.5181C64.9093 45.4633 64.7081 46.4764 64.708 47.4995C64.708 48.5227 64.9092 49.5366 65.3008 50.4819C65.6923 51.4271 66.2668 52.2858 66.9902 53.0093C67.7137 53.7327 68.5723 54.3072 69.5176 54.6987C70.4628 55.0902 71.476 55.2915 72.499 55.2915C74.5655 55.2915 76.5476 54.4705 78.0088 53.0093C79.47 51.5481 80.291 49.566 80.291 47.4995C80.2909 45.4332 79.4698 43.4519 78.0088 41.9907C76.5476 40.5295 74.5655 39.7085 72.499 39.7085ZM68.8535 50.0835H76.1455C76.1509 50.0836 76.1563 50.0855 76.1602 50.0894C76.164 50.0932 76.166 50.0986 76.166 50.104C76.166 50.1095 76.164 50.1148 76.1602 50.1187C76.1563 50.1225 76.1509 50.1244 76.1455 50.1245H68.8535C68.848 50.1245 68.8428 50.1226 68.8389 50.1187C68.835 50.1147 68.833 50.1095 68.833 50.104C68.833 50.0985 68.835 50.0933 68.8389 50.0894C68.8428 50.0854 68.848 50.0835 68.8535 50.0835ZM69.8955 45.396C70.039 45.3961 70.1768 45.4527 70.2783 45.5542C70.3798 45.6557 70.4364 45.7935 70.4365 45.937C70.4365 46.0807 70.3799 46.2192 70.2783 46.3208C70.1768 46.4222 70.039 46.4789 69.8955 46.479C69.7518 46.479 69.6133 46.4224 69.5117 46.3208C69.4101 46.2192 69.3535 46.0807 69.3535 45.937C69.3536 45.7935 69.4103 45.6557 69.5117 45.5542C69.6133 45.4526 69.7518 45.396 69.8955 45.396ZM75.1035 45.396C75.2471 45.396 75.3848 45.4527 75.4863 45.5542C75.5878 45.6557 75.6454 45.7935 75.6455 45.937C75.6455 46.0807 75.5879 46.2192 75.4863 46.3208C75.3848 46.4222 75.247 46.479 75.1035 46.479C74.96 46.479 74.8223 46.4222 74.7207 46.3208C74.6191 46.2192 74.5615 46.0807 74.5615 45.937C74.5616 45.7935 74.6192 45.6557 74.7207 45.5542C74.8223 45.4527 74.9599 45.396 75.1035 45.396Z" fill="#A9023A" stroke="#A9023A"/>
<path d="M97.5 38.9375C101.953 38.9375 105.562 42.5472 105.562 47C105.562 51.4528 101.953 55.0625 97.5 55.0625C93.0472 55.0625 89.4375 51.4528 89.4375 47C89.4375 42.5472 93.0472 38.9375 97.5 38.9375ZM97.5 39.625C93.4271 39.625 90.125 42.9271 90.125 47C90.125 51.0729 93.4271 54.375 97.5 54.375C101.573 54.375 104.875 51.0729 104.875 47C104.875 42.9271 101.573 39.625 97.5 39.625ZM93.7842 49.0674C93.8652 49.027 93.9589 49.0206 94.0449 49.0488C94.1094 49.07 94.1655 49.1097 94.207 49.1621L94.2441 49.2188L94.2451 49.2207L94.248 49.2285L94.2529 49.2354L94.2725 49.2695L94.2754 49.2744C94.2998 49.3142 94.3382 49.3732 94.3926 49.4463L94.3936 49.4473C94.4767 49.5579 94.5962 49.6983 94.7568 49.8467L94.9316 49.9971C95.4317 50.3968 96.2476 50.8125 97.5 50.8125C98.7524 50.8125 99.5684 50.3971 100.068 49.998C100.32 49.7962 100.496 49.5953 100.606 49.4473L100.605 49.4463C100.657 49.3784 100.705 49.3082 100.748 49.2344L100.749 49.2334L100.751 49.2295L100.757 49.2188C100.798 49.1382 100.87 49.0768 100.956 49.0488C101.042 49.0209 101.136 49.0286 101.217 49.0693C101.298 49.1103 101.36 49.1815 101.389 49.2676C101.417 49.3525 101.41 49.4449 101.371 49.5254L101.369 49.5303L101.365 49.5381L101.364 49.5391C101.348 49.5694 101.331 49.5997 101.313 49.6289L101.312 49.6299C101.265 49.7086 101.213 49.7849 101.157 49.8584C101.014 50.0472 100.854 50.2223 100.679 50.3809L100.498 50.5342C99.8849 51.0249 98.9195 51.5 97.5 51.5C96.0805 51.5 95.115 51.0244 94.502 50.5332L94.3213 50.3799C94.146 50.2215 93.9857 50.0469 93.8428 49.8584H93.8418C93.8034 49.8074 93.7671 49.7547 93.7324 49.7012L93.6338 49.5352L93.6309 49.5293L93.6299 49.5283C93.5894 49.447 93.5827 49.3528 93.6113 49.2666C93.6401 49.1802 93.7027 49.1082 93.7842 49.0674ZM95.125 44.2812C95.3736 44.2812 95.6123 44.3798 95.7881 44.5557C95.9639 44.7315 96.0625 44.9701 96.0625 45.2188C96.0625 45.4674 95.9639 45.706 95.7881 45.8818C95.6123 46.0577 95.3736 46.1562 95.125 46.1562C94.8764 46.1562 94.6377 46.0577 94.4619 45.8818C94.2861 45.706 94.1875 45.4674 94.1875 45.2188C94.1875 44.9701 94.2861 44.7315 94.4619 44.5557C94.6377 44.3798 94.8764 44.2812 95.125 44.2812ZM99.875 44.2812C100.124 44.2812 100.362 44.3798 100.538 44.5557C100.714 44.7315 100.812 44.9701 100.812 45.2188C100.812 45.4674 100.714 45.706 100.538 45.8818C100.362 46.0577 100.124 46.1562 99.875 46.1562C99.6264 46.1562 99.3877 46.0577 99.2119 45.8818C99.0361 45.706 98.9375 45.4674 98.9375 45.2188C98.9375 44.9701 99.0361 44.7315 99.2119 44.5557C99.3877 44.3798 99.6264 44.2812 99.875 44.2812Z" fill="#A9023A" stroke="#A9023A" stroke-width="0.5"/>
<path d="M21.0308 4.09377C21.2115 4.09271 21.3922 4.09165 21.5785 4.09055C22.1823 4.08784 22.786 4.08997 23.3899 4.09209C23.8279 4.09114 24.2659 4.08989 24.7039 4.08837C25.9062 4.08508 27.1085 4.08605 28.3108 4.08773C29.608 4.08881 30.9052 4.08596 32.2023 4.08362C34.7431 4.0797 37.2839 4.07952 39.8247 4.08071C41.8898 4.08163 43.9548 4.0813 46.0199 4.08008C46.3137 4.07991 46.6076 4.07974 46.9103 4.07957C47.5072 4.07922 48.1042 4.07887 48.7011 4.07851C52.7093 4.07627 56.7176 4.07533 60.7258 4.07706C60.8825 4.07713 61.0392 4.0772 61.2007 4.07727C62.4732 4.07783 63.7458 4.07842 65.0183 4.07902C69.9817 4.08132 74.945 4.07942 79.9083 4.07412C85.4862 4.06818 91.0641 4.06526 96.6419 4.06687C99.5948 4.06767 102.548 4.06716 105.5 4.06317C108.014 4.05982 110.528 4.05967 113.041 4.06364C114.324 4.06558 115.606 4.06606 116.889 4.06258C118.063 4.05943 119.238 4.0605 120.412 4.06491C120.836 4.06577 121.261 4.0651 121.685 4.06272C126.302 4.03873 126.302 4.03873 128.193 5.52359C128.309 5.66781 128.425 5.81203 128.544 5.96062C128.665 6.10308 128.785 6.24554 128.908 6.39232C130.03 8.13096 130.031 9.60072 130.022 11.6362C130.023 11.9565 130.025 12.2767 130.027 12.597C130.03 13.4749 130.03 14.3528 130.029 15.2307C130.028 16.1784 130.031 17.1261 130.034 18.0738C130.039 19.9296 130.04 21.7854 130.04 23.6413C130.039 25.15 130.04 26.6587 130.042 28.1675C130.042 28.6022 130.043 29.0369 130.043 29.4716C130.044 29.7962 130.044 29.7962 130.044 30.1273C130.048 34.219 130.048 38.3107 130.046 42.4024C130.045 46.1442 130.05 49.886 130.058 53.6277C130.065 57.4711 130.069 61.3144 130.068 65.1578C130.067 67.315 130.068 69.4722 130.074 71.6295C130.079 73.4661 130.08 75.3027 130.075 77.1394C130.073 78.076 130.073 79.0126 130.078 79.9493C130.082 80.8078 130.081 81.666 130.076 82.5245C130.074 82.9801 130.079 83.4357 130.083 83.8913C130.062 86.0119 129.586 87.4746 128.273 89.1454C126.197 90.7421 124.078 90.6669 121.568 90.6446C121.161 90.6443 120.755 90.6445 120.349 90.645C119.251 90.6452 118.153 90.6399 117.055 90.6335C115.906 90.6278 114.757 90.6273 113.608 90.6262C111.434 90.6234 109.26 90.6159 107.086 90.6068C104.61 90.5965 102.134 90.5916 99.658 90.587C94.5669 90.5775 89.4757 90.5614 84.3846 90.5411C84.4633 90.8224 84.542 91.1037 84.6231 91.3935C84.7273 91.7664 84.8315 92.1393 84.9357 92.5122C84.9874 92.6971 85.0392 92.882 85.0925 93.0726C85.4992 94.5286 85.8877 95.9886 86.2621 97.4531C86.538 98.5143 86.8587 99.5466 87.229 100.579C87.3601 101.023 87.3601 101.023 87.3601 101.706C87.5066 101.703 87.6531 101.699 87.8041 101.696C88.4715 101.681 89.1388 101.673 89.8062 101.664C90.1521 101.655 90.1521 101.655 90.505 101.646C92.6945 101.625 92.6945 101.625 93.5399 102.39C94.2688 103.296 94.3138 104.025 94.298 105.167C94.2972 105.448 94.2963 105.728 94.2954 106.017C94.2265 106.719 94.2265 106.719 93.7688 107.175C93.1985 107.22 92.6537 107.237 92.0832 107.233C91.9074 107.234 91.7316 107.235 91.5505 107.235C90.9584 107.237 90.3662 107.236 89.774 107.234C89.3508 107.235 88.9275 107.236 88.5043 107.237C87.3523 107.239 86.2004 107.238 85.0484 107.236C83.8451 107.235 82.6418 107.236 81.4384 107.237C79.4173 107.238 77.3962 107.237 75.3751 107.235C73.0356 107.232 70.6961 107.233 68.3567 107.235C66.3511 107.238 64.3455 107.238 62.3398 107.237C61.1407 107.236 59.9415 107.236 58.7423 107.237C57.6151 107.239 56.488 107.238 55.3608 107.235C54.9461 107.235 54.5315 107.235 54.1168 107.236C53.5527 107.237 52.9886 107.235 52.4245 107.233C52.2587 107.234 52.0929 107.235 51.9221 107.236C50.7912 107.227 50.7912 107.227 50.2812 106.719C49.958 103.801 49.958 103.801 50.696 102.675C51.4745 101.878 51.96 101.65 53.0519 101.612C53.2769 101.603 53.5019 101.594 53.7337 101.585C54.0853 101.575 54.0853 101.575 54.444 101.564C54.6811 101.555 54.9181 101.546 55.1624 101.537C55.7478 101.516 56.3332 101.496 56.9188 101.479C58.0965 98.2317 58.9393 94.9254 59.743 91.5692C59.8942 90.9968 59.8942 90.9968 60.1231 90.5411C59.9117 90.5422 59.7003 90.5432 59.4825 90.5443C54.3341 90.5696 49.1857 90.5883 44.0372 90.6001C41.5475 90.606 39.0577 90.614 36.568 90.6271C34.3974 90.6384 32.2269 90.6458 30.0563 90.6483C28.9074 90.6498 27.7586 90.6533 26.6097 90.6616C25.5272 90.6693 24.4449 90.6717 23.3624 90.67C22.9662 90.6703 22.57 90.6725 22.1738 90.6769C18.1287 90.7195 18.1287 90.7195 16.4067 89.4018C15.1923 88.1137 14.5195 86.8766 14.5161 85.0845C14.5145 84.8112 14.5129 84.538 14.5112 84.2564C14.5118 83.957 14.5123 83.6576 14.5129 83.3492C14.5119 83.0273 14.5107 82.7054 14.5093 82.3835C14.506 81.4989 14.5056 80.6143 14.5057 79.7297C14.5054 78.7757 14.5024 77.8216 14.4997 76.8676C14.4945 74.7815 14.4927 72.6954 14.4915 70.6093C14.4908 69.3066 14.4893 68.004 14.4876 66.7014C14.4832 63.0945 14.4794 59.4877 14.4787 55.8808C14.4787 55.65 14.4787 55.4192 14.4786 55.1813C14.4785 54.7134 14.4784 54.2455 14.4784 53.7776C14.4783 53.5453 14.4783 53.3131 14.4782 53.0737C14.4782 52.8412 14.4782 52.6086 14.4781 52.369C14.4773 48.6005 14.4711 44.8321 14.4626 41.0636C14.4538 37.1943 14.4494 33.3249 14.4493 29.4556C14.4492 27.2832 14.4473 25.1108 14.4406 22.9385C14.435 21.0887 14.4334 19.239 14.4368 17.3892C14.4385 16.4456 14.4383 15.5022 14.4331 14.5586C14.4283 13.6941 14.4289 12.8298 14.4337 11.9653C14.4349 11.5059 14.4304 11.0464 14.4258 10.587C14.4438 8.64283 14.759 7.25307 16.1151 5.81115C17.5029 4.47729 19.1436 4.0762 21.0308 4.09377ZM20.2977 9.87705C20.2977 31.7589 20.2977 53.6407 20.2977 76.1856C54.5888 76.1856 88.8798 76.1856 124.21 76.1856C124.21 54.3038 124.21 32.422 124.21 9.87705C89.919 9.87705 55.6279 9.87705 20.2977 9.87705Z" fill="#A9023A"/>
<path d="M16.4047 78.0083C53.2638 78.0083 90.123 78.0083 128.099 78.0083C128.099 85.7557 128.099 85.7557 127.184 87.5786C125.925 88.5755 124.946 88.7517 123.384 88.7485C123.205 88.7491 123.025 88.7496 122.84 88.7501C122.233 88.7517 121.626 88.7516 121.018 88.7515C120.581 88.7522 120.143 88.7531 119.705 88.754C118.499 88.7563 117.292 88.7571 116.085 88.7577C114.786 88.7586 113.486 88.7608 112.186 88.7628C109.045 88.7673 105.904 88.7696 102.764 88.7716C101.286 88.7726 99.8078 88.7739 98.3299 88.775C93.4191 88.7789 88.5083 88.7822 83.5976 88.7839C83.28 88.784 82.9623 88.7841 82.6447 88.7842C82.4872 88.7843 82.3297 88.7843 82.1674 88.7844C81.3693 88.7846 80.5712 88.7849 79.7732 88.7852C79.6148 88.7852 79.4564 88.7853 79.2932 88.7854C74.1565 88.7872 69.0197 88.7925 63.8829 88.7999C58.4537 88.8077 53.0245 88.8122 47.5953 88.813C44.6351 88.8135 41.6749 88.8155 38.7146 88.8213C36.1943 88.8262 33.6741 88.8281 31.1538 88.8258C29.8672 88.8248 28.5807 88.8252 27.2942 88.8297C26.1172 88.8336 24.9402 88.8335 23.7631 88.8299C23.3366 88.8294 22.9101 88.8304 22.4836 88.8331C21.905 88.8365 21.3267 88.8343 20.748 88.8307C20.5815 88.8331 20.4149 88.8354 20.2433 88.8378C19.0882 88.8221 18.4422 88.522 17.5491 87.8065C15.0124 85.008 16.4047 82.5076 16.4047 78.0083Z" fill="white"/>
<path d="M20.9712 5.91639C21.1512 5.91533 21.3312 5.91427 21.5166 5.91317C22.1205 5.91045 22.7243 5.91259 23.3283 5.91471C23.7653 5.91376 24.2023 5.91251 24.6393 5.91099C25.8409 5.90769 27.0425 5.90867 28.2441 5.91035C29.5397 5.91142 30.8354 5.90858 32.131 5.90624C34.6695 5.90232 37.2081 5.90214 39.7466 5.90333C41.8096 5.90425 43.8727 5.90392 45.9357 5.9027C46.2291 5.90253 46.5225 5.90236 46.8247 5.90219C47.4207 5.90184 48.0167 5.90149 48.6127 5.90113C52.6157 5.89889 56.6186 5.89795 60.6215 5.89968C60.778 5.89975 60.9346 5.89982 61.0959 5.89989C62.3672 5.90044 63.6385 5.90104 64.9098 5.90164C69.8684 5.90394 74.8271 5.90204 79.7857 5.89674C85.3565 5.8908 90.9273 5.88788 96.4982 5.88949C99.4479 5.89029 102.398 5.88977 105.347 5.88579C107.859 5.88244 110.37 5.88228 112.881 5.88626C114.162 5.8882 115.444 5.88868 116.725 5.8852C117.898 5.88206 119.071 5.88311 120.244 5.88753C120.668 5.88839 121.093 5.88771 121.517 5.88534C122.094 5.88235 122.671 5.88497 123.248 5.88899C123.413 5.88679 123.578 5.88459 123.748 5.88232C125.166 5.90258 126.34 6.34855 127.38 7.30425C128.242 8.67832 128.258 9.93494 128.238 11.5259C128.239 11.8038 128.24 12.0817 128.241 12.368C128.242 13.1357 128.239 13.9029 128.233 14.6705C128.228 15.4996 128.23 16.3287 128.231 17.1579C128.231 18.5931 128.228 20.0282 128.221 21.4634C128.212 23.5385 128.209 25.6135 128.207 27.6886C128.205 31.0554 128.197 34.4223 128.186 37.7892C128.176 41.0592 128.168 44.3291 128.163 47.5991C128.163 47.8008 128.162 48.0025 128.162 48.2103C128.161 49.222 128.159 50.2337 128.158 51.2455C128.146 59.6347 128.126 68.024 128.1 76.4132C127.42 76.4132 126.741 76.4132 126.04 76.4132C126.04 76.2696 126.039 76.126 126.039 75.9781C126.015 67.4765 125.991 58.9749 125.964 50.4733C125.961 49.4536 125.958 48.4339 125.955 47.4142C125.954 47.2111 125.954 47.0081 125.953 46.799C125.943 43.5073 125.934 40.2157 125.925 36.9241C125.915 33.5492 125.905 30.1742 125.894 26.7993C125.888 24.7151 125.882 22.6309 125.876 20.5466C125.873 19.1194 125.868 17.6921 125.863 16.2649C125.86 15.4402 125.858 14.6155 125.856 13.7908C125.855 12.8988 125.851 12.0068 125.847 11.1148C125.847 10.7195 125.847 10.7195 125.847 10.3162C125.846 10.0792 125.844 9.84225 125.843 9.59808C125.842 9.39189 125.842 9.1857 125.841 8.97326C125.863 8.51072 125.863 8.51072 125.582 8.2817C125.014 8.25918 124.453 8.25167 123.885 8.25366C123.704 8.2534 123.523 8.25313 123.337 8.25286C122.724 8.25225 122.11 8.25329 121.497 8.25429C121.056 8.2542 120.615 8.254 120.174 8.2537C118.956 8.25319 117.737 8.25411 116.519 8.25525C115.208 8.25623 113.897 8.2559 112.585 8.25573C110.311 8.25561 108.037 8.25633 105.763 8.2576C102.475 8.25945 99.1872 8.26005 95.8992 8.26034C90.5654 8.26084 85.2316 8.26235 79.8977 8.26451C74.715 8.2666 69.5322 8.26821 64.3494 8.26918C64.0237 8.26924 63.698 8.2693 63.3722 8.26936C60.8505 8.26984 58.3287 8.27028 55.8069 8.27072C43.4361 8.27287 31.0654 8.27746 18.6946 8.2817C18.6191 30.7651 18.5435 53.2485 18.4657 76.4132C17.7859 76.4132 17.1062 76.4132 16.4058 76.4132C16.3743 67.7937 16.3501 59.1743 16.3357 50.5547C16.3339 49.5371 16.3322 48.5194 16.3303 47.5018C16.33 47.2992 16.3296 47.0966 16.3293 46.8879C16.3233 43.6076 16.3125 40.3274 16.2998 37.0471C16.287 33.6812 16.2794 30.3153 16.2766 26.9494C16.2747 24.8725 16.2687 22.7956 16.2576 20.7187C16.2503 19.2945 16.2481 17.8702 16.2499 16.446C16.2508 15.6242 16.2494 14.8026 16.2421 13.9809C16.2341 13.0895 16.2369 12.1982 16.2406 11.3067C16.2366 11.0478 16.2326 10.7889 16.2285 10.5221C16.2449 9.08417 16.4363 8.18371 17.3504 7.05383C18.4706 6.09436 19.5345 5.90309 20.9712 5.91639Z" fill="white"/>
<path d="M61.9559 90.5405C68.7537 90.5405 75.5515 90.5405 82.5553 90.5405C83.1966 92.8388 83.8212 95.1133 84.3908 97.4254C84.6769 98.5249 85.0125 99.6051 85.3627 100.686C85.5308 101.25 85.5308 101.25 85.5308 101.706C76.7692 101.706 68.0076 101.706 58.9805 101.706C59.3444 100.377 59.7084 99.052 60.088 97.7285C60.6022 95.9264 61.0506 94.1194 61.4396 92.2864C61.7058 91.0386 61.7058 91.0386 61.9559 90.5405Z" fill="#FCFBFC"/>
<path d="M54.3511 103.213C54.5896 103.212 54.5896 103.212 54.8329 103.21C55.367 103.207 55.9009 103.21 56.4349 103.212C56.8172 103.211 57.1995 103.21 57.5819 103.208C58.6213 103.205 59.6607 103.206 60.7001 103.208C61.7866 103.21 62.8732 103.208 63.9597 103.207C65.7846 103.206 67.6094 103.208 69.4342 103.211C71.5455 103.215 73.6568 103.214 75.7681 103.21C77.5791 103.207 79.3902 103.206 81.2012 103.208C82.2836 103.209 83.366 103.209 84.4484 103.207C85.4659 103.205 86.4833 103.206 87.5008 103.21C87.8747 103.211 88.2487 103.211 88.6227 103.209C89.1321 103.208 89.6414 103.21 90.1508 103.213C90.4362 103.214 90.7216 103.214 91.0157 103.214C91.7059 103.3 91.7059 103.3 92.1465 103.562C92.3926 103.984 92.3926 103.984 92.3926 105.351C79.0991 105.351 65.8057 105.351 52.1094 105.351C52.1094 103.984 52.1094 103.984 52.3555 103.562C53.0216 103.166 53.5793 103.214 54.3511 103.213Z" fill="#F4EBED"/>
<path d="M18.9238 7.82624C29.1328 7.82234 39.3417 7.81872 49.5507 7.81659C49.7016 7.81656 49.8526 7.81653 50.0082 7.8165C53.2889 7.81581 56.5695 7.81518 59.8502 7.8146C61.459 7.81432 63.0677 7.81402 64.6764 7.81372C64.8365 7.81369 64.9966 7.81366 65.1616 7.81363C70.3553 7.81266 75.5491 7.81095 80.7428 7.80885C86.2289 7.80665 91.715 7.80528 97.2011 7.8048C100.49 7.80449 103.778 7.80349 107.066 7.80165C109.318 7.80045 111.57 7.80008 113.821 7.80038C115.123 7.80052 116.424 7.80029 117.725 7.79908C118.914 7.79798 120.103 7.79791 121.292 7.79869C121.725 7.79879 122.157 7.79849 122.589 7.79778C123.173 7.79688 123.756 7.79735 124.339 7.7982C124.596 7.7973 124.596 7.7973 124.858 7.79639C126.014 7.80023 126.014 7.80023 126.269 8.0541C126.292 8.41758 126.298 8.78203 126.298 9.14618C126.298 9.38396 126.298 9.62174 126.299 9.86673C126.298 10.1312 126.298 10.3956 126.297 10.668C126.297 11.0857 126.297 11.0857 126.298 11.5117C126.298 12.288 126.297 13.0643 126.296 13.8406C126.295 14.6764 126.295 15.5122 126.295 16.348C126.296 17.7973 126.295 19.2466 126.294 20.6959C126.292 22.7913 126.291 24.8867 126.291 26.9822C126.29 30.3815 126.289 33.7809 126.287 37.1802C126.285 40.4832 126.283 43.7862 126.282 47.0892C126.282 47.3944 126.282 47.3944 126.282 47.7057C126.282 48.7263 126.281 49.7469 126.281 50.7675C126.279 59.2402 126.275 67.7129 126.269 76.1856C126.798 76.1856 127.327 76.1856 127.872 76.1856C127.872 53.9278 127.872 31.67 127.872 8.7377C127.947 8.7377 128.023 8.7377 128.1 8.7377C128.1 31.0707 128.1 53.4037 128.1 76.4135C127.421 76.4135 126.741 76.4135 126.041 76.4135C126.04 76.2699 126.04 76.1263 126.039 75.9783C126.016 67.4767 125.991 58.9751 125.965 50.4735C125.962 49.4538 125.958 48.4341 125.955 47.4144C125.955 47.2114 125.954 47.0084 125.953 46.7992C125.943 43.5076 125.934 40.216 125.925 36.9244C125.916 33.5494 125.906 30.1745 125.895 26.7996C125.888 24.7154 125.882 22.6311 125.877 20.5469C125.873 19.1196 125.869 17.6924 125.864 16.2652C125.861 15.4405 125.858 14.6158 125.857 13.7911C125.855 12.8991 125.851 12.0071 125.848 11.1151C125.848 10.7198 125.848 10.7198 125.847 10.3165C125.846 10.0795 125.845 9.84252 125.843 9.59835C125.843 9.39216 125.842 9.18597 125.842 8.97353C125.863 8.51099 125.863 8.51099 125.583 8.28197C125.016 8.25829 124.456 8.2496 123.889 8.25037C123.709 8.24972 123.528 8.24908 123.342 8.24841C122.73 8.24649 122.118 8.24622 121.506 8.24592C121.066 8.24488 120.626 8.24374 120.186 8.24251C118.97 8.2394 117.755 8.23772 116.539 8.23626C115.23 8.23444 113.922 8.23132 112.613 8.22835C110.344 8.22338 108.075 8.21925 105.806 8.21568C102.525 8.21051 99.244 8.2041 95.9631 8.19737C90.6407 8.1865 85.3183 8.17664 79.9959 8.16742C74.8242 8.15846 69.6525 8.14902 64.4809 8.13894C64.3215 8.13863 64.1622 8.13832 63.9981 8.138C62.3981 8.13488 60.7982 8.13175 59.1982 8.12862C45.7734 8.10231 32.3486 8.07765 18.9238 8.0541C18.9238 7.97891 18.9238 7.90371 18.9238 7.82624Z" fill="#DFBCC3"/>
<path d="M73.8974 80.2148C74.9342 80.7789 75.5376 81.439 75.9145 82.5647C76.0474 83.9148 75.8072 84.9022 74.9989 85.9826C74.1947 86.716 73.3506 87.1826 72.2524 87.2644C71.1534 87.1825 70.3112 86.7153 69.5058 85.9826C68.7857 85.0382 68.4062 83.9879 68.4722 82.797C68.7819 81.5894 69.6282 80.7412 70.6359 80.0582C71.8395 79.6669 72.7515 79.6941 73.8974 80.2148Z" fill="#A9023A"/>
<path d="M72.2489 81.5117C73.1814 81.7051 73.5178 82.0363 74.0799 82.7935C74.2373 83.4771 74.2373 83.4771 74.0799 84.1606C73.4616 84.8192 73.0078 85.2268 72.1201 85.4424C71.2815 85.2283 70.9363 84.839 70.4178 84.1606C70.2748 83.4771 70.2748 83.4771 70.4178 82.7935C70.98 82.0363 71.3163 81.7051 72.2489 81.5117Z" fill="#F7F2F5"/>
<path d="M125.352 7.82568C125.654 7.90088 125.956 7.97607 126.267 8.05355C126.267 14.5955 126.267 21.1375 126.267 27.8778C126.192 27.8778 126.116 27.8778 126.038 27.8778C126.036 27.6366 126.035 27.3955 126.033 27.1471C126.015 24.8771 125.995 22.6071 125.972 20.3372C125.961 19.1701 125.95 18.003 125.942 16.836C125.933 15.7101 125.923 14.5843 125.91 13.4585C125.906 13.0285 125.903 12.5985 125.9 12.1685C125.896 11.5673 125.89 10.9661 125.882 10.3648C125.882 10.1862 125.881 10.0075 125.881 9.82348C125.867 8.96139 125.844 8.56064 125.352 7.82568Z" fill="#E3CFD5"/>
<path d="M72.9348 79.8313C73.0103 79.9817 73.0859 80.1321 73.1637 80.2871C73.0309 80.2929 72.8982 80.2988 72.7614 80.3049C71.4766 80.3977 70.7401 80.6274 69.7305 81.4264C69.7305 81.2008 69.7305 80.9752 69.7305 80.7428C70.8692 80.0025 71.5346 79.7175 72.9348 79.8313Z" fill="#B54F64"/>
<path d="M125.352 7.82568C125.654 7.90088 125.956 7.97607 126.267 8.05355C126.267 8.95589 126.267 9.85824 126.267 10.7879C126.192 10.7879 126.116 10.7879 126.038 10.7879C126.021 10.5531 126.021 10.5531 126.004 10.3135C125.987 10.1082 125.97 9.90286 125.952 9.69132C125.936 9.48777 125.921 9.28421 125.904 9.07449C125.84 8.45368 125.84 8.45368 125.352 7.82568Z" fill="#E6D9E0"/>
<rect x="1" y="49.5" width="30.5444" height="54.1475" rx="6" fill="white" stroke="#A9023A" stroke-width="2"/>
<rect x="5.22852" y="57.6968" width="22.0913" height="38.1639" rx="1" stroke="#A9023A" stroke-width="2"/>
<path d="M21.1328 53.8281H12.2568" stroke="#A9023A" stroke-width="2" stroke-linecap="round"/>
<path d="M19.4434 99.729H12.6809" stroke="#A9023A" stroke-width="2" stroke-linecap="round"/>
<g clip-path="url(#clip0_329_131)">
<path d="M14.6875 64C14.6378 64 14.5901 64 14.5549 64C14.5198 64 14.5 64 14.5 64C14.5 64 14.5198 64 14.5549 64C14.5901 64 14.6378 64 14.6875 64C14.7372 64 14.7849 64 14.8201 64C14.8552 64 14.875 64 14.875 64C14.875 64 14.8552 64 14.8201 64C14.7849 64 14.7372 64 14.6875 64ZM17.3125 64C17.2628 64 17.2151 64 17.1799 64C17.1448 64 17.125 64 17.125 64C17.125 64 17.1448 64 17.1799 64C17.2151 64 17.2628 64 17.3125 64C17.3622 64 17.4099 64 17.4451 64C17.4802 64 17.5 64 17.5 64C17.5 64 17.4802 64 17.4451 64C17.4099 64 17.3622 64 17.3125 64Z" fill="#A9023A"/>
<path d="M14.6875 64C14.6378 64 14.5901 64 14.5549 64C14.5198 64 14.5 64 14.5 64C14.5 64 14.5198 64 14.5549 64C14.5901 64 14.6378 64 14.6875 64C14.7372 64 14.7849 64 14.8201 64C14.8552 64 14.875 64 14.875 64C14.875 64 14.8552 64 14.8201 64C14.7849 64 14.7372 64 14.6875 64ZM17.3125 64C17.2628 64 17.2151 64 17.1799 64C17.1448 64 17.125 64 17.125 64C17.125 64 17.1448 64 17.1799 64C17.2151 64 17.2628 64 17.3125 64C17.3622 64 17.4099 64 17.4451 64C17.4802 64 17.5 64 17.5 64C17.5 64 17.4802 64 17.4451 64C17.4099 64 17.3622 64 17.3125 64Z" stroke="#A9023A" stroke-linecap="round" stroke-linejoin="round"/>
<path d="M15.75 69C17.8211 69 19.5 67.3211 19.5 65.25C19.5 63.1789 17.8211 61.5 15.75 61.5C13.6789 61.5 12 63.1789 12 65.25C12 67.3211 13.6789 69 15.75 69Z" stroke="#A9023A" stroke-width="0.5" stroke-linecap="round" stroke-linejoin="round"/>
<path d="M14 67C14 67 14.5833 66.5 15.75 66.5C16.9167 66.5 17.5 67 17.5 67" stroke="#A9023A" stroke-width="0.5" stroke-linecap="round" stroke-linejoin="round"/>
</g>
<mask id="path-27-inside-1_329_131" fill="white">
<path d="M14.5664 76.7187C14.699 76.7187 14.8262 76.6661 14.92 76.5723C15.0137 76.4785 15.0664 76.3514 15.0664 76.2187C15.0664 76.0861 15.0137 75.959 14.92 75.8652C14.8262 75.7714 14.699 75.7187 14.5664 75.7187C14.4338 75.7187 14.3066 75.7714 14.2129 75.8652C14.1191 75.959 14.0664 76.0861 14.0664 76.2187C14.0664 76.3514 14.1191 76.4785 14.2129 76.5723C14.3066 76.6661 14.4338 76.7187 14.5664 76.7187ZM17.5664 76.2187C17.5664 76.3514 17.5137 76.4785 17.42 76.5723C17.3262 76.6661 17.199 76.7187 17.0664 76.7187C16.9338 76.7187 16.8066 76.6661 16.7129 76.5723C16.6191 76.4785 16.5664 76.3514 16.5664 76.2187C16.5664 76.0861 16.6191 75.959 16.7129 75.8652C16.8066 75.7714 16.9338 75.7187 17.0664 75.7187C17.199 75.7187 17.3262 75.7714 17.42 75.8652C17.5137 75.959 17.5664 76.0861 17.5664 76.2187ZM14.0664 77.9687C14.0001 77.9687 13.9365 77.9951 13.8896 78.042C13.8427 78.0889 13.8164 78.1524 13.8164 78.2187C13.8164 78.2851 13.8427 78.3486 13.8896 78.3955C13.9365 78.4424 14.0001 78.4687 14.0664 78.4687H17.5664C17.6327 78.4687 17.6963 78.4424 17.7432 78.3955C17.7901 78.3486 17.8164 78.2851 17.8164 78.2187C17.8164 78.1524 17.7901 78.0889 17.7432 78.042C17.6963 77.9951 17.6327 77.9687 17.5664 77.9687H14.0664ZM11.8164 76.9687C11.8164 75.9079 12.2378 74.8905 12.988 74.1403C13.7381 73.3902 14.7555 72.9688 15.8164 72.9688C16.8773 72.9688 17.8947 73.3902 18.6448 74.1403C19.395 74.8905 19.8164 75.9079 19.8164 76.9687C19.8164 78.0296 19.395 79.047 18.6448 79.7972C17.8947 80.5473 16.8773 80.9687 15.8164 80.9687C14.7555 80.9687 13.7381 80.5473 12.988 79.7972C12.2378 79.047 11.8164 78.0296 11.8164 76.9687ZM15.8164 73.4687C15.3568 73.4687 14.9017 73.5593 14.477 73.7352C14.0524 73.9111 13.6665 74.1689 13.3415 74.4939C13.0165 74.8189 12.7587 75.2047 12.5828 75.6294C12.4069 76.054 12.3164 76.5091 12.3164 76.9687C12.3164 77.4284 12.4069 77.8835 12.5828 78.3081C12.7587 78.7328 13.0165 79.1186 13.3415 79.4436C13.6665 79.7686 14.0524 80.0264 14.477 80.2023C14.9017 80.3782 15.3568 80.4687 15.8164 80.4687C16.7447 80.4687 17.6349 80.1 18.2913 79.4436C18.9477 78.7872 19.3164 77.897 19.3164 76.9687C19.3164 76.0405 18.9477 75.1503 18.2913 74.4939C17.6349 73.8375 16.7447 73.4687 15.8164 73.4687Z"/>
</mask>
<path d="M14.5664 76.7187C14.699 76.7187 14.8262 76.6661 14.92 76.5723C15.0137 76.4785 15.0664 76.3514 15.0664 76.2187C15.0664 76.0861 15.0137 75.959 14.92 75.8652C14.8262 75.7714 14.699 75.7187 14.5664 75.7187C14.4338 75.7187 14.3066 75.7714 14.2129 75.8652C14.1191 75.959 14.0664 76.0861 14.0664 76.2187C14.0664 76.3514 14.1191 76.4785 14.2129 76.5723C14.3066 76.6661 14.4338 76.7187 14.5664 76.7187ZM17.5664 76.2187C17.5664 76.3514 17.5137 76.4785 17.42 76.5723C17.3262 76.6661 17.199 76.7187 17.0664 76.7187C16.9338 76.7187 16.8066 76.6661 16.7129 76.5723C16.6191 76.4785 16.5664 76.3514 16.5664 76.2187C16.5664 76.0861 16.6191 75.959 16.7129 75.8652C16.8066 75.7714 16.9338 75.7187 17.0664 75.7187C17.199 75.7187 17.3262 75.7714 17.42 75.8652C17.5137 75.959 17.5664 76.0861 17.5664 76.2187ZM14.0664 77.9687C14.0001 77.9687 13.9365 77.9951 13.8896 78.042C13.8427 78.0889 13.8164 78.1524 13.8164 78.2187C13.8164 78.2851 13.8427 78.3486 13.8896 78.3955C13.9365 78.4424 14.0001 78.4687 14.0664 78.4687H17.5664C17.6327 78.4687 17.6963 78.4424 17.7432 78.3955C17.7901 78.3486 17.8164 78.2851 17.8164 78.2187C17.8164 78.1524 17.7901 78.0889 17.7432 78.042C17.6963 77.9951 17.6327 77.9687 17.5664 77.9687H14.0664ZM11.8164 76.9687C11.8164 75.9079 12.2378 74.8905 12.988 74.1403C13.7381 73.3902 14.7555 72.9688 15.8164 72.9688C16.8773 72.9688 17.8947 73.3902 18.6448 74.1403C19.395 74.8905 19.8164 75.9079 19.8164 76.9687C19.8164 78.0296 19.395 79.047 18.6448 79.7972C17.8947 80.5473 16.8773 80.9687 15.8164 80.9687C14.7555 80.9687 13.7381 80.5473 12.988 79.7972C12.2378 79.047 11.8164 78.0296 11.8164 76.9687ZM15.8164 73.4687C15.3568 73.4687 14.9017 73.5593 14.477 73.7352C14.0524 73.9111 13.6665 74.1689 13.3415 74.4939C13.0165 74.8189 12.7587 75.2047 12.5828 75.6294C12.4069 76.054 12.3164 76.5091 12.3164 76.9687C12.3164 77.4284 12.4069 77.8835 12.5828 78.3081C12.7587 78.7328 13.0165 79.1186 13.3415 79.4436C13.6665 79.7686 14.0524 80.0264 14.477 80.2023C14.9017 80.3782 15.3568 80.4687 15.8164 80.4687C16.7447 80.4687 17.6349 80.1 18.2913 79.4436C18.9477 78.7872 19.3164 77.897 19.3164 76.9687C19.3164 76.0405 18.9477 75.1503 18.2913 74.4939C17.6349 73.8375 16.7447 73.4687 15.8164 73.4687Z" fill="#A9023A"/>
<path d="M17.0664 75.7187V76.7187V75.7187ZM11.8164 76.9687H10.8164H11.8164ZM15.8164 72.9688V71.9688V72.9688ZM19.8164 76.9687H20.8164H19.8164ZM15.8164 80.9687V81.9688V80.9687ZM12.3164 76.9687H11.3164H12.3164ZM15.8164 80.4687V79.4687V80.4687ZM19.3164 76.9687H18.3164H19.3164ZM14.5664 76.7187V77.7188C14.9642 77.7188 15.3458 77.5607 15.6271 77.2794L14.92 76.5723L14.2129 75.8652C14.3066 75.7714 14.4338 75.7187 14.5664 75.7187V76.7187ZM14.92 76.5723L15.6271 77.2794C15.9084 76.9981 16.0664 76.6166 16.0664 76.2187H15.0664H14.0664C14.0664 76.0861 14.1191 75.959 14.2129 75.8652L14.92 76.5723ZM15.0664 76.2187H16.0664C16.0664 75.8209 15.9084 75.4394 15.6271 75.1581L14.92 75.8652L14.2129 76.5723C14.1191 76.4785 14.0664 76.3514 14.0664 76.2187H15.0664ZM14.92 75.8652L15.6271 75.1581C15.3458 74.8768 14.9642 74.7187 14.5664 74.7187V75.7187V76.7187C14.4338 76.7187 14.3066 76.6661 14.2129 76.5723L14.92 75.8652ZM14.5664 75.7187V74.7187C14.1686 74.7187 13.7871 74.8768 13.5057 75.1581L14.2129 75.8652L14.92 76.5723C14.8262 76.6661 14.699 76.7187 14.5664 76.7187V75.7187ZM14.2129 75.8652L13.5057 75.1581C13.2244 75.4394 13.0664 75.8209 13.0664 76.2187H14.0664H15.0664C15.0664 76.3514 15.0137 76.4785 14.92 76.5723L14.2129 75.8652ZM14.0664 76.2187H13.0664C13.0664 76.6166 13.2244 76.9981 13.5057 77.2794L14.2129 76.5723L14.92 75.8652C15.0137 75.959 15.0664 76.0861 15.0664 76.2187H14.0664ZM14.2129 76.5723L13.5057 77.2794C13.7871 77.5607 14.1686 77.7188 14.5664 77.7188V76.7187V75.7187C14.699 75.7187 14.8262 75.7714 14.92 75.8652L14.2129 76.5723ZM17.5664 76.2187H16.5664C16.5664 76.0861 16.6191 75.959 16.7129 75.8652L17.42 76.5723L18.1271 77.2794C18.4084 76.9981 18.5664 76.6166 18.5664 76.2187H17.5664ZM17.42 76.5723L16.7129 75.8652C16.8066 75.7714 16.9338 75.7187 17.0664 75.7187V76.7187V77.7188C17.4642 77.7188 17.8458 77.5607 18.1271 77.2794L17.42 76.5723ZM17.0664 76.7187V75.7187C17.199 75.7187 17.3262 75.7714 17.42 75.8652L16.7129 76.5723L16.0057 77.2794C16.287 77.5607 16.6686 77.7188 17.0664 77.7188V76.7187ZM16.7129 76.5723L17.42 75.8652C17.5137 75.959 17.5664 76.0861 17.5664 76.2187H16.5664H15.5664C15.5664 76.6166 15.7244 76.9981 16.0057 77.2794L16.7129 76.5723ZM16.5664 76.2187H17.5664C17.5664 76.3514 17.5137 76.4785 17.42 76.5723L16.7129 75.8652L16.0057 75.1581C15.7244 75.4394 15.5664 75.8209 15.5664 76.2187H16.5664ZM16.7129 75.8652L17.42 76.5723C17.3262 76.6661 17.199 76.7187 17.0664 76.7187V75.7187V74.7187C16.6686 74.7187 16.287 74.8768 16.0057 75.1581L16.7129 75.8652ZM17.0664 75.7187V76.7187C16.9338 76.7187 16.8066 76.6661 16.7129 76.5723L17.42 75.8652L18.1271 75.1581C17.8458 74.8768 17.4642 74.7187 17.0664 74.7187V75.7187ZM17.42 75.8652L16.7129 76.5723C16.6191 76.4785 16.5664 76.3514 16.5664 76.2187H17.5664H18.5664C18.5664 75.8209 18.4084 75.4394 18.1271 75.1581L17.42 75.8652ZM14.0664 77.9687V76.9687C13.7349 76.9687 13.4169 77.1004 13.1825 77.3349L13.8896 78.042L14.5967 78.7491C14.4561 78.8897 14.2653 78.9687 14.0664 78.9687V77.9687ZM13.8896 78.042L13.1825 77.3349C12.9481 77.5693 12.8164 77.8872 12.8164 78.2187H13.8164H14.8164C14.8164 78.4177 14.7374 78.6084 14.5967 78.7491L13.8896 78.042ZM13.8164 78.2187H12.8164C12.8164 78.5503 12.9481 78.8682 13.1825 79.1026L13.8896 78.3955L14.5967 77.6884C14.7374 77.8291 14.8164 78.0198 14.8164 78.2187H13.8164ZM13.8896 78.3955L13.1825 79.1026C13.4169 79.3371 13.7349 79.4687 14.0664 79.4687V78.4687V77.4687C14.2653 77.4687 14.4561 77.5478 14.5967 77.6884L13.8896 78.3955ZM14.0664 78.4687V79.4687H17.5664V78.4687V77.4687H14.0664V78.4687ZM17.5664 78.4687V79.4687C17.8979 79.4687 18.2159 79.3371 18.4503 79.1026L17.7432 78.3955L17.0361 77.6884C17.1767 77.5478 17.3675 77.4687 17.5664 77.4687V78.4687ZM17.7432 78.3955L18.4503 79.1026C18.6847 78.8682 18.8164 78.5503 18.8164 78.2187H17.8164H16.8164C16.8164 78.0198 16.8954 77.8291 17.0361 77.6884L17.7432 78.3955ZM17.8164 78.2187H18.8164C18.8164 77.8872 18.6847 77.5693 18.4503 77.3349L17.7432 78.042L17.0361 78.7491C16.8954 78.6084 16.8164 78.4177 16.8164 78.2187H17.8164ZM17.7432 78.042L18.4503 77.3349C18.2159 77.1004 17.8979 76.9687 17.5664 76.9687V77.9687V78.9687C17.3675 78.9687 17.1767 78.8897 17.0361 78.7491L17.7432 78.042ZM17.5664 77.9687V76.9687H14.0664V77.9687V78.9687H17.5664V77.9687ZM11.8164 76.9687H12.8164C12.8164 76.1731 13.1325 75.41 13.6951 74.8474L12.988 74.1403L12.2809 73.4332C11.3432 74.3709 10.8164 75.6427 10.8164 76.9687H11.8164ZM12.988 74.1403L13.6951 74.8474C14.2577 74.2848 15.0208 73.9688 15.8164 73.9688V72.9688V71.9688C14.4903 71.9688 13.2186 72.4955 12.2809 73.4332L12.988 74.1403ZM15.8164 72.9688V73.9688C16.6121 73.9688 17.3751 74.2848 17.9377 74.8474L18.6448 74.1403L19.3519 73.4332C18.4143 72.4955 17.1425 71.9688 15.8164 71.9688V72.9688ZM18.6448 74.1403L17.9377 74.8474C18.5003 75.41 18.8164 76.1731 18.8164 76.9687H19.8164H20.8164C20.8164 75.6427 20.2896 74.3709 19.3519 73.4332L18.6448 74.1403ZM19.8164 76.9687H18.8164C18.8164 77.7644 18.5003 78.5275 17.9377 79.0901L18.6448 79.7972L19.3519 80.5043C20.2896 79.5666 20.8164 78.2948 20.8164 76.9687H19.8164ZM18.6448 79.7972L17.9377 79.0901C17.3751 79.6527 16.6121 79.9687 15.8164 79.9687V80.9687V81.9688C17.1425 81.9687 18.4143 81.442 19.3519 80.5043L18.6448 79.7972ZM15.8164 80.9687V79.9687C15.0208 79.9687 14.2577 79.6527 13.6951 79.0901L12.988 79.7972L12.2809 80.5043C13.2186 81.442 14.4903 81.9687 15.8164 81.9688V80.9687ZM12.988 79.7972L13.6951 79.0901C13.1325 78.5275 12.8164 77.7644 12.8164 76.9687H11.8164H10.8164C10.8164 78.2948 11.3432 79.5666 12.2809 80.5043L12.988 79.7972ZM15.8164 73.4687V72.4688C15.2255 72.4687 14.6403 72.5851 14.0943 72.8113L14.477 73.7352L14.8597 74.6591C15.163 74.5334 15.4881 74.4688 15.8164 74.4688V73.4687ZM14.477 73.7352L14.0943 72.8113C13.5484 73.0374 13.0523 73.3689 12.6344 73.7868L13.3415 74.4939L14.0486 75.201C14.2808 74.9688 14.5564 74.7847 14.8597 74.6591L14.477 73.7352ZM13.3415 74.4939L12.6344 73.7868C12.2166 74.2046 11.8851 74.7007 11.6589 75.2467L12.5828 75.6294L13.5067 76.012C13.6323 75.7087 13.8165 75.4331 14.0486 75.201L13.3415 74.4939ZM12.5828 75.6294L11.6589 75.2467C11.4328 75.7926 11.3164 76.3778 11.3164 76.9687H12.3164H13.3164C13.3164 76.6404 13.3811 76.3154 13.5067 76.012L12.5828 75.6294ZM12.3164 76.9687H11.3164C11.3164 77.5597 11.4328 78.1449 11.6589 78.6908L12.5828 78.3081L13.5067 77.9255C13.3811 77.6221 13.3164 77.2971 13.3164 76.9687H12.3164ZM12.5828 78.3081L11.6589 78.6908C11.8851 79.2368 12.2166 79.7329 12.6344 80.1507L13.3415 79.4436L14.0486 78.7365C13.8165 78.5044 13.6323 78.2288 13.5067 77.9255L12.5828 78.3081ZM13.3415 79.4436L12.6344 80.1507C13.0523 80.5686 13.5484 80.9001 14.0943 81.1262L14.477 80.2023L14.8597 79.2784C14.5564 79.1528 14.2808 78.9687 14.0486 78.7365L13.3415 79.4436ZM14.477 80.2023L14.0943 81.1262C14.6403 81.3524 15.2255 81.4688 15.8164 81.4688V80.4687V79.4687C15.4881 79.4687 15.163 79.4041 14.8597 79.2784L14.477 80.2023ZM15.8164 80.4687V81.4688C17.0099 81.4688 18.1545 80.9946 18.9984 80.1507L18.2913 79.4436L17.5842 78.7365C17.1153 79.2054 16.4794 79.4687 15.8164 79.4687V80.4687ZM18.2913 79.4436L18.9984 80.1507C19.8423 79.3068 20.3164 78.1622 20.3164 76.9687H19.3164H18.3164C18.3164 77.6318 18.053 78.2677 17.5842 78.7365L18.2913 79.4436ZM19.3164 76.9687H20.3164C20.3164 75.7753 19.8423 74.6307 18.9984 73.7868L18.2913 74.4939L17.5842 75.201C18.053 75.6698 18.3164 76.3057 18.3164 76.9687H19.3164ZM18.2913 74.4939L18.9984 73.7868C18.1545 72.9429 17.0099 72.4688 15.8164 72.4688V73.4687V74.4688C16.4794 74.4688 17.1153 74.7321 17.5842 75.201L18.2913 74.4939Z" fill="#A9023A" mask="url(#path-27-inside-1_329_131)"/>
<path d="M15.9375 85.75C17.9741 85.75 19.625 87.4009 19.625 89.4375C19.625 91.4741 17.9741 93.125 15.9375 93.125C13.9009 93.125 12.25 91.4741 12.25 89.4375C12.25 87.4009 13.9009 85.75 15.9375 85.75ZM15.9375 85.8125C13.9356 85.8125 12.3125 87.4356 12.3125 89.4375C12.3125 91.4394 13.9356 93.0625 15.9375 93.0625C17.9394 93.0625 19.5625 91.4394 19.5625 89.4375C19.5625 87.4356 17.9394 85.8125 15.9375 85.8125ZM17.6152 90.5332C17.623 90.5307 17.6314 90.5315 17.6387 90.5352C17.6459 90.5388 17.6516 90.5451 17.6543 90.5527C17.6566 90.5597 17.656 90.5674 17.6533 90.5742L17.6523 90.5771L17.6514 90.5791C17.6452 90.5907 17.6387 90.6021 17.6318 90.6133L17.6309 90.6152L17.5654 90.7119C17.5236 90.7672 17.478 90.8196 17.4297 90.8691L17.2754 91.0088C17.0066 91.2239 16.5779 91.4375 15.9375 91.4375C15.2971 91.4375 14.8683 91.2241 14.5996 91.0088V91.0078L14.4453 90.8691C14.397 90.8197 14.3514 90.7671 14.3096 90.7119C14.2778 90.6697 14.2493 90.6252 14.2236 90.5791L14.2227 90.5762L14.2207 90.5527C14.2233 90.545 14.2282 90.5379 14.2354 90.5342L14.2363 90.5352C14.2437 90.5315 14.2519 90.5306 14.2598 90.5332C14.2673 90.5357 14.2736 90.5409 14.2773 90.5479L14.2812 90.5557L14.2861 90.5625L14.2949 90.5791L14.2979 90.584C14.3114 90.606 14.3322 90.637 14.3604 90.6748L14.3613 90.6758C14.4048 90.7337 14.4662 90.8065 14.5488 90.8828L14.6387 90.96C14.8972 91.1666 15.3123 91.375 15.9375 91.375C16.4847 91.375 16.8707 91.2152 17.1318 91.0371L17.2363 90.96C17.3656 90.8563 17.4566 90.7526 17.5146 90.6748L17.5137 90.6738C17.541 90.6377 17.5672 90.6008 17.5898 90.5615L17.5908 90.5605L17.5967 90.5488C17.6004 90.5415 17.6074 90.5358 17.6152 90.5332ZM14.8125 88.2812C14.8954 88.2812 14.9746 88.3144 15.0332 88.373C15.0918 88.4317 15.125 88.5109 15.125 88.5938C15.125 88.6766 15.0918 88.7558 15.0332 88.8145C14.9746 88.8731 14.8954 88.9062 14.8125 88.9062C14.7296 88.9062 14.6504 88.8731 14.5918 88.8145C14.5332 88.7558 14.5 88.6766 14.5 88.5938C14.5 88.5109 14.5332 88.4317 14.5918 88.373C14.6504 88.3144 14.7296 88.2812 14.8125 88.2812ZM17.0625 88.2812C17.1454 88.2812 17.2246 88.3144 17.2832 88.373C17.3418 88.4317 17.375 88.5109 17.375 88.5938C17.375 88.6766 17.3418 88.7558 17.2832 88.8145C17.2246 88.8731 17.1454 88.9062 17.0625 88.9062C16.9796 88.9062 16.9004 88.8731 16.8418 88.8145C16.7832 88.7558 16.75 88.6766 16.75 88.5938C16.75 88.5109 16.7832 88.4317 16.8418 88.373C16.9004 88.3144 16.9796 88.2812 17.0625 88.2812Z" fill="#A9023A" stroke="#A9023A" stroke-width="0.5"/>
<defs>
<clipPath id="clip0_329_131">
<rect width="9.5" height="9.5" fill="white" transform="translate(11 60.5)"/>
</clipPath>
</defs>
</svg>
