<svg width="170" height="120" viewBox="0 0 170 120" fill="none" xmlns="http://www.w3.org/2000/svg">
<rect x="1.5" y="1.5" width="167" height="117" rx="14.5" stroke="black" stroke-width="3"/>
<path d="M85.0603 24.6963C104.205 24.7144 119.709 40.2224 119.691 59.3348C119.673 78.4471 104.138 93.9249 84.9937 93.9067C65.8733 93.8886 50.3774 78.4169 50.3633 59.3267C50.3451 40.2184 65.845 24.7144 84.9856 24.6963C85.0099 24.6963 85.0341 24.6963 85.0603 24.6963ZM73.4072 77.0703C80.9229 74.4033 89.1312 74.4013 96.6489 77.0663L97.7292 73.0083C98.228 73.0083 98.6843 72.9962 99.1447 73.0124C99.6193 72.9741 100.096 73.0003 100.562 73.095C100.237 74.7783 99.8272 76.4454 99.3305 78.0863C100.611 78.7918 101.883 79.4309 103.092 80.1727C104.302 80.9125 105.447 81.7471 106.616 82.5393C120.67 69.6822 119.794 47.8141 106.561 36.0335C104.328 37.7873 101.895 39.273 99.3123 40.4563C99.803 42.1919 100.271 43.855 100.58 45.5705H97.703C97.5273 44.8791 97.3678 44.2179 97.1921 43.5627C97.0407 42.8773 96.8407 42.206 96.5904 41.5509C89.0908 44.2037 80.9047 44.1997 73.4072 41.5388L72.3228 45.6088C71.8241 45.6088 71.3637 45.6108 70.9053 45.6088C70.4368 45.6048 69.9684 45.5967 69.411 45.5886L70.7175 40.4422C68.1409 39.2629 65.7158 37.7812 63.4926 36.0234C49.5273 48.7374 50.1149 70.6034 63.4926 82.5675C65.7319 80.8117 68.1692 79.324 70.7538 78.1367C70.2349 76.4575 69.8048 74.75 69.4676 73.0265H72.337L73.4072 77.0703ZM95.6534 38.8496C95.6373 38.7367 95.613 38.6259 95.5827 38.515C94.7023 36.1464 93.4948 33.9128 91.9985 31.8768C91.0354 30.5403 89.8198 29.4033 88.4204 28.5305C86.4678 27.2665 83.974 27.198 81.9547 28.3531C80.6563 29.0808 79.5114 30.0524 78.5846 31.2156C77.0943 33.054 75.8808 35.1001 74.9782 37.2873C74.7661 37.7772 74.5723 38.2751 74.3461 38.8275C81.2338 41.2949 88.7637 41.3029 95.6534 38.8496ZM74.3804 79.7534C74.4289 79.9187 74.4491 80.0155 74.4834 80.1042C75.3053 82.3014 76.4038 84.3838 77.7526 86.3049C78.635 87.5729 79.7154 88.6937 80.9532 89.621C83.552 91.5139 86.3708 91.5381 88.9959 89.6936C89.8945 89.0526 90.7062 88.2966 91.4109 87.4479C93.2041 85.2325 94.6175 82.7349 95.5928 80.0578C95.6211 79.955 95.6393 79.8502 95.6494 79.7453C88.7697 77.3021 81.2581 77.3061 74.3804 79.7534ZM93.1354 89.9335C97.2083 88.9094 101.027 87.0568 104.346 84.4886C102.523 83.0735 100.544 81.87 98.4501 80.9004C97.6545 82.5192 96.9235 84.0976 96.1118 85.6337C95.2738 87.1657 94.2763 88.607 93.1354 89.9335ZM76.951 89.9456C75.8 88.6353 74.7964 87.2 73.9604 85.6679C73.1325 84.1197 72.4036 82.5212 71.608 80.8984C69.512 81.87 67.5311 83.0735 65.7077 84.4886C69.0395 87.0589 72.866 88.9175 76.951 89.9456ZM98.3451 37.6905C99.8777 37.1744 103.722 34.7957 104.258 34.0378C100.952 31.4978 97.1578 29.6654 93.1112 28.6534C95.4475 31.3244 97.0487 34.3986 98.3451 37.6905ZM76.8944 28.6756C72.8438 29.6916 69.0455 31.5341 65.74 34.0841C66.9273 35.1868 70.6024 37.3881 71.7251 37.6663C72.9286 34.4006 74.6753 31.3607 76.8944 28.6756Z" fill="black"/>
<path d="M84.6595 10.1802L85.5439 13.7825L85.6731 13.7805L86.6525 10.2366H89.0716V16.3608H87.5713V12.0247C87.026 13.4257 86.6969 14.8852 86.2507 16.3406H84.8695L83.8013 11.934L83.6741 11.938C83.668 12.2948 83.6599 12.6516 83.6559 13.0084C83.6519 13.3652 83.6498 13.7301 83.6458 14.0909C83.6418 14.4719 83.6478 14.8529 83.6317 15.2339C83.6155 15.5887 83.5751 15.9435 83.5408 16.3527L82.2061 16.2802C82.0748 15.8427 82.0788 11.1034 82.2081 10.1802H84.6595Z" fill="black"/>
<path d="M115.962 29.4397L114.65 28.2664L115.185 24.2811L115.08 24.2367L112.871 26.6517L111.574 25.4583L115.746 20.8662L117.04 22.0717L116.485 26.0631L116.584 26.1175L118.819 23.6824L120.136 24.8596L115.962 29.4397Z" fill="black"/>
<path d="M58.8659 21.5957L56.9557 18.9992L58.3692 17.9409L62.0543 22.9161L60.6368 23.9804L56.6871 22.6117C57.3616 23.6297 58.0501 24.4683 58.7003 25.3935L57.2889 26.4458L53.5977 21.4707L55.0152 20.4224L58.7629 21.7186L58.8659 21.5957Z" fill="black"/>
<path d="M130.477 61.6774C129.77 62.4737 129.138 62.8647 127.676 63.3969V61.3629L129.641 60.359C129.947 60.2502 130.184 59.9982 130.275 59.6837C130.285 59.5628 130.287 59.4418 130.277 59.3188H127.829C127.765 58.6899 127.763 58.0569 127.821 57.428C129.887 57.3554 131.914 57.557 133.984 57.5308C133.984 58.1355 133.994 58.6717 133.982 59.208C133.966 59.8692 133.929 60.5284 133.899 61.1875C133.893 61.3065 133.891 61.4274 133.873 61.5464C133.742 62.4454 133.261 62.9675 132.492 63.0482C131.644 63.2276 130.802 62.7256 130.555 61.8971C130.533 61.8306 130.509 61.76 130.477 61.6774ZM132.431 61.0968C132.764 60.615 132.811 60.2643 132.655 59.4257L131.525 59.3511C131.389 59.7099 131.361 60.099 131.446 60.4739C131.573 61.117 131.724 61.2178 132.431 61.0968Z" fill="black"/>
<path d="M74.3867 11.2684C75.4791 11.087 76.5009 10.9136 77.5267 10.7524C77.8619 10.6919 78.2011 10.6576 78.5404 10.6496C79.2713 10.5931 79.9377 11.0669 80.1255 11.7724C80.3718 12.5001 80.1053 13.3024 79.4733 13.7399C79.3642 13.8165 79.2511 13.885 79.1219 13.9677C80.0346 14.4878 80.4385 14.9272 81.3391 16.3726C80.9938 16.4371 80.6687 16.5016 80.3415 16.5581C80.0063 16.6165 79.6711 16.6669 79.2976 16.7274C78.8352 16.1347 78.3667 15.538 77.9023 14.9393C77.6943 14.5785 77.244 14.4354 76.8644 14.6107L77.2399 17.06L75.3943 17.3684L74.3867 11.2684ZM78.3627 12.6977C78.3061 12.2058 78.086 11.9438 77.6923 11.97C77.2642 11.9558 76.8381 12.0445 76.4504 12.228L76.6745 13.4234C77.3591 13.3186 78.0275 13.3811 78.3627 12.6977Z" fill="black"/>
<path d="M66.9492 15.4656C66.9593 13.3691 68.8796 12.4881 70.4829 12.4478C72.48 12.3974 73.4492 14.1794 73.5058 15.9594C73.5664 17.935 71.852 18.9086 69.9236 18.9732C68.078 19.0356 67.0421 17.298 66.9492 15.4656ZM71.6642 16.2195C71.638 15.5784 71.428 14.9576 71.0604 14.4314C70.7252 13.9819 70.1296 13.8166 69.6106 14.0303C69.0937 14.1936 68.7524 14.6834 68.7767 15.2237C68.8029 15.8869 69.0351 16.5259 69.441 17.05C69.7681 17.4834 70.3517 17.6286 70.8444 17.4028C71.3674 17.2556 71.7106 16.7597 71.6642 16.2195Z" fill="black"/>
<path d="M112.981 20.2835C112.91 21.6281 112.147 22.8396 110.963 23.4847C110.35 23.8072 109.629 23.8576 108.976 23.6258C108.223 23.396 107.547 22.9666 107.018 22.3861C106.394 21.7329 106.158 20.8016 106.396 19.9287C106.59 19.1022 107.04 18.3604 107.682 17.804C108.421 17.1146 109.489 16.907 110.432 17.2698C111.2 17.5218 111.878 17.9875 112.389 18.6124C112.787 19.078 112.997 19.6727 112.981 20.2835ZM111.228 20.0456C111.228 19.1748 110.214 18.3221 109.366 18.8482C108.645 19.2756 108.171 20.0194 108.09 20.852C108.001 21.7309 109.053 22.4788 109.816 22.0756C110.568 21.6462 111.087 20.9004 111.228 20.0456Z" fill="black"/>
<path d="M39.4936 68.3455C37.9085 68.3455 36.8948 67.5896 36.5475 66.1241C36.4143 65.6019 36.3698 65.0617 36.4163 64.5235C36.5677 63.1587 37.2684 62.4088 38.6052 62.0722C39.1665 61.919 39.7521 61.8766 40.3296 61.9472C41.3796 62.05 42.2641 62.7717 42.571 63.7796C42.8012 64.4247 42.882 65.1121 42.8052 65.7935C42.7245 66.757 42.1167 67.5956 41.2282 67.9766C40.687 68.2367 40.0934 68.3637 39.4936 68.3455ZM39.956 63.7716C39.4129 63.7574 38.8737 63.8804 38.3911 64.1304C37.9529 64.4025 37.7288 64.9186 37.8277 65.4246C37.8823 65.9426 38.2801 66.3599 38.795 66.4385C39.431 66.5595 40.0873 66.4809 40.6769 66.2168C41.1616 66.0273 41.4604 65.5374 41.4079 65.0194C41.3716 64.207 40.8728 63.7756 39.956 63.7716Z" fill="black"/>
<path d="M133.901 55.1154C133.458 55.19 133.071 55.2606 132.681 55.317C131.849 55.438 131.015 55.565 130.181 55.6678C128.978 55.819 127.687 55.2767 127.388 53.7951C127.263 53.2084 127.201 52.6117 127.201 52.013C127.166 51.116 127.736 50.3056 128.594 50.0355C129.224 49.842 129.87 49.7029 130.524 49.6202C131.334 49.4872 132.15 49.3965 132.964 49.2876C133.198 49.8682 133.295 50.4951 133.244 51.118C132.388 51.243 131.52 51.3659 130.65 51.4929C130.272 51.5474 129.89 51.5756 129.521 51.6582C128.939 51.7349 128.529 52.267 128.606 52.8476C128.622 52.9766 128.663 53.0996 128.725 53.2145C128.861 53.6096 129.254 53.8596 129.67 53.8112C130.189 53.7689 130.704 53.6983 131.221 53.6277C131.875 53.539 132.53 53.4342 133.184 53.3455C133.331 53.3354 133.479 53.3354 133.628 53.3435L133.901 55.1154Z" fill="black"/>
<path d="M126.805 41.1395L125.465 38.4564L124.328 39.0168L125.788 41.9721L124.604 42.5748C124.548 42.5063 124.497 42.4317 124.451 42.3571C123.728 40.9037 123.009 39.4502 122.25 37.9222L127.823 35.1807L130.083 39.7607L128.946 40.3352L127.492 37.4566L126.571 37.9021L127.886 40.5872L126.805 41.1395Z" fill="black"/>
<path d="M125.299 34.2595L124.285 32.9754C124.619 32.1811 124.534 31.655 124.045 31.3707C123.775 31.2135 123.653 31.2579 123.332 31.661L123.601 32.4734C123.764 32.9673 123.958 33.4531 124.083 33.9551C124.285 34.586 124.094 35.2755 123.597 35.7149C123.074 36.2128 122.313 36.3701 121.634 36.1221C121.37 36.0314 121.123 35.8943 120.905 35.7189C120.2 35.1444 119.684 34.3744 119.419 33.5055C119.169 32.675 119.498 31.7779 120.227 31.3022L121.277 32.6226C120.996 33.0278 120.719 33.437 120.954 33.945C121.083 34.3139 121.404 34.582 121.792 34.6405C122.331 34.4328 122.468 34.2151 122.335 33.7011C122.254 33.3926 122.095 33.1044 122.02 32.796C121.882 32.298 121.788 31.788 121.735 31.274C121.662 30.2499 122.763 29.5585 123.682 29.8064C123.898 29.8548 124.102 29.9415 124.287 30.0604C125.19 30.6813 125.814 31.6308 126.024 32.7052C126.127 33.2435 125.885 33.7273 125.299 34.2595Z" fill="black"/>
<path d="M39.0643 70.2082L39.658 71.8169C39.2077 72.1535 38.9633 72.5547 39.2198 73.1131C39.3692 73.4397 39.4803 73.5042 39.9286 73.4901C40.2516 73.2421 40.1628 72.8913 40.1587 72.5547C40.1305 71.9378 40.1386 71.319 40.1769 70.7041C40.3183 69.2305 42.0871 68.781 43.1412 69.5853C43.3674 69.7527 43.5592 69.9603 43.7106 70.1961C44.2558 71.0468 44.4961 72.0588 44.3911 73.0647C44.2942 73.863 43.7389 74.2964 43.0039 74.6391L42.3941 73.0325C43.3694 72.1918 43.3573 71.3492 42.384 70.9178C41.8489 71.0751 41.7459 71.1799 41.7277 71.6879C41.7136 72.087 41.756 72.4902 41.7378 72.8893C41.7338 73.2683 41.6914 73.6473 41.6086 74.0182C41.4026 74.8588 40.5545 75.3749 39.7105 75.1713C39.5146 75.1229 39.3309 75.0382 39.1653 74.9213C38.9472 74.7782 38.7614 74.5927 38.614 74.377C38.0547 73.5586 37.8023 72.5688 37.8992 71.581C37.986 70.936 38.4404 70.3977 39.0643 70.2082Z" fill="black"/>
<path d="M96.3604 17.7394L94.4744 17.3765C94.4138 16.9814 94.3654 16.6528 94.3129 16.3081L92.1745 15.9009L91.6091 16.8423L89.7695 16.4795L93.2083 10.8472L95.2256 11.2302C95.6355 13.365 95.9949 15.4998 96.3604 17.7394ZM94.1695 14.9656C94.1614 14.2116 94.0403 13.4638 93.8121 12.7441L92.7924 14.6793L94.1695 14.9656Z" fill="black"/>
<path d="M45.5302 40.1136C45.2011 40.037 44.8639 39.9866 44.5428 39.8798C43.7634 39.6177 43.0364 39.2166 42.4004 38.6965C41.5664 38.1321 41.2716 37.0415 41.7098 36.1343C41.8471 35.7816 42.0329 35.4469 42.261 35.1445C42.7093 34.4995 43.5089 34.1951 44.2742 34.3765C45.3606 34.5983 46.3642 35.1083 47.184 35.8541C47.9756 36.4468 48.2017 37.5333 47.711 38.3921C47.5414 38.7529 47.3294 39.0916 47.079 39.402C46.6953 39.8596 46.1279 40.1217 45.5302 40.1136ZM45.7645 38.5393C46.2067 38.5554 46.449 38.4364 46.5641 38.1583C46.6994 37.8518 46.6085 37.493 46.342 37.2894C45.5888 36.6282 44.6943 36.1484 43.725 35.8844C43.4039 35.7795 43.0546 35.9186 42.8951 36.217C42.7477 36.467 42.7739 36.7814 42.9617 37.0012C43.0183 37.0838 43.0869 37.1564 43.1657 37.2189C43.8603 37.7591 44.6377 38.1865 45.4656 38.4848C45.5625 38.5131 45.6635 38.5312 45.7645 38.5393Z" fill="black"/>
<path d="M128.588 46.8749V48.417C127.576 48.6771 126.524 48.1832 126.078 47.2397C125.783 46.6693 125.609 46.0423 125.569 45.4013C125.476 44.3712 126.005 43.3874 126.916 42.8956C127.619 42.4581 128.436 42.2364 129.266 42.2606C129.959 42.2606 130.619 42.5549 131.08 43.071C131.758 43.8269 132.112 44.8187 132.065 45.8327C132.025 46.6269 131.587 47.3466 130.902 47.7518L130.076 46.3266C130.153 46.2399 130.221 46.1693 130.284 46.0947C130.73 45.6049 130.694 44.8489 130.205 44.4034C129.945 44.1656 129.591 44.0547 129.24 44.1011C128.671 44.2079 128.119 44.3913 127.598 44.6453C127.132 44.8489 126.894 45.369 127.045 45.8549C127.124 46.3467 127.512 46.7297 128.004 46.8063C128.176 46.8386 128.356 46.8467 128.588 46.8749Z" fill="black"/>
<path d="M42.8018 45.611C41.673 45.492 40.5987 45.0747 39.684 44.4035C39.0702 43.9781 38.7834 43.2202 38.9631 42.4965C39.05 42.0671 39.1852 41.6498 39.367 41.2527C39.7163 40.4483 40.5684 39.9847 41.4347 40.1278C42.4968 40.2246 43.5166 40.5935 44.395 41.1982C45.235 41.674 45.6045 42.688 45.2673 43.5911C45.1926 43.8592 45.0936 44.1233 44.9765 44.3752C44.5807 45.232 43.8901 45.617 42.8018 45.611ZM43.2157 44.0547C43.7003 44.0507 43.9568 43.8894 44.0678 43.583C44.1789 43.2907 44.0719 42.9601 43.8114 42.7867C43.6297 42.6295 43.4277 42.4985 43.2117 42.3957C42.7351 42.1921 42.2444 42.0127 41.7538 41.8413C41.5256 41.7647 41.2913 41.7123 41.0531 41.68C40.6856 41.6115 40.3181 41.807 40.1706 42.1497C40.0535 42.4461 40.1424 42.7122 40.4735 42.9823C40.6088 43.1012 40.7623 43.198 40.9279 43.2705C41.5417 43.5104 42.1596 43.7382 42.7816 43.958C42.9249 44.0003 43.0723 44.0305 43.2218 44.0507L43.2157 44.0547Z" fill="black"/>
<path d="M65.2912 16.9431L65.8465 17.9933L63.7182 19.1424L64.8773 21.384L63.2215 22.267L60.3359 16.7838L64.5077 14.5986L65.1256 15.7174L62.6419 17.0439L63.1468 18.0478L65.2912 16.9431Z" fill="black"/>
<path d="M126.189 78.0195L123.816 76.9834L124.564 75.2739L126.966 76.2919L131.219 75.54L130.389 77.4208L127.94 77.7554L129.359 79.7673L128.539 81.6682L126.189 78.0195Z" fill="black"/>
<path d="M99.6609 18.921L97.8941 18.3202L99.3762 13.9418C98.8229 13.5729 98.1606 13.5185 97.5508 13.1979L98.0273 11.8271L103.53 13.6958L103.053 15.0928L101.185 14.4881L99.6609 18.921Z" fill="black"/>
<path d="M126.597 68.9886L131.139 70.1739L131.668 68.2891L133.091 68.662L131.627 74.256L130.183 73.9052L130.668 72.0043L126.133 70.7968L126.597 68.9886Z" fill="black"/>
<path d="M47.1017 31.6369C46.9825 32.2336 46.8836 32.7415 46.7766 33.2475C46.7422 33.3503 46.6958 33.4511 46.6413 33.5459L45.5711 32.7637C45.8679 31.8546 45.9911 30.9535 45.4883 30.0685L46.3222 28.9336L51.3926 32.6649L50.3951 34.0398L47.1017 31.6369Z" fill="black"/>
<path d="M56.1958 27.43L54.9014 28.8129L50.6367 24.3357L51.9432 22.979L56.1958 27.43Z" fill="black"/>
<path d="M104.126 20.8482L102.43 20.0338L105.073 14.4458L106.785 15.24L104.126 20.8482Z" fill="black"/>
<path d="M45.4169 75.0767L46.1599 76.8043L40.4717 79.2576L39.7266 77.532L45.4169 75.0767Z" fill="black"/>
<path d="M127.195 66.0536L127.464 64.2373C129.507 64.4832 131.506 64.7896 133.576 65.1001L133.324 66.9244C131.258 66.6704 129.251 66.3761 127.195 66.0536Z" fill="black"/>
<path d="M111.914 59.3329C111.932 60.9436 111.573 62.5381 110.868 63.9855C109.963 65.7534 108.443 67.1303 106.591 67.856C105.246 68.3882 103.821 68.6845 102.375 68.7369C100.691 68.8699 98.9966 68.6865 97.3812 68.1987C93.8859 67.0799 91.7919 64.7274 91.2588 61.0625C90.9943 59.3934 91.1013 57.688 91.5718 56.0652C92.2805 53.5897 94.1241 51.6001 96.5412 50.699C98.613 49.9128 100.846 49.6387 103.047 49.9027C104.311 49.9874 105.551 50.2878 106.714 50.7877C109.471 51.9226 111.395 54.4626 111.738 57.4199C111.831 58.0529 111.857 58.6959 111.914 59.3329ZM105.048 59.3329C104.992 58.4762 104.964 57.6134 104.869 56.7607C104.798 55.7991 104.537 54.8638 104.101 54.003C103.619 53.0455 102.621 52.4548 101.549 52.4931C100.457 52.4387 99.4308 53.0253 98.926 53.9949C98.5706 54.6702 98.3404 55.402 98.2434 56.1579C97.9607 58.0206 97.9264 59.9115 98.1425 61.7822C98.2091 62.6409 98.4151 63.4856 98.7523 64.2778C99.4025 65.7958 101.165 66.5013 102.686 65.8522C103.354 65.566 103.895 65.0479 104.21 64.3947C104.396 63.9956 104.542 63.5803 104.64 63.151C104.913 61.8951 105.048 60.617 105.048 59.3329Z" fill="black"/>
<path d="M85.6962 56.424C85.5771 56.0954 85.4862 55.8313 85.3893 55.5693C84.731 53.8034 83.4064 52.9043 81.5769 52.7088C80.8803 52.6019 80.1675 52.6402 79.487 52.8217C79.0407 52.9507 78.6389 53.1966 78.3219 53.5373C77.6697 54.257 77.7403 55.0673 78.5682 55.5713C79.0508 55.8555 79.5718 56.0712 80.113 56.2123C81.2518 56.5248 82.417 56.7506 83.5599 57.057C84.8885 57.3775 86.1566 57.9057 87.3197 58.6233C88.5697 59.3994 89.3713 60.7279 89.4723 62.1934C89.6843 63.6811 89.2663 65.189 88.3173 66.3561C87.5964 67.2008 86.6594 67.8338 85.6054 68.1865C84.1959 68.6603 82.7037 68.8498 81.2195 68.7429C79.4729 68.6482 77.7625 68.2067 76.1875 67.4447C76.1189 67.4125 76.0421 67.3923 75.925 67.352L75.2546 68.2934H72.888V61.76C73.2959 61.6975 73.7119 61.6814 74.1238 61.7096C74.5236 61.6995 74.9235 61.7076 75.3738 61.7076C75.4565 61.9233 75.5292 62.1249 75.612 62.3224C76.4359 64.2818 77.8191 65.5941 79.9535 66.0034C80.6622 66.1667 81.3992 66.1505 82.0999 65.957C82.4836 65.8441 82.841 65.6627 83.158 65.4188C83.7699 64.9833 83.9132 64.1347 83.4791 63.5239C83.3902 63.3989 83.2812 63.29 83.156 63.2013C82.6411 62.8223 82.0696 62.524 81.4639 62.3184C80.2907 61.9112 79.0811 61.6128 77.8978 61.2359C77.072 60.9879 76.2602 60.6956 75.4666 60.361C73.9583 59.6917 72.8537 58.6032 72.5185 56.9481C71.9834 54.3053 73.096 52.0073 75.5232 50.7292C76.5631 50.199 77.708 49.9027 78.8731 49.8563C81.0842 49.6931 83.3034 50.0942 85.3166 51.0215C85.3893 51.0558 85.466 51.08 85.5973 51.1304L86.088 50.3119H88.5798V56.4099C88.1173 56.4139 87.6448 56.422 87.1743 56.424C86.6897 56.426 86.2091 56.424 85.6962 56.424Z" fill="black"/>
<path d="M70.7725 65.731V68.1883H60.2461V65.731C60.5712 65.731 60.8882 65.7371 61.2012 65.729C61.4213 65.729 61.6414 65.7108 61.8595 65.6746C62.1927 65.6423 62.4592 65.3802 62.4976 65.0476C62.546 64.7916 62.5783 64.5336 62.5905 64.2756C62.5965 60.9494 62.5965 57.6212 62.5905 54.295C62.5884 53.1178 62.3078 52.8497 61.1285 52.8295C60.8499 52.8255 60.5692 52.8295 60.2461 52.8295V50.3843H70.6998C70.8371 51.1785 70.8493 51.9909 70.7342 52.7892C70.5888 52.8033 70.4353 52.8214 70.2798 52.8315C70.1243 52.8416 69.9588 52.8315 69.7972 52.8356C68.723 52.8739 68.4685 53.1037 68.4685 54.162C68.4584 57.5688 68.4584 60.9756 68.4685 64.3824C68.4726 65.475 68.729 65.7108 69.8295 65.731C70.1284 65.735 70.4252 65.731 70.7725 65.731Z" fill="black"/>
<path d="M55.7554 103.692C55.4549 103.857 55.1545 103.982 54.854 104.066C54.5578 104.147 54.2552 104.187 53.9463 104.187C53.138 104.187 52.4842 103.956 51.9849 103.495C51.4897 103.03 51.2422 102.42 51.2422 101.667C51.2422 100.846 51.5384 100.19 52.1309 99.6992C52.7275 99.2083 53.5273 98.9629 54.5303 98.9629C55.7321 98.9629 56.6758 99.3205 57.3613 100.036C58.0469 100.747 58.3896 101.724 58.3896 102.968C58.3896 104.306 58.0173 105.368 57.2725 106.155C56.5277 106.942 55.5226 107.335 54.2573 107.335C53.4406 107.335 52.7804 107.164 52.2769 106.821C51.7775 106.474 51.5278 106.026 51.5278 105.476C51.5278 105.141 51.64 104.877 51.8643 104.682C52.0928 104.483 52.3975 104.384 52.7783 104.384C53.1253 104.384 53.411 104.477 53.6353 104.663C53.8595 104.845 53.9717 105.074 53.9717 105.349C53.9717 105.518 53.9336 105.666 53.8574 105.793C53.7855 105.916 53.6733 106.021 53.521 106.11C53.6141 106.144 53.703 106.17 53.7876 106.187C53.8722 106.199 53.9548 106.206 54.0352 106.206C54.5557 106.206 54.9725 105.983 55.2856 105.539C55.5988 105.09 55.7554 104.49 55.7554 103.736V103.692ZM54.7144 100.055C54.4435 100.055 54.2256 100.186 54.0605 100.448C53.8997 100.706 53.8193 101.051 53.8193 101.483C53.8193 101.919 53.8997 102.268 54.0605 102.53C54.2256 102.788 54.4435 102.917 54.7144 102.917C54.9894 102.917 55.2095 102.788 55.3745 102.53C55.5396 102.272 55.6221 101.923 55.6221 101.483C55.6221 101.043 55.5396 100.696 55.3745 100.442C55.2095 100.184 54.9894 100.055 54.7144 100.055ZM64.3882 103.146C64.3882 102.118 64.3057 101.375 64.1406 100.918C63.9756 100.457 63.709 100.226 63.3408 100.226C62.96 100.226 62.6849 100.455 62.5156 100.912C62.3464 101.369 62.2617 102.113 62.2617 103.146C62.2617 104.179 62.3442 104.923 62.5093 105.38C62.6785 105.833 62.9515 106.06 63.3281 106.06C63.7048 106.06 63.9756 105.835 64.1406 105.387C64.3057 104.934 64.3882 104.187 64.3882 103.146ZM59.4624 103.146C59.4624 101.889 59.8179 100.878 60.5288 100.112C61.244 99.3459 62.1813 98.9629 63.3408 98.9629C64.4876 98.9629 65.4165 99.348 66.1274 100.118C66.8426 100.884 67.2002 101.893 67.2002 103.146C67.2002 104.399 66.8426 105.408 66.1274 106.174C65.4165 106.94 64.4792 107.323 63.3154 107.323C62.1686 107.323 61.2397 106.94 60.5288 106.174C59.8179 105.408 59.4624 104.399 59.4624 103.146ZM72.8179 103.146C72.8179 102.118 72.7354 101.375 72.5703 100.918C72.4053 100.457 72.1387 100.226 71.7705 100.226C71.3896 100.226 71.1146 100.455 70.9453 100.912C70.776 101.369 70.6914 102.113 70.6914 103.146C70.6914 104.179 70.7739 104.923 70.939 105.38C71.1082 105.833 71.3812 106.06 71.7578 106.06C72.1344 106.06 72.4053 105.835 72.5703 105.387C72.7354 104.934 72.8179 104.187 72.8179 103.146ZM67.8921 103.146C67.8921 101.889 68.2476 100.878 68.9585 100.112C69.6737 99.3459 70.611 98.9629 71.7705 98.9629C72.9173 98.9629 73.8462 99.348 74.5571 100.118C75.2723 100.884 75.6299 101.893 75.6299 103.146C75.6299 104.399 75.2723 105.408 74.5571 106.174C73.8462 106.94 72.9089 107.323 71.7451 107.323C70.5983 107.323 69.6694 106.94 68.9585 106.174C68.2476 105.408 67.8921 104.399 67.8921 103.146ZM77.6738 101.356V100.201C78.2028 100.158 78.6217 100.055 78.9307 99.8896C79.2396 99.7204 79.4491 99.4855 79.5591 99.1851H81.6157V105.425C81.6157 105.641 81.6729 105.785 81.7871 105.856C81.9014 105.924 82.151 105.958 82.5361 105.958H82.8345V107.101H77.6738V105.958H78.0293C78.4398 105.958 78.7085 105.922 78.8354 105.85C78.9624 105.778 79.0259 105.567 79.0259 105.215V105.165V101.356H77.6738ZM84.9482 108.307H83.7676L87.1191 98.1187H88.3125L84.9482 108.307ZM88.7568 107.113C88.7568 107.079 88.7547 107.031 88.7505 106.967C88.7463 106.904 88.7441 106.857 88.7441 106.828C88.7441 106.231 88.8626 105.708 89.0996 105.26C89.3408 104.811 89.7386 104.371 90.293 103.939C90.5173 103.762 90.8685 103.529 91.3467 103.241C91.8249 102.949 92.1719 102.723 92.3877 102.562C92.557 102.435 92.6903 102.274 92.7876 102.08C92.8849 101.885 92.9336 101.678 92.9336 101.458C92.9336 101.119 92.8109 100.852 92.5654 100.658C92.3242 100.463 91.992 100.366 91.5688 100.366C91.298 100.366 91.0547 100.41 90.8389 100.499C90.6273 100.584 90.4411 100.713 90.2803 100.886H90.3438C90.6527 100.886 90.8918 100.967 91.061 101.127C91.2345 101.288 91.3213 101.515 91.3213 101.807C91.3213 102.188 91.2049 102.488 90.9722 102.708C90.7437 102.924 90.4305 103.032 90.0327 103.032C89.6307 103.032 89.3112 102.907 89.0742 102.657C88.8372 102.403 88.7188 102.065 88.7188 101.642C88.7188 100.863 89.0446 100.222 89.6963 99.7183C90.3522 99.2147 91.1922 98.9629 92.2163 98.9629C93.2531 98.9629 94.0952 99.2126 94.7427 99.7119C95.3901 100.207 95.7139 100.85 95.7139 101.642C95.7139 102.289 95.5002 102.814 95.0728 103.216C94.6453 103.618 93.9006 103.978 92.8384 104.295C92.7157 104.329 92.54 104.377 92.3115 104.441C91.2705 104.733 90.6844 105.074 90.5532 105.463C90.841 105.311 91.1224 105.196 91.3975 105.12C91.6725 105.044 91.9497 105.006 92.229 105.006C92.5125 105.006 92.8659 105.059 93.2891 105.165C93.7122 105.266 93.9915 105.317 94.127 105.317C94.3089 105.317 94.4443 105.245 94.5332 105.101C94.6263 104.953 94.6729 104.731 94.6729 104.435V104.32H95.9995C96.0037 104.375 96.0059 104.435 96.0059 104.498C96.0101 104.562 96.0122 104.653 96.0122 104.771C96.0122 105.664 95.8324 106.316 95.4727 106.726C95.113 107.132 94.5438 107.335 93.7651 107.335C93.2954 107.335 92.7241 107.234 92.0513 107.031C91.3784 106.828 90.9489 106.726 90.7627 106.726C90.5892 106.726 90.4495 106.758 90.3438 106.821C90.2422 106.881 90.1681 106.978 90.1216 107.113H88.7568ZM101.865 103.146C101.865 102.118 101.782 101.375 101.617 100.918C101.452 100.457 101.186 100.226 100.817 100.226C100.437 100.226 100.161 100.455 99.9922 100.912C99.8229 101.369 99.7383 102.113 99.7383 103.146C99.7383 104.179 99.8208 104.923 99.9858 105.38C100.155 105.833 100.428 106.06 100.805 106.06C101.181 106.06 101.452 105.835 101.617 105.387C101.782 104.934 101.865 104.187 101.865 103.146ZM96.939 103.146C96.939 101.889 97.2944 100.878 98.0054 100.112C98.7205 99.3459 99.6579 98.9629 100.817 98.9629C101.964 98.9629 102.893 99.348 103.604 100.118C104.319 100.884 104.677 101.893 104.677 103.146C104.677 104.399 104.319 105.408 103.604 106.174C102.893 106.94 101.956 107.323 100.792 107.323C99.6452 107.323 98.7163 106.94 98.0054 106.174C97.2944 105.408 96.939 104.399 96.939 103.146ZM106.721 101.356V100.201C107.25 100.158 107.669 100.055 107.978 99.8896C108.286 99.7204 108.496 99.4855 108.606 99.1851H110.663V105.425C110.663 105.641 110.72 105.785 110.834 105.856C110.948 105.924 111.198 105.958 111.583 105.958H111.881V107.101H106.721V105.958H107.076C107.487 105.958 107.755 105.922 107.882 105.85C108.009 105.778 108.073 105.567 108.073 105.215V105.165V101.356H106.721ZM114.541 103.083L114.776 99.001C115.525 99.0645 116.124 99.1089 116.572 99.1343C117.025 99.1597 117.402 99.1724 117.702 99.1724C118.493 99.1724 119.287 99.0898 120.083 98.9248C120.264 98.891 120.377 98.874 120.419 98.874C120.487 98.874 120.544 98.9058 120.59 98.9692C120.641 99.0285 120.667 99.1047 120.667 99.1978C120.667 99.5871 120.36 99.9552 119.746 100.302C119.137 100.649 118.419 100.823 117.594 100.823C117.433 100.823 117.23 100.814 116.985 100.797C116.744 100.78 116.433 100.755 116.052 100.721L115.995 101.743C116.227 101.608 116.481 101.508 116.756 101.445C117.036 101.377 117.347 101.343 117.689 101.343C118.743 101.343 119.573 101.61 120.178 102.143C120.787 102.676 121.092 103.402 121.092 104.32C121.092 105.213 120.738 105.939 120.032 106.498C119.329 107.056 118.405 107.335 117.258 107.335C116.251 107.335 115.455 107.126 114.871 106.707C114.287 106.288 113.995 105.721 113.995 105.006C113.995 104.604 114.122 104.28 114.376 104.035C114.634 103.789 114.975 103.667 115.398 103.667C115.766 103.667 116.067 103.772 116.299 103.984C116.532 104.191 116.648 104.454 116.648 104.771C116.648 105.08 116.579 105.313 116.439 105.469C116.299 105.622 116.064 105.727 115.734 105.787C115.895 105.918 116.058 106.017 116.223 106.085C116.388 106.148 116.564 106.18 116.75 106.18C117.215 106.18 117.594 106.007 117.886 105.66C118.178 105.308 118.324 104.854 118.324 104.295C118.324 103.787 118.204 103.387 117.962 103.095C117.721 102.803 117.395 102.657 116.985 102.657C116.79 102.657 116.608 102.691 116.439 102.759C116.27 102.826 116.105 102.934 115.944 103.083H114.541Z" fill="black"/>
<path d="M40.5611 48.8318C40.6206 49.0887 40.6503 49.3372 40.6503 49.5773C40.648 49.8134 40.6147 50.0459 40.5502 50.2746C40.3816 50.873 40.0744 51.309 39.6287 51.5824C39.1807 51.8519 38.6779 51.908 38.1202 51.7509C37.5124 51.5796 37.0885 51.2234 36.8487 50.6823C36.6097 50.1381 36.5949 49.4947 36.8042 48.7522C37.0549 47.8623 37.5166 47.2383 38.1891 46.8799C38.8586 46.5207 39.6538 46.4709 40.575 46.7305C41.5651 47.0095 42.2738 47.5068 42.7012 48.2225C43.1285 48.9382 43.2102 49.7644 42.9462 50.7012C42.7758 51.3059 42.5111 51.7589 42.1523 52.0603C41.7912 52.3576 41.407 52.4488 40.9996 52.334C40.7521 52.2643 40.5797 52.1261 40.4824 51.9194C40.3828 51.7087 40.3727 51.4624 40.4522 51.1804C40.5246 50.9235 40.6531 50.7314 40.8378 50.6042C41.0193 50.4761 41.2119 50.4408 41.4156 50.4982C41.5409 50.5335 41.6426 50.5926 41.7207 50.6755C41.7966 50.7543 41.8515 50.8594 41.8855 50.9908C41.93 50.9289 41.9673 50.8684 41.9975 50.8093C42.0246 50.7493 42.0465 50.6895 42.0633 50.63C42.1719 50.2446 42.0944 49.8896 41.8307 49.565C41.564 49.2396 41.1517 48.9983 40.594 48.8411L40.5611 48.8318ZM37.6509 48.8437C37.5944 49.0442 37.6461 49.2329 37.8059 49.4099C37.9635 49.5828 38.2021 49.7143 38.5216 49.8043C38.8443 49.8953 39.1196 49.9086 39.3474 49.8443C39.573 49.776 39.714 49.6415 39.7705 49.441C39.8279 49.2374 39.7783 49.0475 39.6216 48.8714C39.4649 48.6954 39.2236 48.5614 38.8978 48.4696C38.5719 48.3778 38.2978 48.3665 38.0754 48.4357C37.8498 48.504 37.7083 48.64 37.6509 48.8437Z" fill="black"/>
</svg>
