<svg width="170" height="120" viewBox="0 0 170 120" fill="none" xmlns="http://www.w3.org/2000/svg">
<rect x="1.5" y="1.5" width="167" height="117" rx="14.5" stroke="black" stroke-width="3"/>
<path d="M85.0603 24.6963C104.205 24.7144 119.709 40.2224 119.691 59.3348C119.673 78.4471 104.138 93.9249 84.9937 93.9067C65.8733 93.8886 50.3774 78.4169 50.3633 59.3267C50.3451 40.2184 65.845 24.7144 84.9856 24.6963C85.0099 24.6963 85.0341 24.6963 85.0603 24.6963ZM73.4072 77.0703C80.9229 74.4033 89.1312 74.4013 96.6489 77.0663L97.7292 73.0083C98.228 73.0083 98.6843 72.9962 99.1447 73.0124C99.6193 72.9741 100.096 73.0003 100.562 73.095C100.237 74.7783 99.8272 76.4454 99.3305 78.0863C100.611 78.7918 101.883 79.4309 103.092 80.1727C104.302 80.9125 105.447 81.7471 106.616 82.5393C120.67 69.6822 119.794 47.8141 106.561 36.0335C104.328 37.7873 101.895 39.273 99.3123 40.4563C99.803 42.1919 100.271 43.855 100.58 45.5705H97.703C97.5273 44.8791 97.3678 44.2179 97.1921 43.5627C97.0407 42.8773 96.8407 42.206 96.5904 41.5509C89.0908 44.2037 80.9047 44.1997 73.4072 41.5388L72.3228 45.6088C71.8241 45.6088 71.3637 45.6108 70.9053 45.6088C70.4368 45.6048 69.9684 45.5967 69.411 45.5886L70.7175 40.4422C68.1409 39.2629 65.7158 37.7812 63.4926 36.0234C49.5273 48.7374 50.1149 70.6034 63.4926 82.5675C65.7319 80.8117 68.1692 79.324 70.7538 78.1367C70.2349 76.4575 69.8048 74.75 69.4676 73.0265H72.337L73.4072 77.0703ZM95.6534 38.8496C95.6373 38.7367 95.613 38.6259 95.5827 38.515C94.7023 36.1464 93.4948 33.9128 91.9985 31.8768C91.0354 30.5403 89.8198 29.4033 88.4204 28.5305C86.4678 27.2665 83.974 27.198 81.9547 28.3531C80.6563 29.0808 79.5114 30.0524 78.5846 31.2156C77.0943 33.054 75.8808 35.1001 74.9782 37.2873C74.7661 37.7772 74.5723 38.2751 74.3461 38.8275C81.2338 41.2949 88.7637 41.3029 95.6534 38.8496ZM74.3804 79.7534C74.4289 79.9187 74.4491 80.0155 74.4834 80.1042C75.3053 82.3014 76.4038 84.3838 77.7526 86.3049C78.635 87.5729 79.7154 88.6937 80.9532 89.621C83.552 91.5139 86.3708 91.5381 88.9959 89.6936C89.8945 89.0526 90.7062 88.2966 91.4109 87.4479C93.2041 85.2325 94.6175 82.7349 95.5928 80.0578C95.6211 79.955 95.6393 79.8502 95.6494 79.7453C88.7697 77.3021 81.2581 77.3061 74.3804 79.7534ZM93.1354 89.9335C97.2083 88.9094 101.027 87.0568 104.346 84.4886C102.523 83.0735 100.544 81.87 98.4501 80.9004C97.6545 82.5192 96.9235 84.0976 96.1118 85.6337C95.2738 87.1657 94.2763 88.607 93.1354 89.9335ZM76.951 89.9456C75.8 88.6353 74.7964 87.2 73.9604 85.6679C73.1325 84.1197 72.4036 82.5212 71.608 80.8984C69.512 81.87 67.5311 83.0735 65.7077 84.4886C69.0395 87.0589 72.866 88.9175 76.951 89.9456ZM98.3451 37.6905C99.8777 37.1744 103.722 34.7957 104.258 34.0378C100.952 31.4978 97.1578 29.6654 93.1112 28.6534C95.4475 31.3244 97.0487 34.3986 98.3451 37.6905ZM76.8944 28.6756C72.8438 29.6916 69.0455 31.5341 65.74 34.0841C66.9273 35.1868 70.6024 37.3881 71.7251 37.6663C72.9286 34.4006 74.6753 31.3607 76.8944 28.6756Z" fill="black"/>
<path d="M103.497 103.518C103.503 104.567 103.279 105.603 102.841 106.556C102.015 108.397 100.218 109.61 98.2004 109.691C97.4796 109.758 96.7526 109.699 96.054 109.516C94.2609 109.07 92.8332 107.717 92.29 105.954C91.7448 104.367 91.7368 102.646 92.2658 101.055C92.9221 98.8981 94.8545 97.3781 97.108 97.2471C98.3135 97.1161 99.5311 97.358 100.595 97.9386C102.017 98.7389 103.004 100.132 103.287 101.736C103.404 102.319 103.43 102.924 103.497 103.518ZM95.9813 103.452L96.0822 103.46C96.0822 103.92 96.0519 104.381 96.0883 104.839C96.0943 105.641 96.266 106.431 96.5911 107.165C96.7769 107.578 97.1848 107.849 97.6371 107.861C98.1136 107.893 98.5599 107.621 98.7497 107.183C98.9112 106.863 99.0283 106.522 99.097 106.169C99.3696 104.571 99.3999 102.94 99.1858 101.333C99.1152 100.821 98.9799 100.317 98.786 99.8375C98.6366 99.3839 98.2085 99.0795 97.73 99.0876C97.2332 99.0695 96.7789 99.3577 96.583 99.8113C96.4477 100.057 96.3548 100.323 96.3084 100.599C96.1792 101.549 96.0863 102.5 95.9813 103.452Z" fill="black"/>
<path d="M90.7781 103.514C90.8448 104.578 90.6348 105.641 90.1703 106.6C89.3101 108.473 87.4423 109.679 85.3806 109.699C84.4578 109.767 83.531 109.62 82.6728 109.271C81.2189 108.675 80.1083 107.463 79.6419 105.965C79.1048 104.399 79.0886 102.702 79.5934 101.123C80.2436 98.8716 82.2811 97.3012 84.6275 97.2407C86.463 97.15 88.0744 97.652 89.3263 99.0671C90.1845 100.061 90.6913 101.307 90.7701 102.617C90.7983 102.911 90.7781 103.214 90.7781 103.514ZM86.7073 103.623C86.6528 102.776 86.6508 102.131 86.5599 101.502C86.4832 100.95 86.3499 100.406 86.1621 99.8815C86.0187 99.4017 85.5725 99.0752 85.0717 99.0792C84.5507 99.057 84.0762 99.3816 83.9086 99.8755C83.7249 100.275 83.6057 100.702 83.5573 101.137C83.4825 102.432 83.4381 103.732 83.4563 105.028C83.4422 105.772 83.6118 106.51 83.947 107.175C84.2095 107.768 84.9041 108.036 85.4998 107.774C85.7482 107.663 85.9521 107.471 86.0753 107.227C86.2671 106.899 86.3943 106.538 86.4488 106.161C86.572 105.25 86.6366 104.335 86.7033 103.623H86.7073Z" fill="black"/>
<path d="M56.6327 100.049C56.6993 100.077 56.77 100.097 56.8406 100.113C57.5393 100.103 58.1148 100.662 58.1249 101.359C58.1249 101.401 58.1249 101.444 58.1209 101.484C58.1794 102.301 57.6221 103.032 56.8205 103.196C56.5438 103.242 56.2611 103.256 55.9804 103.238C55.096 103.218 54.3711 102.532 54.3004 101.651C54.1369 100.517 54.5569 99.3775 55.4171 98.6176C56.3257 97.8112 57.4808 97.3355 58.6943 97.2669C60.1583 97.0654 61.6485 97.3597 62.9267 98.1015C64.3382 98.9079 65.0288 100.563 64.6067 102.131C64.4008 102.94 63.8697 103.627 63.1387 104.03C62.3048 104.514 61.4123 104.887 60.4834 105.145C59.813 105.351 59.1325 105.532 58.4763 105.778C57.8604 105.951 57.3313 106.35 56.9941 106.895C57.1254 106.862 57.2546 106.824 57.3818 106.778C58.4621 106.27 59.6878 106.159 60.8428 106.465C61.2103 106.566 61.5839 106.647 61.9595 106.709C62.7733 106.83 63.0984 106.562 63.1953 105.727C63.2094 105.609 63.2155 105.49 63.2336 105.294C63.8576 105.252 64.4836 105.254 65.1075 105.302C65.1802 106.393 65.1802 107.439 64.6451 108.411C64.1463 109.32 63.2861 109.612 62.331 109.695C61.4082 109.755 60.4814 109.644 59.599 109.366C59.0215 109.201 58.446 109.015 57.8584 108.894C57.2788 108.775 56.6791 108.701 56.3177 109.338H54.3246C54.2378 108.431 54.4074 107.516 54.8194 106.701C55.3363 105.766 56.0834 104.978 56.9901 104.411C57.6665 103.945 58.3773 103.528 59.0679 103.085C59.3243 102.927 59.5727 102.756 59.809 102.571C60.3259 102.17 60.6147 101.543 60.5844 100.889C60.5965 100.291 60.2411 99.7444 59.6878 99.5106C58.66 99.0328 57.4383 99.2465 56.6327 100.049Z" fill="black"/>
<path d="M69.5627 97.5715C69.587 97.9565 69.6051 98.2629 69.6273 98.6459C69.7061 98.5834 69.7828 98.5129 69.8515 98.4383C70.5946 97.4243 71.6325 97.1864 72.7915 97.388C73.3771 97.517 73.9546 97.6843 74.52 97.8859C74.8633 97.9908 75.2046 98.1097 75.5438 98.2286C75.8245 98.3415 76.1435 98.275 76.3576 98.0633L76.5595 97.5957H78.078C78.185 97.9263 78.1688 98.2831 78.0315 98.6016C77.6782 99.4059 77.3288 100.214 76.9169 100.988C76.3899 101.976 75.7841 102.924 75.2449 103.905C74.4776 105.389 74.0717 107.03 74.0556 108.699C74.0475 108.895 74.0354 109.09 74.0233 109.32H70.1402C70.0453 108.87 70.0312 108.407 70.0978 107.951C70.2129 106.234 70.958 104.619 72.1938 103.417C73.0096 102.617 73.8577 101.851 74.6876 101.067C74.8734 100.89 75.045 100.698 75.3257 100.408C75.0874 100.462 74.9865 100.474 74.8916 100.507C74.0617 100.754 73.1833 100.791 72.3352 100.615C71.8829 100.529 71.4265 100.466 70.9681 100.432C70.3381 100.355 69.7667 100.803 69.6899 101.432C69.6899 101.438 69.6879 101.444 69.6879 101.448C69.6314 101.742 69.595 102.039 69.5789 102.339C69.5607 102.532 69.5607 102.73 69.5486 102.956H67.4688V97.5957C67.814 97.5876 68.1472 97.5755 68.4804 97.5694C68.8156 97.5694 69.1589 97.5715 69.5627 97.5715Z" fill="black"/>
<path d="M106.619 99.1035C107.736 98.9261 108.846 98.7588 109.414 97.5977H112.427C112.437 97.8194 112.451 98.0311 112.453 98.2447C112.455 100.966 112.455 103.69 112.453 106.411C112.453 106.552 112.449 106.691 112.453 106.832C112.473 107.445 112.663 107.649 113.289 107.687C113.586 107.705 113.885 107.691 114.214 107.691C114.278 108.213 114.294 108.739 114.264 109.263C113.786 109.382 107.617 109.423 106.629 109.318V107.764C107.183 107.586 107.825 107.852 108.451 107.443C108.531 107.229 108.584 107.008 108.608 106.782C108.624 104.881 108.618 102.978 108.616 101.077C108.604 100.978 108.584 100.881 108.554 100.787H106.617L106.619 99.1035Z" fill="black"/>
<path d="M84.6595 10.1802L85.5439 13.7825L85.6731 13.7805L86.6525 10.2366H89.0716V16.3608H87.5713V12.0247C87.026 13.4257 86.6969 14.8852 86.2507 16.3406H84.8695L83.8013 11.934L83.6741 11.938C83.668 12.2948 83.6599 12.6516 83.6559 13.0084C83.6519 13.3652 83.6498 13.7301 83.6458 14.0909C83.6418 14.4719 83.6478 14.8529 83.6317 15.2339C83.6155 15.5887 83.5751 15.9435 83.5408 16.3527L82.2061 16.2802C82.0748 15.8427 82.0788 11.1034 82.2081 10.1802H84.6595Z" fill="black"/>
<path d="M115.962 29.4397L114.65 28.2664L115.185 24.2811L115.08 24.2367L112.871 26.6517L111.574 25.4583L115.746 20.8662L117.04 22.0717L116.485 26.0631L116.584 26.1175L118.819 23.6824L120.136 24.8596L115.962 29.4397Z" fill="black"/>
<path d="M58.8659 21.5957L56.9557 18.9992L58.3692 17.9409L62.0543 22.9161L60.6368 23.9804L56.6871 22.6117C57.3616 23.6297 58.0501 24.4683 58.7003 25.3935L57.2889 26.4458L53.5977 21.4707L55.0152 20.4224L58.7629 21.7186L58.8659 21.5957Z" fill="black"/>
<path d="M130.477 61.6774C129.77 62.4737 129.138 62.8647 127.676 63.3969V61.3629L129.641 60.359C129.947 60.2502 130.184 59.9982 130.275 59.6837C130.285 59.5628 130.287 59.4418 130.277 59.3188H127.829C127.765 58.6899 127.763 58.0569 127.821 57.428C129.887 57.3554 131.914 57.557 133.984 57.5308C133.984 58.1355 133.994 58.6717 133.982 59.208C133.966 59.8692 133.929 60.5284 133.899 61.1875C133.893 61.3065 133.891 61.4274 133.873 61.5464C133.742 62.4454 133.261 62.9675 132.492 63.0482C131.644 63.2276 130.802 62.7256 130.555 61.8971C130.533 61.8306 130.509 61.76 130.477 61.6774ZM132.431 61.0968C132.764 60.615 132.811 60.2643 132.655 59.4257L131.525 59.3511C131.389 59.7099 131.361 60.099 131.446 60.4739C131.573 61.117 131.724 61.2178 132.431 61.0968Z" fill="black"/>
<path d="M74.3867 11.2684C75.4791 11.087 76.5009 10.9136 77.5267 10.7524C77.8619 10.6919 78.2011 10.6576 78.5404 10.6496C79.2713 10.5931 79.9377 11.0669 80.1255 11.7724C80.3718 12.5001 80.1053 13.3024 79.4733 13.7399C79.3642 13.8165 79.2511 13.885 79.1219 13.9677C80.0346 14.4878 80.4385 14.9272 81.3391 16.3726C80.9938 16.4371 80.6687 16.5016 80.3415 16.5581C80.0063 16.6165 79.6711 16.6669 79.2976 16.7274C78.8352 16.1347 78.3667 15.538 77.9023 14.9393C77.6943 14.5785 77.244 14.4354 76.8644 14.6107L77.2399 17.06L75.3943 17.3684L74.3867 11.2684ZM78.3627 12.6977C78.3061 12.2058 78.086 11.9438 77.6923 11.97C77.2642 11.9558 76.8381 12.0445 76.4504 12.228L76.6745 13.4234C77.3591 13.3186 78.0275 13.3811 78.3627 12.6977Z" fill="black"/>
<path d="M66.9492 15.4656C66.9593 13.3691 68.8796 12.4881 70.4829 12.4478C72.48 12.3974 73.4492 14.1794 73.5058 15.9594C73.5664 17.935 71.852 18.9086 69.9236 18.9732C68.078 19.0356 67.0421 17.298 66.9492 15.4656ZM71.6642 16.2195C71.638 15.5784 71.428 14.9576 71.0604 14.4314C70.7252 13.9819 70.1296 13.8166 69.6106 14.0303C69.0937 14.1936 68.7524 14.6834 68.7767 15.2237C68.8029 15.8869 69.0351 16.5259 69.441 17.05C69.7681 17.4834 70.3517 17.6286 70.8444 17.4028C71.3674 17.2556 71.7106 16.7597 71.6642 16.2195Z" fill="black"/>
<path d="M112.981 20.2835C112.91 21.6281 112.147 22.8396 110.963 23.4847C110.35 23.8072 109.629 23.8576 108.976 23.6258C108.223 23.396 107.547 22.9666 107.018 22.3861C106.394 21.7329 106.158 20.8016 106.396 19.9287C106.59 19.1022 107.04 18.3604 107.682 17.804C108.421 17.1146 109.489 16.907 110.432 17.2698C111.2 17.5218 111.878 17.9875 112.389 18.6124C112.787 19.078 112.997 19.6727 112.981 20.2835ZM111.228 20.0456C111.228 19.1748 110.214 18.3221 109.366 18.8482C108.645 19.2756 108.171 20.0194 108.09 20.852C108.001 21.7309 109.053 22.4788 109.816 22.0756C110.568 21.6462 111.087 20.9004 111.228 20.0456Z" fill="black"/>
<path d="M39.4936 68.3455C37.9085 68.3455 36.8948 67.5896 36.5475 66.1241C36.4143 65.6019 36.3698 65.0617 36.4163 64.5235C36.5677 63.1587 37.2684 62.4088 38.6052 62.0722C39.1665 61.919 39.7521 61.8766 40.3296 61.9472C41.3796 62.05 42.2641 62.7717 42.571 63.7796C42.8012 64.4247 42.882 65.1121 42.8052 65.7935C42.7245 66.757 42.1167 67.5956 41.2282 67.9766C40.687 68.2367 40.0934 68.3637 39.4936 68.3455ZM39.956 63.7716C39.4129 63.7574 38.8737 63.8804 38.3911 64.1304C37.9529 64.4025 37.7288 64.9186 37.8277 65.4246C37.8823 65.9426 38.2801 66.3599 38.795 66.4385C39.431 66.5595 40.0873 66.4809 40.6769 66.2168C41.1616 66.0273 41.4604 65.5374 41.4079 65.0194C41.3716 64.207 40.8728 63.7756 39.956 63.7716Z" fill="black"/>
<path d="M133.901 55.1154C133.458 55.19 133.071 55.2606 132.681 55.317C131.849 55.438 131.015 55.565 130.181 55.6678C128.978 55.819 127.687 55.2767 127.388 53.7951C127.263 53.2084 127.201 52.6117 127.201 52.013C127.166 51.116 127.736 50.3056 128.594 50.0355C129.224 49.842 129.87 49.7029 130.524 49.6202C131.334 49.4872 132.15 49.3965 132.964 49.2876C133.198 49.8682 133.295 50.4951 133.244 51.118C132.388 51.243 131.52 51.3659 130.65 51.4929C130.272 51.5474 129.89 51.5756 129.521 51.6582C128.939 51.7349 128.529 52.267 128.606 52.8476C128.622 52.9766 128.663 53.0996 128.725 53.2145C128.861 53.6096 129.254 53.8596 129.67 53.8112C130.189 53.7689 130.704 53.6983 131.221 53.6277C131.875 53.539 132.53 53.4342 133.184 53.3455C133.331 53.3354 133.479 53.3354 133.628 53.3435L133.901 55.1154Z" fill="black"/>
<path d="M126.805 41.1395L125.465 38.4564L124.328 39.0168L125.788 41.9721L124.604 42.5748C124.548 42.5063 124.497 42.4317 124.451 42.3571C123.728 40.9037 123.009 39.4502 122.25 37.9222L127.823 35.1807L130.083 39.7607L128.946 40.3352L127.492 37.4566L126.571 37.9021L127.886 40.5872L126.805 41.1395Z" fill="black"/>
<path d="M125.299 34.2595L124.285 32.9754C124.619 32.1811 124.534 31.655 124.045 31.3707C123.775 31.2135 123.653 31.2579 123.332 31.661L123.601 32.4734C123.764 32.9673 123.958 33.4531 124.083 33.9551C124.285 34.586 124.094 35.2755 123.597 35.7149C123.074 36.2128 122.313 36.3701 121.634 36.1221C121.37 36.0314 121.123 35.8943 120.905 35.7189C120.2 35.1444 119.684 34.3744 119.419 33.5055C119.169 32.675 119.498 31.7779 120.227 31.3022L121.277 32.6226C120.996 33.0278 120.719 33.437 120.954 33.945C121.083 34.3139 121.404 34.582 121.792 34.6405C122.331 34.4328 122.468 34.2151 122.335 33.7011C122.254 33.3926 122.095 33.1044 122.02 32.796C121.882 32.298 121.788 31.788 121.735 31.274C121.662 30.2499 122.763 29.5585 123.682 29.8064C123.898 29.8548 124.102 29.9415 124.287 30.0604C125.19 30.6813 125.814 31.6308 126.024 32.7052C126.127 33.2435 125.885 33.7273 125.299 34.2595Z" fill="black"/>
<path d="M39.0643 70.2082L39.658 71.8169C39.2077 72.1535 38.9633 72.5547 39.2198 73.1131C39.3692 73.4397 39.4803 73.5042 39.9286 73.4901C40.2516 73.2421 40.1628 72.8913 40.1587 72.5547C40.1305 71.9378 40.1386 71.319 40.1769 70.7041C40.3183 69.2305 42.0871 68.781 43.1412 69.5853C43.3674 69.7527 43.5592 69.9603 43.7106 70.1961C44.2558 71.0468 44.4961 72.0588 44.3911 73.0647C44.2942 73.863 43.7389 74.2964 43.0039 74.6391L42.3941 73.0325C43.3694 72.1918 43.3573 71.3492 42.384 70.9178C41.8489 71.0751 41.7459 71.1799 41.7277 71.6879C41.7136 72.087 41.756 72.4902 41.7378 72.8893C41.7338 73.2683 41.6914 73.6473 41.6086 74.0182C41.4026 74.8588 40.5545 75.3749 39.7105 75.1713C39.5146 75.1229 39.3309 75.0382 39.1653 74.9213C38.9472 74.7782 38.7614 74.5927 38.614 74.377C38.0547 73.5586 37.8023 72.5688 37.8992 71.581C37.986 70.936 38.4404 70.3977 39.0643 70.2082Z" fill="black"/>
<path d="M96.3604 17.7394L94.4744 17.3765C94.4138 16.9814 94.3654 16.6528 94.3129 16.3081L92.1745 15.9009L91.6091 16.8423L89.7695 16.4795L93.2083 10.8472L95.2256 11.2302C95.6355 13.365 95.9949 15.4998 96.3604 17.7394ZM94.1695 14.9656C94.1614 14.2116 94.0403 13.4638 93.8121 12.7441L92.7924 14.6793L94.1695 14.9656Z" fill="black"/>
<path d="M45.5302 40.1136C45.2011 40.037 44.8639 39.9866 44.5428 39.8798C43.7634 39.6177 43.0364 39.2166 42.4004 38.6965C41.5664 38.1321 41.2716 37.0415 41.7098 36.1343C41.8471 35.7816 42.0329 35.4469 42.261 35.1445C42.7093 34.4995 43.5089 34.1951 44.2742 34.3765C45.3606 34.5983 46.3642 35.1083 47.184 35.8541C47.9756 36.4468 48.2017 37.5333 47.711 38.3921C47.5414 38.7529 47.3294 39.0916 47.079 39.402C46.6953 39.8596 46.1279 40.1217 45.5302 40.1136ZM45.7645 38.5393C46.2067 38.5554 46.449 38.4364 46.5641 38.1583C46.6994 37.8518 46.6085 37.493 46.342 37.2894C45.5888 36.6282 44.6943 36.1484 43.725 35.8844C43.4039 35.7795 43.0546 35.9186 42.8951 36.217C42.7477 36.467 42.7739 36.7814 42.9617 37.0012C43.0183 37.0838 43.0869 37.1564 43.1657 37.2189C43.8603 37.7591 44.6377 38.1865 45.4656 38.4848C45.5625 38.5131 45.6635 38.5312 45.7645 38.5393Z" fill="black"/>
<path d="M128.588 46.8749V48.417C127.576 48.6771 126.524 48.1832 126.078 47.2397C125.783 46.6693 125.609 46.0423 125.569 45.4013C125.476 44.3712 126.005 43.3874 126.916 42.8956C127.619 42.4581 128.436 42.2364 129.266 42.2606C129.959 42.2606 130.619 42.5549 131.08 43.071C131.758 43.8269 132.112 44.8187 132.065 45.8327C132.025 46.6269 131.587 47.3466 130.902 47.7518L130.076 46.3266C130.153 46.2399 130.221 46.1693 130.284 46.0947C130.73 45.6049 130.694 44.8489 130.205 44.4034C129.945 44.1656 129.591 44.0547 129.24 44.1011C128.671 44.2079 128.119 44.3913 127.598 44.6453C127.132 44.8489 126.894 45.369 127.045 45.8549C127.124 46.3467 127.512 46.7297 128.004 46.8063C128.176 46.8386 128.356 46.8467 128.588 46.8749Z" fill="black"/>
<path d="M42.8018 45.611C41.673 45.492 40.5987 45.0747 39.684 44.4035C39.0702 43.9781 38.7834 43.2202 38.9631 42.4965C39.05 42.0671 39.1852 41.6498 39.367 41.2527C39.7163 40.4483 40.5684 39.9847 41.4347 40.1278C42.4968 40.2246 43.5166 40.5935 44.395 41.1982C45.235 41.674 45.6045 42.688 45.2673 43.5911C45.1926 43.8592 45.0936 44.1233 44.9765 44.3752C44.5807 45.232 43.8901 45.617 42.8018 45.611ZM43.2157 44.0547C43.7003 44.0507 43.9568 43.8894 44.0678 43.583C44.1789 43.2907 44.0719 42.9601 43.8114 42.7867C43.6297 42.6295 43.4277 42.4985 43.2117 42.3957C42.7351 42.1921 42.2444 42.0127 41.7538 41.8413C41.5256 41.7647 41.2913 41.7123 41.0531 41.68C40.6856 41.6115 40.3181 41.807 40.1706 42.1497C40.0535 42.4461 40.1424 42.7122 40.4735 42.9823C40.6088 43.1012 40.7623 43.198 40.9279 43.2705C41.5417 43.5104 42.1596 43.7382 42.7816 43.958C42.9249 44.0003 43.0723 44.0305 43.2218 44.0507L43.2157 44.0547Z" fill="black"/>
<path d="M38.167 55.7887L37.8823 57.359C36.6606 57.109 36.1154 56.4499 36.1457 55.2363C36.1578 54.7364 36.2285 54.2405 36.3577 53.7567C36.5778 52.8233 37.5148 52.2428 38.4497 52.4625C38.7001 52.521 38.9343 52.6338 39.1342 52.7931C39.5886 53.158 39.9621 53.6115 40.2327 54.1276C40.4649 54.4965 40.6972 54.8654 40.9657 55.2948C41.2565 54.8432 41.1252 54.4138 41.1899 54.0187C41.2565 53.6075 41.2827 53.1902 41.3352 52.6984L42.6801 52.7709C42.5226 54.5126 42.3731 56.1797 42.2197 57.9114C41.626 57.7884 41.0828 57.4921 40.6568 57.0607C40.257 56.6152 39.9096 56.1213 39.5542 55.6395C39.3402 55.3492 39.1544 55.0388 38.9525 54.7424C38.8859 54.6436 38.8091 54.5489 38.7263 54.4622C38.5083 54.1881 38.1468 54.0691 37.8076 54.1578C37.5148 54.2627 37.3149 54.5328 37.3048 54.8432C37.2927 55.196 37.5107 55.5165 37.8439 55.6334C37.9348 55.6697 38.0216 55.7161 38.167 55.7887Z" fill="black"/>
<path d="M65.2912 16.9431L65.8465 17.9933L63.7182 19.1424L64.8773 21.384L63.2215 22.267L60.3359 16.7838L64.5077 14.5986L65.1256 15.7174L62.6419 17.0439L63.1468 18.0478L65.2912 16.9431Z" fill="black"/>
<path d="M126.189 78.0195L123.816 76.9834L124.564 75.2739L126.966 76.2919L131.219 75.54L130.389 77.4208L127.94 77.7554L129.359 79.7673L128.539 81.6682L126.189 78.0195Z" fill="black"/>
<path d="M99.6609 18.921L97.8941 18.3202L99.3762 13.9418C98.8229 13.5729 98.1606 13.5185 97.5508 13.1979L98.0273 11.8271L103.53 13.6958L103.053 15.0928L101.185 14.4881L99.6609 18.921Z" fill="black"/>
<path d="M126.597 68.9886L131.139 70.1739L131.668 68.2891L133.091 68.662L131.627 74.256L130.183 73.9052L130.668 72.0043L126.133 70.7968L126.597 68.9886Z" fill="black"/>
<path d="M38.1025 50.9204L36.7617 50.6019L37.8582 45.7417L38.9466 45.9796C39.9501 47.6185 41.5433 48.8159 43.399 49.3259L43.0396 50.9245C41.3616 50.4024 39.8956 49.3561 38.8557 47.939C38.5165 48.955 38.4175 49.9266 38.1025 50.9204Z" fill="black"/>
<path d="M47.1017 31.6369C46.9825 32.2336 46.8836 32.7415 46.7766 33.2475C46.7422 33.3503 46.6958 33.4511 46.6413 33.5459L45.5711 32.7637C45.8679 31.8546 45.9911 30.9535 45.4883 30.0685L46.3222 28.9336L51.3926 32.6649L50.3951 34.0398L47.1017 31.6369Z" fill="black"/>
<path d="M56.1958 27.43L54.9014 28.8129L50.6367 24.3357L51.9432 22.979L56.1958 27.43Z" fill="black"/>
<path d="M104.126 20.8482L102.43 20.0338L105.073 14.4458L106.785 15.24L104.126 20.8482Z" fill="black"/>
<path d="M45.4169 75.0767L46.1599 76.8043L40.4717 79.2576L39.7266 77.532L45.4169 75.0767Z" fill="black"/>
<path d="M127.195 66.0536L127.464 64.2373C129.507 64.4832 131.506 64.7896 133.576 65.1001L133.324 66.9244C131.258 66.6704 129.251 66.3761 127.195 66.0536Z" fill="black"/>
<path d="M111.914 59.3329C111.932 60.9436 111.573 62.5381 110.868 63.9855C109.963 65.7534 108.443 67.1303 106.591 67.856C105.246 68.3882 103.821 68.6845 102.375 68.7369C100.691 68.8699 98.9966 68.6865 97.3812 68.1987C93.8859 67.0799 91.7919 64.7274 91.2588 61.0625C90.9943 59.3934 91.1013 57.688 91.5718 56.0652C92.2805 53.5897 94.1241 51.6001 96.5412 50.699C98.613 49.9128 100.846 49.6387 103.047 49.9027C104.311 49.9874 105.551 50.2878 106.714 50.7877C109.471 51.9226 111.395 54.4626 111.738 57.4199C111.831 58.0529 111.857 58.6959 111.914 59.3329ZM105.048 59.3329C104.992 58.4762 104.964 57.6134 104.869 56.7607C104.798 55.7991 104.537 54.8638 104.101 54.003C103.619 53.0455 102.621 52.4548 101.549 52.4931C100.457 52.4387 99.4308 53.0253 98.926 53.9949C98.5706 54.6702 98.3404 55.402 98.2434 56.1579C97.9607 58.0206 97.9264 59.9115 98.1425 61.7822C98.2091 62.6409 98.4151 63.4856 98.7523 64.2778C99.4025 65.7958 101.165 66.5013 102.686 65.8522C103.354 65.566 103.895 65.0479 104.21 64.3947C104.396 63.9956 104.542 63.5803 104.64 63.151C104.913 61.8951 105.048 60.617 105.048 59.3329Z" fill="black"/>
<path d="M85.6962 56.424C85.5771 56.0954 85.4862 55.8313 85.3893 55.5693C84.731 53.8034 83.4064 52.9043 81.5769 52.7088C80.8803 52.6019 80.1675 52.6402 79.487 52.8217C79.0407 52.9507 78.6389 53.1966 78.3219 53.5373C77.6697 54.257 77.7403 55.0673 78.5682 55.5713C79.0508 55.8555 79.5718 56.0712 80.113 56.2123C81.2518 56.5248 82.417 56.7506 83.5599 57.057C84.8885 57.3775 86.1566 57.9057 87.3197 58.6233C88.5697 59.3994 89.3713 60.7279 89.4723 62.1934C89.6843 63.6811 89.2663 65.189 88.3173 66.3561C87.5964 67.2008 86.6594 67.8338 85.6054 68.1865C84.1959 68.6603 82.7037 68.8498 81.2195 68.7429C79.4729 68.6482 77.7625 68.2067 76.1875 67.4447C76.1189 67.4125 76.0421 67.3923 75.925 67.352L75.2546 68.2934H72.888V61.76C73.2959 61.6975 73.7119 61.6814 74.1238 61.7096C74.5236 61.6995 74.9235 61.7076 75.3738 61.7076C75.4565 61.9233 75.5292 62.1249 75.612 62.3224C76.4359 64.2818 77.8191 65.5941 79.9535 66.0034C80.6622 66.1667 81.3992 66.1505 82.0999 65.957C82.4836 65.8441 82.841 65.6627 83.158 65.4188C83.7699 64.9833 83.9132 64.1347 83.4791 63.5239C83.3902 63.3989 83.2812 63.29 83.156 63.2013C82.6411 62.8223 82.0696 62.524 81.4639 62.3184C80.2907 61.9112 79.0811 61.6128 77.8978 61.2359C77.072 60.9879 76.2602 60.6956 75.4666 60.361C73.9583 59.6917 72.8537 58.6032 72.5185 56.9481C71.9834 54.3053 73.096 52.0073 75.5232 50.7292C76.5631 50.199 77.708 49.9027 78.8731 49.8563C81.0842 49.6931 83.3034 50.0942 85.3166 51.0215C85.3893 51.0558 85.466 51.08 85.5973 51.1304L86.088 50.3119H88.5798V56.4099C88.1173 56.4139 87.6448 56.422 87.1743 56.424C86.6897 56.426 86.2091 56.424 85.6962 56.424Z" fill="black"/>
<path d="M70.7725 65.731V68.1883H60.2461V65.731C60.5712 65.731 60.8882 65.7371 61.2012 65.729C61.4213 65.729 61.6414 65.7108 61.8595 65.6746C62.1927 65.6423 62.4592 65.3802 62.4976 65.0476C62.546 64.7916 62.5783 64.5336 62.5905 64.2756C62.5965 60.9494 62.5965 57.6212 62.5905 54.295C62.5884 53.1178 62.3078 52.8497 61.1285 52.8295C60.8499 52.8255 60.5692 52.8295 60.2461 52.8295V50.3843H70.6998C70.8371 51.1785 70.8493 51.9909 70.7342 52.7892C70.5888 52.8033 70.4353 52.8214 70.2798 52.8315C70.1243 52.8416 69.9588 52.8315 69.7972 52.8356C68.723 52.8739 68.4685 53.1037 68.4685 54.162C68.4584 57.5688 68.4584 60.9756 68.4685 64.3824C68.4726 65.475 68.729 65.7108 69.8295 65.731C70.1284 65.735 70.4252 65.731 70.7725 65.731Z" fill="black"/>
</svg>
