<svg width="100" height="100" viewBox="0 0 100 100" fill="none" xmlns="http://www.w3.org/2000/svg">
<path d="M93.75 31.25V93.75H25V68.75H6.25V6.25H75V31.25H93.75ZM87.5 87.5V50H31.25V87.5H87.5ZM25 62.5V31.25H68.75V25H12.5V62.5H25ZM12.5 12.5V18.75H68.75V12.5H12.5ZM87.5 37.5H31.25V43.75H87.5V37.5Z" fill="#A9023A"/>
<path fill-rule="evenodd" clip-rule="evenodd" d="M66.9143 61.0571C66.9143 56.7957 63.4614 53.3428 59.2 53.3428C54.9386 53.3428 51.4857 56.7957 51.4857 61.0571V65.6856H50.8686C49.5109 65.6856 48.4 66.7965 48.4 68.1542V78.9542C48.4 80.9908 50.0663 82.6571 52.1029 82.6571H66.2971C68.3337 82.6571 70 80.9908 70 78.9542V68.1542C70 66.7965 68.8891 65.6856 67.5314 65.6856H66.9143V61.0571ZM54.5714 61.0571V65.6856H63.8286V61.0571C63.8286 58.499 61.7581 56.4285 59.2 56.4285C56.6419 56.4285 54.5714 58.499 54.5714 61.0571ZM59.2 69.1571C59.8135 69.1564 60.409 69.3648 60.8883 69.7478C61.3676 70.1308 61.7022 70.6656 61.8369 71.2642C61.9716 71.8627 61.8985 72.4893 61.6295 73.0407C61.3605 73.5922 60.9118 74.0356 60.3571 74.2979V78.0285C60.3571 78.3354 60.2352 78.6297 60.0182 78.8467C59.8012 79.0637 59.5069 79.1856 59.2 79.1856C58.8931 79.1856 58.5988 79.0637 58.3818 78.8467C58.1648 78.6297 58.0429 78.3354 58.0429 78.0285V74.2979C57.4882 74.0356 57.0395 73.5922 56.7705 73.0407C56.5015 72.4893 56.4284 71.8627 56.5631 71.2642C56.6978 70.6656 57.0324 70.1308 57.5117 69.7478C57.991 69.3648 58.5865 69.1564 59.2 69.1571Z" fill="#A9023A"/>
</svg>
