<svg width="100" height="100" viewBox="0 0 100 100" fill="none" xmlns="http://www.w3.org/2000/svg">
<path d="M75.2952 15.6247V8.33301H8.04102V75.5955H15.3327" stroke="#A9023A" stroke-width="3"/>
<path d="M24.7031 24.4043H91.9573V91.6668H24.7073L24.7031 24.4043Z" stroke="#A9023A" stroke-width="3"/>
<path d="M55.6999 46.2793L59.1165 49.696L62.5332 46.2793C63.4224 45.3457 64.4893 44.5994 65.6712 44.0843C66.8531 43.5692 68.1262 43.2957 69.4153 43.28C70.7045 43.2643 71.9838 43.5066 73.178 43.9927C74.3721 44.4789 75.4569 45.1989 76.3686 46.1106C77.2802 47.0223 78.0003 48.1071 78.4864 49.3012C78.9725 50.4953 79.2149 51.7746 79.1992 53.0638C79.1834 54.353 78.91 55.626 78.3949 56.8079C77.8798 57.9899 77.1335 59.0568 76.1999 59.946L59.1165 77.0293L42.0332 59.946C41.0996 59.0568 40.3533 57.9899 39.8382 56.8079C39.3231 55.626 39.0496 54.353 39.0339 53.0638C39.0182 51.7746 39.2605 50.4953 39.7466 49.3012C40.2328 48.1071 40.9528 47.0223 41.8645 46.1106C42.7762 45.1989 43.861 44.4789 45.0551 43.9927C46.2492 43.5066 47.5285 43.2643 48.8177 43.28C50.1069 43.2957 51.3799 43.5692 52.5619 44.0843C53.7438 44.5994 54.8107 45.3457 55.6999 46.2793Z" stroke="#A9023A" stroke-width="3"/>
</svg>
