<svg width="100" height="100" viewBox="0 0 100 100" fill="none" xmlns="http://www.w3.org/2000/svg">
<g clip-path="url(#clip0_292_445)">
<path d="M91.6667 52.0833V93.75C91.6667 95.4076 91.0082 96.9973 89.8361 98.1694C88.664 99.3415 87.0743 100 85.4167 100H6.25C4.5924 100 3.00268 99.3415 1.83058 98.1694C0.658479 96.9973 0 95.4076 0 93.75V14.5833C0 12.9257 0.658479 11.336 1.83058 10.1639C3.00268 8.99181 4.5924 8.33333 6.25 8.33333H47.9167C48.4692 8.33333 48.9991 8.55283 49.3898 8.94353C49.7805 9.33423 50 9.86413 50 10.4167C50 10.9692 49.7805 11.4991 49.3898 11.8898C48.9991 12.2805 48.4692 12.5 47.9167 12.5H6.25C5.69747 12.5 5.16756 12.7195 4.77686 13.1102C4.38616 13.5009 4.16667 14.0308 4.16667 14.5833V93.75C4.16667 94.3025 4.38616 94.8324 4.77686 95.2231C5.16756 95.6138 5.69747 95.8333 6.25 95.8333H85.4167C85.9692 95.8333 86.4991 95.6138 86.8898 95.2231C87.2805 94.8324 87.5 94.3025 87.5 93.75V52.0833C87.5 51.5308 87.7195 51.0009 88.1102 50.6102C88.5009 50.2195 89.0308 50 89.5833 50C90.1359 50 90.6658 50.2195 91.0565 50.6102C91.4472 51.0009 91.6667 51.5308 91.6667 52.0833ZM100 16.6667C100 19.963 99.0225 23.1853 97.1912 25.9262C95.3598 28.667 92.7568 30.8032 89.7114 32.0647C86.6659 33.3261 83.3148 33.6562 80.0818 33.0131C76.8488 32.37 73.8791 30.7827 71.5482 28.4518C69.2173 26.1209 67.63 23.1512 66.9869 19.9182C66.3438 16.6852 66.6739 13.334 67.9353 10.2886C69.1968 7.24317 71.333 4.6402 74.0738 2.80884C76.8146 0.977482 80.037 0 83.3333 0C87.7536 0 91.9928 1.75595 95.1184 4.88155C98.244 8.00716 100 12.2464 100 16.6667ZM95.8333 16.6667C95.8333 14.1944 95.1002 11.7777 93.7267 9.72204C92.3532 7.66642 90.4009 6.06427 88.1169 5.11817C85.8328 4.17208 83.3195 3.92454 80.8947 4.40685C78.4699 4.88917 76.2427 6.07968 74.4945 7.82783C72.7463 9.57599 71.5558 11.8033 71.0735 14.228C70.5912 16.6528 70.8387 19.1661 71.7848 21.4502C72.7309 23.7343 74.3331 25.6865 76.3887 27.06C78.4443 28.4336 80.8611 29.1667 83.3333 29.1667C86.6485 29.1667 89.828 27.8497 92.1722 25.5055C94.5164 23.1613 95.8333 19.9819 95.8333 16.6667Z" fill="#A9023A"/>
</g>
<defs>
<clipPath id="clip0_292_445">
<rect width="100" height="100" fill="white"/>
</clipPath>
</defs>
</svg>
