<svg width="100" height="100" viewBox="0 0 100 100" fill="none" xmlns="http://www.w3.org/2000/svg">
<path fill-rule="evenodd" clip-rule="evenodd" d="M25.4749 28.3034C25.4749 14.9866 36.2652 4.19629 49.582 4.19629C62.8988 4.19629 73.6892 14.9866 73.6892 28.3034V42.7677H75.6177C79.8606 42.7677 83.332 46.2391 83.332 50.482V84.232C83.332 90.5963 78.1249 95.8034 71.7606 95.8034H27.4035C21.0392 95.8034 15.832 90.5963 15.832 84.232V50.482C15.832 46.2391 19.3035 42.7677 23.5463 42.7677H25.4749V28.3034ZM64.0463 28.3034V42.7677H35.1177V28.3034C35.1177 20.3095 41.5881 13.8391 49.582 13.8391C57.576 13.8391 64.0463 20.3095 64.0463 28.3034ZM49.582 53.6159C47.6647 53.6139 45.8039 54.265 44.3061 55.4619C42.8083 56.6588 41.7627 58.3301 41.3417 60.2006C40.9207 62.0711 41.1493 64.0292 41.9898 65.7524C42.8303 67.4757 44.2327 68.8612 45.966 69.6809V81.3391C45.966 82.2982 46.3469 83.218 47.0251 83.8961C47.7032 84.5742 48.623 84.9552 49.582 84.9552C50.5411 84.9552 51.4608 84.5742 52.139 83.8961C52.8171 83.218 53.1981 82.2982 53.1981 81.3391V69.6809C54.9313 68.8612 56.3337 67.4757 57.1743 65.7524C58.0148 64.0292 58.2434 62.0711 57.8224 60.2006C57.4013 58.3301 56.3558 56.6588 54.858 55.4619C53.3601 54.265 51.4993 53.6139 49.582 53.6159Z" fill="#A9023A"/>
</svg>
