<svg width="100" height="100" viewBox="0 0 100 100" fill="none" xmlns="http://www.w3.org/2000/svg">
<path d="M79.1667 56.608V41.6663C79.1667 28.2622 70.0625 16.9705 57.7292 13.5747C56.5083 10.4997 53.525 8.33301 50 8.33301C46.475 8.33301 43.4917 10.4997 42.2708 13.5747C29.9375 16.9747 20.8333 28.2622 20.8333 41.6663V56.608L13.7208 63.7205C12.9394 64.5017 12.5002 65.5614 12.5 66.6663V74.9997C12.5 76.1048 12.939 77.1646 13.7204 77.946C14.5018 78.7274 15.5616 79.1663 16.6667 79.1663H83.3333C84.4384 79.1663 85.4982 78.7274 86.2796 77.946C87.061 77.1646 87.5 76.1048 87.5 74.9997V66.6663C87.4998 65.5614 87.0606 64.5017 86.2792 63.7205L79.1667 56.608ZM79.1667 70.833H20.8333V68.3913L27.9458 61.2788C28.7273 60.4976 29.1664 59.438 29.1667 58.333V41.6663C29.1667 30.1788 38.5125 20.833 50 20.833C61.4875 20.833 70.8333 30.1788 70.8333 41.6663V58.333C70.8333 59.4413 71.2708 60.4997 72.0542 61.2788L79.1667 68.3913V70.833ZM50 91.6664C52.5804 91.6696 55.0977 90.8688 57.202 89.3754C59.3063 87.8819 60.8931 85.7699 61.7417 83.333H38.2583C39.1069 85.7699 40.6937 87.8819 42.798 89.3754C44.9023 90.8688 47.4196 91.6696 50 91.6664Z" fill="#A9023A"/>
</svg>
