<svg width="100" height="100" viewBox="0 0 100 100" fill="none" xmlns="http://www.w3.org/2000/svg">
<path fill-rule="evenodd" clip-rule="evenodd" d="M25.4768 28.3034C25.4768 14.9866 36.2672 4.19629 49.584 4.19629C62.9008 4.19629 73.6911 14.9866 73.6911 28.3034V42.7677H75.6197C79.8626 42.7677 83.334 46.2391 83.334 50.482V84.232C83.334 90.5963 78.1268 95.8034 71.7626 95.8034H27.4054C21.0411 95.8034 15.834 90.5963 15.834 84.232V50.482C15.834 46.2391 19.3054 42.7677 23.5483 42.7677H25.4768V28.3034ZM64.0483 28.3034V42.7677H35.1197V28.3034C35.1197 20.3095 41.5901 13.8391 49.584 13.8391C57.5779 13.8391 64.0483 20.3095 64.0483 28.3034ZM49.584 53.6159C47.6667 53.6139 45.8059 54.265 44.3081 55.4619C42.8102 56.6588 41.7647 58.3301 41.3437 60.2006C40.9226 62.0711 41.1512 64.0292 41.9918 65.7524C42.8323 67.4757 44.2347 68.8612 45.9679 69.6809V81.3391C45.9679 82.2982 46.3489 83.218 47.027 83.8961C47.7052 84.5742 48.6249 84.9552 49.584 84.9552C50.543 84.9552 51.4628 84.5742 52.1409 83.8961C52.8191 83.218 53.2001 82.2982 53.2001 81.3391V69.6809C54.9333 68.8612 56.3357 67.4757 57.1762 65.7524C58.0168 64.0292 58.2453 62.0711 57.8243 60.2006C57.4033 58.3301 56.3577 56.6588 54.8599 55.4619C53.3621 54.265 51.5013 53.6139 49.584 53.6159Z" fill="#A9023A"/>
</svg>
