<svg width="70" height="120" viewBox="0 0 70 120" fill="none" xmlns="http://www.w3.org/2000/svg">
<rect x="1" y="1" width="67.5547" height="118" rx="6" fill="white" stroke="#A9023A" stroke-width="2"/>
<rect x="10.0312" y="18.5176" width="49.4885" height="83.8394" rx="1" stroke="#A9023A" stroke-width="2"/>
<path d="M45.1641 11.3867L26.1939 11.3867" stroke="#A9023A" stroke-width="2" stroke-linecap="round"/>
<path d="M41.5469 109.489H27.094" stroke="#A9023A" stroke-width="2" stroke-linecap="round"/>
<path d="M25.1654 51.5433H45.832V67.0433H26.6766L25.1654 68.5545V51.5433ZM25.1654 48.96C23.7445 48.96 22.5949 50.1225 22.5949 51.5433L22.582 74.7933L27.7487 69.6266H45.832C47.2529 69.6266 48.4154 68.4641 48.4154 67.0433V51.5433C48.4154 50.1225 47.2529 48.96 45.832 48.96H25.1654ZM27.7487 61.8766H43.2487V64.46H27.7487V61.8766ZM27.7487 58.0016H43.2487V60.585H27.7487V58.0016ZM27.7487 54.1266H43.2487V56.71H27.7487V54.1266Z" fill="#A9023A"/>
</svg>
