<svg width="100" height="100" viewBox="0 0 100 100" fill="none" xmlns="http://www.w3.org/2000/svg">
<path d="M57.0312 34.375H42.9688C41.2402 34.375 39.8438 35.7715 39.8438 37.5V90.625C39.8438 92.3535 41.2402 93.75 42.9688 93.75H57.0312C58.7598 93.75 60.1562 92.3535 60.1562 90.625V37.5C60.1562 35.7715 58.7598 34.375 57.0312 34.375ZM87.1094 6.25H73.0469C71.3184 6.25 69.9219 7.64648 69.9219 9.375V90.625C69.9219 92.3535 71.3184 93.75 73.0469 93.75H87.1094C88.8379 93.75 90.2344 92.3535 90.2344 90.625V9.375C90.2344 7.64648 88.8379 6.25 87.1094 6.25ZM26.9531 62.5H12.8906C11.1621 62.5 9.76562 63.8965 9.76562 65.625V90.625C9.76562 92.3535 11.1621 93.75 12.8906 93.75H26.9531C28.6816 93.75 30.0781 92.3535 30.0781 90.625V65.625C30.0781 63.8965 28.6816 62.5 26.9531 62.5Z" fill="#A9023A"/>
</svg>
