<svg width="100" height="100" viewBox="0 0 100 100" fill="none" xmlns="http://www.w3.org/2000/svg">
<path d="M13.1725 18.6208C18.0061 13.7863 24.4891 10.9586 31.3208 10.7052C38.1525 10.4517 44.8272 12.7911 50.0058 17.2541C55.1798 12.7986 61.8457 10.4617 68.6692 10.7115C75.4926 10.9612 81.97 13.779 86.8044 18.6008C91.6389 23.4226 94.4737 29.8926 94.7412 36.7153C95.0088 43.5381 92.6895 50.2102 88.2475 55.3958L55.8933 87.8541C54.4068 89.3411 52.4132 90.2112 50.3121 90.29C48.2111 90.3689 46.1578 89.6506 44.5641 88.2791L44.1058 87.8583L11.7558 55.3958C7.31618 50.2147 4.99572 43.5487 5.25837 36.7307C5.52102 29.9127 8.34741 23.445 13.1725 18.6208ZM19.0641 24.5125C15.6568 27.9207 13.6927 32.5101 13.5794 37.3282C13.4662 42.1462 15.2124 46.8228 18.4558 50.3875L19.0641 51.0291L50.0016 81.9666L72.0975 59.8624L57.3683 45.1375L52.9516 49.5541C50.6078 51.8991 47.4284 53.2169 44.1129 53.2177C40.7974 53.2185 37.6174 51.9021 35.2725 49.5583C32.9275 47.2144 31.6097 44.035 31.6089 40.7196C31.6081 37.4041 32.9245 34.2241 35.2683 31.8791L44.0266 23.1166C40.5414 20.334 36.1785 18.8848 31.7211 19.0292C27.2637 19.1735 23.0037 20.9019 19.7058 23.9041L19.0641 24.5125ZM54.4225 36.2958C55.2038 35.5147 56.2635 35.0758 57.3683 35.0758C58.4732 35.0758 59.5328 35.5147 60.3141 36.2958L77.9891 53.9708L80.9391 51.0291C84.4035 47.5672 86.3759 42.8871 86.4343 37.9898C86.4927 33.0925 84.6326 28.3667 81.2517 24.8231C77.8709 21.2795 73.2377 19.1994 68.3431 19.0277C63.4484 18.8559 58.6809 20.6062 55.06 23.9041L54.4225 24.5125L41.1641 37.7708C40.4419 38.4925 40.0099 39.4543 39.95 40.4736C39.89 41.4928 40.2065 42.4986 40.8391 43.3L41.1641 43.6625C41.8859 44.3847 42.8477 44.8167 43.8669 44.8766C44.8862 44.9365 45.8919 44.6201 46.6933 43.9875L47.0558 43.6625L54.4225 36.2958Z" fill="#A9023A"/>
</svg>
