<svg width="64" height="64" viewBox="0 0 64 64" fill="none" xmlns="http://www.w3.org/2000/svg">
<rect width="64" height="64" rx="32" fill="#A9023A"/>
<path d="M31.4117 14.3989C27.6411 14.4034 24.0262 15.9032 21.36 18.5694C18.6937 21.2356 17.1939 24.8505 17.1895 28.6211C17.186 31.7023 18.1924 34.6997 20.0546 37.1545C20.0546 37.1545 20.4425 37.6652 20.5058 37.7389L31.4117 50.6009L42.3227 37.7324C42.3796 37.6639 42.7688 37.1545 42.7688 37.1545L42.7701 37.1506C44.631 34.6967 45.6369 31.7008 45.6339 28.6211C45.6294 24.8505 44.1296 21.2356 41.4634 18.5694C38.7972 15.9032 35.1823 14.4034 31.4117 14.3989ZM31.4117 33.7929C30.3888 33.7929 29.3889 33.4895 28.5384 32.9213C27.6879 32.353 27.0251 31.5453 26.6336 30.6003C26.2422 29.6553 26.1398 28.6154 26.3393 27.6122C26.5389 26.609 27.0314 25.6875 27.7547 24.9642C28.478 24.2409 29.3995 23.7484 30.4027 23.5488C31.4059 23.3492 32.4458 23.4517 33.3908 23.8431C34.3358 24.2345 35.1435 24.8974 35.7118 25.7479C36.2801 26.5984 36.5834 27.5983 36.5834 28.6211C36.5817 29.9922 36.0363 31.3067 35.0667 32.2762C34.0972 33.2457 32.7828 33.7911 31.4117 33.7929Z" fill="white"/>
</svg>
