<svg width="32" height="32" viewBox="0 0 32 32" fill="none" xmlns="http://www.w3.org/2000/svg">
<path d="M10 12.0002C11.0609 12.0002 12.0783 11.5788 12.8284 10.8286C13.5786 10.0785 14 9.06104 14 8.00018C14 6.93931 13.5786 5.9219 12.8284 5.17175C12.0783 4.42161 11.0609 4.00018 10 4.00018C8.93913 4.00018 7.92172 4.42161 7.17157 5.17175C6.42143 5.9219 6 6.93931 6 8.00018C6 9.06104 6.42143 10.0785 7.17157 10.8286C7.92172 11.5788 8.93913 12.0002 10 12.0002ZM10 10.0002C9.46957 10.0002 8.96086 9.78946 8.58579 9.41439C8.21071 9.03932 8 8.53061 8 8.00018C8 7.46975 8.21071 6.96104 8.58579 6.58596C8.96086 6.21089 9.46957 6.00018 10 6.00018C10.5304 6.00018 11.0391 6.21089 11.4142 6.58596C11.7893 6.96104 12 7.46975 12 8.00018C12 8.53061 11.7893 9.03932 11.4142 9.41439C11.0391 9.78946 10.5304 10.0002 10 10.0002ZM4 15.6668C4 14.3788 5.04533 13.3335 6.33333 13.3335H13.6667C14.9547 13.3335 16 14.3788 16 15.6668V22.0002C16 23.5915 15.3679 25.1176 14.2426 26.2428C13.1174 27.368 11.5913 28.0002 10 28.0002C8.4087 28.0002 6.88258 27.368 5.75736 26.2428C4.63214 25.1176 4 23.5915 4 22.0002V15.6668ZM6.33333 15.3335C6.24493 15.3335 6.16014 15.3686 6.09763 15.4311C6.03512 15.4937 6 15.5784 6 15.6668V22.0002C6 23.061 6.42143 24.0785 7.17157 24.8286C7.92172 25.5788 8.93913 26.0002 10 26.0002C11.0609 26.0002 12.0783 25.5788 12.8284 24.8286C13.5786 24.0785 14 23.061 14 22.0002V15.6668C14 15.5784 13.9649 15.4937 13.9024 15.4311C13.8399 15.3686 13.7551 15.3335 13.6667 15.3335H6.33333ZM14.036 11.4855C14.6447 11.828 15.3324 12.0052 16.0307 11.9994C16.7291 11.9936 17.4138 11.805 18.0167 11.4525C18.6196 11.1 19.1197 10.5957 19.4672 9.98993C19.8147 9.38414 19.9976 8.69791 19.9976 7.99951C19.9976 7.30111 19.8147 6.61489 19.4672 6.00909C19.1197 5.4033 18.6196 4.89906 18.0167 4.54652C17.4138 4.19398 16.7291 4.00544 16.0307 3.99965C15.3324 3.99386 14.6447 4.17102 14.036 4.51351C14.472 5.01751 14.8147 5.60418 15.0387 6.24685C15.3432 6.07998 15.686 5.9953 16.0332 6.00113C16.3805 6.00696 16.7202 6.1031 17.019 6.2801C17.3178 6.45709 17.5653 6.70883 17.7373 7.01055C17.9092 7.31227 17.9996 7.65357 17.9996 8.00085C17.9996 8.34812 17.9092 8.68942 17.7373 8.99114C17.5653 9.29286 17.3178 9.5446 17.019 9.72159C16.7202 9.89859 16.3805 9.99473 16.0332 10.0006C15.686 10.0064 15.3432 9.92171 15.0387 9.75485C14.8166 10.3898 14.4764 10.977 14.036 11.4855ZM14.48 27.8055C14.9671 27.9335 15.4738 27.9984 16 28.0002C17.5913 28.0002 19.1174 27.368 20.2426 26.2428C21.3679 25.1176 22 23.5915 22 22.0002V15.6668C22 15.048 21.7542 14.4545 21.3166 14.0169C20.879 13.5793 20.2855 13.3335 19.6667 13.3335H16.4933C16.9507 13.8868 17.248 14.5775 17.3173 15.3335H19.664C19.7524 15.3335 19.8372 15.3686 19.8997 15.4311C19.9622 15.4937 19.9973 15.5784 19.9973 15.6668V22.0002C19.9974 23.035 19.5964 24.0295 18.8786 24.7749C18.1608 25.5203 17.1821 25.9585 16.148 25.9975C15.696 26.6908 15.1333 27.3015 14.48 27.8055ZM20.0347 11.4855C20.6433 11.828 21.331 12.0052 22.0294 11.9994C22.7278 11.9936 23.4125 11.805 24.0154 11.4525C24.6183 11.1 25.1183 10.5957 25.4659 9.98993C25.8134 9.38414 25.9962 8.69791 25.9962 7.99951C25.9962 7.30111 25.8134 6.61489 25.4659 6.00909C25.1183 5.4033 24.6183 4.89906 24.0154 4.54652C23.4125 4.19398 22.7278 4.00544 22.0294 3.99965C21.331 3.99386 20.6433 4.17102 20.0347 4.51351C20.4707 5.01751 20.8133 5.60418 21.0373 6.24685C21.3419 6.07998 21.6847 5.9953 22.0319 6.00113C22.3791 6.00696 22.7188 6.1031 23.0176 6.2801C23.3164 6.45709 23.564 6.70883 23.7359 7.01055C23.9079 7.31227 23.9983 7.65357 23.9983 8.00085C23.9983 8.34812 23.9079 8.68942 23.7359 8.99114C23.564 9.29286 23.3164 9.5446 23.0176 9.72159C22.7188 9.89859 22.3791 9.99473 22.0319 10.0006C21.6847 10.0064 21.3419 9.92171 21.0373 9.75485C20.8152 10.3898 20.475 10.977 20.0347 11.4855ZM20.4787 27.8055C20.9658 27.9335 21.4724 27.9984 21.9987 28.0002C23.59 28.0002 25.1161 27.368 26.2413 26.2428C27.3665 25.1176 27.9987 23.5915 27.9987 22.0002V15.6668C27.9987 15.0482 27.753 14.4549 27.3157 14.0174C26.8784 13.5799 26.2853 13.3339 25.6667 13.3335H22.4933C22.9507 13.8868 23.2493 14.5775 23.3173 15.3335H25.664C25.7524 15.3335 25.8372 15.3686 25.8997 15.4311C25.9622 15.4937 25.9973 15.5784 25.9973 15.6668V22.0002C25.9974 23.035 25.5964 24.0295 24.8786 24.7749C24.1608 25.5203 23.1821 25.9585 22.148 25.9975C21.696 26.6908 21.132 27.3015 20.4787 27.8055Z" fill="white"/>
</svg>
