<svg width="128" height="100" viewBox="0 0 128 100" fill="none" xmlns="http://www.w3.org/2000/svg">
<rect x="0.75" y="8.44092" width="112.445" height="83.8146" rx="7.25" stroke="#A9023A" stroke-width="1.5"/>
<rect x="12.2891" y="0.75" width="10.7599" height="20.1783" rx="5.37996" fill="white" stroke="#A9023A" stroke-width="1.5"/>
<rect x="88.7324" y="1.45068" width="10.7599" height="20.1783" rx="5.37996" fill="white" stroke="#A9023A" stroke-width="1.5"/>
<path d="M113.195 26.6245V79.0073C113.195 86.325 107.263 92.2572 99.9453 92.2573H8C3.99594 92.2573 0.75 89.0114 0.75 85.0073V26.6245H113.195Z" stroke="#A9023A" stroke-width="1.5"/>
<rect x="8.68164" y="72.0776" width="14.3658" height="14.5839" rx="1.25" stroke="#A9023A" stroke-width="1.5"/>
<rect x="29.5996" y="34.3154" width="14.3658" height="14.5839" rx="1.25" stroke="#A9023A" stroke-width="1.5"/>
<rect x="9.26953" y="34.8247" width="14.3658" height="14.5839" rx="1.25" stroke="#A9023A" stroke-width="1.5"/>
<rect x="69.9727" y="53.1973" width="14.3658" height="14.5839" rx="1.25" stroke="#A9023A" stroke-width="1.5"/>
<rect x="28.1484" y="72.0776" width="14.3658" height="14.5839" rx="1.25" stroke="#A9023A" stroke-width="1.5"/>
<rect x="49.0625" y="72.7783" width="14.3658" height="14.5839" rx="1.25" stroke="#A9023A" stroke-width="1.5"/>
<rect x="69.9727" y="72.7783" width="14.3658" height="14.5839" rx="1.25" stroke="#A9023A" stroke-width="1.5"/>
<rect x="49.791" y="53.1973" width="14.3658" height="14.5839" rx="1.25" stroke="#A9023A" stroke-width="1.5"/>
<rect x="29.5996" y="53.1973" width="14.3658" height="14.5839" rx="1.25" stroke="#A9023A" stroke-width="1.5"/>
<rect x="8.68164" y="53.1973" width="14.3658" height="14.5839" rx="1.25" stroke="#A9023A" stroke-width="1.5"/>
<rect x="90.8945" y="35.0161" width="14.3658" height="14.5839" rx="1.25" stroke="#A9023A" stroke-width="1.5"/>
<rect x="69.9727" y="35.0161" width="14.3658" height="14.5839" rx="1.25" stroke="#A9023A" stroke-width="1.5"/>
<rect x="49.0625" y="35.0161" width="14.3658" height="14.5839" rx="1.25" stroke="#A9023A" stroke-width="1.5"/>
<path d="M39.3066 2.09863V18.8818" stroke="#A9023A" stroke-width="1.5" stroke-linecap="round"/>
<path d="M56.2461 2.79736V19.5806" stroke="#A9023A" stroke-width="1.5" stroke-linecap="round"/>
<path d="M74.2734 2.79736V19.5806" stroke="#A9023A" stroke-width="1.5" stroke-linecap="round"/>
<path d="M104.554 55.9941C116.907 55.9941 126.882 65.6991 126.882 77.6221C126.882 89.5449 116.907 99.249 104.554 99.249C92.2009 99.2488 82.2267 89.5448 82.2266 77.6221C82.2266 65.6992 92.2008 55.9943 104.554 55.9941Z" fill="white" stroke="#A9023A" stroke-width="1.5"/>
<path d="M94.459 75.8743L102.392 85.3149L114.291 69.231" stroke="#A9023A" stroke-width="1.5" stroke-linecap="round"/>
</svg>
