<svg width="32" height="32" viewBox="0 0 32 32" fill="none" xmlns="http://www.w3.org/2000/svg">
<path d="M5.33331 13.3333H26.6666M5.33331 8H26.6666M24 24H7.99998C6.74265 24 6.11465 24 5.72398 23.6093C5.33331 23.2187 5.33331 22.5907 5.33331 21.3333C5.33331 20.076 5.33331 19.448 5.72398 19.0573C6.11465 18.6667 6.74265 18.6667 7.99998 18.6667H24C25.2573 18.6667 25.8853 18.6667 26.276 19.0573C26.6666 19.448 26.6666 20.076 26.6666 21.3333C26.6666 22.5907 26.6666 23.2187 26.276 23.6093C25.8853 24 25.2573 24 24 24Z" stroke="black" stroke-width="1.5" stroke-linecap="round" stroke-linejoin="round"/>
</svg>
