<svg width="100" height="100" viewBox="0 0 100 100" fill="none" xmlns="http://www.w3.org/2000/svg">
<path d="M12.5007 85.7917L27.459 70.8333H75.0007C77.2108 70.8333 79.3304 69.9554 80.8932 68.3926C82.456 66.8298 83.334 64.7101 83.334 62.5V25C83.334 22.7899 82.456 20.6702 80.8932 19.1074C79.3304 17.5446 77.2108 16.6667 75.0007 16.6667H20.834C18.6238 16.6667 16.5042 17.5446 14.9414 19.1074C13.3786 20.6702 12.5007 22.7899 12.5007 25V85.7917ZM12.5007 91.6667H8.33398V25C8.33398 21.6848 9.65095 18.5054 11.9952 16.1612C14.3394 13.817 17.5188 12.5 20.834 12.5H75.0007C78.3159 12.5 81.4953 13.817 83.8395 16.1612C86.1837 18.5054 87.5007 21.6848 87.5007 25V62.5C87.5007 65.8152 86.1837 68.9946 83.8395 71.3388C81.4953 73.683 78.3159 75 75.0007 75H29.1673L12.5007 91.6667Z" fill="#A9023A"/>
<path d="M65.1428 36.8396V36.7479C63.851 33.221 61.5072 30.1759 58.4282 28.0247C55.3493 25.8734 51.6839 24.7197 47.9278 24.7197C44.1718 24.7197 40.5064 25.8734 37.4274 28.0247C34.3485 30.1759 32.0046 33.221 30.7128 36.7479C30.7128 36.7479 30.7128 36.7479 30.7128 36.8396C29.2702 40.8196 29.2702 45.1796 30.7128 49.1596V49.2512C32.0046 52.7782 34.3485 55.8232 37.4274 57.9745C40.5064 60.1258 44.1718 61.2794 47.9278 61.2794C51.6839 61.2794 55.3493 60.1258 58.4282 57.9745C61.5072 55.8232 63.851 52.7782 65.1428 49.2512C65.1428 49.2512 65.1428 49.2512 65.1428 49.1596C66.5854 45.1796 66.5854 40.8196 65.1428 36.8396ZM33.7011 46.6662C33.0637 44.2634 33.0637 41.7358 33.7011 39.3329H37.1111C36.8173 41.7685 36.8173 44.2306 37.1111 46.6662H33.7011ZM35.2045 50.3329H37.7711C38.1992 51.9687 38.8143 53.5497 39.6045 55.0446C37.8065 53.8198 36.3036 52.2104 35.2045 50.3329ZM37.7711 35.6662H35.2045C36.2877 33.7946 37.7715 32.1856 39.5495 30.9546C38.7783 32.4519 38.1816 34.0328 37.7711 35.6662ZM46.0578 57.1162C43.806 55.4638 42.2246 53.0558 41.6028 50.3329H46.0578V57.1162ZM46.0578 46.6662H40.8145C40.4733 44.2337 40.4733 41.7655 40.8145 39.3329H46.0578V46.6662ZM46.0578 35.6662H41.6028C42.2246 32.9433 43.806 30.5353 46.0578 28.8829V35.6662ZM60.5778 35.6662H58.0111C57.5831 34.0305 56.968 32.4495 56.1778 30.9546C57.9758 32.1794 59.4787 33.7888 60.5778 35.6662ZM49.7245 28.8829C51.9762 30.5353 53.5577 32.9433 54.1795 35.6662H49.7245V28.8829ZM49.7245 57.1162V50.3329H54.1795C53.5577 53.0558 51.9762 55.4638 49.7245 57.1162ZM54.9678 46.6662H49.7245V39.3329H54.9678C55.309 41.7655 55.309 44.2337 54.9678 46.6662ZM56.2328 55.0446C57.023 53.5497 57.6381 51.9687 58.0661 50.3329H60.6328C59.5337 52.2104 58.0308 53.8198 56.2328 55.0446ZM62.0811 46.6662H58.6711C58.821 45.4498 58.8945 44.2252 58.8911 42.9996C58.8945 41.774 58.821 40.5493 58.6711 39.3329H62.0811C62.7186 41.7358 62.7186 44.2634 62.0811 46.6662Z" fill="#A9023A"/>
</svg>
