<svg width="100" height="100" viewBox="0 0 100 100" fill="none" xmlns="http://www.w3.org/2000/svg">
<path d="M50.0007 16.6665C61.6132 16.6665 71.9298 21.904 79.2757 28.3873C82.9632 31.6415 86.0007 35.2957 88.1423 38.9332C90.2465 42.504 91.6673 46.3748 91.6673 49.9998C91.6673 53.6248 90.2507 57.4957 88.1423 61.0665C86.0007 64.704 82.9632 68.3582 79.2757 71.6123C71.9298 78.0957 61.609 83.3332 50.0007 83.3332C38.3882 83.3332 28.0715 78.0957 20.7257 71.6123C17.0382 68.3582 14.0007 64.704 11.859 61.0665C9.75065 57.4957 8.33398 53.6248 8.33398 49.9998C8.33398 46.3748 9.75065 42.504 11.859 38.9332C14.0007 35.2957 17.0382 31.6415 20.7257 28.3873C28.0715 21.904 38.3923 16.6665 50.0007 16.6665ZM50.0007 24.9998C40.9007 24.9998 32.4673 29.1373 26.2423 34.6332C23.1423 37.3665 20.6923 40.354 19.0382 43.1623C17.3465 46.0373 16.6673 48.4165 16.6673 49.9998C16.6673 51.5832 17.3465 53.9623 19.0382 56.8373C20.6923 59.6457 23.1423 62.629 26.2423 65.3665C32.4673 70.8623 40.9007 74.9998 50.0007 74.9998C59.1007 74.9998 67.534 70.8623 73.759 65.3665C76.859 62.629 79.309 59.6457 80.9632 56.8373C82.6548 53.9623 83.334 51.5832 83.334 49.9998C83.334 48.4165 82.6548 46.0373 80.9632 43.1623C79.309 40.354 76.859 37.3707 73.759 34.6332C67.534 29.1373 59.1007 24.9998 50.0007 24.9998ZM50.0007 37.4998C50.3673 37.4998 50.7298 37.5151 51.0882 37.5457C50.1835 39.1326 49.8253 40.9727 50.0687 42.7831C50.3121 44.5934 51.1436 46.2737 52.4352 47.5653C53.7268 48.8569 55.4071 49.6884 57.2174 49.9318C59.0278 50.1752 60.8679 49.817 62.4548 48.9123C62.6739 51.4214 62.13 53.9381 60.8943 56.1327C59.6586 58.3273 57.7888 60.0975 55.5299 61.2112C53.2709 62.325 50.7282 62.7304 48.2349 62.3743C45.7416 62.0182 43.4141 60.9172 41.5572 59.2157C39.7003 57.5141 38.4008 55.2913 37.8288 52.8385C37.2568 50.3857 37.4392 47.8174 38.3519 45.47C39.2646 43.1226 40.8651 41.1057 42.9437 39.6835C45.0223 38.2613 47.4821 37.5002 50.0007 37.4998Z" fill="#A9023A"/>
</svg>
