<svg width="32" height="32" viewBox="0 0 32 32" fill="none" xmlns="http://www.w3.org/2000/svg">
<path d="M19.7918 26.6665H8.6665C6.82784 26.6665 5.33317 25.1718 5.33317 23.3332C5.33317 21.4945 6.82784 19.9998 8.6665 19.9998H17.9998C20.5732 19.9998 22.6665 17.9065 22.6665 15.3332C22.6665 12.7598 20.5732 10.6665 17.9998 10.6665H11.5185C11.029 11.6264 10.4226 12.5221 9.71317 13.3332H17.9998C19.1025 13.3332 19.9998 14.2305 19.9998 15.3332C19.9998 16.4358 19.1025 17.3332 17.9998 17.3332H8.6665C5.3585 17.3332 2.6665 20.0252 2.6665 23.3332C2.6665 26.6412 5.3585 29.3332 8.6665 29.3332H21.4572C20.8028 28.5103 20.2441 27.6157 19.7918 26.6665ZM6.6665 2.6665C4.46117 2.6665 2.6665 4.46117 2.6665 6.6665C2.6665 10.9172 6.6665 13.3332 6.6665 13.3332C6.6665 13.3332 10.6665 10.9158 10.6665 6.6665C10.6665 4.46117 8.87184 2.6665 6.6665 2.6665ZM6.6665 8.6665C6.40377 8.66642 6.14363 8.61458 5.90093 8.51396C5.65823 8.41333 5.43773 8.26589 5.25201 8.08005C5.0663 7.89421 4.919 7.67361 4.81854 7.43084C4.71808 7.18808 4.66642 6.9279 4.6665 6.66517C4.66659 6.40244 4.71843 6.1423 4.81905 5.8996C4.91967 5.6569 5.06712 5.4364 5.25296 5.25068C5.4388 5.06496 5.6594 4.91767 5.90216 4.81721C6.14493 4.71674 6.40511 4.66508 6.66784 4.66517C7.19845 4.66535 7.70725 4.8763 8.08233 5.25162C8.4574 5.62695 8.66801 6.13589 8.66784 6.6665C8.66766 7.19711 8.45671 7.70592 8.08138 8.08099C7.70606 8.45607 7.19711 8.66668 6.6665 8.6665Z" fill="black"/>
<path d="M25.3335 18.6665C23.1282 18.6665 21.3335 20.4612 21.3335 22.6665C21.3335 26.9172 25.3335 29.3332 25.3335 29.3332C25.3335 29.3332 29.3335 26.9158 29.3335 22.6665C29.3335 20.4612 27.5388 18.6665 25.3335 18.6665ZM25.3335 24.6665C25.0708 24.6664 24.8106 24.6146 24.5679 24.514C24.3252 24.4133 24.1047 24.2659 23.919 24.0801C23.7333 23.8942 23.586 23.6736 23.4855 23.4308C23.3851 23.1881 23.3334 22.9279 23.3335 22.6652C23.3336 22.4024 23.3854 22.1423 23.486 21.8996C23.5867 21.6569 23.7341 21.4364 23.92 21.2507C24.1058 21.065 24.3264 20.9177 24.5692 20.8172C24.8119 20.7167 25.0721 20.6651 25.3348 20.6652C25.8654 20.6653 26.3742 20.8763 26.7493 21.2516C27.1244 21.6269 27.335 22.1359 27.3348 22.6665C27.3347 23.1971 27.1237 23.7059 26.7484 24.081C26.3731 24.4561 25.8641 24.6667 25.3335 24.6665Z" fill="black"/>
</svg>
