<svg width="80" height="80" viewBox="0 0 80 80" fill="none" xmlns="http://www.w3.org/2000/svg">
<rect x="1.5" y="1.5" width="77" height="77" rx="38.5" stroke="#A9023A" stroke-width="3"/>
<path d="M17.4199 55.7503C17.4199 52.8771 18.5613 50.1216 20.5929 48.09C22.6246 46.0584 25.3801 44.917 28.2533 44.917H49.9199C52.7931 44.917 55.5486 46.0584 57.5802 48.09C59.6119 50.1216 60.7533 52.8771 60.7533 55.7503C60.7533 57.1869 60.1826 58.5647 59.1667 59.5805C58.1509 60.5963 56.7732 61.167 55.3366 61.167H22.8366C21.4 61.167 20.0222 60.5963 19.0064 59.5805C17.9906 58.5647 17.4199 57.1869 17.4199 55.7503Z" stroke="#A9023A" stroke-width="4" stroke-linejoin="round"/>
<path d="M39.0859 34.0835C43.5733 34.0835 47.2109 30.4458 47.2109 25.9585C47.2109 21.4712 43.5733 17.8335 39.0859 17.8335C34.5986 17.8335 30.9609 21.4712 30.9609 25.9585C30.9609 30.4458 34.5986 34.0835 39.0859 34.0835Z" stroke="#A9023A" stroke-width="4"/>
</svg>
