<svg width="32" height="32" viewBox="0 0 32 32" fill="none" xmlns="http://www.w3.org/2000/svg">
<path d="M12 26.6665H8.00002C6.58553 26.6665 5.22898 26.1046 4.22878 25.1044C3.22859 24.1042 2.66669 22.7477 2.66669 21.3332V9.33317C2.66669 7.91868 3.22859 6.56213 4.22878 5.56193C5.22898 4.56174 6.58553 3.99984 8.00002 3.99984H22.6667C24.0812 3.99984 25.4377 4.56174 26.4379 5.56193C27.4381 6.56213 28 7.91868 28 9.33317V13.3332M10.6667 2.6665V5.33317M20 2.6665V5.33317M2.66669 10.6665H28M24.6667 20.8572L22.6667 22.8572" stroke="white" stroke-width="2" stroke-linecap="round" stroke-linejoin="round"/>
<path d="M22.6667 29.3333C26.3486 29.3333 29.3333 26.3486 29.3333 22.6667C29.3333 18.9848 26.3486 16 22.6667 16C18.9848 16 16 18.9848 16 22.6667C16 26.3486 18.9848 29.3333 22.6667 29.3333Z" stroke="white" stroke-width="2" stroke-linecap="round" stroke-linejoin="round"/>
</svg>
