<svg width="32" height="32" viewBox="0 0 32 32" fill="none" xmlns="http://www.w3.org/2000/svg">
<path d="M11.9998 26.6665H7.99984C6.58535 26.6665 5.2288 26.1046 4.2286 25.1044C3.22841 24.1042 2.6665 22.7477 2.6665 21.3332V9.33317C2.6665 7.91868 3.22841 6.56213 4.2286 5.56193C5.2288 4.56174 6.58535 3.99984 7.99984 3.99984H22.6665C24.081 3.99984 25.4375 4.56174 26.4377 5.56193C27.4379 6.56213 27.9998 7.91868 27.9998 9.33317V13.3332M10.6665 2.6665V5.33317M19.9998 2.6665V5.33317M2.6665 10.6665H27.9998M24.6665 20.8572L22.6665 22.8572" stroke="black" stroke-width="2" stroke-linecap="round" stroke-linejoin="round"/>
<path d="M22.6667 29.3333C26.3486 29.3333 29.3333 26.3486 29.3333 22.6667C29.3333 18.9848 26.3486 16 22.6667 16C18.9848 16 16 18.9848 16 22.6667C16 26.3486 18.9848 29.3333 22.6667 29.3333Z" stroke="black" stroke-width="2" stroke-linecap="round" stroke-linejoin="round"/>
</svg>
