<svg width="32" height="32" viewBox="0 0 32 32" fill="none" xmlns="http://www.w3.org/2000/svg">
<path d="M19.792 26.6665H8.66669C6.82802 26.6665 5.33335 25.1718 5.33335 23.3332C5.33335 21.4945 6.82802 19.9998 8.66669 19.9998H18C20.5734 19.9998 22.6667 17.9065 22.6667 15.3332C22.6667 12.7598 20.5734 10.6665 18 10.6665H11.5187C11.0292 11.6264 10.4228 12.5221 9.71335 13.3332H18C19.1027 13.3332 20 14.2305 20 15.3332C20 16.4358 19.1027 17.3332 18 17.3332H8.66669C5.35869 17.3332 2.66669 20.0252 2.66669 23.3332C2.66669 26.6412 5.35869 29.3332 8.66669 29.3332H21.4574C20.8029 28.5103 20.2442 27.6156 19.792 26.6665ZM6.66669 2.6665C4.46135 2.6665 2.66669 4.46117 2.66669 6.6665C2.66669 10.9172 6.66669 13.3332 6.66669 13.3332C6.66669 13.3332 10.6667 10.9158 10.6667 6.6665C10.6667 4.46117 8.87202 2.6665 6.66669 2.6665ZM6.66669 8.6665C6.40396 8.66642 6.14381 8.61458 5.90112 8.51396C5.65842 8.41333 5.43791 8.26589 5.2522 8.08005C5.06648 7.89421 4.91919 7.67361 4.81872 7.43084C4.71826 7.18808 4.6666 6.9279 4.66669 6.66517C4.66677 6.40244 4.71861 6.1423 4.81923 5.8996C4.91986 5.6569 5.0673 5.4364 5.25314 5.25068C5.43898 5.06496 5.65958 4.91767 5.90235 4.81721C6.14511 4.71674 6.40529 4.66508 6.66802 4.66517C7.19863 4.66535 7.70744 4.8763 8.08251 5.25162C8.45758 5.62695 8.6682 6.13589 8.66802 6.6665C8.66784 7.19711 8.45689 7.70592 8.08157 8.08099C7.70624 8.45607 7.1973 8.66668 6.66669 8.6665Z" fill="black"/>
<path d="M25.3333 18.6665C23.128 18.6665 21.3333 20.4612 21.3333 22.6665C21.3333 26.9172 25.3333 29.3332 25.3333 29.3332C25.3333 29.3332 29.3333 26.9158 29.3333 22.6665C29.3333 20.4612 27.5386 18.6665 25.3333 18.6665ZM25.3333 24.6665C25.0706 24.6664 24.8104 24.6146 24.5677 24.514C24.325 24.4133 24.1045 24.2659 23.9188 24.0801C23.7331 23.8942 23.5858 23.6736 23.4853 23.4308C23.3849 23.1881 23.3332 22.9279 23.3333 22.6652C23.3334 22.4024 23.3852 22.1423 23.4859 21.8996C23.5865 21.6569 23.7339 21.4364 23.9198 21.2507C24.1056 21.065 24.3262 20.9177 24.569 20.8172C24.8117 20.7167 25.0719 20.6651 25.3346 20.6652C25.8653 20.6653 26.3741 20.8763 26.7491 21.2516C27.1242 21.6269 27.3348 22.1359 27.3346 22.6665C27.3345 23.1971 27.1235 23.7059 26.7482 24.081C26.3729 24.4561 25.8639 24.6667 25.3333 24.6665Z" fill="black"/>
</svg>
