<svg width="100" height="100" viewBox="0 0 100 100" fill="none" xmlns="http://www.w3.org/2000/svg">
<path d="M55.2871 8.20605C74.8819 8.7124 90.6647 24.4956 91.1699 44.0889L89.4111 43.8223V44.1934H55.1836V9.96582H55.5547L55.2871 8.20605Z" stroke="#A9023A" stroke-width="4"/>
<path d="M43.5967 17.3477L45.1426 17.2471L44.8818 18.9717H45.2529V50.6758C45.2529 51.6174 45.6274 52.5204 46.293 53.1865C46.9585 53.8525 47.8612 54.2268 48.8027 54.2275H82.1836C82.1651 74.6458 65.6062 91.1934 45.1836 91.1934C24.7496 91.1934 8.18359 74.6273 8.18359 54.1934C8.1836 34.2911 23.8988 18.0598 43.5967 17.2285V17.3477ZM82.2656 53.2207C82.2641 53.2256 82.262 53.2318 82.2598 53.2393C82.2604 53.2369 82.2611 53.2345 82.2617 53.2324C82.2647 53.2222 82.2672 53.2142 82.2686 53.21L82.2656 53.2207Z" stroke="#A9023A" stroke-width="4"/>
</svg>
