<svg width="116" height="89" viewBox="0 0 116 89" fill="none" xmlns="http://www.w3.org/2000/svg">
<path d="M48.6047 70.4919L46.9141 82.3771H74.3866L71.2167 69.4673" stroke="#A9023A" stroke-width="2" stroke-linecap="round"/>
<rect x="1" y="1" width="113.385" height="67.6721" rx="7" stroke="#A9023A" stroke-width="2"/>
<path d="M60.6523 59.1968C62.5803 59.1968 64.0908 60.7049 64.0908 62.5005C64.0906 64.2958 62.5801 65.8032 60.6523 65.8032C58.7247 65.803 57.2151 64.2957 57.2148 62.5005C57.2148 60.7051 58.7246 59.197 60.6523 59.1968Z" stroke="#A9023A" stroke-width="2"/>
<path d="M1.23438 56.2671L114.168 55.5737" stroke="#A9023A" stroke-width="2"/>
<path d="M45.8379 82.1475H75.04C78.2217 82.1475 80.859 84.4776 81.3389 87.5244H39.5391C40.019 84.4776 42.6562 82.1475 45.8379 82.1475Z" stroke="#A9023A" stroke-width="2"/>
<rect x="30.9844" y="10.6289" width="52.0034" height="38.5598" rx="7.25" stroke="#A9023A" stroke-width="1.5"/>
<rect x="36.4023" y="7.01709" width="4.2567" height="8.67914" rx="2.12835" fill="white" stroke="#A9023A" stroke-width="1.5"/>
<rect x="72.2969" y="7.3457" width="4.2567" height="8.67914" rx="2.12835" fill="white" stroke="#A9023A" stroke-width="1.5"/>
<path d="M82.9883 19.1665V35.939C82.9883 43.2566 77.0558 49.1887 69.7383 49.189H38.2344C34.2303 49.189 30.9844 45.943 30.9844 41.939V19.1665H82.9883Z" stroke="#A9023A" stroke-width="1.5"/>
<rect x="34.7109" y="40.5093" width="5.94984" height="6.05226" rx="1.25" stroke="#A9023A" stroke-width="1.5"/>
<rect x="44.5312" y="22.7783" width="5.94984" height="6.05226" rx="1.25" stroke="#A9023A" stroke-width="1.5"/>
<rect x="34.9844" y="23.0171" width="5.94984" height="6.05226" rx="1.25" stroke="#A9023A" stroke-width="1.5"/>
<rect x="63.4883" y="31.6445" width="5.94984" height="6.05226" rx="1.25" stroke="#A9023A" stroke-width="1.5"/>
<rect x="43.8477" y="40.5093" width="5.94984" height="6.05226" rx="1.25" stroke="#A9023A" stroke-width="1.5"/>
<rect x="53.6719" y="40.8384" width="5.94984" height="6.05226" rx="1.25" stroke="#A9023A" stroke-width="1.5"/>
<rect x="63.4883" y="40.8384" width="5.94984" height="6.05226" rx="1.25" stroke="#A9023A" stroke-width="1.5"/>
<rect x="54.0117" y="31.6445" width="5.94984" height="6.05226" rx="1.25" stroke="#A9023A" stroke-width="1.5"/>
<rect x="44.5312" y="31.6445" width="5.94984" height="6.05226" rx="1.25" stroke="#A9023A" stroke-width="1.5"/>
<rect x="34.7109" y="31.6445" width="5.94984" height="6.05226" rx="1.25" stroke="#A9023A" stroke-width="1.5"/>
<rect x="73.3125" y="23.1064" width="5.94984" height="6.05226" rx="1.25" stroke="#A9023A" stroke-width="1.5"/>
<rect x="63.4883" y="23.1064" width="5.94984" height="6.05226" rx="1.25" stroke="#A9023A" stroke-width="1.5"/>
<rect x="53.6719" y="23.1064" width="5.94984" height="6.05226" rx="1.25" stroke="#A9023A" stroke-width="1.5"/>
<path d="M48.6914 7.25195V15.1326" stroke="#A9023A" stroke-width="1.5" stroke-linecap="round"/>
<path d="M56.6445 7.58057V15.4612" stroke="#A9023A" stroke-width="1.5" stroke-linecap="round"/>
<path d="M65.1094 7.58057V15.4612" stroke="#A9023A" stroke-width="1.5" stroke-linecap="round"/>
<path d="M79.3281 32.9575C84.9205 32.9575 89.4141 37.348 89.4141 42.7153C89.4139 48.0825 84.9204 52.4722 79.3281 52.4722C73.736 52.4721 69.2424 48.0824 69.2422 42.7153C69.2422 37.3481 73.7359 32.9576 79.3281 32.9575Z" fill="white" stroke="#A9023A" stroke-width="1.5"/>
<path d="M74.5898 41.8943L78.3148 46.3272L83.9021 38.7749" stroke="#A9023A" stroke-width="1.5" stroke-linecap="round"/>
</svg>
