<svg width="80" height="80" viewBox="0 0 80 80" fill="none" xmlns="http://www.w3.org/2000/svg">
<rect x="1.5" y="1.5" width="77" height="77" rx="38.5" stroke="#A9023A" stroke-width="3"/>
<path d="M17.418 55.7493C17.418 52.8762 18.5593 50.1207 20.591 48.089C22.6226 46.0574 25.3781 44.916 28.2513 44.916H49.918C52.7911 44.916 55.5466 46.0574 57.5783 48.089C59.6099 50.1207 60.7513 52.8762 60.7513 55.7493C60.7513 57.1859 60.1806 58.5637 59.1648 59.5795C58.149 60.5953 56.7712 61.166 55.3346 61.166H22.8346C21.398 61.166 20.0203 60.5953 19.0045 59.5795C17.9887 58.5637 17.418 57.1859 17.418 55.7493Z" stroke="#A9023A" stroke-width="4" stroke-linejoin="round"/>
<path d="M39.0859 34.083C43.5733 34.083 47.2109 30.4453 47.2109 25.958C47.2109 21.4707 43.5733 17.833 39.0859 17.833C34.5986 17.833 30.9609 21.4707 30.9609 25.958C30.9609 30.4453 34.5986 34.083 39.0859 34.083Z" stroke="#A9023A" stroke-width="4"/>
</svg>
