<svg width="100" height="100" viewBox="0 0 100 100" fill="none" xmlns="http://www.w3.org/2000/svg">
<path d="M81.7556 11.3408C81.0369 10.6227 80.1396 10.1092 79.1563 9.85305C78.173 9.59693 77.1391 9.60751 76.1613 9.88369H76.1077L7.53921 30.6834C6.42604 31.0041 5.43663 31.6555 4.70209 32.551C3.96755 33.4466 3.52257 34.5442 3.4261 35.6984C3.32964 36.8525 3.58625 38.0087 4.16194 39.0137C4.73762 40.0188 5.60519 40.8252 6.64969 41.3261L36.9864 56.0974L51.7404 86.4077C52.1993 87.3867 52.9289 88.214 53.843 88.7918C54.7571 89.3696 55.8175 89.6738 56.8989 89.6684C57.0633 89.6684 57.2276 89.6613 57.3919 89.647C58.5455 89.5536 59.6428 89.1097 60.5368 88.375C61.4308 87.6402 62.0786 86.6497 62.3933 85.5363L83.1846 16.9872V16.9336C83.4644 15.9585 83.4796 14.9265 83.2284 13.9436C82.9773 12.9607 82.469 12.0623 81.7556 11.3408ZM56.9311 83.9006L56.9132 83.9506V83.9256L42.6022 54.5331L59.7497 37.3905C60.263 36.8503 60.545 36.131 60.5355 35.386C60.5259 34.641 60.2256 33.9292 59.6986 33.4023C59.1716 32.8755 58.4596 32.5753 57.7144 32.5657C56.9691 32.5562 56.2497 32.8381 55.7093 33.3512L38.5619 50.4939L9.15036 36.1869H9.12535H9.17537L77.7117 15.3836L56.9311 83.9006Z" fill="#A9023A"/>
</svg>
