<svg width="100" height="100" viewBox="0 0 100 100" fill="none" xmlns="http://www.w3.org/2000/svg">
<path d="M12.4987 85.7917L27.457 70.8333H74.9987C77.2088 70.8333 79.3285 69.9554 80.8913 68.3926C82.4541 66.8298 83.332 64.7101 83.332 62.5V25C83.332 22.7899 82.4541 20.6702 80.8913 19.1074C79.3285 17.5446 77.2088 16.6667 74.9987 16.6667H20.832C18.6219 16.6667 16.5023 17.5446 14.9395 19.1074C13.3767 20.6702 12.4987 22.7899 12.4987 25V85.7917ZM12.4987 91.6667H8.33203V25C8.33203 21.6848 9.64899 18.5054 11.9932 16.1612C14.3374 13.817 17.5168 12.5 20.832 12.5H74.9987C78.3139 12.5 81.4933 13.817 83.8375 16.1612C86.1817 18.5054 87.4987 21.6848 87.4987 25V62.5C87.4987 65.8152 86.1817 68.9946 83.8375 71.3388C81.4933 73.683 78.3139 75 74.9987 75H29.1654L12.4987 91.6667Z" fill="#A9023A"/>
<path d="M65.1409 36.8396V36.7479C63.8491 33.221 61.5052 30.1759 58.4263 28.0247C55.3473 25.8734 51.6819 24.7197 47.9259 24.7197C44.1698 24.7197 40.5044 25.8734 37.4255 28.0247C34.3465 30.1759 32.0026 33.221 30.7109 36.7479C30.7109 36.7479 30.7109 36.7479 30.7109 36.8396C29.2683 40.8196 29.2683 45.1796 30.7109 49.1596V49.2512C32.0026 52.7782 34.3465 55.8232 37.4255 57.9745C40.5044 60.1258 44.1698 61.2794 47.9259 61.2794C51.6819 61.2794 55.3473 60.1258 58.4263 57.9745C61.5052 55.8232 63.8491 52.7782 65.1409 49.2512C65.1409 49.2512 65.1409 49.2512 65.1409 49.1596C66.5835 45.1796 66.5835 40.8196 65.1409 36.8396ZM33.6992 46.6662C33.0618 44.2634 33.0618 41.7358 33.6992 39.3329H37.1092C36.8154 41.7685 36.8154 44.2306 37.1092 46.6662H33.6992ZM35.2025 50.3329H37.7692C38.1972 51.9687 38.8124 53.5497 39.6025 55.0446C37.8046 53.8198 36.3016 52.2104 35.2025 50.3329ZM37.7692 35.6662H35.2025C36.2858 33.7946 37.7695 32.1856 39.5475 30.9546C38.7763 32.4519 38.1797 34.0328 37.7692 35.6662ZM46.0559 57.1162C43.8041 55.4638 42.2226 53.0558 41.6009 50.3329H46.0559V57.1162ZM46.0559 46.6662H40.8125C40.4714 44.2337 40.4714 41.7655 40.8125 39.3329H46.0559V46.6662ZM46.0559 35.6662H41.6009C42.2226 32.9433 43.8041 30.5353 46.0559 28.8829V35.6662ZM60.5759 35.6662H58.0092C57.5812 34.0305 56.966 32.4495 56.1759 30.9546C57.9738 32.1794 59.4768 33.7888 60.5759 35.6662ZM49.7225 28.8829C51.9743 30.5353 53.5558 32.9433 54.1775 35.6662H49.7225V28.8829ZM49.7225 57.1162V50.3329H54.1775C53.5558 53.0558 51.9743 55.4638 49.7225 57.1162ZM54.9659 46.6662H49.7225V39.3329H54.9659C55.307 41.7655 55.307 44.2337 54.9659 46.6662ZM56.2309 55.0446C57.021 53.5497 57.6362 51.9687 58.0642 50.3329H60.6309C59.5318 52.2104 58.0288 53.8198 56.2309 55.0446ZM62.0792 46.6662H58.6692C58.8191 45.4498 58.8925 44.2252 58.8892 42.9996C58.8925 41.774 58.8191 40.5493 58.6692 39.3329H62.0792C62.7166 41.7358 62.7166 44.2634 62.0792 46.6662Z" fill="#A9023A"/>
</svg>
