<svg width="100" height="100" viewBox="0 0 100 100" fill="none" xmlns="http://www.w3.org/2000/svg">
<path d="M12.5007 85.7917L27.459 70.8333H75.0006C77.2108 70.8333 79.3304 69.9554 80.8932 68.3926C82.456 66.8298 83.334 64.7101 83.334 62.5V25C83.334 22.7899 82.456 20.6702 80.8932 19.1074C79.3304 17.5446 77.2108 16.6667 75.0006 16.6667H20.834C18.6238 16.6667 16.5042 17.5446 14.9414 19.1074C13.3786 20.6702 12.5007 22.7899 12.5007 25V85.7917ZM12.5007 91.6667H8.33398V25C8.33398 21.6848 9.65095 18.5054 11.9951 16.1612C14.3394 13.817 17.5188 12.5 20.834 12.5H75.0006C78.3159 12.5 81.4953 13.817 83.8395 16.1612C86.1837 18.5054 87.5006 21.6848 87.5006 25V62.5C87.5006 65.8152 86.1837 68.9946 83.8395 71.3388C81.4953 73.683 78.3159 75 75.0006 75H29.1673L12.5007 91.6667ZM25.0007 29.1667H70.834V33.3333H25.0007V29.1667ZM25.0007 41.6667H70.834V45.8333H25.0007V41.6667ZM25.0007 54.1667H58.334V58.3333H25.0007V54.1667Z" fill="#A9023A"/>
</svg>
