<svg width="100" height="100" viewBox="0 0 100 100" fill="none" xmlns="http://www.w3.org/2000/svg">
<path d="M62.5006 41.6668L60.4465 41.3252C60.3969 41.6235 60.4128 41.929 60.4932 42.2206C60.5736 42.5121 60.7165 42.7826 60.9119 43.0134C61.1074 43.2442 61.3508 43.4296 61.6251 43.5568C61.8995 43.684 62.1982 43.75 62.5006 43.7502V41.6668ZM16.6673 41.6668V39.5835C16.1148 39.5835 15.5849 39.803 15.1942 40.1937C14.8035 40.5844 14.584 41.1143 14.584 41.6668H16.6673ZM25.0007 85.4168H72.334V81.2502H25.0007V85.4168ZM77.334 39.5835H62.5006V43.7502H77.334V39.5835ZM64.5548 42.0085L67.9131 21.8627L63.8048 21.1752L60.4465 41.3252L64.5548 42.0085ZM61.7506 14.5835H60.8632V18.7502H61.7506V14.5835ZM48.7257 21.0793L38.2423 36.8002L41.709 39.1127L52.1881 23.3877L48.7257 21.0793ZM33.0423 39.5835H16.6673V43.7502H33.0423V39.5835ZM14.584 41.6668V75.0002H18.7507V41.6668H14.584ZM82.5507 77.0418L87.5506 52.0418L83.4673 51.2252L78.4673 76.2252L82.5507 77.0418ZM38.2423 36.8002C37.6716 37.6563 36.8984 38.3583 35.9913 38.8438C35.0842 39.3293 34.0712 39.5834 33.0423 39.5835V43.7502C34.757 43.7502 36.4452 43.3269 37.957 42.5179C39.4689 41.709 40.7577 40.5393 41.709 39.1127L38.2423 36.8002ZM67.9131 21.8627C68.0626 20.9674 68.0153 20.0503 67.7745 19.1752C67.5336 18.3001 67.1051 17.4879 66.5186 16.7951C65.9321 16.1024 65.2018 15.5457 64.3784 15.1638C63.555 14.7818 62.6583 14.5838 61.7506 14.5835V18.7502C62.0534 18.7497 62.3526 18.8152 62.6275 18.9422C62.9024 19.0692 63.1462 19.2545 63.3422 19.4853C63.5381 19.7162 63.6814 19.9869 63.762 20.2788C63.8426 20.5706 63.8586 20.8765 63.809 21.1752L67.9131 21.8627ZM77.334 43.7502C78.2587 43.7501 79.1718 43.9552 80.0076 44.3507C80.8435 44.7462 81.5811 45.3223 82.1674 46.0373C82.7537 46.7523 83.174 47.5886 83.3981 48.4857C83.6222 49.3828 83.6486 50.3184 83.4673 51.2252L87.5506 52.0418C87.8526 50.5312 87.8115 48.9724 87.4385 47.4777C87.0654 45.983 86.3655 44.5897 85.3891 43.3981C84.4127 42.2065 83.1842 41.2463 81.792 40.5867C80.3998 39.927 78.8787 39.5844 77.3382 39.5835L77.334 43.7502ZM72.334 85.4168C74.7426 85.4173 77.077 84.5831 78.9398 83.0561C80.8025 81.5291 82.0786 79.4038 82.5507 77.0418L78.4673 76.2252C78.1839 77.6429 77.4178 78.9185 76.2995 79.8348C75.1812 80.751 73.7797 81.2512 72.334 81.2502V85.4168ZM60.859 14.5835C58.4574 14.5831 56.0929 15.1759 53.9755 16.3091C51.8581 17.4423 50.0533 19.0809 48.7215 21.0793L52.1881 23.3877C53.1395 21.9611 54.4282 20.7914 55.9401 19.9824C57.4519 19.1734 59.1401 18.7501 60.8548 18.7502L60.859 14.5835ZM25.0007 81.2502C23.343 81.2502 21.7533 80.5917 20.5812 79.4196C19.4091 78.2475 18.7507 76.6578 18.7507 75.0002H14.584C14.584 76.3681 14.8534 77.7226 15.3769 78.9865C15.9004 80.2503 16.6677 81.3986 17.635 82.3659C18.6022 83.3331 19.7506 84.1004 21.0144 84.6239C22.2782 85.1474 23.6327 85.4168 25.0007 85.4168V81.2502Z" fill="#A9023A"/>
<path d="M33.334 41.667V83.3337" stroke="#A9023A"/>
</svg>
