<svg width="80" height="80" viewBox="0 0 80 80" fill="none" xmlns="http://www.w3.org/2000/svg">
<rect x="1.5" y="1.5" width="77" height="77" rx="38.5" stroke="#A9023A" stroke-width="3"/>
<path d="M17.4199 55.7493C17.4199 52.8762 18.5613 50.1207 20.5929 48.089C22.6246 46.0574 25.3801 44.916 28.2533 44.916H49.9199C52.7931 44.916 55.5486 46.0574 57.5802 48.089C59.6119 50.1207 60.7533 52.8762 60.7533 55.7493C60.7533 57.1859 60.1826 58.5637 59.1667 59.5795C58.1509 60.5953 56.7732 61.166 55.3366 61.166H22.8366C21.4 61.166 20.0222 60.5953 19.0064 59.5795C17.9906 58.5637 17.4199 57.1859 17.4199 55.7493Z" stroke="#A9023A" stroke-width="4" stroke-linejoin="round"/>
<path d="M39.0859 34.083C43.5733 34.083 47.2109 30.4453 47.2109 25.958C47.2109 21.4707 43.5733 17.833 39.0859 17.833C34.5986 17.833 30.9609 21.4707 30.9609 25.958C30.9609 30.4453 34.5986 34.083 39.0859 34.083Z" stroke="#A9023A" stroke-width="4"/>
</svg>
