<svg width="64" height="64" viewBox="0 0 64 64" fill="none" xmlns="http://www.w3.org/2000/svg">
<rect width="64" height="64" rx="32" fill="#A9023A"/>
<path d="M46.9257 16.6689C46.6382 16.3817 46.2793 16.1763 45.886 16.0738C45.4926 15.9714 45.0791 15.9756 44.6879 16.0861H44.6665L17.2391 24.406C16.7939 24.5343 16.3981 24.7948 16.1043 25.153C15.8105 25.5113 15.6325 25.9503 15.5939 26.412C15.5553 26.8736 15.6579 27.3361 15.8882 27.7381C16.1185 28.1401 16.4655 28.4627 16.8833 28.6631L29.018 34.5716L34.9196 46.6957C35.1032 47.0873 35.395 47.4182 35.7606 47.6493C36.1263 47.8804 36.5504 48.0021 36.983 48C37.0487 48 37.1145 47.9971 37.1802 47.9914C37.6416 47.9541 38.0806 47.7765 38.4382 47.4826C38.7957 47.1887 39.0549 46.7925 39.1807 46.3471L47.4973 18.9275V18.9061C47.6092 18.516 47.6153 18.1032 47.5148 17.71C47.4144 17.3169 47.211 16.9575 46.9257 16.6689ZM36.9959 45.6929L36.9887 45.7129V45.7029L31.2643 33.9459L38.1233 27.0888C38.3287 26.8727 38.4414 26.585 38.4376 26.287C38.4338 25.989 38.3137 25.7043 38.1029 25.4935C37.8921 25.2828 37.6073 25.1627 37.3092 25.1589C37.0111 25.1551 36.7233 25.2678 36.5072 25.4731L29.6482 32.3302L17.8836 26.6074H17.8736H17.8936L45.3081 18.2861L36.9959 45.6929Z" fill="white"/>
</svg>
