<svg width="100" height="100" viewBox="0 0 100 100" fill="none" xmlns="http://www.w3.org/2000/svg">
<path d="M50 93.75C25.875 93.75 6.25 74.125 6.25 50C6.25 25.875 25.875 6.25 50 6.25C74.125 6.25 93.75 25.875 93.75 50C93.75 74.125 74.125 93.75 50 93.75ZM50 12.5C29.3125 12.5 12.5 29.3125 12.5 50C12.5 70.6875 29.3125 87.5 50 87.5C70.6875 87.5 87.5 70.6875 87.5 50C87.5 29.3125 70.6875 12.5 50 12.5Z" fill="#A9023A"/>
<path d="M50 71.875C48.25 71.875 46.875 70.5 46.875 68.75V31.25C46.875 29.5 48.25 28.125 50 28.125C51.75 28.125 53.125 29.5 53.125 31.25V68.75C53.125 70.5 51.75 71.875 50 71.875Z" fill="#A9023A"/>
<path d="M68.75 53.125H31.25C29.5 53.125 28.125 51.75 28.125 50C28.125 48.25 29.5 46.875 31.25 46.875H68.75C70.5 46.875 71.875 48.25 71.875 50C71.875 51.75 70.5 53.125 68.75 53.125Z" fill="#A9023A"/>
</svg>
