<svg width="76" height="121" viewBox="0 0 76 121" fill="none" xmlns="http://www.w3.org/2000/svg">
<rect x="4.13281" y="1.41992" width="67.5547" height="118" rx="6" fill="white" stroke="#A9023A" stroke-width="2"/>
<rect x="13.1641" y="18.938" width="49.4885" height="83.8394" rx="1" stroke="#A9023A" stroke-width="2"/>
<path d="M48.2969 11.8066L29.3267 11.8066" stroke="#A9023A" stroke-width="2" stroke-linecap="round"/>
<path d="M44.6836 109.91H30.2307" stroke="#A9023A" stroke-width="2" stroke-linecap="round"/>
<rect x="35.1523" y="28.0244" width="4.41672" height="4.41672" fill="#A9023A"/>
<rect x="40.6758" y="28.0244" width="4.41672" height="4.41672" fill="#A9023A"/>
<rect x="29.6328" y="28.0244" width="4.41672" height="4.41672" fill="#A9023A"/>
<path d="M37.9023 51.75C43.4947 51.75 47.9883 56.1405 47.9883 61.5078C47.9881 66.875 43.4946 71.2646 37.9023 71.2646C32.3102 71.2645 27.8166 66.8749 27.8164 61.5078C27.8164 56.1406 32.3101 51.7501 37.9023 51.75Z" fill="white" stroke="#A9023A" stroke-width="1.5"/>
<path d="M33.1641 60.6868L36.889 65.1196L42.4764 57.5674" stroke="#A9023A" stroke-width="1.5" stroke-linecap="round"/>
</svg>
