<svg width="100" height="100" viewBox="0 0 100 100" fill="none" xmlns="http://www.w3.org/2000/svg">
<path d="M50 87.5L53.666 85.916C61.3526 82.6175 67.9902 77.2787 72.8598 70.4779C77.7294 63.677 80.6454 55.6734 81.292 47.334L83.084 24.334C83.1132 23.3815 82.8145 22.4478 82.2378 21.6892C81.6612 20.9305 80.8415 20.3928 79.916 20.166L50 12.5L20.084 20C19.1587 20.2267 18.3393 20.7641 17.7627 21.5224C17.1861 22.2806 16.8872 23.2138 16.916 24.166L18.708 47.166C19.3541 55.5058 22.27 63.5098 27.1396 70.311C32.0093 77.1122 38.647 82.4513 46.334 85.75L50 87.5Z" fill="#A9023A"/>
<path d="M37.5 45.834L45.834 54.166L62.5 37.5" stroke="white" stroke-width="5" stroke-linecap="round" stroke-linejoin="round"/>
</svg>
