<svg width="136" height="100" viewBox="0 0 136 100" fill="none" xmlns="http://www.w3.org/2000/svg">
<path d="M58.5539 79.9181L56.8633 91.8034H84.3358L81.1659 78.8936" stroke="#A9023A" stroke-width="2" stroke-linecap="round"/>
<rect x="10.9492" y="10.4263" width="113.385" height="67.6721" rx="7" stroke="#A9023A" stroke-width="2"/>
<path d="M70.6016 68.623C72.5295 68.623 74.04 70.1312 74.04 71.9268C74.0398 73.7221 72.5293 75.2295 70.6016 75.2295C68.674 75.2293 67.1643 73.722 67.1641 71.9268C67.1641 70.1313 68.6738 68.6232 70.6016 68.623Z" stroke="#A9023A" stroke-width="2"/>
<path d="M41.6172 65H124.117" stroke="#A9023A" stroke-width="2"/>
<path d="M55.7871 91.5737H84.9893C88.1709 91.5738 90.8082 93.9039 91.2881 96.9507H49.4883C49.9682 93.9039 52.6055 91.5738 55.7871 91.5737Z" stroke="#A9023A" stroke-width="2"/>
<rect x="36.3125" y="5.50781" width="64.7793" height="48" rx="7" stroke="#A9023A" stroke-width="2"/>
<rect x="43.0742" y="1" width="5.18512" height="10.7049" rx="2.59256" fill="white" stroke="#A9023A" stroke-width="2"/>
<rect x="87.875" y="1.40967" width="5.18512" height="10.7049" rx="2.59256" fill="white" stroke="#A9023A" stroke-width="2"/>
<path d="M101.092 16.1641V40.5078C101.092 47.6875 95.2715 53.5078 88.0918 53.5078H49.3125C42.1328 53.5078 36.3125 47.6875 36.3125 40.5078V16.1641H101.092Z" stroke="#A9023A" stroke-width="2"/>
<rect x="40.9609" y="42.8027" width="7.29839" height="7.42622" rx="1" stroke="#A9023A" stroke-width="2"/>
<rect x="53.2188" y="20.6719" width="7.29839" height="7.42622" rx="1" stroke="#A9023A" stroke-width="2"/>
<rect x="76.8828" y="31.7378" width="7.29839" height="7.42622" rx="1" stroke="#A9023A" stroke-width="2"/>
<rect x="52.3711" y="42.8027" width="7.29839" height="7.42622" rx="1" stroke="#A9023A" stroke-width="2"/>
<rect x="64.6289" y="43.2129" width="7.29839" height="7.42622" rx="1" stroke="#A9023A" stroke-width="2"/>
<rect x="76.8828" y="43.2129" width="7.29839" height="7.42622" rx="1" stroke="#A9023A" stroke-width="2"/>
<rect x="65.0547" y="31.7378" width="7.29839" height="7.42622" rx="1" stroke="#A9023A" stroke-width="2"/>
<rect x="53.2188" y="31.7378" width="7.29839" height="7.42622" rx="1" stroke="#A9023A" stroke-width="2"/>
<rect x="40.9609" y="31.7378" width="7.29839" height="7.42622" rx="1" stroke="#A9023A" stroke-width="2"/>
<rect x="89.1445" y="21.0815" width="7.29839" height="7.42622" rx="1" stroke="#A9023A" stroke-width="2"/>
<rect x="76.8828" y="21.0815" width="7.29839" height="7.42622" rx="1" stroke="#A9023A" stroke-width="2"/>
<rect x="64.6289" y="21.0815" width="7.29839" height="7.42622" rx="1" stroke="#A9023A" stroke-width="2"/>
<path d="M58.3477 1.229V11.0651" stroke="#A9023A" stroke-width="2" stroke-linecap="round"/>
<path d="M68.2773 1.63916V11.4752" stroke="#A9023A" stroke-width="2" stroke-linecap="round"/>
<path d="M78.8438 1.63916V11.4752" stroke="#A9023A" stroke-width="2" stroke-linecap="round"/>
<path d="M96.5918 33.377C103.538 33.3772 109.116 38.8296 109.116 45.4912C109.116 52.153 103.538 57.6062 96.5918 57.6064C89.6452 57.6064 84.0664 52.1532 84.0664 45.4912C84.0667 38.8295 89.6454 33.377 96.5918 33.377Z" fill="white" stroke="#A9023A" stroke-width="2"/>
<path d="M90.6758 44.4672L95.325 50L102.299 40.5737" stroke="#A9023A" stroke-width="2" stroke-linecap="round"/>
<rect x="10.9492" y="44.8525" width="30.5444" height="54.1475" rx="6" fill="white" stroke="#A9023A" stroke-width="2"/>
<rect x="15.1758" y="53.0493" width="22.0913" height="38.1639" rx="1" stroke="#A9023A" stroke-width="2"/>
<path d="M31.082 49.1807H22.206" stroke="#A9023A" stroke-width="2" stroke-linecap="round"/>
<path d="M29.3906 95.0815H22.6282" stroke="#A9023A" stroke-width="2" stroke-linecap="round"/>
<path d="M20.5156 70.6962L25.1648 76.229L32.1386 66.8027" stroke="#A9023A" stroke-width="2" stroke-linecap="round"/>
</svg>
