<svg width="70" height="120" viewBox="0 0 70 120" fill="none" xmlns="http://www.w3.org/2000/svg">
<rect x="1" y="1" width="67.5547" height="118" rx="6" fill="white" stroke="#A9023A" stroke-width="2"/>
<rect x="10.0312" y="18.5176" width="49.4885" height="83.8394" rx="1" stroke="#A9023A" stroke-width="2"/>
<path d="M45.1641 11.3867L26.1939 11.3867" stroke="#A9023A" stroke-width="2" stroke-linecap="round"/>
<path d="M41.5469 109.489H27.094" stroke="#A9023A" stroke-width="2" stroke-linecap="round"/>
<path d="M31.6488 63.2187C31.2411 63.3649 30.8436 63.538 30.4588 63.7367C30.32 63.8096 30.1836 63.8871 30.05 63.9691L30.0248 63.9859L30.0164 63.9915L30.0136 63.9929L30.0122 63.9943C29.8576 64.0972 29.7501 64.2573 29.7135 64.4393C29.6768 64.6214 29.714 64.8106 29.8169 64.9652C29.9198 65.1199 30.0798 65.2273 30.2619 65.264C30.444 65.3006 30.6332 65.2634 30.7878 65.1605L30.7976 65.1535L30.855 65.1185C30.9091 65.0849 30.9931 65.0383 31.107 64.9785C31.3338 64.8595 31.6768 64.6985 32.1262 64.5347C33.3693 64.0917 34.6803 63.869 36 63.8767C37.6562 63.8767 38.975 64.2071 39.8738 64.5347C40.3218 64.6985 40.6662 64.8595 40.893 64.9785C40.9975 65.0336 41.1002 65.092 41.201 65.1535L41.2122 65.1591C41.2886 65.2133 41.3751 65.2516 41.4665 65.2717C41.558 65.2919 41.6526 65.2935 41.7447 65.2764C41.8368 65.2593 41.9245 65.2239 42.0026 65.1724C42.0808 65.1208 42.1478 65.054 42.1997 64.9761C42.2516 64.8981 42.2874 64.8106 42.3048 64.7185C42.3223 64.6265 42.3211 64.5319 42.3013 64.4404C42.2816 64.3489 42.2436 64.2622 42.1898 64.1856C42.1359 64.109 42.0672 64.0439 41.9878 63.9943L41.9864 63.9929L41.9836 63.9915L41.9752 63.9859L41.9486 63.9691L41.8618 63.9145C41.756 63.8525 41.6487 63.7932 41.5398 63.7367C41.1555 63.538 40.7584 63.365 40.3512 63.2187C38.955 62.7201 37.4825 62.469 36 62.4767C34.5175 62.469 33.045 62.7201 31.6488 63.2187ZM31.6488 85.5347C32.675 85.9085 34.1548 86.2767 36 86.2767C37.4825 86.2845 38.955 86.0334 40.3512 85.5347C40.865 85.3485 41.2654 85.1595 41.5412 85.0167C41.6796 84.9438 41.8154 84.8663 41.9486 84.7843L41.9752 84.7675L41.9836 84.7619L41.9864 84.7605C41.9864 84.7605 41.9878 84.7591 41.6 84.1767L41.9878 84.7591C42.1363 84.6538 42.238 84.4947 42.2712 84.3157C42.3044 84.1366 42.2665 83.9517 42.1656 83.8001C42.0646 83.6486 41.9086 83.5423 41.7306 83.5039C41.5526 83.4655 41.3667 83.4979 41.2122 83.5943L41.201 83.6013L41.145 83.6349C41.0622 83.6838 40.9782 83.7304 40.893 83.7749C40.6662 83.8939 40.3232 84.0549 39.8738 84.2187C38.6307 84.6618 37.3197 84.8845 36 84.8767C34.6803 84.8845 33.3693 84.6618 32.1262 84.2187C31.777 84.0935 31.4366 83.9452 31.107 83.7749C31.0025 83.7199 30.8998 83.6615 30.799 83.5999L30.7878 83.5929C30.7112 83.542 30.6254 83.5067 30.5351 83.4889C30.4449 83.4712 30.3521 83.4714 30.2619 83.4895C30.1717 83.5076 30.086 83.5434 30.0097 83.5946C29.9333 83.6459 29.8678 83.7117 29.8169 83.7882C29.766 83.8648 29.7306 83.9507 29.7129 84.0409C29.6951 84.1311 29.6953 84.224 29.7135 84.3141C29.7316 84.4043 29.7673 84.49 29.8186 84.5663C29.8698 84.6427 29.9356 84.7082 30.0122 84.7591L30.0136 84.7605L30.0164 84.7619L30.0248 84.7675L30.05 84.7843L30.1382 84.8375C30.2129 84.8842 30.3202 84.9435 30.4602 85.0153C30.7346 85.1595 31.135 85.3499 31.6488 85.5347ZM25.5 70.1767V78.5767C25.5 79.3193 25.795 80.0315 26.3201 80.5566C26.8452 81.0817 27.5574 81.3767 28.3 81.3767H36.7C37.4426 81.3767 38.1548 81.0817 38.6799 80.5566C39.205 80.0315 39.5 79.3193 39.5 78.5767V70.1767C39.5 69.4341 39.205 68.7219 38.6799 68.1968C38.1548 67.6717 37.4426 67.3767 36.7 67.3767H28.3C27.5574 67.3767 26.8452 67.6717 26.3201 68.1968C25.795 68.7219 25.5 69.4341 25.5 70.1767ZM40.9 76.5467L44.7878 79.7065C44.9418 79.8317 45.1282 79.9107 45.3252 79.9342C45.5223 79.9578 45.722 79.9251 45.9012 79.8398C46.0804 79.7545 46.2318 79.6202 46.3377 79.4524C46.4437 79.2846 46.5 79.0902 46.5 78.8917V69.8617C46.5 69.6633 46.4437 69.4689 46.3377 69.3011C46.2318 69.1333 46.0804 68.999 45.9012 68.9137C45.722 68.8284 45.5223 68.7956 45.3252 68.8192C45.1282 68.8428 44.9418 68.9218 44.7878 69.0469L40.9 72.2067V76.5467Z" fill="#A9023A"/>
<path d="M35 41.377C35.6894 41.377 36.3721 41.2412 37.0091 40.9773C37.646 40.7135 38.2248 40.3268 38.7123 39.8393C39.1998 39.3518 39.5865 38.773 39.8504 38.136C40.1142 37.4991 40.25 36.8164 40.25 36.127C40.25 35.4375 40.1142 34.7548 39.8504 34.1179C39.5865 33.4809 39.1998 32.9022 38.7123 32.4146C38.2248 31.9271 37.646 31.5404 37.0091 31.2766C36.3721 31.0127 35.6894 30.877 35 30.877C33.6076 30.877 32.2723 31.4301 31.2877 32.4146C30.3031 33.3992 29.75 34.7346 29.75 36.127C29.75 37.5193 30.3031 38.8547 31.2877 39.8393C32.2723 40.8238 33.6076 41.377 35 41.377ZM21.5 56.977V57.877H48.5V56.977C48.5 53.617 48.5 51.937 47.846 50.653C47.2708 49.524 46.3529 48.6062 45.224 48.031C43.94 47.377 42.26 47.377 38.9 47.377H31.1C27.74 47.377 26.06 47.377 24.776 48.031C23.6471 48.6062 22.7292 49.524 22.154 50.653C21.5 51.937 21.5 53.617 21.5 56.977Z" fill="#A9023A" stroke="#A9023A" stroke-width="2" stroke-linecap="round" stroke-linejoin="round"/>
</svg>
