<svg width="32" height="32" viewBox="0 0 32 32" fill="none" xmlns="http://www.w3.org/2000/svg">
<path d="M9.536 5.844L9.556 5.832L9.648 5.778C9.72933 5.72867 9.85267 5.66 10.018 5.572C10.348 5.398 10.828 5.164 11.422 4.932C12.62 4.456 14.242 4 16 4C17.758 4 19.38 4.46 20.578 4.93C21.1885 5.17074 21.7813 5.45411 22.352 5.778C22.3933 5.80067 22.4233 5.81867 22.442 5.832L22.462 5.844H22.464C22.6877 5.98013 22.9559 6.02307 23.211 5.96357C23.466 5.90407 23.6876 5.74689 23.828 5.52581C23.9684 5.30474 24.0164 5.0374 23.9618 4.78126C23.9072 4.52512 23.7543 4.30062 23.536 4.156L23.53 4.152L23.52 4.146L23.484 4.124L23.362 4.05C22.7028 3.67516 22.0177 3.34767 21.312 3.07C19.968 2.54 18.09 2 16 2C13.91 2 12.03 2.54 10.69 3.07C9.98362 3.34758 9.29789 3.67508 8.638 4.05L8.516 4.124L8.48 4.144L8.47 4.152L8.466 4.154C8.24189 4.29589 8.08333 4.521 8.02519 4.7798C7.96706 5.0386 8.01411 5.30989 8.156 5.534C8.29789 5.75811 8.523 5.91667 8.7818 5.97481C9.0406 6.03294 9.31189 5.98589 9.536 5.844ZM8 8C6.93913 8 5.92172 8.42143 5.17157 9.17157C4.42143 9.92172 4 10.9391 4 12V20C4 21.0609 4.42143 22.0783 5.17157 22.8284C5.92172 23.5786 6.93913 24 8 24H17C18.0609 24 19.0783 23.5786 19.8284 22.8284C20.5786 22.0783 21 21.0609 21 20V19.724L26.504 22.868C26.6561 22.9549 26.8283 23.0003 27.0034 22.9997C27.1785 22.9991 27.3504 22.9525 27.5019 22.8646C27.6533 22.7767 27.7791 22.6506 27.8665 22.4989C27.9539 22.3472 27.9999 22.1751 28 22V10C27.9999 9.82488 27.9539 9.65285 27.8665 9.50111C27.7791 9.34938 27.6533 9.22326 27.5019 9.13537C27.3504 9.04749 27.1785 9.00092 27.0034 9.00033C26.8283 8.99974 26.6561 9.04514 26.504 9.132L21 12.276V12C21 10.9391 20.5786 9.92172 19.8284 9.17157C19.0783 8.42143 18.0609 8 17 8H8ZM21 14.58L26 11.724V20.276L21 17.42V14.58ZM6 12C6 11.4696 6.21071 10.9609 6.58579 10.5858C6.96086 10.2107 7.46957 10 8 10H17C17.5304 10 18.0391 10.2107 18.4142 10.5858C18.7893 10.9609 19 11.4696 19 12V20C19 20.5304 18.7893 21.0391 18.4142 21.4142C18.0391 21.7893 17.5304 22 17 22H8C7.46957 22 6.96086 21.7893 6.58579 21.4142C6.21071 21.0391 6 20.5304 6 20V12ZM9.538 26.158L9.536 26.156C9.31227 26.0199 9.04406 25.9769 8.78901 26.0364C8.53397 26.0959 8.31244 26.2531 8.17204 26.4742C8.03164 26.6953 7.98357 26.9626 8.03816 27.2187C8.09276 27.4749 8.24565 27.6994 8.464 27.844L8.47 27.848L8.48 27.854L8.516 27.876C8.544 27.8947 8.58467 27.9193 8.638 27.95C8.74467 28.0113 8.894 28.094 9.086 28.198C9.468 28.398 10.016 28.664 10.69 28.93C12.03 29.458 13.91 30 16 30C18.092 30 19.97 29.46 21.31 28.93C22.0164 28.6524 22.7021 28.3249 23.362 27.95L23.484 27.876L23.52 27.856L23.53 27.848L23.534 27.846C23.7581 27.7038 23.9186 27.4785 23.9765 27.2195C24.0345 26.9605 23.9872 26.6891 23.845 26.465C23.7028 26.2409 23.4775 26.0824 23.2185 26.0245C22.9595 25.9665 22.6881 26.0138 22.464 26.156L22.444 26.17L22.352 26.222C22.2707 26.2713 22.1473 26.34 21.982 26.428C21.5261 26.667 21.0574 26.8806 20.578 27.068C19.38 27.544 17.758 28 16 28C14.242 28 12.62 27.54 11.422 27.07C10.8115 26.8293 10.2187 26.5459 9.648 26.222L9.558 26.168L9.538 26.158Z" fill="black"/>
</svg>
