<svg width="131" height="100" viewBox="0 0 131 100" fill="none" xmlns="http://www.w3.org/2000/svg">
<path d="M7.7332 3.65533C7.89435 3.65438 8.05551 3.65343 8.22155 3.65245C8.75998 3.65003 9.2983 3.65193 9.83673 3.65383C10.2273 3.65298 10.6178 3.65186 11.0084 3.65051C12.0805 3.64757 13.1525 3.64843 14.2246 3.64993C15.3812 3.65089 16.5379 3.64835 17.6945 3.64627C19.9601 3.64277 22.2256 3.6426 24.4911 3.64366C26.3325 3.64449 28.1738 3.64419 30.0152 3.64311C30.2772 3.64295 30.5392 3.6428 30.8091 3.64264C31.3414 3.64233 31.8736 3.64202 32.4059 3.64171C35.9799 3.63971 39.5539 3.63886 43.1279 3.64041C43.2677 3.64047 43.4074 3.64053 43.5514 3.64059C44.6861 3.64109 45.8207 3.64162 46.9554 3.64215C51.3811 3.64421 55.8067 3.64251 60.2323 3.63778C65.206 3.63248 70.1796 3.62987 75.1532 3.63131C77.7861 3.63202 80.419 3.63156 83.0519 3.628C85.2933 3.62501 87.5347 3.62488 89.7761 3.62842C90.9196 3.63016 92.0631 3.63059 93.2067 3.62748C94.2538 3.62467 95.3009 3.62562 96.3481 3.62956C96.7266 3.63033 97.1051 3.62973 97.4836 3.62761C101.6 3.60619 101.6 3.60619 103.286 4.93195C103.39 5.06072 103.493 5.18949 103.6 5.32216C103.707 5.44936 103.814 5.57655 103.924 5.7076C104.924 7.25996 104.925 8.57225 104.917 10.3896C104.918 10.6756 104.92 10.9615 104.921 11.2475C104.924 12.0313 104.924 12.8152 104.923 13.599C104.922 14.4452 104.925 15.2913 104.928 16.1375C104.932 17.7945 104.933 19.4515 104.933 21.1085C104.932 22.4556 104.933 23.8026 104.935 25.1497C104.935 25.5378 104.936 25.926 104.936 26.3141C104.936 26.6039 104.936 26.6039 104.937 26.8995C104.94 30.5529 104.94 34.2062 104.939 37.8595C104.938 41.2004 104.942 44.5412 104.949 47.8821C104.956 51.3137 104.959 54.7452 104.958 58.1768C104.957 60.1029 104.958 62.029 104.963 63.955C104.968 65.5949 104.968 67.2347 104.965 68.8746C104.963 69.7109 104.963 70.5472 104.967 71.3835C104.971 72.15 104.97 72.9163 104.965 73.6827C104.964 74.0895 104.967 74.4963 104.971 74.9031C104.953 76.7966 104.528 78.1025 103.357 79.5943C101.507 81.0199 99.6171 80.9528 97.3785 80.9328C97.0163 80.9326 96.6541 80.9327 96.2919 80.9332C95.3129 80.9334 94.334 80.9287 93.355 80.923C92.3303 80.9179 91.3057 80.9174 90.281 80.9164C88.3425 80.9139 86.404 80.9072 84.4656 80.8991C82.2579 80.89 80.0502 80.8855 77.8425 80.8814C73.3029 80.8729 68.7633 80.8586 64.2237 80.8405C64.2939 81.0916 64.364 81.3428 64.4363 81.6015C64.5292 81.9344 64.6222 82.2674 64.7151 82.6003C64.7612 82.7654 64.8074 82.9306 64.8549 83.1007C65.2176 84.4007 65.564 85.7043 65.8978 87.0119C66.1438 87.9593 66.4298 88.8811 66.7599 89.803C66.8768 90.1992 66.8768 90.1992 66.8768 90.8095C67.0075 90.8063 67.1381 90.8031 67.2728 90.7998C67.8678 90.7871 68.4629 90.7792 69.058 90.7714C69.3664 90.7637 69.3664 90.7637 69.681 90.7559C71.6334 90.7366 71.6334 90.7366 72.3871 91.4199C73.0371 92.2287 73.0772 92.8796 73.0632 93.8994C73.0624 94.1499 73.0616 94.4004 73.0608 94.6584C72.9994 95.2854 72.9994 95.2854 72.5912 95.6923C72.0828 95.7325 71.597 95.7471 71.0883 95.744C70.9315 95.7446 70.7748 95.7453 70.6133 95.7459C70.0853 95.7476 69.5573 95.7463 69.0293 95.745C68.6519 95.7455 68.2745 95.7463 67.8971 95.7472C66.8699 95.749 65.8428 95.7483 64.8156 95.747C63.7426 95.746 62.6697 95.7469 61.5967 95.7476C59.7945 95.7483 57.9924 95.7473 56.1902 95.7454C54.1042 95.7432 52.0182 95.7439 49.9321 95.7461C48.1438 95.748 46.3555 95.7482 44.5671 95.7472C43.4979 95.7465 42.4286 95.7465 41.3593 95.7478C40.3543 95.749 39.3492 95.7482 38.3441 95.7458C37.9744 95.7453 37.6047 95.7454 37.2349 95.7463C36.7319 95.7474 36.229 95.746 35.7259 95.744C35.5781 95.7449 35.4303 95.7458 35.278 95.7468C34.2696 95.7388 34.2696 95.7388 33.8148 95.2854C33.5266 92.6797 33.5266 92.6796 34.1847 91.6742C34.8789 90.9624 35.3117 90.7589 36.2854 90.7253C36.486 90.7174 36.6866 90.7095 36.8933 90.7014C37.2068 90.692 37.2068 90.692 37.5266 90.6824C37.738 90.6745 37.9494 90.6666 38.1672 90.6585C38.6892 90.6393 39.2112 90.6219 39.7333 90.6061C40.7835 87.707 41.535 84.755 42.2516 81.7584C42.3865 81.2474 42.3865 81.2474 42.5905 80.8405C42.402 80.8414 42.2136 80.8423 42.0193 80.8433C37.4287 80.8659 32.838 80.8826 28.2473 80.8932C26.0272 80.8984 23.8072 80.9055 21.5872 80.9172C19.6518 80.9274 17.7164 80.9339 15.7809 80.9362C14.7565 80.9375 13.7322 80.9406 12.7078 80.948C11.7425 80.9549 10.7774 80.957 9.81219 80.9555C9.45893 80.9558 9.10566 80.9578 8.75243 80.9617C5.14555 80.9997 5.14554 80.9997 3.61006 79.8232C2.52718 78.6731 1.92732 77.5686 1.9243 75.9685C1.92285 75.7245 1.92141 75.4805 1.91993 75.2291C1.92042 74.9618 1.92091 74.6945 1.92142 74.4191C1.92051 74.1317 1.91943 73.8442 1.91818 73.5568C1.91529 72.767 1.91495 71.9772 1.91504 71.1874C1.9147 70.3356 1.91204 69.4838 1.90969 68.6319C1.90503 66.7694 1.90341 64.9068 1.90238 63.0442C1.90172 61.8811 1.90038 60.718 1.89891 59.555C1.89492 56.3346 1.89157 53.1142 1.89098 49.8937C1.89094 49.6877 1.8909 49.4816 1.89086 49.2692C1.89079 48.8515 1.89071 48.4337 1.89064 48.0159C1.8906 47.8085 1.89056 47.6011 1.89053 47.3874C1.89049 47.1798 1.89045 46.9722 1.89041 46.7582C1.88969 43.3935 1.88418 40.0288 1.87655 36.6641C1.86877 33.2093 1.86482 29.7546 1.86476 26.2998C1.86464 24.3602 1.86291 22.4206 1.85701 20.4809C1.852 18.8294 1.85052 17.1778 1.85359 15.5263C1.85505 14.6838 1.85487 13.8414 1.85024 12.9989C1.84603 12.2271 1.84657 11.4553 1.85082 10.6835C1.85187 10.2733 1.84791 9.86306 1.84375 9.45288C1.85986 7.71699 2.14085 6.47613 3.35008 5.1887C4.58754 3.99775 6.05047 3.63964 7.7332 3.65533Z" fill="white"/>
<path d="M53.1779 41.1213C54.2935 41.1213 55.3983 40.9013 56.429 40.4738C57.4597 40.0462 58.3963 39.4196 59.1852 38.6297C59.9741 37.8397 60.5998 36.9019 61.0268 35.8698C61.4537 34.8377 61.6735 33.7315 61.6735 32.6144C61.6735 31.4972 61.4537 30.391 61.0268 29.3589C60.5998 28.3268 59.9741 27.389 59.1852 26.599C58.3963 25.8091 57.4597 25.1825 56.429 24.755C55.3983 24.3275 54.2935 24.1074 53.1779 24.1074C50.9247 24.1074 48.7638 25.0037 47.1706 26.599C45.5773 28.1944 44.6823 30.3582 44.6823 32.6144C44.6823 34.8705 45.5773 37.0343 47.1706 38.6297C48.7638 40.225 50.9247 41.1213 53.1779 41.1213ZM31.332 66.3991V67.8574H75.0237V66.3991C75.0237 60.9546 75.0237 58.2324 73.9654 56.1519C73.0345 54.3226 71.5493 52.8353 69.7224 51.9033C67.6447 50.8435 64.9261 50.8435 59.4889 50.8435H46.8668C41.4297 50.8435 38.7111 50.8435 36.6333 51.9033C34.8065 52.8353 33.3212 54.3226 32.3903 56.1519C31.332 58.2324 31.332 60.9546 31.332 66.3991Z" fill="#A9023A" stroke="#A9023A" stroke-width="2" stroke-linecap="round" stroke-linejoin="round"/>
<path d="M7.7332 3.65533C7.89435 3.65438 8.05551 3.65343 8.22155 3.65245C8.75998 3.65003 9.2983 3.65193 9.83673 3.65383C10.2273 3.65298 10.6178 3.65186 11.0084 3.65051C12.0805 3.64757 13.1525 3.64843 14.2246 3.64993C15.3812 3.65089 16.5379 3.64835 17.6945 3.64627C19.9601 3.64277 22.2256 3.6426 24.4911 3.64366C26.3325 3.64449 28.1738 3.64419 30.0152 3.64311C30.2772 3.64295 30.5392 3.6428 30.8091 3.64264C31.3414 3.64233 31.8736 3.64202 32.4059 3.64171C35.9799 3.63971 39.5539 3.63886 43.1279 3.64041C43.2677 3.64047 43.4074 3.64053 43.5514 3.64059C44.6861 3.64109 45.8207 3.64162 46.9554 3.64215C51.3811 3.64421 55.8067 3.64251 60.2323 3.63778C65.206 3.63248 70.1796 3.62987 75.1532 3.63131C77.7861 3.63202 80.419 3.63156 83.0519 3.628C85.2933 3.62501 87.5347 3.62488 89.7761 3.62842C90.9196 3.63016 92.0631 3.63059 93.2067 3.62748C94.2538 3.62467 95.3009 3.62562 96.3481 3.62956C96.7266 3.63033 97.1051 3.62973 97.4836 3.62761C101.6 3.60619 101.6 3.60619 103.286 4.93195C103.39 5.06072 103.493 5.18949 103.6 5.32216C103.707 5.44936 103.814 5.57655 103.924 5.7076C104.924 7.25996 104.925 8.57225 104.917 10.3896C104.918 10.6756 104.92 10.9615 104.921 11.2475C104.924 12.0313 104.924 12.8152 104.923 13.599C104.922 14.4452 104.925 15.2913 104.928 16.1375C104.932 17.7945 104.933 19.4515 104.933 21.1085C104.932 22.4556 104.933 23.8026 104.935 25.1497C104.935 25.5378 104.936 25.926 104.936 26.3141C104.936 26.6039 104.936 26.6039 104.937 26.8995C104.94 30.5529 104.94 34.2062 104.939 37.8595C104.938 41.2004 104.942 44.5412 104.949 47.8821C104.956 51.3137 104.959 54.7452 104.958 58.1768C104.957 60.1029 104.958 62.029 104.963 63.9551C104.968 65.5949 104.968 67.2347 104.965 68.8746C104.963 69.7109 104.963 70.5472 104.967 71.3835C104.971 72.15 104.97 72.9163 104.965 73.6827C104.964 74.0895 104.967 74.4963 104.971 74.9031C104.953 76.7966 104.528 78.1025 103.357 79.5943C101.507 81.0199 99.6171 80.9528 97.3785 80.9328C97.0163 80.9326 96.6541 80.9327 96.2919 80.9332C95.3129 80.9334 94.334 80.9287 93.355 80.923C92.3303 80.9179 91.3057 80.9174 90.281 80.9164C88.3425 80.9139 86.404 80.9072 84.4656 80.8991C82.2579 80.89 80.0502 80.8855 77.8425 80.8814C73.3029 80.8729 68.7633 80.8586 64.2237 80.8405C64.2939 81.0916 64.364 81.3428 64.4363 81.6015C64.5292 81.9344 64.6222 82.2674 64.7151 82.6003C64.7612 82.7655 64.8074 82.9306 64.8549 83.1007C65.2176 84.4007 65.564 85.7043 65.8978 87.0119C66.1438 87.9594 66.4298 88.8811 66.7599 89.803C66.8768 90.1992 66.8768 90.1992 66.8768 90.8095C67.0075 90.8063 67.1382 90.8031 67.2728 90.7999C67.8678 90.7871 68.4629 90.7792 69.058 90.7714C69.3664 90.7637 69.3664 90.7637 69.681 90.7559C71.6334 90.7366 71.6334 90.7366 72.3871 91.4199C73.0371 92.2287 73.0772 92.8796 73.0632 93.8994C73.0624 94.1499 73.0616 94.4004 73.0608 94.6584C72.9994 95.2854 72.9994 95.2854 72.5912 95.6923C72.0828 95.7325 71.597 95.7471 71.0883 95.744C70.9315 95.7447 70.7748 95.7453 70.6133 95.7459C70.0853 95.7476 69.5573 95.7463 69.0293 95.745C68.6519 95.7456 68.2745 95.7463 67.8971 95.7472C66.8699 95.749 65.8428 95.7483 64.8156 95.747C63.7426 95.746 62.6697 95.7469 61.5967 95.7476C59.7945 95.7483 57.9924 95.7473 56.1902 95.7454C54.1042 95.7432 52.0182 95.7439 49.9321 95.7461C48.1438 95.748 46.3555 95.7483 44.5671 95.7472C43.4979 95.7466 42.4286 95.7465 41.3593 95.7478C40.3543 95.749 39.3492 95.7482 38.3441 95.7458C37.9744 95.7453 37.6047 95.7454 37.2349 95.7463C36.7319 95.7474 36.229 95.7461 35.726 95.744C35.5781 95.7449 35.4303 95.7458 35.278 95.7468C34.2696 95.7388 34.2696 95.7388 33.8148 95.2854C33.5266 92.6797 33.5266 92.6797 34.1847 91.6742C34.8789 90.9624 35.3117 90.759 36.2854 90.7253C36.486 90.7174 36.6866 90.7096 36.8933 90.7015C37.2068 90.692 37.2068 90.692 37.5267 90.6824C37.738 90.6745 37.9494 90.6666 38.1672 90.6585C38.6892 90.6394 39.2112 90.6219 39.7333 90.6061C40.7835 87.707 41.535 84.755 42.2516 81.7584C42.3865 81.2474 42.3865 81.2474 42.5905 80.8405C42.4021 80.8414 42.2136 80.8423 42.0193 80.8433C37.4287 80.8659 32.838 80.8826 28.2473 80.8932C26.0272 80.8984 23.8072 80.9055 21.5872 80.9172C19.6518 80.9274 17.7164 80.9339 15.7809 80.9362C14.7565 80.9375 13.7322 80.9406 12.7078 80.948C11.7425 80.9549 10.7774 80.957 9.81219 80.9555C9.45893 80.9558 9.10566 80.9578 8.75243 80.9617C5.14555 80.9997 5.14554 80.9997 3.61006 79.8232C2.52718 78.6731 1.92732 77.5686 1.9243 75.9685C1.92285 75.7245 1.92141 75.4805 1.91993 75.2291C1.92042 74.9618 1.92091 74.6945 1.92142 74.4191C1.92051 74.1317 1.91943 73.8443 1.91818 73.5568C1.91529 72.767 1.91495 71.9772 1.91504 71.1874C1.9147 70.3356 1.91204 69.4838 1.90969 68.6319C1.90503 66.7694 1.90341 64.9068 1.90238 63.0442C1.90172 61.8811 1.90038 60.718 1.89891 59.555C1.89492 56.3346 1.89157 53.1142 1.89098 49.8937C1.89094 49.6877 1.8909 49.4816 1.89086 49.2692C1.89079 48.8515 1.89071 48.4337 1.89064 48.0159C1.8906 47.8085 1.89056 47.6011 1.89053 47.3874C1.89049 47.1798 1.89045 46.9722 1.89041 46.7582C1.88969 43.3935 1.88418 40.0288 1.87655 36.6641C1.86877 33.2093 1.86482 29.7546 1.86476 26.2998C1.86464 24.3602 1.86291 22.4206 1.85701 20.4809C1.852 18.8294 1.85052 17.1778 1.85359 15.5263C1.85505 14.6838 1.85487 13.8414 1.85024 12.9989C1.84603 12.2271 1.84657 11.4553 1.85082 10.6835C1.85187 10.2733 1.84791 9.86306 1.84375 9.45288C1.85986 7.71699 2.14085 6.47613 3.35008 5.1887C4.58754 3.99775 6.05047 3.63964 7.7332 3.65533ZM7.07953 8.81897C7.07953 28.3563 7.07953 47.8937 7.07953 68.0231C37.6557 68.0231 68.2319 68.0231 99.7347 68.0231C99.7347 48.4857 99.7347 28.9484 99.7347 8.81897C69.1585 8.81897 38.5823 8.81897 7.07953 8.81897Z" fill="#A9023A"/>
<path d="M3.60558 69.6504C36.4716 69.6504 69.3377 69.6504 103.2 69.6504C103.2 76.5677 103.2 76.5677 102.383 78.1953C101.262 79.0854 100.389 79.2427 98.9958 79.2399C98.8355 79.2403 98.6753 79.2408 98.5102 79.2413C97.9689 79.2427 97.4275 79.2426 96.8862 79.2425C96.4959 79.2432 96.1056 79.2439 95.7154 79.2448C94.6395 79.2468 93.5635 79.2476 92.4876 79.2481C91.3286 79.2489 90.1695 79.2508 89.0105 79.2526C86.21 79.2566 83.4095 79.2587 80.6089 79.2605C79.2911 79.2614 77.9733 79.2625 76.6555 79.2636C72.2768 79.267 67.898 79.27 63.5192 79.2714C63.236 79.2715 62.9528 79.2716 62.6696 79.2717C62.5291 79.2718 62.3887 79.2718 62.244 79.2719C61.5324 79.2721 60.8207 79.2724 60.1091 79.2726C59.9679 79.2727 59.8267 79.2727 59.6812 79.2728C55.1009 79.2744 50.5206 79.2791 45.9404 79.2857C41.0993 79.2927 36.2583 79.2967 31.4172 79.2974C28.7777 79.2978 26.1381 79.2996 23.4986 79.3048C21.2513 79.3092 19.0041 79.3109 16.7568 79.3089C15.6097 79.308 14.4626 79.3084 13.3154 79.3123C12.2659 79.3159 11.2164 79.3157 10.1669 79.3125C9.78656 79.312 9.40626 79.3129 9.02597 79.3153C8.51003 79.3184 7.99434 79.3165 7.4784 79.3133C7.32986 79.3153 7.18133 79.3174 7.0283 79.3196C5.99837 79.3056 5.42238 79.0376 4.62601 78.3988C2.36412 75.9001 3.60558 73.6676 3.60558 69.6504Z" fill="white"/>
<path d="M7.67815 5.28237C7.83861 5.28142 7.99907 5.28047 8.16439 5.2795C8.70292 5.27706 9.24134 5.27898 9.77986 5.28087C10.1695 5.28002 10.5592 5.27891 10.9488 5.27755C12.0203 5.2746 13.0917 5.27548 14.1631 5.27697C15.3184 5.27793 16.4737 5.27539 17.6289 5.27331C19.8925 5.26981 22.156 5.26964 24.4195 5.27071C26.2591 5.27153 28.0986 5.27124 29.9381 5.27015C30.1997 5.27 30.4613 5.26984 30.7309 5.26969C31.2623 5.26937 31.7937 5.26906 32.3251 5.26875C35.8944 5.26675 39.4637 5.2659 43.033 5.26745C43.1725 5.26751 43.3121 5.26757 43.456 5.26763C44.5895 5.26813 45.7231 5.26866 46.8567 5.2692C51.2781 5.27125 55.6996 5.26955 60.121 5.26482C65.0884 5.25952 70.0557 5.25692 75.023 5.25835C77.6532 5.25906 80.2834 5.2586 82.9135 5.25505C85.1526 5.25205 87.3917 5.25192 89.6308 5.25547C90.7735 5.2572 91.9161 5.25763 93.0588 5.25452C94.1047 5.25171 95.1505 5.25266 96.1964 5.2566C96.5749 5.25737 96.9534 5.25676 97.3318 5.25465C97.8463 5.25198 98.3606 5.25432 98.8751 5.2579C99.022 5.25594 99.169 5.25398 99.3204 5.25195C100.585 5.27004 101.632 5.66823 102.559 6.52153C103.328 7.74838 103.342 8.87036 103.324 10.2908C103.325 10.539 103.326 10.7871 103.327 11.0428C103.328 11.7281 103.325 12.4132 103.32 13.0986C103.315 13.8388 103.317 14.5791 103.318 15.3194C103.318 16.6008 103.315 17.8822 103.309 19.1637C103.301 21.0164 103.298 22.8691 103.297 24.7218C103.295 27.728 103.288 30.7341 103.278 33.7402C103.269 36.6598 103.262 39.5795 103.257 42.4991C103.257 42.6792 103.257 42.8592 103.257 43.0447C103.255 43.9481 103.254 44.8514 103.253 45.7548C103.242 53.2452 103.224 60.7356 103.201 68.226C102.595 68.226 101.989 68.226 101.365 68.226C101.364 68.0978 101.364 67.9695 101.364 67.8374C101.343 60.2467 101.32 52.656 101.297 45.0653C101.294 44.1549 101.291 43.2444 101.289 42.334C101.288 42.1527 101.288 41.9714 101.287 41.7847C101.278 38.8457 101.27 35.9068 101.262 32.9678C101.253 29.9545 101.244 26.9412 101.235 23.9278C101.229 22.0669 101.223 20.206 101.219 18.3451C101.215 17.0708 101.211 15.7964 101.207 14.5221C101.204 13.7858 101.202 13.0494 101.201 12.3131C101.199 11.5167 101.196 10.7203 101.193 9.92385C101.193 9.57089 101.193 9.57089 101.192 9.21079C101.191 8.9992 101.19 8.7876 101.189 8.56959C101.188 8.38549 101.188 8.20139 101.187 8.01172C101.206 7.59874 101.206 7.59874 100.956 7.39425C100.45 7.37415 99.9493 7.36744 99.4429 7.36922C99.2817 7.36898 99.1206 7.36875 98.9545 7.3685C98.4075 7.36796 97.8606 7.36888 97.3136 7.36978C96.9203 7.3697 96.527 7.36952 96.1337 7.36926C95.0475 7.3688 93.9613 7.36962 92.8751 7.37064C91.7058 7.37151 90.5365 7.37122 89.3672 7.37106C87.3395 7.37096 85.3118 7.3716 83.2842 7.37274C80.3524 7.37439 77.4207 7.37492 74.4889 7.37518C69.7329 7.37562 64.9769 7.37698 60.2209 7.3789C55.5996 7.38077 50.9783 7.38221 46.357 7.38307C46.0666 7.38313 45.7761 7.38318 45.4857 7.38324C43.2371 7.38366 40.9885 7.38406 38.74 7.38445C27.7094 7.38637 16.6787 7.39046 5.64814 7.39425C5.5808 27.4687 5.51345 47.5432 5.44406 68.226C4.83792 68.226 4.23179 68.226 3.60728 68.226C3.57925 60.53 3.55768 52.834 3.54475 45.138C3.54322 44.2294 3.54163 43.3208 3.54002 42.4122C3.5397 42.2313 3.53937 42.0504 3.53904 41.864C3.53372 38.9352 3.52406 36.0065 3.51281 33.0777C3.50135 30.0724 3.49455 27.0671 3.49207 24.0618C3.49039 22.2074 3.48508 20.3531 3.47514 18.4988C3.46866 17.2271 3.46671 15.9555 3.4683 14.6838C3.46908 13.9501 3.46788 13.2165 3.46131 12.4829C3.45424 11.6869 3.45668 10.8911 3.46003 10.0951C3.45646 9.86395 3.45289 9.63279 3.44922 9.39462C3.46382 8.11074 3.63451 7.30676 4.44953 6.29794C5.44841 5.44127 6.39704 5.2705 7.67815 5.28237Z" fill="white"/>
<path d="M44.2234 80.8398C50.2848 80.8398 56.3462 80.8398 62.5912 80.8398C63.163 82.8919 63.72 84.9226 64.2279 86.9871C64.483 87.9688 64.7822 88.9332 65.0944 89.8982C65.2443 90.402 65.2443 90.402 65.2443 90.8089C57.4319 90.8089 49.6195 90.8089 41.5703 90.8089C41.8948 89.6228 42.2194 88.4394 42.5579 87.2577C43.0163 85.6487 43.4162 84.0353 43.763 82.3987C44.0004 81.2845 44.0004 81.2845 44.2234 80.8398Z" fill="#FCFBFC"/>
<path d="M37.4403 92.1549C37.653 92.1535 37.653 92.1535 37.8699 92.152C38.3461 92.1496 38.8221 92.1515 39.2983 92.1534C39.6392 92.1526 39.9801 92.1515 40.3211 92.1502C41.2479 92.1474 42.1746 92.1485 43.1014 92.1504C44.0703 92.152 45.0391 92.1506 46.008 92.1496C47.6351 92.1485 49.2622 92.1499 50.8894 92.1529C52.772 92.1562 54.6545 92.1551 56.5371 92.1517C58.1519 92.149 59.7668 92.1486 61.3816 92.1502C62.3468 92.1511 63.3119 92.1512 64.277 92.1492C65.1843 92.1475 66.0915 92.1487 66.9987 92.1522C67.3322 92.153 67.6656 92.1528 67.9991 92.1515C68.4533 92.1498 68.9074 92.1519 69.3617 92.1549C69.6162 92.1551 69.8707 92.1554 70.1329 92.1556C70.7483 92.2324 70.7483 92.2324 71.1411 92.4662C71.3606 92.8428 71.3606 92.8428 71.3606 94.0635C59.5073 94.0635 47.6539 94.0635 35.4414 94.0635C35.4414 92.8428 35.4414 92.8428 35.6609 92.4662C36.2548 92.1128 36.752 92.1555 37.4403 92.1549Z" fill="#F4EBED"/>
<path d="M5.85156 6.98759C14.9545 6.98411 24.0575 6.98087 33.1605 6.97898C33.2951 6.97895 33.4297 6.97892 33.5684 6.97889C36.4937 6.97828 39.419 6.97772 42.3443 6.9772C43.7787 6.97695 45.2132 6.97668 46.6476 6.97642C46.7904 6.97639 46.9331 6.97636 47.0802 6.97633C51.7113 6.97547 56.3424 6.97394 60.9735 6.97207C65.8653 6.9701 70.757 6.96888 75.6488 6.96845C78.581 6.96817 81.5132 6.96728 84.4454 6.96564C86.4531 6.96456 88.4608 6.96423 90.4686 6.9645C91.6288 6.96463 92.7891 6.96442 93.9493 6.96334C95.0096 6.96236 96.0699 6.96229 97.1303 6.96299C97.5156 6.96308 97.901 6.96282 98.2864 6.96218C98.8067 6.96138 99.3269 6.9618 99.8472 6.96256C100.076 6.96176 100.076 6.96176 100.31 6.96094C101.341 6.96437 101.341 6.96437 101.568 7.19104C101.588 7.51557 101.593 7.84098 101.593 8.16611C101.594 8.37841 101.594 8.59072 101.594 8.80946C101.594 9.04556 101.593 9.28166 101.593 9.52491C101.593 9.89779 101.593 9.89779 101.593 10.2782C101.593 10.9713 101.593 11.6644 101.592 12.3575C101.591 13.1038 101.591 13.8501 101.591 14.5963C101.591 15.8903 101.591 17.1843 101.59 18.4783C101.588 20.3493 101.587 22.2202 101.587 24.0911C101.587 27.1262 101.585 30.1614 101.583 33.1965C101.582 36.1456 101.58 39.0947 101.579 42.0438C101.579 42.3163 101.579 42.3163 101.579 42.5943C101.579 43.5055 101.579 44.4168 101.578 45.328C101.576 52.8929 101.573 60.4578 101.568 68.0228C102.039 68.0228 102.511 68.0228 102.997 68.0228C102.997 48.1497 102.997 28.2767 102.997 7.80139C103.064 7.80139 103.131 7.80139 103.201 7.80139C103.201 27.7416 103.201 47.6818 103.201 68.2262C102.595 68.2262 101.988 68.2262 101.364 68.2262C101.364 68.098 101.363 67.9698 101.363 67.8377C101.342 60.247 101.32 52.6563 101.296 45.0655C101.294 44.1551 101.291 43.2446 101.288 42.3342C101.287 42.1529 101.287 41.9717 101.286 41.7849C101.277 38.846 101.269 35.907 101.261 32.9681C101.253 29.9547 101.244 26.9414 101.234 23.9281C101.228 22.0672 101.223 20.2062 101.218 18.3453C101.215 17.071 101.211 15.7967 101.206 14.5224C101.204 13.786 101.201 13.0497 101.2 12.3133C101.198 11.5169 101.195 10.7205 101.192 9.92409C101.192 9.57113 101.192 9.57113 101.192 9.21103C101.19 8.99944 101.189 8.78784 101.188 8.56983C101.188 8.38573 101.187 8.20164 101.187 8.01196C101.206 7.59898 101.206 7.59898 100.956 7.39449C100.45 7.37335 99.9508 7.36559 99.4454 7.36628C99.2846 7.3657 99.1238 7.36512 98.9581 7.36453C98.4123 7.36282 97.8665 7.36257 97.3207 7.3623C96.9282 7.36137 96.5358 7.36036 96.1433 7.35926C95.0594 7.35648 93.9756 7.35498 92.8917 7.35368C91.7249 7.35206 90.5581 7.34927 89.3913 7.34662C87.368 7.34218 85.3446 7.33849 83.3213 7.3353C80.3958 7.33069 77.4704 7.32497 74.5449 7.31896C69.7991 7.30925 65.0533 7.30045 60.3075 7.29222C55.6961 7.28422 51.0847 7.27579 46.4733 7.26679C46.3312 7.26651 46.1891 7.26623 46.0428 7.26595C44.6161 7.26317 43.1895 7.26037 41.7629 7.25757C29.7924 7.23409 17.822 7.21206 5.85156 7.19104C5.85156 7.1239 5.85156 7.05676 5.85156 6.98759Z" fill="#DFBCC3"/>
<path d="M54.8714 71.6206C55.7959 72.1242 56.3339 72.7136 56.6699 73.7187C56.7885 74.9241 56.5743 75.8057 55.8536 76.7704C55.1365 77.4252 54.3838 77.8418 53.4045 77.9148C52.4247 77.8418 51.6737 77.4246 50.9555 76.7704C50.3134 75.9272 49.975 74.9894 50.0339 73.9261C50.3101 72.8479 51.0647 72.0905 51.9632 71.4807C53.0364 71.1313 53.8496 71.1557 54.8714 71.6206Z" fill="#A9023A"/>
<path d="M53.4002 72.7783C54.2317 72.951 54.5317 73.2467 55.0329 73.9227C55.1732 74.5331 55.1732 74.5331 55.0329 75.1434C54.4816 75.7314 54.0769 76.0954 53.2854 76.2878C52.5376 76.0967 52.2298 75.7491 51.7675 75.1434C51.64 74.5331 51.64 74.5331 51.7675 73.9227C52.2688 73.2467 52.5687 72.951 53.4002 72.7783Z" fill="#F7F2F5"/>
<path d="M100.75 6.9873C101.019 7.05444 101.289 7.12158 101.566 7.19076C101.566 13.0318 101.566 18.8729 101.566 24.891C101.499 24.891 101.432 24.891 101.362 24.891C101.361 24.6757 101.359 24.4604 101.357 24.2385C101.341 22.2118 101.324 20.185 101.304 18.1583C101.293 17.1163 101.284 16.0742 101.276 15.0322C101.269 14.027 101.259 13.0218 101.248 12.0166C101.245 11.6327 101.241 11.2488 101.239 10.8648C101.236 10.328 101.23 9.79123 101.223 9.25442C101.223 9.09491 101.222 8.9354 101.222 8.77105C101.21 8.00133 101.189 7.64352 100.75 6.9873Z" fill="#E3CFD5"/>
<path d="M54.0135 71.2784C54.0808 71.4127 54.1482 71.547 54.2175 71.6853C54.0992 71.6906 53.9808 71.6958 53.8588 71.7012C52.7133 71.7842 52.0565 71.9892 51.1562 72.7026C51.1562 72.5012 51.1562 72.2998 51.1562 72.0922C52.1716 71.4312 52.7649 71.1768 54.0135 71.2784Z" fill="#B54F64"/>
<path d="M100.75 6.9873C101.019 7.05444 101.289 7.12158 101.566 7.19076C101.566 7.99642 101.566 8.80208 101.566 9.63216C101.499 9.63216 101.432 9.63216 101.362 9.63216C101.347 9.42248 101.347 9.42248 101.332 9.20857C101.317 9.02525 101.301 8.84193 101.286 8.65306C101.272 8.47131 101.257 8.28956 101.243 8.10231C101.185 7.54802 101.185 7.54802 100.75 6.9873Z" fill="#E6D9E0"/>
<path d="M92.8591 50.7935C94.7261 50.7935 96.5749 50.4253 98.2998 49.7099C100.025 48.9944 101.592 47.9458 102.912 46.6238C104.232 45.3019 105.28 43.7325 105.994 42.0053C106.709 40.2781 107.076 38.4269 107.076 36.5574C107.076 34.6879 106.709 32.8367 105.994 31.1095C105.28 29.3823 104.232 27.8129 102.912 26.4909C101.592 25.169 100.025 24.1204 98.2998 23.4049C96.5749 22.6895 94.7261 22.3213 92.8591 22.3213C89.0885 22.3213 85.4723 23.8212 82.8061 26.4909C80.1399 29.1607 78.642 32.7817 78.642 36.5574C78.642 40.333 80.1399 43.9541 82.8061 46.6238C85.4723 49.2936 89.0885 50.7935 92.8591 50.7935ZM56.3008 93.0951V95.5356H129.417V93.0951C129.417 83.984 129.417 79.4284 127.646 75.9467C126.089 72.8855 123.603 70.3966 120.546 68.8368C117.069 67.0634 112.519 67.0633 103.42 67.0633H82.2978C73.1989 67.0633 68.6494 67.0634 65.1723 68.8368C62.1151 70.3966 59.6296 72.8855 58.0718 75.9467C56.3008 79.4284 56.3008 83.984 56.3008 93.0951Z" fill="#A9023A" stroke="#A9023A" stroke-width="2" stroke-linecap="round" stroke-linejoin="round"/>
</svg>
