<svg width="100" height="100" viewBox="0 0 100 100" fill="none" xmlns="http://www.w3.org/2000/svg">
<path d="M50.7027 44.9705C51.757 44.9705 52.8009 44.7626 53.775 44.3586C54.749 43.9546 55.634 43.3625 56.3795 42.616C57.125 41.8695 57.7164 40.9833 58.1198 40.0079C58.5233 39.0326 58.731 37.9873 58.731 36.9316C58.731 35.8759 58.5233 34.8305 58.1198 33.8552C57.7164 32.8798 57.125 31.9936 56.3795 31.2471C55.634 30.5007 54.749 29.9085 53.775 29.5045C52.8009 29.1005 51.757 28.8926 50.7027 28.8926C48.5735 28.8926 46.5314 29.7395 45.0259 31.2471C43.5203 32.7547 42.6744 34.7995 42.6744 36.9316C42.6744 39.0636 43.5203 41.1084 45.0259 42.616C46.5314 44.1236 48.5735 44.9705 50.7027 44.9705ZM30.0586 68.8578V70.2359H71.3468V68.8578C71.3468 63.7128 71.3468 61.1404 70.3467 59.1743C69.4671 57.4456 68.0635 56.0402 66.3372 55.1594C64.3737 54.1579 61.8046 54.1579 56.6665 54.1579H44.7388C39.6008 54.1579 37.0317 54.1579 35.0682 55.1594C33.3419 56.0402 31.9383 57.4456 31.0587 59.1743C30.0586 61.1404 30.0586 63.7128 30.0586 68.8578Z" fill="#A9023A" stroke="#A9023A" stroke-width="2" stroke-linecap="round" stroke-linejoin="round"/>
<path d="M6.31743 9.56566C6.46972 9.56476 6.622 9.56387 6.77891 9.56295C7.28772 9.56065 7.79643 9.56245 8.30524 9.56424C8.67432 9.56344 9.04339 9.56239 9.41246 9.56111C10.4256 9.55833 11.4386 9.55914 12.4517 9.56056C13.5447 9.56147 14.6378 9.55907 15.7308 9.5571C17.8717 9.55379 20.0126 9.55363 22.1535 9.55464C23.8936 9.55542 25.6336 9.55514 27.3737 9.55411C27.6213 9.55397 27.8689 9.55382 28.124 9.55368C28.6269 9.55338 29.1299 9.55309 29.6329 9.55279C33.0103 9.5509 36.3877 9.5501 39.7651 9.55156C39.8972 9.55162 40.0292 9.55168 40.1653 9.55174C41.2375 9.55221 42.3098 9.55271 43.382 9.55321C47.5642 9.55516 51.7464 9.55355 55.9286 9.54908C60.6286 9.54407 65.3286 9.54161 70.0286 9.54296C72.5167 9.54364 75.0048 9.5432 77.4929 9.53984C79.611 9.53701 81.7291 9.53688 83.8472 9.54024C84.9278 9.54188 86.0084 9.54228 87.0891 9.53934C88.0786 9.53669 89.0681 9.53759 90.0576 9.54131C90.4153 9.54204 90.773 9.54147 91.1306 9.53946C95.0206 9.51922 95.0206 9.51922 96.6142 10.7721C96.7119 10.8937 96.8096 11.0154 96.9102 11.1408C97.0114 11.261 97.1126 11.3812 97.2169 11.505C98.162 12.972 98.1626 14.2121 98.1555 15.9295C98.1565 16.1997 98.1577 16.4699 98.1591 16.7402C98.1622 17.4809 98.1618 18.2216 98.1608 18.9624C98.1602 19.762 98.163 20.5616 98.1654 21.3612C98.1695 22.927 98.1703 24.4929 98.17 26.0587C98.1697 27.3317 98.1705 28.6047 98.1719 29.8776C98.1723 30.2444 98.1727 30.6112 98.1731 30.978C98.1734 31.2518 98.1734 31.2518 98.1737 31.5312C98.1774 34.9836 98.1772 38.4359 98.1759 41.8883C98.1748 45.0454 98.1788 48.2024 98.1852 51.3595C98.1917 54.6023 98.1946 57.8451 98.1937 61.0879C98.1933 62.9081 98.1943 64.7282 98.1991 66.5483C98.2032 68.098 98.2038 69.6476 98.2002 71.1973C98.1984 71.9876 98.1982 72.7778 98.2022 73.5681C98.2058 74.2924 98.2049 75.0166 98.2005 75.7409C98.1994 76.1253 98.2029 76.5097 98.2066 76.8941C98.189 78.6834 97.788 79.9175 96.6812 81.3273C94.9324 82.6744 93.1468 82.611 91.0314 82.5922C90.6891 82.592 90.3468 82.5921 90.0046 82.5925C89.0794 82.5927 88.1544 82.5882 87.2292 82.5828C86.2609 82.578 85.2926 82.5776 84.3243 82.5767C82.4924 82.5743 80.6606 82.568 78.8288 82.5603C76.7426 82.5517 74.6563 82.5474 72.5701 82.5436C68.2802 82.5355 63.9903 82.522 59.7004 82.5049C59.7667 82.7422 59.833 82.9795 59.9013 83.2241C59.9891 83.5387 60.077 83.8533 60.1648 84.1679C60.2084 84.324 60.252 84.48 60.2969 84.6408C60.6396 85.8693 60.967 87.1011 61.2825 88.3368C61.5149 89.2321 61.7851 90.1032 62.0971 90.9743C62.2076 91.3488 62.2076 91.3488 62.2076 91.9256C62.3311 91.9225 62.4545 91.9195 62.5818 91.9164C63.1441 91.9044 63.7064 91.8969 64.2688 91.8895C64.5602 91.8823 64.5602 91.8822 64.8575 91.8749C66.7025 91.8566 66.7025 91.8566 67.4148 92.5023C68.029 93.2667 68.0669 93.8818 68.0536 94.8455C68.0529 95.0822 68.0521 95.3188 68.0514 95.5627C67.9934 96.1552 67.9934 96.1552 67.6076 96.5398C67.1272 96.5777 66.6681 96.5915 66.1874 96.5886C66.0393 96.5892 65.8911 96.5898 65.7385 96.5904C65.2396 96.5919 64.7406 96.5907 64.2416 96.5895C63.885 96.59 63.5284 96.5907 63.1717 96.5916C62.2011 96.5933 61.2304 96.5926 60.2598 96.5914C59.2458 96.5904 58.2319 96.5913 57.2179 96.5919C55.5149 96.5926 53.8118 96.5917 52.1088 96.5899C50.1375 96.5878 48.1663 96.5885 46.195 96.5906C44.505 96.5923 42.8151 96.5926 41.1251 96.5916C40.1147 96.591 39.1042 96.5909 38.0938 96.5922C37.144 96.5933 36.1943 96.5925 35.2445 96.5903C34.8951 96.5898 34.5457 96.5899 34.1963 96.5908C33.7209 96.5918 33.2456 96.5905 32.7703 96.5886C32.6306 96.5894 32.4909 96.5903 32.347 96.5912C31.3941 96.5836 31.3941 96.5836 30.9643 96.1552C30.692 93.6928 30.692 93.6928 31.3139 92.7426C31.9698 92.07 32.3789 91.8778 33.299 91.8459C33.4885 91.8385 33.6781 91.8311 33.8734 91.8234C34.1697 91.8145 34.1697 91.8145 34.472 91.8054C34.6717 91.798 34.8715 91.7905 35.0773 91.7829C35.5706 91.7647 36.0639 91.7483 36.5573 91.7333C37.5496 88.9937 38.2598 86.2041 38.937 83.3723C39.0644 82.8894 39.0644 82.8894 39.2573 82.5049C39.0792 82.5058 38.901 82.5066 38.7175 82.5076C34.3794 82.5289 30.0412 82.5447 25.7031 82.5547C23.6051 82.5596 21.5072 82.5664 19.4093 82.5774C17.5804 82.587 15.7514 82.5932 13.9224 82.5953C12.9544 82.5966 11.9864 82.5995 11.0184 82.6065C10.1062 82.613 9.1942 82.615 8.28205 82.6136C7.94823 82.6139 7.61439 82.6158 7.28059 82.6195C3.87212 82.6554 3.87212 82.6554 2.4211 81.5436C1.39779 80.4568 0.830927 79.4129 0.828068 77.9009C0.826706 77.6703 0.825343 77.4398 0.823939 77.2022C0.824405 76.9496 0.824871 76.697 0.825351 76.4367C0.824492 76.1651 0.823467 75.8935 0.82229 75.6219C0.819555 74.8755 0.819235 74.1292 0.81932 73.3828C0.819002 72.5779 0.816482 71.7729 0.814268 70.9679C0.809861 69.2078 0.808334 67.4477 0.807359 65.6876C0.806731 64.5885 0.805473 63.4894 0.80408 62.3903C0.800306 59.347 0.797143 56.3038 0.796582 53.2605C0.796546 53.0658 0.79651 52.871 0.796473 52.6704C0.796402 52.2756 0.796331 51.8808 0.796262 51.486C0.796227 51.29 0.796191 51.094 0.796155 50.8921C0.79612 50.6959 0.796085 50.4997 0.79605 50.2975C0.795366 47.1179 0.790155 43.9383 0.782945 40.7586C0.775601 37.4939 0.771866 34.2292 0.771807 30.9645C0.771695 29.1315 0.770056 27.2986 0.764479 25.4657C0.759752 23.905 0.758346 22.3443 0.761248 20.7836C0.762631 19.9874 0.762464 19.1914 0.758083 18.3953C0.754108 17.6659 0.754617 16.9366 0.758638 16.2072C0.759629 15.8196 0.755886 15.4319 0.751953 15.0443C0.767174 13.4039 1.03271 12.2313 2.17542 11.0147C3.34481 9.88925 4.72727 9.55084 6.31743 9.56566ZM5.69971 14.4452C5.69971 32.9079 5.69971 51.3705 5.69971 70.3926C34.5939 70.3926 63.4882 70.3926 93.258 70.3926C93.258 51.93 93.258 33.4673 93.258 14.4452C64.3637 14.4452 35.4695 14.4452 5.69971 14.4452Z" fill="#A9023A"/>
<path d="M40.8001 82.5039C46.5281 82.5039 52.256 82.5039 58.1575 82.5039C58.6978 84.443 59.2242 86.3621 59.7041 88.313C59.9452 89.2407 60.228 90.152 60.5231 91.0639C60.6647 91.5401 60.6647 91.5401 60.6647 91.9246C53.282 91.9246 45.8994 91.9246 38.293 91.9246C38.5996 90.8037 38.9064 89.6854 39.2262 88.5687C39.6594 87.0482 40.0373 85.5236 40.365 83.977C40.5894 82.9241 40.5894 82.9241 40.8001 82.5039Z" fill="white"/>
<path d="M34.3929 93.1966C34.5938 93.1952 34.5938 93.1952 34.7988 93.1938C35.2488 93.1915 35.6987 93.1934 36.1487 93.1952C36.4708 93.1944 36.793 93.1934 37.1151 93.1921C37.991 93.1895 38.8667 93.1905 39.7426 93.1923C40.6581 93.1938 41.5737 93.1924 42.4892 93.1915C44.0268 93.1905 45.5645 93.1919 47.1021 93.1946C48.8811 93.1977 50.6601 93.1967 52.4391 93.1935C53.9651 93.1909 55.4911 93.1906 57.0172 93.1921C57.9292 93.193 58.8412 93.1931 59.7533 93.1912C60.6106 93.1895 61.4679 93.1907 62.3253 93.194C62.6404 93.1948 62.9555 93.1945 63.2706 93.1933C63.6999 93.1917 64.129 93.1937 64.5582 93.1966C64.7987 93.1968 65.0392 93.197 65.287 93.1972C65.8686 93.2698 65.8686 93.2698 66.2398 93.4907C66.4472 93.8466 66.4472 93.8466 66.4472 95.0001C55.2459 95.0001 44.0446 95.0001 32.5039 95.0001C32.5039 93.8466 32.5039 93.8466 32.7113 93.4907C33.2725 93.1567 33.7424 93.1971 34.3929 93.1966Z" fill="white"/>
<path d="M88.4192 77.9865C87.8982 77.9894 87.8982 77.9894 87.3667 77.9925C86.2001 77.9976 85.0338 77.9935 83.8672 77.9895C83.032 77.9913 82.1968 77.9935 81.3615 77.9963C79.0909 78.0021 76.8204 77.9999 74.5497 77.9958C72.1761 77.9926 69.8026 77.9956 67.429 77.9976C63.4425 77.9999 59.4561 77.9968 55.4697 77.9908C50.8575 77.9838 46.2454 77.9861 41.6332 77.9931C37.6769 77.9989 33.7206 77.9997 29.7643 77.9964C27.3998 77.9944 25.0353 77.9941 22.6708 77.9983C20.4481 78.002 18.2255 77.9995 16.0028 77.9921C15.1858 77.9904 14.3689 77.9909 13.5519 77.9937C12.439 77.9972 11.3265 77.9928 10.2136 77.9865C9.59013 77.986 8.96664 77.9855 8.32426 77.985C6.81641 77.8246 6.81641 77.8246 5.85408 77.3364C5.31641 76.5497 5.31641 76.5497 5.31641 74C34.3564 74 63.3964 74 93.3164 74C93.3164 76.5497 93.3164 76.5497 92.7787 77.3364C91.3237 78.0745 90.1054 77.9852 88.4192 77.9865Z" fill="white"/>
<circle cx="49.8164" cy="76.5" r="1.25" fill="white" stroke="#A9023A" stroke-width="0.5"/>
</svg>
