<svg width="100" height="100" viewBox="0 0 100 100" fill="none" xmlns="http://www.w3.org/2000/svg">
<path d="M93.75 31.25V93.75H25V68.75H6.25V6.25H75V31.25H93.75ZM87.5 87.5V50H31.25V87.5H87.5ZM25 62.5V31.25H68.75V25H12.5V62.5H25ZM12.5 12.5V18.75H68.75V12.5H12.5ZM87.5 37.5H31.25V43.75H87.5V37.5Z" fill="#A9023A"/>
<path fill-rule="evenodd" clip-rule="evenodd" d="M54.3492 62.4434C54.3492 59.6468 56.6152 57.3809 59.4117 57.3809C62.2082 57.3809 64.4742 59.6468 64.4742 62.4434V65.4809H64.8792C65.7702 65.4809 66.4992 66.2099 66.4992 67.1009V74.1884C66.4992 75.5249 65.4057 76.6184 64.0692 76.6184H54.7542C53.4177 76.6184 52.3242 75.5249 52.3242 74.1884V67.1009C52.3242 66.2099 53.0532 65.4809 53.9442 65.4809H54.3492V62.4434ZM62.4492 62.4434V65.4809H56.3742V62.4434C56.3742 60.7646 57.733 59.4059 59.4117 59.4059C61.0904 59.4059 62.4492 60.7646 62.4492 62.4434ZM59.4117 67.759C59.0091 67.7586 58.6183 67.8953 58.3038 68.1466C57.9892 68.398 57.7697 68.749 57.6813 69.1418C57.5928 69.5346 57.6408 69.9458 57.8173 70.3076C57.9939 70.6695 58.2884 70.9605 58.6523 71.1326V73.5809C58.6523 73.7823 58.7323 73.9754 58.8748 74.1178C59.0172 74.2602 59.2103 74.3402 59.4117 74.3402C59.6131 74.3402 59.8063 74.2602 59.9487 74.1178C60.0911 73.9754 60.1711 73.7823 60.1711 73.5809V71.1326C60.5351 70.9605 60.8296 70.6695 61.0061 70.3076C61.1826 69.9458 61.2306 69.5346 61.1422 69.1418C61.0538 68.749 60.8342 68.398 60.5197 68.1466C60.2051 67.8953 59.8144 67.7586 59.4117 67.759Z" fill="#A9023A"/>
</svg>
