<svg width="174" height="120" viewBox="0 0 174 120" fill="none" xmlns="http://www.w3.org/2000/svg">
<path d="M76.4272 95.9014L74.3984 110.164H107.365L103.562 94.6719" stroke="#A9023A" stroke-width="2" stroke-linecap="round"/>
<rect x="19.1016" y="12.3115" width="136.462" height="81.6066" rx="7" stroke="#A9023A" stroke-width="2"/>
<path d="M90.8838 82.1475C93.3019 82.1475 95.21 84.0407 95.21 86.3115C95.2099 88.5823 93.3019 90.4756 90.8838 90.4756C88.4658 90.4755 86.5587 88.5823 86.5586 86.3115C86.5586 84.0407 88.4658 82.1476 90.8838 82.1475Z" stroke="#A9023A" stroke-width="2"/>
<path d="M56.1016 78H155.102" stroke="#A9023A" stroke-width="2"/>
<path d="M73.1064 109.688H108.148C112.146 109.688 115.444 112.677 115.936 116.541H65.3203C65.8117 112.677 69.1085 109.688 73.1064 109.688Z" stroke="#A9023A" stroke-width="2"/>
<rect x="49.5391" y="6.41016" width="78.1352" height="58" rx="7" stroke="#A9023A" stroke-width="2"/>
<rect x="57.6523" y="1" width="6.62215" height="13.2459" rx="3.31107" fill="white" stroke="#A9023A" stroke-width="2"/>
<rect x="111.414" y="1.49121" width="6.62215" height="13.2459" rx="3.31107" fill="white" stroke="#A9023A" stroke-width="2"/>
<path d="M127.674 19.1973V51.4102C127.674 58.5899 121.854 64.4102 114.674 64.4102H62.5391C55.3594 64.4102 49.5391 58.5899 49.5391 51.4102V19.1973H127.674Z" stroke="#A9023A" stroke-width="2"/>
<rect x="55.1172" y="51.1641" width="9.15807" height="9.31147" rx="1" stroke="#A9023A" stroke-width="2"/>
<rect x="69.8242" y="24.6064" width="9.15807" height="9.31147" rx="1" stroke="#A9023A" stroke-width="2"/>
<rect x="98.2227" y="37.8857" width="9.15807" height="9.31147" rx="1" stroke="#A9023A" stroke-width="2"/>
<rect x="68.8086" y="51.1641" width="9.15807" height="9.31147" rx="1" stroke="#A9023A" stroke-width="2"/>
<rect x="83.5156" y="51.6553" width="9.15807" height="9.31147" rx="1" stroke="#A9023A" stroke-width="2"/>
<rect x="98.2227" y="51.6553" width="9.15807" height="9.31147" rx="1" stroke="#A9023A" stroke-width="2"/>
<rect x="84.0273" y="37.8857" width="9.15807" height="9.31147" rx="1" stroke="#A9023A" stroke-width="2"/>
<rect x="69.8242" y="37.8857" width="9.15807" height="9.31147" rx="1" stroke="#A9023A" stroke-width="2"/>
<rect x="55.1172" y="37.8857" width="9.15807" height="9.31147" rx="1" stroke="#A9023A" stroke-width="2"/>
<rect x="112.938" y="25.0986" width="9.15807" height="9.31147" rx="1" stroke="#A9023A" stroke-width="2"/>
<rect x="98.2227" y="25.0986" width="9.15807" height="9.31147" rx="1" stroke="#A9023A" stroke-width="2"/>
<rect x="83.5156" y="25.0986" width="9.15807" height="9.31147" rx="1" stroke="#A9023A" stroke-width="2"/>
<path d="M76.1797 1.47559V13.2789" stroke="#A9023A" stroke-width="2" stroke-linecap="round"/>
<path d="M88.0938 1.9668V13.7701" stroke="#A9023A" stroke-width="2" stroke-linecap="round"/>
<path d="M100.773 1.9668V13.7701" stroke="#A9023A" stroke-width="2" stroke-linecap="round"/>
<path d="M122.073 39.8525C130.514 39.8525 137.303 46.4794 137.304 54.5898C137.304 62.7004 130.514 69.3281 122.073 69.3281C113.633 69.3279 106.844 62.7003 106.844 54.5898C106.844 46.4796 113.633 39.8528 122.073 39.8525Z" fill="white" stroke="#A9023A" stroke-width="2"/>
<path d="M114.973 53.3606L120.552 60L128.92 48.6885" stroke="#A9023A" stroke-width="2" stroke-linecap="round"/>
<rect x="19.1016" y="53.623" width="37.0533" height="65.3771" rx="6" fill="white" stroke="#A9023A" stroke-width="2"/>
<rect x="24.1758" y="63.459" width="26.9096" height="46.1967" rx="1" stroke="#A9023A" stroke-width="2"/>
<path d="M43.4609 59.0166H32.8097" stroke="#A9023A" stroke-width="2" stroke-linecap="round"/>
<path d="M41.4336 114.099H33.3186" stroke="#A9023A" stroke-width="2" stroke-linecap="round"/>
<path d="M30.7812 84.8362L36.3603 91.4755L44.7288 80.1641" stroke="#A9023A" stroke-width="2" stroke-linecap="round"/>
</svg>
