<svg width="119" height="105" viewBox="0 0 119 105" fill="none" xmlns="http://www.w3.org/2000/svg">
<path d="M20.0356 3.65533C20.1952 3.65438 20.3549 3.65343 20.5194 3.65245C21.0528 3.65003 21.5861 3.65193 22.1195 3.65383C22.5064 3.65298 22.8933 3.65186 23.2802 3.65051C24.3422 3.64757 25.4042 3.64843 26.4663 3.64993C27.6121 3.65089 28.758 3.64835 29.9038 3.64627C32.1482 3.64277 34.3925 3.6426 36.6369 3.64366C38.461 3.64449 40.2852 3.64419 42.1093 3.64311C42.3689 3.64295 42.6284 3.6428 42.8958 3.64264C43.4231 3.64233 43.9504 3.64202 44.4777 3.64171C48.0183 3.63971 51.5589 3.63886 55.0995 3.64041C55.238 3.64047 55.3764 3.64053 55.519 3.64059C56.6431 3.64109 57.7672 3.64162 58.8912 3.64215C63.2755 3.64421 67.6598 3.64251 72.0441 3.63778C76.9712 3.63248 81.8983 3.62987 86.8255 3.63131C89.4338 3.63202 92.0421 3.63156 94.6504 3.628C96.8709 3.62501 99.0913 3.62488 101.312 3.62842C102.445 3.63016 103.577 3.63059 104.71 3.62748C105.748 3.62467 106.785 3.62562 107.822 3.62956C108.197 3.63033 108.572 3.62973 108.947 3.62761C113.025 3.60619 113.025 3.60619 114.696 4.93195C114.798 5.06072 114.901 5.18949 115.006 5.32216C115.112 5.44936 115.218 5.57655 115.327 5.7076C116.318 7.25996 116.319 8.57225 116.311 10.3896C116.312 10.6756 116.314 10.9615 116.315 11.2475C116.319 12.0313 116.318 12.8152 116.317 13.599C116.316 14.4452 116.319 15.2913 116.322 16.1375C116.326 17.7945 116.327 19.4515 116.327 21.1085C116.326 22.4556 116.327 23.8026 116.329 25.1497C116.329 25.5378 116.33 25.926 116.33 26.3141C116.33 26.6039 116.33 26.6039 116.331 26.8995C116.334 30.5529 116.334 34.2062 116.333 37.8595C116.332 41.2004 116.336 44.5412 116.343 47.8821C116.349 51.3137 116.352 54.7452 116.352 58.1768C116.351 60.1029 116.352 62.029 116.357 63.955C116.361 65.5949 116.362 67.2347 116.358 68.8746C116.356 69.7109 116.356 70.5472 116.36 71.3835C116.364 72.15 116.363 72.9163 116.359 73.6827C116.357 74.0895 116.361 74.4963 116.365 74.9031C116.347 76.7966 115.926 78.1025 114.766 79.5943C112.933 81.0199 111.061 80.9528 108.843 80.9328C108.484 80.9326 108.125 80.9327 107.767 80.9332C106.797 80.9334 105.827 80.9287 104.857 80.923C103.842 80.9179 102.827 80.9174 101.812 80.9164C99.8915 80.9139 97.9712 80.9072 96.0508 80.8991C93.8638 80.89 91.6767 80.8855 89.4897 80.8814C84.9925 80.8729 80.4953 80.8586 75.9981 80.8405C76.0676 81.0916 76.1371 81.3428 76.2088 81.6015C76.3008 81.9344 76.3929 82.2674 76.4849 82.6003C76.5306 82.7654 76.5764 82.9306 76.6235 83.1007C76.9827 84.4007 77.3259 85.7043 77.6566 87.0119C77.9003 87.9593 78.1836 88.8811 78.5107 89.803C78.6265 90.1992 78.6265 90.1992 78.6265 90.8095C78.7559 90.8063 78.8853 90.8031 79.0187 90.7998C79.6082 90.7871 80.1977 90.7792 80.7872 90.7714C81.0928 90.7637 81.0928 90.7637 81.4044 90.7559C83.3385 90.7366 83.3385 90.7366 84.0853 91.4199C84.7292 92.2287 84.7689 92.8796 84.755 93.8994C84.7542 94.1499 84.7534 94.4004 84.7526 94.6584C84.6918 95.2854 84.6918 95.2854 84.2875 95.6923C83.7838 95.7325 83.3025 95.7471 82.7986 95.744C82.6433 95.7446 82.488 95.7453 82.328 95.7459C81.8049 95.7476 81.2819 95.7463 80.7588 95.745C80.3849 95.7455 80.0111 95.7463 79.6372 95.7472C78.6196 95.749 77.6021 95.7483 76.5845 95.747C75.5216 95.746 74.4586 95.7469 73.3957 95.7476C71.6103 95.7483 69.825 95.7473 68.0397 95.7454C65.9732 95.7432 63.9067 95.7439 61.8401 95.7461C60.0685 95.748 58.2969 95.7482 56.5253 95.7472C55.466 95.7465 54.4067 95.7465 53.3474 95.7478C52.3518 95.749 51.3561 95.7482 50.3604 95.7458C49.9942 95.7453 49.6279 95.7454 49.2616 95.7463C48.7633 95.7474 48.265 95.746 47.7667 95.744C47.6203 95.7449 47.4738 95.7458 47.323 95.7468C46.324 95.7388 46.324 95.7388 45.8735 95.2854C45.588 92.6797 45.588 92.6796 46.2399 91.6742C46.9276 90.9624 47.3564 90.7589 48.3209 90.7253C48.5197 90.7174 48.7184 90.7095 48.9231 90.7014C49.2337 90.692 49.2337 90.692 49.5506 90.6824C49.76 90.6745 49.9694 90.6666 50.1852 90.6585C50.7023 90.6393 51.2194 90.6219 51.7367 90.6061C52.777 87.707 53.5215 84.755 54.2314 81.7584C54.365 81.2474 54.365 81.2474 54.5672 80.8405C54.3804 80.8414 54.1937 80.8423 54.0013 80.8433C49.4535 80.8659 44.9058 80.8826 40.358 80.8932C38.1587 80.8984 35.9594 80.9055 33.7601 80.9172C31.8428 80.9274 29.9255 80.9339 28.0081 80.9362C26.9932 80.9375 25.9785 80.9406 24.9637 80.948C24.0075 80.9549 23.0514 80.957 22.0951 80.9555C21.7452 80.9558 21.3952 80.9578 21.0453 80.9617C17.4721 80.9997 17.4721 80.9997 15.951 79.8232C14.8782 78.6731 14.284 77.5686 14.281 75.9685C14.2795 75.7245 14.2781 75.4805 14.2766 75.2291C14.2771 74.9618 14.2776 74.6945 14.2781 74.4191C14.2772 74.1317 14.2761 73.8442 14.2749 73.5568C14.272 72.767 14.2717 71.9772 14.2718 71.1874C14.2715 70.3356 14.2688 69.4838 14.2665 68.6319C14.2619 66.7694 14.2603 64.9068 14.2593 63.0442C14.2586 61.8811 14.2573 60.718 14.2558 59.555C14.2519 56.3346 14.2485 53.1142 14.248 49.8937C14.2479 49.6877 14.2479 49.4816 14.2478 49.2692C14.2478 48.8515 14.2477 48.4337 14.2476 48.0159C14.2476 47.8085 14.2475 47.6011 14.2475 47.3874C14.2475 47.1798 14.2474 46.9722 14.2474 46.7582C14.2467 43.3935 14.2412 40.0288 14.2337 36.6641C14.226 33.2093 14.222 29.7546 14.222 26.2998C14.2219 24.3602 14.2201 22.4206 14.2143 20.4809C14.2093 18.8294 14.2079 17.1778 14.2109 15.5263C14.2124 14.6838 14.2122 13.8414 14.2076 12.9989C14.2034 12.2271 14.204 11.4553 14.2082 10.6835C14.2092 10.2733 14.2053 9.86306 14.2012 9.45288C14.2171 7.71699 14.4955 6.47613 15.6934 5.1887C16.9193 3.99775 18.3686 3.63964 20.0356 3.65533Z" fill="white"/>
<path d="M40.6574 33.6836C40.5696 33.6836 40.4853 33.6836 40.4232 33.6836C40.3611 33.6836 40.3262 33.6836 40.3262 33.6836C40.3262 33.6836 40.3611 33.6836 40.4232 33.6836C40.4853 33.6836 40.5696 33.6836 40.6574 33.6836C40.7453 33.6836 40.8295 33.6836 40.8917 33.6836C40.9538 33.6836 40.9887 33.6836 40.9887 33.6836C40.9887 33.6836 40.9538 33.6836 40.8917 33.6836C40.8295 33.6836 40.7453 33.6836 40.6574 33.6836ZM45.2949 33.6836C45.2071 33.6836 45.1228 33.6836 45.0607 33.6836C44.9986 33.6836 44.9637 33.6836 44.9637 33.6836C44.9637 33.6836 44.9986 33.6836 45.0607 33.6836C45.1228 33.6836 45.2071 33.6836 45.2949 33.6836C45.3828 33.6836 45.467 33.6836 45.5292 33.6836C45.5913 33.6836 45.6262 33.6836 45.6262 33.6836C45.6262 33.6836 45.5913 33.6836 45.5292 33.6836C45.467 33.6836 45.3828 33.6836 45.2949 33.6836Z" fill="#A9023A"/>
<path d="M40.6574 33.6836C40.5696 33.6836 40.4853 33.6836 40.4232 33.6836C40.3611 33.6836 40.3262 33.6836 40.3262 33.6836C40.3262 33.6836 40.3611 33.6836 40.4232 33.6836C40.4853 33.6836 40.5696 33.6836 40.6574 33.6836C40.7453 33.6836 40.8295 33.6836 40.8917 33.6836C40.9538 33.6836 40.9887 33.6836 40.9887 33.6836C40.9887 33.6836 40.9538 33.6836 40.8917 33.6836C40.8295 33.6836 40.7453 33.6836 40.6574 33.6836ZM45.2949 33.6836C45.2071 33.6836 45.1228 33.6836 45.0607 33.6836C44.9986 33.6836 44.9637 33.6836 44.9637 33.6836C44.9637 33.6836 44.9986 33.6836 45.0607 33.6836C45.1228 33.6836 45.2071 33.6836 45.2949 33.6836C45.3828 33.6836 45.467 33.6836 45.5292 33.6836C45.5913 33.6836 45.6262 33.6836 45.6262 33.6836C45.6262 33.6836 45.5913 33.6836 45.5292 33.6836C45.467 33.6836 45.3828 33.6836 45.2949 33.6836Z" stroke="#A9023A" stroke-width="1.5" stroke-linecap="round" stroke-linejoin="round"/>
<path d="M42.5352 42.5166C46.1941 42.5166 49.1602 39.5506 49.1602 35.8916C49.1602 32.2326 46.1941 29.2666 42.5352 29.2666C38.8762 29.2666 35.9102 32.2326 35.9102 35.8916C35.9102 39.5506 38.8762 42.5166 42.5352 42.5166Z" stroke="#A9023A" stroke-width="1.5" stroke-linecap="round" stroke-linejoin="round"/>
<path d="M39.4434 38.1001C39.4434 38.1001 40.4739 37.2168 42.535 37.2168C44.5961 37.2168 45.6267 38.1001 45.6267 38.1001" stroke="#A9023A" stroke-width="1.5" stroke-linecap="round" stroke-linejoin="round"/>
<path d="M63.1992 33.6992C63.3105 33.6992 63.4173 33.7437 63.4961 33.8223C63.5748 33.901 63.619 34.0079 63.6191 34.1191C63.6191 34.2306 63.5749 34.3382 63.4961 34.417C63.4173 34.4955 63.3105 34.54 63.1992 34.54C63.0879 34.54 62.9811 34.4956 62.9023 34.417C62.8236 34.3382 62.7793 34.2306 62.7793 34.1191C62.7794 34.0079 62.8237 33.901 62.9023 33.8223C62.9811 33.7436 63.0879 33.6993 63.1992 33.6992ZM67.7998 33.6992C67.9112 33.6992 68.0189 33.7435 68.0977 33.8223C68.1763 33.9009 68.2206 34.0079 68.2207 34.1191C68.2207 34.2305 68.1764 34.3382 68.0977 34.417C68.0189 34.4958 67.9112 34.54 67.7998 34.54C67.6885 34.54 67.5816 34.4956 67.5029 34.417C67.4241 34.3382 67.3799 34.2306 67.3799 34.1191C67.38 34.0079 67.4242 33.901 67.5029 33.8223C67.5816 33.7436 67.6885 33.6993 67.7998 33.6992Z" fill="#A9023A" stroke="#A9023A"/>
<path d="M87.583 28.7988C91.5002 28.7989 94.6758 31.9744 94.6758 35.8916C94.6757 39.8088 91.5002 42.9843 87.583 42.9844C83.6658 42.9844 80.4903 39.8088 80.4902 35.8916C80.4902 31.9744 83.6658 28.7988 87.583 28.7988ZM87.583 29.3477C83.9692 29.3477 81.0391 32.2778 81.0391 35.8916C81.0391 39.5054 83.9692 42.4355 87.583 42.4355C91.1967 42.4355 94.1269 39.5053 94.127 35.8916C94.127 32.2778 91.1968 29.3477 87.583 29.3477ZM84.3135 37.7441C84.3781 37.7119 84.4529 37.7061 84.5215 37.7285C84.5729 37.7454 84.6182 37.7775 84.6514 37.8193L84.6807 37.8652L84.6816 37.8662L84.6855 37.874L84.6895 37.8809L84.707 37.9111L84.71 37.916C84.732 37.9519 84.7669 38.005 84.8154 38.0703V38.0713C84.9146 38.2032 85.0715 38.3818 85.2959 38.5615C85.7424 38.9185 86.4696 39.2881 87.583 39.2881C88.5573 39.2881 89.236 39.0058 89.6895 38.6963L89.8701 38.5625C90.0941 38.3829 90.2496 38.2036 90.3486 38.0713L90.3496 38.0723C90.3963 38.0109 90.439 37.9466 90.4775 37.8799V37.8789L90.4805 37.875L90.4854 37.8652C90.5184 37.8008 90.5757 37.7519 90.6445 37.7295C90.7135 37.7071 90.7888 37.7124 90.8535 37.7451C90.9182 37.7778 90.9674 37.8355 90.9902 37.9043C91.0125 37.9716 91.0071 38.0445 90.9766 38.1084L90.9727 38.1182L90.9717 38.1201L90.9707 38.1211C90.9569 38.1472 90.9423 38.1731 90.9268 38.1982L90.9258 38.1992C90.8841 38.2679 90.8384 38.3344 90.79 38.3984C90.6647 38.5638 90.5248 38.7175 90.3711 38.8564L90.2129 38.9902C89.6761 39.4199 88.8298 39.8369 87.583 39.8369C86.3362 39.8369 85.4899 39.4203 84.9531 38.9902L84.9521 38.9893C84.7901 38.8602 84.6409 38.7162 84.5059 38.5596L84.376 38.3994C84.3422 38.3546 84.3098 38.3088 84.2793 38.2617L84.1934 38.1172L84.1914 38.1133L84.1904 38.1123L84.1719 38.0615C84.1578 38.0097 84.1585 37.9541 84.1758 37.9023C84.1931 37.8507 84.2252 37.8054 84.2676 37.7725L84.3135 37.7441ZM85.4854 33.5195C85.697 33.5196 85.9001 33.6033 86.0498 33.7529C86.1996 33.9028 86.2842 34.1065 86.2842 34.3184C86.2841 34.5301 86.1996 34.733 86.0498 34.8828C85.9 35.0326 85.6971 35.1171 85.4854 35.1172C85.2735 35.1172 85.0698 35.0326 84.9199 34.8828C84.7703 34.7331 84.6866 34.5301 84.6865 34.3184C84.6865 34.1065 84.7701 33.9028 84.9199 33.7529C85.0698 33.6031 85.2735 33.5195 85.4854 33.5195ZM89.6807 33.5195C89.8926 33.5195 90.0963 33.6031 90.2461 33.7529C90.3959 33.9028 90.4795 34.1065 90.4795 34.3184C90.4794 34.53 90.3957 34.7331 90.2461 34.8828C90.0963 35.0326 89.8926 35.1172 89.6807 35.1172C89.4689 35.1171 89.266 35.0326 89.1162 34.8828C88.9664 34.733 88.8819 34.5302 88.8818 34.3184C88.8818 34.1065 88.9664 33.9028 89.1162 33.7529C89.266 33.6033 89.469 33.5196 89.6807 33.5195Z" fill="#A9023A" stroke="#A9023A" stroke-width="0.5"/>
<path d="M20.0356 3.65533C20.1952 3.65438 20.3549 3.65343 20.5194 3.65245C21.0528 3.65003 21.5861 3.65193 22.1195 3.65383C22.5064 3.65298 22.8933 3.65186 23.2802 3.65051C24.3422 3.64757 25.4042 3.64843 26.4663 3.64993C27.6121 3.65089 28.758 3.64835 29.9038 3.64627C32.1482 3.64277 34.3925 3.6426 36.6369 3.64366C38.461 3.64449 40.2852 3.64419 42.1093 3.64311C42.3689 3.64295 42.6284 3.6428 42.8958 3.64264C43.4231 3.64233 43.9504 3.64202 44.4777 3.64171C48.0183 3.63971 51.5589 3.63886 55.0995 3.64041C55.238 3.64047 55.3764 3.64053 55.519 3.64059C56.6431 3.64109 57.7672 3.64162 58.8912 3.64215C63.2755 3.64421 67.6598 3.64251 72.0441 3.63778C76.9712 3.63248 81.8983 3.62987 86.8255 3.63131C89.4338 3.63202 92.0421 3.63156 94.6504 3.628C96.8709 3.62501 99.0913 3.62488 101.312 3.62842C102.445 3.63016 103.577 3.63059 104.71 3.62748C105.748 3.62467 106.785 3.62562 107.822 3.62956C108.197 3.63033 108.572 3.62973 108.947 3.62761C113.025 3.60619 113.025 3.60619 114.696 4.93195C114.798 5.06072 114.901 5.18949 115.006 5.32216C115.112 5.44936 115.218 5.57655 115.327 5.7076C116.318 7.25996 116.319 8.57225 116.311 10.3896C116.312 10.6756 116.314 10.9615 116.315 11.2475C116.319 12.0313 116.318 12.8152 116.317 13.599C116.316 14.4452 116.319 15.2913 116.322 16.1375C116.326 17.7945 116.327 19.4515 116.327 21.1085C116.326 22.4556 116.327 23.8026 116.329 25.1497C116.329 25.5378 116.33 25.926 116.33 26.3141C116.33 26.6039 116.33 26.6039 116.331 26.8995C116.334 30.5529 116.334 34.2062 116.333 37.8595C116.332 41.2004 116.336 44.5412 116.343 47.8821C116.349 51.3137 116.352 54.7452 116.352 58.1768C116.351 60.1029 116.352 62.029 116.357 63.9551C116.361 65.5949 116.362 67.2347 116.358 68.8746C116.356 69.7109 116.356 70.5472 116.36 71.3835C116.364 72.15 116.363 72.9163 116.359 73.6827C116.357 74.0895 116.361 74.4963 116.365 74.9031C116.347 76.7966 115.926 78.1025 114.766 79.5943C112.933 81.0199 111.061 80.9528 108.843 80.9328C108.484 80.9326 108.125 80.9327 107.767 80.9332C106.797 80.9334 105.827 80.9287 104.857 80.923C103.842 80.9179 102.827 80.9174 101.812 80.9164C99.8915 80.9139 97.9712 80.9072 96.0508 80.8991C93.8638 80.89 91.6767 80.8855 89.4897 80.8814C84.9925 80.8729 80.4953 80.8586 75.9981 80.8405C76.0676 81.0916 76.1371 81.3428 76.2088 81.6015C76.3008 81.9344 76.3929 82.2674 76.4849 82.6003C76.5306 82.7655 76.5763 82.9306 76.6234 83.1007C76.9827 84.4007 77.3259 85.7043 77.6566 87.0119C77.9003 87.9594 78.1836 88.8811 78.5107 89.803C78.6265 90.1992 78.6265 90.1992 78.6265 90.8095C78.7559 90.8063 78.8854 90.8031 79.0187 90.7999C79.6082 90.7871 80.1977 90.7792 80.7872 90.7714C81.0928 90.7637 81.0928 90.7637 81.4044 90.7559C83.3385 90.7366 83.3385 90.7366 84.0853 91.4199C84.7292 92.2287 84.7689 92.8796 84.755 93.8994C84.7542 94.1499 84.7534 94.4004 84.7526 94.6584C84.6918 95.2854 84.6918 95.2854 84.2875 95.6923C83.7838 95.7325 83.3025 95.7471 82.7986 95.744C82.6433 95.7447 82.488 95.7453 82.328 95.7459C81.8049 95.7476 81.2819 95.7463 80.7588 95.745C80.3849 95.7456 80.0111 95.7463 79.6372 95.7472C78.6196 95.749 77.6021 95.7483 76.5845 95.747C75.5216 95.746 74.4586 95.7469 73.3957 95.7476C71.6103 95.7483 69.825 95.7473 68.0397 95.7454C65.9732 95.7432 63.9067 95.7439 61.8401 95.7461C60.0685 95.748 58.2969 95.7483 56.5253 95.7472C55.466 95.7466 54.4067 95.7465 53.3474 95.7478C52.3518 95.749 51.3561 95.7482 50.3604 95.7458C49.9942 95.7453 49.6279 95.7454 49.2616 95.7463C48.7633 95.7474 48.265 95.7461 47.7667 95.744C47.6203 95.7449 47.4738 95.7458 47.323 95.7468C46.324 95.7388 46.324 95.7388 45.8735 95.2854C45.588 92.6797 45.588 92.6797 46.2399 91.6742C46.9276 90.9624 47.3564 90.759 48.3209 90.7253C48.5197 90.7174 48.7184 90.7096 48.9231 90.7015C49.2337 90.692 49.2337 90.692 49.5506 90.6824C49.76 90.6745 49.9694 90.6666 50.1852 90.6585C50.7023 90.6394 51.2194 90.6219 51.7367 90.6061C52.777 87.707 53.5215 84.755 54.2314 81.7584C54.365 81.2474 54.365 81.2474 54.5672 80.8405C54.3804 80.8414 54.1937 80.8423 54.0013 80.8433C49.4535 80.8659 44.9058 80.8826 40.358 80.8932C38.1587 80.8984 35.9594 80.9055 33.7601 80.9172C31.8428 80.9274 29.9255 80.9339 28.0081 80.9362C26.9932 80.9375 25.9785 80.9406 24.9637 80.948C24.0075 80.9549 23.0514 80.957 22.0951 80.9555C21.7452 80.9558 21.3952 80.9578 21.0453 80.9617C17.4721 80.9997 17.4721 80.9997 15.951 79.8232C14.8782 78.6731 14.284 77.5686 14.281 75.9685C14.2795 75.7245 14.2781 75.4805 14.2766 75.2291C14.2771 74.9618 14.2776 74.6945 14.2781 74.4191C14.2772 74.1317 14.2761 73.8443 14.2749 73.5568C14.272 72.767 14.2717 71.9772 14.2718 71.1874C14.2715 70.3356 14.2688 69.4838 14.2665 68.6319C14.2619 66.7694 14.2603 64.9068 14.2593 63.0442C14.2586 61.8811 14.2573 60.718 14.2558 59.555C14.2519 56.3346 14.2485 53.1142 14.248 49.8937C14.2479 49.6877 14.2479 49.4816 14.2478 49.2692C14.2478 48.8515 14.2477 48.4337 14.2476 48.0159C14.2476 47.8085 14.2475 47.6011 14.2475 47.3874C14.2475 47.1798 14.2474 46.9722 14.2474 46.7582C14.2467 43.3935 14.2412 40.0288 14.2337 36.6641C14.226 33.2093 14.222 29.7546 14.222 26.2998C14.2219 24.3602 14.2201 22.4206 14.2143 20.4809C14.2093 18.8294 14.2079 17.1778 14.2109 15.5263C14.2124 14.6838 14.2122 13.8414 14.2076 12.9989C14.2034 12.2271 14.204 11.4553 14.2082 10.6835C14.2092 10.2733 14.2053 9.86306 14.2012 9.45288C14.2171 7.71699 14.4955 6.47613 15.6934 5.1887C16.9193 3.99775 18.3686 3.63964 20.0356 3.65533ZM19.388 8.81897C19.388 28.3563 19.388 47.8937 19.388 68.0231C49.6785 68.0231 79.9689 68.0231 111.177 68.0231C111.177 48.4857 111.177 28.9484 111.177 8.81897C80.8868 8.81897 50.5964 8.81897 19.388 8.81897Z" fill="#A9023A"/>
<path d="M15.9481 69.6504C48.507 69.6504 81.0659 69.6504 114.611 69.6504C114.611 76.5677 114.611 76.5677 113.803 78.1953C112.691 79.0854 111.827 79.2427 110.447 79.2399C110.288 79.2403 110.129 79.2408 109.966 79.2413C109.429 79.2427 108.893 79.2426 108.357 79.2425C107.97 79.2432 107.584 79.2439 107.197 79.2448C106.131 79.2468 105.065 79.2476 103.999 79.2481C102.851 79.2489 101.703 79.2508 100.555 79.2526C97.7805 79.2566 95.0062 79.2587 92.2318 79.2605C90.9263 79.2614 89.6208 79.2625 88.3153 79.2636C83.9775 79.267 79.6397 79.27 75.3018 79.2714C75.0213 79.2715 74.7407 79.2716 74.4601 79.2717C74.321 79.2718 74.1818 79.2718 74.0385 79.2719C73.3335 79.2721 72.6286 79.2724 71.9236 79.2726C71.7837 79.2727 71.6438 79.2727 71.4996 79.2728C66.9622 79.2744 62.4247 79.2791 57.8872 79.2857C53.0914 79.2927 48.2956 79.2967 43.4998 79.2974C40.8849 79.2978 38.2701 79.2996 35.6552 79.3048C33.429 79.3092 31.2027 79.3109 28.9765 79.3089C27.84 79.308 26.7036 79.3084 25.5672 79.3123C24.5275 79.3159 23.4878 79.3157 22.4481 79.3125C22.0713 79.312 21.6946 79.3129 21.3178 79.3153C20.8067 79.3184 20.2958 79.3165 19.7847 79.3133C19.6376 79.3153 19.4904 79.3174 19.3388 79.3196C18.3185 79.3056 17.7479 79.0376 16.959 78.3988C14.7182 75.9001 15.9481 73.6676 15.9481 69.6504Z" fill="white"/>
<path d="M19.9824 5.28237C20.1413 5.28142 20.3003 5.28047 20.4641 5.2795C20.9976 5.27706 21.531 5.27898 22.0644 5.28087C22.4505 5.28002 22.8365 5.27891 23.2225 5.27755C24.2839 5.2746 25.3453 5.27548 26.4068 5.27697C27.5512 5.27793 28.6957 5.27539 29.8401 5.27331C32.0825 5.26981 34.3249 5.26964 36.5673 5.27071C38.3896 5.27153 40.212 5.27124 42.0343 5.27015C42.2934 5.27 42.5526 5.26984 42.8196 5.26969C43.3461 5.26937 43.8726 5.26906 44.399 5.26875C47.9349 5.26675 51.4709 5.2659 55.0068 5.26745C55.1451 5.26751 55.2833 5.26757 55.4258 5.26763C56.5488 5.26813 57.6718 5.26866 58.7947 5.2692C63.1749 5.27125 67.555 5.26955 71.9352 5.26482C76.8561 5.25952 81.7769 5.25692 86.6978 5.25835C89.3034 5.25906 91.909 5.2586 94.5146 5.25505C96.7328 5.25205 98.951 5.25192 101.169 5.25547C102.301 5.2572 103.433 5.25763 104.565 5.25452C105.601 5.25171 106.637 5.25266 107.673 5.2566C108.048 5.25737 108.423 5.25676 108.798 5.25465C109.308 5.25198 109.817 5.25432 110.327 5.2579C110.473 5.25594 110.618 5.25398 110.768 5.25195C112.021 5.27004 113.058 5.66823 113.977 6.52153C114.738 7.74838 114.753 8.87036 114.734 10.2908C114.735 10.539 114.736 10.7871 114.737 11.0428C114.738 11.7281 114.735 12.4132 114.73 13.0986C114.726 13.8388 114.727 14.5791 114.728 15.3194C114.729 16.6008 114.725 17.8822 114.72 19.1637C114.712 21.0164 114.709 22.8691 114.708 24.7218C114.705 27.728 114.699 30.7341 114.689 33.7402C114.68 36.6598 114.673 39.5795 114.668 42.4991C114.668 42.6792 114.668 42.8592 114.668 43.0447C114.666 43.9481 114.665 44.8514 114.664 45.7548C114.653 53.2452 114.635 60.7356 114.613 68.226C114.012 68.226 113.412 68.226 112.793 68.226C112.793 68.0978 112.793 67.9695 112.792 67.8374C112.771 60.2467 112.75 52.656 112.726 45.0653C112.724 44.1549 112.721 43.2444 112.718 42.334C112.717 42.1527 112.717 41.9714 112.716 41.7847C112.707 38.8457 112.699 35.9068 112.691 32.9678C112.683 29.9545 112.674 26.9412 112.665 23.9278C112.659 22.0669 112.653 20.206 112.649 18.3451C112.645 17.0708 112.642 15.7964 112.637 14.5221C112.634 13.7858 112.632 13.0494 112.631 12.3131C112.629 11.5167 112.626 10.7203 112.623 9.92385C112.623 9.57089 112.623 9.57089 112.622 9.21079C112.621 8.9992 112.62 8.7876 112.619 8.56959C112.619 8.38549 112.618 8.20139 112.618 8.01172C112.637 7.59874 112.637 7.59874 112.389 7.39425C111.887 7.37415 111.391 7.36744 110.889 7.36922C110.73 7.36898 110.57 7.36875 110.406 7.3685C109.864 7.36796 109.322 7.36888 108.78 7.36978C108.391 7.3697 108.001 7.36952 107.611 7.36926C106.535 7.3688 105.459 7.36962 104.383 7.37064C103.225 7.37151 102.066 7.37122 100.908 7.37106C98.8993 7.37096 96.8905 7.3716 94.8818 7.37274C91.9775 7.37439 89.0731 7.37492 86.1688 7.37518C81.4572 7.37562 76.7457 7.37698 72.0341 7.3789C67.456 7.38077 62.8779 7.38221 58.2998 7.38307C58.012 7.38313 57.7243 7.38318 57.4366 7.38324C55.209 7.38366 52.9815 7.38406 50.7539 7.38445C39.8264 7.38637 28.8989 7.39046 17.9713 7.39425C17.9046 27.4687 17.8379 47.5432 17.7692 68.226C17.1687 68.226 16.5682 68.226 15.9496 68.226C15.9218 60.53 15.9004 52.834 15.8876 45.138C15.8861 44.2294 15.8845 43.3208 15.8829 42.4122C15.8826 42.2313 15.8823 42.0504 15.882 41.864C15.8767 38.9352 15.8671 36.0065 15.856 33.0777C15.8446 30.0724 15.8379 27.0671 15.8354 24.0618C15.8338 22.2074 15.8285 20.3531 15.8186 18.4988C15.8122 17.2271 15.8103 15.9555 15.8119 14.6838C15.8126 13.9501 15.8115 13.2165 15.8049 12.4829C15.7979 11.6869 15.8004 10.8911 15.8037 10.0951C15.8001 9.86395 15.7966 9.63279 15.793 9.39462C15.8074 8.11074 15.9765 7.30676 16.7839 6.29794C17.7735 5.44127 18.7132 5.2705 19.9824 5.28237Z" fill="white"/>
<path d="M56.185 80.8398C62.1897 80.8398 68.1944 80.8398 74.3811 80.8398C74.9475 82.8919 75.4993 84.9226 76.0025 86.9871C76.2552 87.9688 76.5516 88.9332 76.8609 89.8982C77.0094 90.402 77.0094 90.402 77.0094 90.8089C69.27 90.8089 61.5306 90.8089 53.5566 90.8089C53.8781 89.6228 54.1997 88.4394 54.535 87.2577C54.9891 85.6487 55.3853 84.0353 55.7288 82.3987C55.964 81.2845 55.964 81.2845 56.185 80.8398Z" fill="#FCFBFC"/>
<path d="M49.4685 92.1549C49.6792 92.1535 49.6792 92.1535 49.8941 92.152C50.3658 92.1496 50.8374 92.1515 51.3091 92.1534C51.6469 92.1526 51.9846 92.1515 52.3223 92.1502C53.2405 92.1474 54.1586 92.1485 55.0767 92.1504C56.0365 92.152 56.9963 92.1506 57.9561 92.1496C59.568 92.1485 61.1799 92.1499 62.7919 92.1529C64.6569 92.1562 66.5218 92.1551 68.3868 92.1517C69.9866 92.149 71.5863 92.1486 73.1861 92.1502C74.1422 92.1511 75.0983 92.1512 76.0544 92.1492C76.9532 92.1475 77.8519 92.1487 78.7507 92.1522C79.081 92.153 79.4113 92.1528 79.7417 92.1515C80.1917 92.1498 80.6415 92.1519 81.0915 92.1549C81.3437 92.1551 81.5958 92.1554 81.8555 92.1556C82.4652 92.2324 82.4652 92.2324 82.8544 92.4662C83.0718 92.8428 83.0718 92.8428 83.0718 94.0635C71.3292 94.0635 59.5867 94.0635 47.4883 94.0635C47.4883 92.8428 47.4883 92.8428 47.7057 92.4662C48.2941 92.1128 48.7867 92.1555 49.4685 92.1549Z" fill="#F4EBED"/>
<path d="M18.1738 6.98759C27.1917 6.98411 36.2096 6.98087 45.2275 6.97898C45.3609 6.97895 45.4943 6.97892 45.6317 6.97889C48.5296 6.97828 51.4276 6.97772 54.3255 6.9772C55.7465 6.97695 57.1676 6.97668 58.5886 6.97642C58.7301 6.97639 58.8715 6.97636 59.0172 6.97633C63.605 6.97547 68.1928 6.97394 72.7806 6.97207C77.6267 6.9701 82.4727 6.96888 87.3187 6.96845C90.2235 6.96817 93.1283 6.96728 96.0331 6.96564C98.0221 6.96456 100.011 6.96423 102 6.9645C103.149 6.96463 104.299 6.96442 105.448 6.96334C106.499 6.96236 107.549 6.96229 108.599 6.96299C108.981 6.96308 109.363 6.96282 109.745 6.96218C110.26 6.96138 110.776 6.9618 111.291 6.96256C111.518 6.96176 111.518 6.96176 111.749 6.96094C112.771 6.96437 112.771 6.96437 112.996 7.19104C113.015 7.51557 113.021 7.84098 113.021 8.16611C113.021 8.37841 113.021 8.59072 113.022 8.80946C113.021 9.04556 113.021 9.28166 113.02 9.52491C113.02 9.89779 113.02 9.89779 113.021 10.2782C113.021 10.9713 113.02 11.6644 113.019 12.3575C113.018 13.1038 113.019 13.8501 113.019 14.5963C113.019 15.8903 113.018 17.1843 113.017 18.4783C113.015 20.3493 113.015 22.2202 113.015 24.0911C113.014 27.1262 113.013 30.1614 113.011 33.1965C113.009 36.1456 113.008 39.0947 113.007 42.0438C113.007 42.3163 113.007 42.3163 113.007 42.5943C113.006 43.5055 113.006 44.4168 113.006 45.328C113.004 52.8929 113 60.4578 112.996 68.0228C113.463 68.0228 113.93 68.0228 114.411 68.0228C114.411 48.1497 114.411 28.2767 114.411 7.80139C114.478 7.80139 114.544 7.80139 114.613 7.80139C114.613 27.7416 114.613 47.6818 114.613 68.2262C114.013 68.2262 113.412 68.2262 112.794 68.2262C112.793 68.098 112.793 67.9698 112.793 67.8377C112.772 60.247 112.75 52.6563 112.727 45.0655C112.724 44.1551 112.721 43.2446 112.718 42.3342C112.718 42.1529 112.717 41.9717 112.717 41.7849C112.708 38.846 112.7 35.907 112.692 32.9681C112.683 29.9547 112.674 26.9414 112.665 23.9281C112.659 22.0672 112.654 20.2062 112.649 18.3453C112.646 17.071 112.642 15.7967 112.637 14.5224C112.635 13.786 112.633 13.0497 112.631 12.3133C112.63 11.5169 112.627 10.7205 112.623 9.92409C112.623 9.57113 112.623 9.57113 112.623 9.21103C112.622 8.99944 112.621 8.78784 112.619 8.56983C112.619 8.38573 112.618 8.20164 112.618 8.01196C112.637 7.59898 112.637 7.59898 112.389 7.39449C111.889 7.37335 111.394 7.36559 110.893 7.36628C110.734 7.3657 110.574 7.36512 110.41 7.36453C109.87 7.36282 109.329 7.36257 108.788 7.3623C108.399 7.36137 108.011 7.36036 107.622 7.35926C106.548 7.35648 105.474 7.35498 104.401 7.35368C103.245 7.35206 102.089 7.34927 100.933 7.34662C98.9284 7.34218 96.924 7.33849 94.9195 7.3353C92.0214 7.33069 89.1233 7.32497 86.2252 7.31896C81.5237 7.30925 76.8223 7.30045 72.1208 7.29222C67.5525 7.28422 62.9842 7.27579 58.4159 7.26679C58.2751 7.26651 58.1344 7.26623 57.9894 7.26595C56.5761 7.26317 55.1628 7.26037 53.7495 7.25757C41.891 7.23409 30.0324 7.21206 18.1738 7.19104C18.1738 7.1239 18.1738 7.05676 18.1738 6.98759Z" fill="#DFBCC3"/>
<path d="M66.7343 71.6206C67.6502 72.1242 68.1831 72.7136 68.516 73.7187C68.6335 74.9241 68.4213 75.8057 67.7073 76.7704C66.9969 77.4252 66.2513 77.8418 65.2812 77.9148C64.3105 77.8418 63.5665 77.4246 62.855 76.7704C62.219 75.9272 61.8837 74.9894 61.9421 73.9261C62.2156 72.8479 62.9632 72.0905 63.8533 71.4807C64.9165 71.1313 65.7221 71.1557 66.7343 71.6206Z" fill="#A9023A"/>
<path d="M65.2786 72.7783C66.1024 72.951 66.3995 73.2467 66.896 73.9227C67.035 74.5331 67.035 74.5331 66.896 75.1434C66.3498 75.7314 65.949 76.0954 65.1649 76.2878C64.424 76.0967 64.1191 75.7491 63.6612 75.1434C63.5348 74.5331 63.5348 74.5331 63.6612 73.9227C64.1577 73.2467 64.4549 72.951 65.2786 72.7783Z" fill="#F7F2F5"/>
<path d="M112.186 6.9873C112.452 7.05444 112.719 7.12158 112.994 7.19076C112.994 13.0318 112.994 18.8729 112.994 24.891C112.928 24.891 112.861 24.891 112.792 24.891C112.79 24.6757 112.789 24.4604 112.787 24.2385C112.771 22.2118 112.754 20.185 112.734 18.1583C112.724 17.1163 112.714 16.0742 112.707 15.0322C112.699 14.027 112.69 13.0218 112.679 12.0166C112.676 11.6327 112.672 11.2488 112.67 10.8648C112.667 10.328 112.661 9.79123 112.654 9.25442C112.654 9.09491 112.653 8.9354 112.653 8.77105C112.641 8.00133 112.62 7.64352 112.186 6.9873Z" fill="#E3CFD5"/>
<path d="M65.8852 71.2784C65.9519 71.4127 66.0186 71.547 66.0874 71.6853C65.9701 71.6906 65.8528 71.6958 65.732 71.7012C64.5971 71.7842 63.9465 71.9892 63.0547 72.7026C63.0547 72.5012 63.0547 72.2998 63.0547 72.0922C64.0605 71.4312 64.6483 71.1768 65.8852 71.2784Z" fill="#B54F64"/>
<path d="M112.186 6.9873C112.452 7.05444 112.719 7.12158 112.994 7.19076C112.994 7.99642 112.994 8.80208 112.994 9.63216C112.928 9.63216 112.861 9.63216 112.792 9.63216C112.777 9.42248 112.777 9.42248 112.762 9.20857C112.747 9.02525 112.732 8.84193 112.716 8.65306C112.702 8.47131 112.688 8.28956 112.674 8.10231C112.617 7.54802 112.617 7.54802 112.186 6.9873Z" fill="#E6D9E0"/>
<rect x="1" y="49.5" width="30.5444" height="54.1475" rx="6" fill="white" stroke="#A9023A" stroke-width="2"/>
<rect x="5.22852" y="57.6963" width="22.0913" height="38.1639" rx="1" stroke="#A9023A" stroke-width="2"/>
<path d="M21.1328 53.8281H12.2568" stroke="#A9023A" stroke-width="2" stroke-linecap="round"/>
<path d="M19.4434 99.7295H12.6809" stroke="#A9023A" stroke-width="2" stroke-linecap="round"/>
<g clip-path="url(#clip0_320_28)">
<path d="M15.6875 64C15.6378 64 15.5901 64 15.5549 64C15.5198 64 15.5 64 15.5 64C15.5 64 15.5198 64 15.5549 64C15.5901 64 15.6378 64 15.6875 64C15.7372 64 15.7849 64 15.8201 64C15.8552 64 15.875 64 15.875 64C15.875 64 15.8552 64 15.8201 64C15.7849 64 15.7372 64 15.6875 64ZM18.3125 64C18.2628 64 18.2151 64 18.1799 64C18.1448 64 18.125 64 18.125 64C18.125 64 18.1448 64 18.1799 64C18.2151 64 18.2628 64 18.3125 64C18.3622 64 18.4099 64 18.4451 64C18.4802 64 18.5 64 18.5 64C18.5 64 18.4802 64 18.4451 64C18.4099 64 18.3622 64 18.3125 64Z" fill="#A9023A"/>
<path d="M15.6875 64C15.6378 64 15.5901 64 15.5549 64C15.5198 64 15.5 64 15.5 64C15.5 64 15.5198 64 15.5549 64C15.5901 64 15.6378 64 15.6875 64C15.7372 64 15.7849 64 15.8201 64C15.8552 64 15.875 64 15.875 64C15.875 64 15.8552 64 15.8201 64C15.7849 64 15.7372 64 15.6875 64ZM18.3125 64C18.2628 64 18.2151 64 18.1799 64C18.1448 64 18.125 64 18.125 64C18.125 64 18.1448 64 18.1799 64C18.2151 64 18.2628 64 18.3125 64C18.3622 64 18.4099 64 18.4451 64C18.4802 64 18.5 64 18.5 64C18.5 64 18.4802 64 18.4451 64C18.4099 64 18.3622 64 18.3125 64Z" stroke="#A9023A" stroke-linecap="round" stroke-linejoin="round"/>
<path d="M16.75 69C18.8211 69 20.5 67.3211 20.5 65.25C20.5 63.1789 18.8211 61.5 16.75 61.5C14.6789 61.5 13 63.1789 13 65.25C13 67.3211 14.6789 69 16.75 69Z" stroke="#A9023A" stroke-width="0.5" stroke-linecap="round" stroke-linejoin="round"/>
<path d="M15 67C15 67 15.5833 66.5 16.75 66.5C17.9167 66.5 18.5 67 18.5 67" stroke="#A9023A" stroke-width="0.5" stroke-linecap="round" stroke-linejoin="round"/>
</g>
<mask id="path-27-inside-1_320_28" fill="white">
<path d="M15.5664 76.7187C15.699 76.7187 15.8262 76.6661 15.92 76.5723C16.0137 76.4785 16.0664 76.3514 16.0664 76.2187C16.0664 76.0861 16.0137 75.959 15.92 75.8652C15.8262 75.7714 15.699 75.7187 15.5664 75.7187C15.4338 75.7187 15.3066 75.7714 15.2129 75.8652C15.1191 75.959 15.0664 76.0861 15.0664 76.2187C15.0664 76.3514 15.1191 76.4785 15.2129 76.5723C15.3066 76.6661 15.4338 76.7187 15.5664 76.7187ZM18.5664 76.2187C18.5664 76.3514 18.5137 76.4785 18.42 76.5723C18.3262 76.6661 18.199 76.7187 18.0664 76.7187C17.9338 76.7187 17.8066 76.6661 17.7129 76.5723C17.6191 76.4785 17.5664 76.3514 17.5664 76.2187C17.5664 76.0861 17.6191 75.959 17.7129 75.8652C17.8066 75.7714 17.9338 75.7187 18.0664 75.7187C18.199 75.7187 18.3262 75.7714 18.42 75.8652C18.5137 75.959 18.5664 76.0861 18.5664 76.2187ZM15.0664 77.9687C15.0001 77.9687 14.9365 77.9951 14.8896 78.042C14.8427 78.0889 14.8164 78.1524 14.8164 78.2187C14.8164 78.2851 14.8427 78.3486 14.8896 78.3955C14.9365 78.4424 15.0001 78.4687 15.0664 78.4687H18.5664C18.6327 78.4687 18.6963 78.4424 18.7432 78.3955C18.7901 78.3486 18.8164 78.2851 18.8164 78.2187C18.8164 78.1524 18.7901 78.0889 18.7432 78.042C18.6963 77.9951 18.6327 77.9687 18.5664 77.9687H15.0664ZM12.8164 76.9687C12.8164 75.9079 13.2378 74.8905 13.988 74.1403C14.7381 73.3902 15.7555 72.9688 16.8164 72.9688C17.8773 72.9688 18.8947 73.3902 19.6448 74.1403C20.395 74.8905 20.8164 75.9079 20.8164 76.9687C20.8164 78.0296 20.395 79.047 19.6448 79.7972C18.8947 80.5473 17.8773 80.9687 16.8164 80.9687C15.7555 80.9687 14.7381 80.5473 13.988 79.7972C13.2378 79.047 12.8164 78.0296 12.8164 76.9687ZM16.8164 73.4687C16.3568 73.4687 15.9017 73.5593 15.477 73.7352C15.0524 73.9111 14.6665 74.1689 14.3415 74.4939C14.0165 74.8189 13.7587 75.2047 13.5828 75.6294C13.4069 76.054 13.3164 76.5091 13.3164 76.9687C13.3164 77.4284 13.4069 77.8835 13.5828 78.3081C13.7587 78.7328 14.0165 79.1186 14.3415 79.4436C14.6665 79.7686 15.0524 80.0264 15.477 80.2023C15.9017 80.3782 16.3568 80.4687 16.8164 80.4687C17.7447 80.4687 18.6349 80.1 19.2913 79.4436C19.9477 78.7872 20.3164 77.897 20.3164 76.9687C20.3164 76.0405 19.9477 75.1503 19.2913 74.4939C18.6349 73.8375 17.7447 73.4687 16.8164 73.4687Z"/>
</mask>
<path d="M15.5664 76.7187C15.699 76.7187 15.8262 76.6661 15.92 76.5723C16.0137 76.4785 16.0664 76.3514 16.0664 76.2187C16.0664 76.0861 16.0137 75.959 15.92 75.8652C15.8262 75.7714 15.699 75.7187 15.5664 75.7187C15.4338 75.7187 15.3066 75.7714 15.2129 75.8652C15.1191 75.959 15.0664 76.0861 15.0664 76.2187C15.0664 76.3514 15.1191 76.4785 15.2129 76.5723C15.3066 76.6661 15.4338 76.7187 15.5664 76.7187ZM18.5664 76.2187C18.5664 76.3514 18.5137 76.4785 18.42 76.5723C18.3262 76.6661 18.199 76.7187 18.0664 76.7187C17.9338 76.7187 17.8066 76.6661 17.7129 76.5723C17.6191 76.4785 17.5664 76.3514 17.5664 76.2187C17.5664 76.0861 17.6191 75.959 17.7129 75.8652C17.8066 75.7714 17.9338 75.7187 18.0664 75.7187C18.199 75.7187 18.3262 75.7714 18.42 75.8652C18.5137 75.959 18.5664 76.0861 18.5664 76.2187ZM15.0664 77.9687C15.0001 77.9687 14.9365 77.9951 14.8896 78.042C14.8427 78.0889 14.8164 78.1524 14.8164 78.2187C14.8164 78.2851 14.8427 78.3486 14.8896 78.3955C14.9365 78.4424 15.0001 78.4687 15.0664 78.4687H18.5664C18.6327 78.4687 18.6963 78.4424 18.7432 78.3955C18.7901 78.3486 18.8164 78.2851 18.8164 78.2187C18.8164 78.1524 18.7901 78.0889 18.7432 78.042C18.6963 77.9951 18.6327 77.9687 18.5664 77.9687H15.0664ZM12.8164 76.9687C12.8164 75.9079 13.2378 74.8905 13.988 74.1403C14.7381 73.3902 15.7555 72.9688 16.8164 72.9688C17.8773 72.9688 18.8947 73.3902 19.6448 74.1403C20.395 74.8905 20.8164 75.9079 20.8164 76.9687C20.8164 78.0296 20.395 79.047 19.6448 79.7972C18.8947 80.5473 17.8773 80.9687 16.8164 80.9687C15.7555 80.9687 14.7381 80.5473 13.988 79.7972C13.2378 79.047 12.8164 78.0296 12.8164 76.9687ZM16.8164 73.4687C16.3568 73.4687 15.9017 73.5593 15.477 73.7352C15.0524 73.9111 14.6665 74.1689 14.3415 74.4939C14.0165 74.8189 13.7587 75.2047 13.5828 75.6294C13.4069 76.054 13.3164 76.5091 13.3164 76.9687C13.3164 77.4284 13.4069 77.8835 13.5828 78.3081C13.7587 78.7328 14.0165 79.1186 14.3415 79.4436C14.6665 79.7686 15.0524 80.0264 15.477 80.2023C15.9017 80.3782 16.3568 80.4687 16.8164 80.4687C17.7447 80.4687 18.6349 80.1 19.2913 79.4436C19.9477 78.7872 20.3164 77.897 20.3164 76.9687C20.3164 76.0405 19.9477 75.1503 19.2913 74.4939C18.6349 73.8375 17.7447 73.4687 16.8164 73.4687Z" fill="#A9023A"/>
<path d="M18.0664 75.7187V76.7187V75.7187ZM12.8164 76.9687H11.8164H12.8164ZM16.8164 72.9688V71.9688V72.9688ZM20.8164 76.9687H21.8164H20.8164ZM16.8164 80.9687V81.9688V80.9687ZM13.3164 76.9687H12.3164H13.3164ZM16.8164 80.4687V79.4687V80.4687ZM20.3164 76.9687H19.3164H20.3164ZM15.5664 76.7187V77.7188C15.9642 77.7188 16.3458 77.5607 16.6271 77.2794L15.92 76.5723L15.2129 75.8652C15.3066 75.7714 15.4338 75.7187 15.5664 75.7187V76.7187ZM15.92 76.5723L16.6271 77.2794C16.9084 76.9981 17.0664 76.6166 17.0664 76.2187H16.0664H15.0664C15.0664 76.0861 15.1191 75.959 15.2129 75.8652L15.92 76.5723ZM16.0664 76.2187H17.0664C17.0664 75.8209 16.9084 75.4394 16.6271 75.1581L15.92 75.8652L15.2129 76.5723C15.1191 76.4785 15.0664 76.3514 15.0664 76.2187H16.0664ZM15.92 75.8652L16.6271 75.1581C16.3458 74.8768 15.9642 74.7187 15.5664 74.7187V75.7187V76.7187C15.4338 76.7187 15.3066 76.6661 15.2129 76.5723L15.92 75.8652ZM15.5664 75.7187V74.7187C15.1686 74.7187 14.7871 74.8768 14.5057 75.1581L15.2129 75.8652L15.92 76.5723C15.8262 76.6661 15.699 76.7187 15.5664 76.7187V75.7187ZM15.2129 75.8652L14.5057 75.1581C14.2244 75.4394 14.0664 75.8209 14.0664 76.2187H15.0664H16.0664C16.0664 76.3514 16.0137 76.4785 15.92 76.5723L15.2129 75.8652ZM15.0664 76.2187H14.0664C14.0664 76.6166 14.2244 76.9981 14.5057 77.2794L15.2129 76.5723L15.92 75.8652C16.0137 75.959 16.0664 76.0861 16.0664 76.2187H15.0664ZM15.2129 76.5723L14.5057 77.2794C14.7871 77.5607 15.1686 77.7188 15.5664 77.7188V76.7187V75.7187C15.699 75.7187 15.8262 75.7714 15.92 75.8652L15.2129 76.5723ZM18.5664 76.2187H17.5664C17.5664 76.0861 17.6191 75.959 17.7129 75.8652L18.42 76.5723L19.1271 77.2794C19.4084 76.9981 19.5664 76.6166 19.5664 76.2187H18.5664ZM18.42 76.5723L17.7129 75.8652C17.8066 75.7714 17.9338 75.7187 18.0664 75.7187V76.7187V77.7188C18.4642 77.7188 18.8458 77.5607 19.1271 77.2794L18.42 76.5723ZM18.0664 76.7187V75.7187C18.199 75.7187 18.3262 75.7714 18.42 75.8652L17.7129 76.5723L17.0057 77.2794C17.287 77.5607 17.6686 77.7188 18.0664 77.7188V76.7187ZM17.7129 76.5723L18.42 75.8652C18.5137 75.959 18.5664 76.0861 18.5664 76.2187H17.5664H16.5664C16.5664 76.6166 16.7244 76.9981 17.0057 77.2794L17.7129 76.5723ZM17.5664 76.2187H18.5664C18.5664 76.3514 18.5137 76.4785 18.42 76.5723L17.7129 75.8652L17.0057 75.1581C16.7244 75.4394 16.5664 75.8209 16.5664 76.2187H17.5664ZM17.7129 75.8652L18.42 76.5723C18.3262 76.6661 18.199 76.7187 18.0664 76.7187V75.7187V74.7187C17.6686 74.7187 17.287 74.8768 17.0057 75.1581L17.7129 75.8652ZM18.0664 75.7187V76.7187C17.9338 76.7187 17.8066 76.6661 17.7129 76.5723L18.42 75.8652L19.1271 75.1581C18.8458 74.8768 18.4642 74.7187 18.0664 74.7187V75.7187ZM18.42 75.8652L17.7129 76.5723C17.6191 76.4785 17.5664 76.3514 17.5664 76.2187H18.5664H19.5664C19.5664 75.8209 19.4084 75.4394 19.1271 75.1581L18.42 75.8652ZM15.0664 77.9687V76.9687C14.7349 76.9687 14.4169 77.1004 14.1825 77.3349L14.8896 78.042L15.5967 78.7491C15.4561 78.8897 15.2653 78.9687 15.0664 78.9687V77.9687ZM14.8896 78.042L14.1825 77.3349C13.9481 77.5693 13.8164 77.8872 13.8164 78.2187H14.8164H15.8164C15.8164 78.4177 15.7374 78.6084 15.5967 78.7491L14.8896 78.042ZM14.8164 78.2187H13.8164C13.8164 78.5503 13.9481 78.8682 14.1825 79.1026L14.8896 78.3955L15.5967 77.6884C15.7374 77.8291 15.8164 78.0198 15.8164 78.2187H14.8164ZM14.8896 78.3955L14.1825 79.1026C14.4169 79.3371 14.7349 79.4687 15.0664 79.4687V78.4687V77.4687C15.2653 77.4687 15.4561 77.5478 15.5967 77.6884L14.8896 78.3955ZM15.0664 78.4687V79.4687H18.5664V78.4687V77.4687H15.0664V78.4687ZM18.5664 78.4687V79.4687C18.8979 79.4687 19.2159 79.3371 19.4503 79.1026L18.7432 78.3955L18.0361 77.6884C18.1767 77.5478 18.3675 77.4687 18.5664 77.4687V78.4687ZM18.7432 78.3955L19.4503 79.1026C19.6847 78.8682 19.8164 78.5503 19.8164 78.2187H18.8164H17.8164C17.8164 78.0198 17.8954 77.8291 18.0361 77.6884L18.7432 78.3955ZM18.8164 78.2187H19.8164C19.8164 77.8872 19.6847 77.5693 19.4503 77.3349L18.7432 78.042L18.0361 78.7491C17.8954 78.6084 17.8164 78.4177 17.8164 78.2187H18.8164ZM18.7432 78.042L19.4503 77.3349C19.2159 77.1004 18.8979 76.9687 18.5664 76.9687V77.9687V78.9687C18.3675 78.9687 18.1767 78.8897 18.0361 78.7491L18.7432 78.042ZM18.5664 77.9687V76.9687H15.0664V77.9687V78.9687H18.5664V77.9687ZM12.8164 76.9687H13.8164C13.8164 76.1731 14.1325 75.41 14.6951 74.8474L13.988 74.1403L13.2809 73.4332C12.3432 74.3709 11.8164 75.6427 11.8164 76.9687H12.8164ZM13.988 74.1403L14.6951 74.8474C15.2577 74.2848 16.0208 73.9688 16.8164 73.9688V72.9688V71.9688C15.4903 71.9688 14.2186 72.4955 13.2809 73.4332L13.988 74.1403ZM16.8164 72.9688V73.9688C17.6121 73.9688 18.3751 74.2848 18.9377 74.8474L19.6448 74.1403L20.3519 73.4332C19.4143 72.4955 18.1425 71.9688 16.8164 71.9688V72.9688ZM19.6448 74.1403L18.9377 74.8474C19.5003 75.41 19.8164 76.1731 19.8164 76.9687H20.8164H21.8164C21.8164 75.6427 21.2896 74.3709 20.3519 73.4332L19.6448 74.1403ZM20.8164 76.9687H19.8164C19.8164 77.7644 19.5003 78.5275 18.9377 79.0901L19.6448 79.7972L20.3519 80.5043C21.2896 79.5666 21.8164 78.2948 21.8164 76.9687H20.8164ZM19.6448 79.7972L18.9377 79.0901C18.3751 79.6527 17.6121 79.9687 16.8164 79.9687V80.9687V81.9688C18.1425 81.9687 19.4143 81.442 20.3519 80.5043L19.6448 79.7972ZM16.8164 80.9687V79.9687C16.0208 79.9687 15.2577 79.6527 14.6951 79.0901L13.988 79.7972L13.2809 80.5043C14.2186 81.442 15.4903 81.9687 16.8164 81.9688V80.9687ZM13.988 79.7972L14.6951 79.0901C14.1325 78.5275 13.8164 77.7644 13.8164 76.9687H12.8164H11.8164C11.8164 78.2948 12.3432 79.5666 13.2809 80.5043L13.988 79.7972ZM16.8164 73.4687V72.4688C16.2255 72.4687 15.6403 72.5851 15.0943 72.8113L15.477 73.7352L15.8597 74.6591C16.163 74.5334 16.4881 74.4688 16.8164 74.4688V73.4687ZM15.477 73.7352L15.0943 72.8113C14.5484 73.0374 14.0523 73.3689 13.6344 73.7868L14.3415 74.4939L15.0486 75.201C15.2808 74.9688 15.5564 74.7847 15.8597 74.6591L15.477 73.7352ZM14.3415 74.4939L13.6344 73.7868C13.2166 74.2046 12.8851 74.7007 12.6589 75.2467L13.5828 75.6294L14.5067 76.012C14.6323 75.7087 14.8165 75.4331 15.0486 75.201L14.3415 74.4939ZM13.5828 75.6294L12.6589 75.2467C12.4328 75.7926 12.3164 76.3778 12.3164 76.9687H13.3164H14.3164C14.3164 76.6404 14.3811 76.3154 14.5067 76.012L13.5828 75.6294ZM13.3164 76.9687H12.3164C12.3164 77.5597 12.4328 78.1449 12.6589 78.6908L13.5828 78.3081L14.5067 77.9255C14.3811 77.6221 14.3164 77.2971 14.3164 76.9687H13.3164ZM13.5828 78.3081L12.6589 78.6908C12.8851 79.2368 13.2166 79.7329 13.6344 80.1507L14.3415 79.4436L15.0486 78.7365C14.8165 78.5044 14.6323 78.2288 14.5067 77.9255L13.5828 78.3081ZM14.3415 79.4436L13.6344 80.1507C14.0523 80.5686 14.5484 80.9001 15.0943 81.1262L15.477 80.2023L15.8597 79.2784C15.5564 79.1528 15.2808 78.9687 15.0486 78.7365L14.3415 79.4436ZM15.477 80.2023L15.0943 81.1262C15.6403 81.3524 16.2255 81.4688 16.8164 81.4688V80.4687V79.4687C16.4881 79.4687 16.163 79.4041 15.8597 79.2784L15.477 80.2023ZM16.8164 80.4687V81.4688C18.0099 81.4688 19.1545 80.9946 19.9984 80.1507L19.2913 79.4436L18.5842 78.7365C18.1153 79.2054 17.4794 79.4687 16.8164 79.4687V80.4687ZM19.2913 79.4436L19.9984 80.1507C20.8423 79.3068 21.3164 78.1622 21.3164 76.9687H20.3164H19.3164C19.3164 77.6318 19.053 78.2677 18.5842 78.7365L19.2913 79.4436ZM20.3164 76.9687H21.3164C21.3164 75.7753 20.8423 74.6307 19.9984 73.7868L19.2913 74.4939L18.5842 75.201C19.053 75.6698 19.3164 76.3057 19.3164 76.9687H20.3164ZM19.2913 74.4939L19.9984 73.7868C19.1545 72.9429 18.0099 72.4688 16.8164 72.4688V73.4687V74.4688C17.4794 74.4688 18.1153 74.7321 18.5842 75.201L19.2913 74.4939Z" fill="#A9023A" mask="url(#path-27-inside-1_320_28)"/>
<path d="M16.9375 85.75C18.9741 85.75 20.625 87.4009 20.625 89.4375C20.625 91.4741 18.9741 93.125 16.9375 93.125C14.9009 93.125 13.25 91.4741 13.25 89.4375C13.25 87.4009 14.9009 85.75 16.9375 85.75ZM16.9375 85.8125C14.9356 85.8125 13.3125 87.4356 13.3125 89.4375C13.3125 91.4394 14.9356 93.0625 16.9375 93.0625C18.9394 93.0625 20.5625 91.4394 20.5625 89.4375C20.5625 87.4356 18.9394 85.8125 16.9375 85.8125ZM18.6152 90.5332C18.623 90.5307 18.6314 90.5315 18.6387 90.5352C18.6459 90.5388 18.6516 90.5451 18.6543 90.5527C18.6566 90.5597 18.656 90.5674 18.6533 90.5742L18.6523 90.5771L18.6514 90.5791C18.6452 90.5907 18.6387 90.6021 18.6318 90.6133L18.6309 90.6152L18.5654 90.7119C18.5236 90.7672 18.478 90.8196 18.4297 90.8691L18.2754 91.0088C18.0066 91.2239 17.5779 91.4375 16.9375 91.4375C16.2971 91.4375 15.8683 91.2241 15.5996 91.0088V91.0078L15.4453 90.8691C15.397 90.8197 15.3514 90.7671 15.3096 90.7119C15.2778 90.6697 15.2493 90.6252 15.2236 90.5791L15.2227 90.5762L15.2207 90.5527C15.2233 90.545 15.2282 90.5379 15.2354 90.5342L15.2363 90.5352C15.2437 90.5315 15.2519 90.5306 15.2598 90.5332C15.2673 90.5357 15.2736 90.5409 15.2773 90.5479L15.2812 90.5557L15.2861 90.5625L15.2949 90.5791L15.2979 90.584C15.3114 90.606 15.3322 90.637 15.3604 90.6748L15.3613 90.6758C15.4048 90.7337 15.4662 90.8065 15.5488 90.8828L15.6387 90.96C15.8972 91.1666 16.3123 91.375 16.9375 91.375C17.4847 91.375 17.8707 91.2152 18.1318 91.0371L18.2363 90.96C18.3656 90.8563 18.4566 90.7526 18.5146 90.6748L18.5137 90.6738C18.541 90.6377 18.5672 90.6008 18.5898 90.5615L18.5908 90.5605L18.5967 90.5488C18.6004 90.5415 18.6074 90.5358 18.6152 90.5332ZM15.8125 88.2812C15.8954 88.2812 15.9746 88.3144 16.0332 88.373C16.0918 88.4317 16.125 88.5109 16.125 88.5938C16.125 88.6766 16.0918 88.7558 16.0332 88.8145C15.9746 88.8731 15.8954 88.9062 15.8125 88.9062C15.7296 88.9062 15.6504 88.8731 15.5918 88.8145C15.5332 88.7558 15.5 88.6766 15.5 88.5938C15.5 88.5109 15.5332 88.4317 15.5918 88.373C15.6504 88.3144 15.7296 88.2812 15.8125 88.2812ZM18.0625 88.2812C18.1454 88.2812 18.2246 88.3144 18.2832 88.373C18.3418 88.4317 18.375 88.5109 18.375 88.5938C18.375 88.6766 18.3418 88.7558 18.2832 88.8145C18.2246 88.8731 18.1454 88.9062 18.0625 88.9062C17.9796 88.9062 17.9004 88.8731 17.8418 88.8145C17.7832 88.7558 17.75 88.6766 17.75 88.5938C17.75 88.5109 17.7832 88.4317 17.8418 88.373C17.9004 88.3144 17.9796 88.2812 18.0625 88.2812Z" fill="#A9023A" stroke="#A9023A" stroke-width="0.5"/>
<defs>
<clipPath id="clip0_320_28">
<rect width="9.5" height="9.5" fill="white" transform="translate(12 60.5)"/>
</clipPath>
</defs>
</svg>
