<svg width="175" height="156" viewBox="0 0 175 156" fill="none" xmlns="http://www.w3.org/2000/svg">
<path d="M0.100006 154.85C2.70001 151.65 4.90001 148.85 7.20001 146.05C19 131.45 30.8 116.85 42.6 102.25C49 94.35 55.4 86.45 61.8 78.55C62.6 77.65 62.5 77.05 61.8 76.25C49.6 61.25 37.4 46.15 25.3 31.15C17.3 21.25 9.3 11.35 1.3 1.45001C1 1.15001 0.500012 0.850005 0.700012 0.350005C0.900012 -0.149995 1.5 0.150002 2 0.0500015C4.6 0.0500015 7.30001 0.0500015 9.90001 0.0500015C11.1 0.0500015 11.8 0.449998 12.5 1.25C18.9 9.25 25.3 17.15 31.7 25.15C41.4 37.15 51.1 49.25 60.9 61.25C61.2 61.65 61.4 61.95 61.7 62.35C61.9 62.35 62.1 62.25 62.2 62.15C62.2 60.15 62.1 58.15 62.2 56.15C62.4 53.95 61.6 52.35 60.2 50.65C46.9 34.35 33.8 17.95 20.6 1.65001C20.3 1.25001 19.6 0.950011 19.9 0.450011C20.1 -0.0499893 20.8 0.150008 21.3 0.150008C23.8 0.150008 26.3 0.150008 28.8 0.150008C30.1 0.150008 30.9 0.550011 31.7 1.45001C38.1 9.45001 44.5 17.35 50.9 25.35C54.3 29.65 57.8 33.85 61.2 38.15C61.3 38.35 61.5 38.45 62 38.75C62 35.45 62.1 32.45 62 29.35C62 28.45 60.8 27.55 60.1 26.75C53.3 18.35 46.5 9.95 39.7 1.55C39.4 1.15 38.8 0.849998 39.1 0.249998C39.3 -0.150002 39.9 0.0500015 40.4 0.0500015C42.7 0.0500015 45 0.150002 47.3 0.0500015C49.2 -0.0499985 50.4 0.650008 51.6 2.15001C65.4 19.25 79.2 36.35 93 53.45C93.2 53.75 93.4 54.15 93.9 54.25C94.3 53.75 94.1 53.15 94.1 52.65C94.1 48.45 94.1 44.35 94.1 40.15C94.1 39.15 94.3 38.35 95 37.55C104.8 25.45 114.5 13.45 124.3 1.25C124.9 0.549998 125.5 0.150008 126.4 0.150008C142.1 0.150008 157.7 0.150008 173.4 0.150008C173.7 0.150008 174.1 0.149998 174.6 0.249998C173.6 2.15 172.2 3.55 170.9 5.05C153.2 26.95 135.5 48.85 117.8 70.75C116.4 72.55 115 74.35 113.5 76.05C112.5 77.15 112.5 77.85 113.5 78.95C118 84.45 122.5 90.05 127 95.55C139.2 110.65 151.5 125.85 163.7 140.95C166.8 144.75 169.9 148.55 173 152.45C173.6 153.15 174.1 153.85 174.7 154.55C174.2 155.15 173.5 154.95 173 154.95C157.7 154.95 142.3 154.95 127 154.95C125.8 154.95 125 154.55 124.2 153.65C114.6 141.65 104.9 129.75 95.2 117.85C94.4 116.85 94 115.75 94.1 114.45C94.1 109.95 94.1 105.45 94.1 100.55C92.2 102.15 91.1 103.95 89.8 105.55C76.7 121.75 63.7 137.85 50.6 154.05C50.2 154.45 49.9 155.05 49.3 155.05C45.9 155.05 42.5 155.05 38.6 155.05C40.7 152.35 42.6 150.05 44.5 147.75C50.1 140.75 55.8 133.75 61.4 126.85C62 126.15 62.3 125.45 62.2 124.55C62.2 121.95 62.2 119.45 62.2 116.75C61.2 116.85 60.9 117.65 60.5 118.15C50.8 130.15 41.1 142.15 31.4 154.15C31 154.65 30.7 155.15 29.9 155.15C26.5 155.15 23.2 155.15 19.5 155.15C20.6 153.15 22 151.75 23.2 150.25C35.9 134.55 48.5 118.85 61.2 103.25C61.8 102.55 62.1 101.75 62.1 100.75C62.1 98.15 62.1 95.65 62.1 93.05C61.4 92.75 61.2 93.35 61 93.65C45.6 112.75 30.1 131.85 14.8 151.05C12.4 154.05 10.1 155.95 6 155.25C4.2 154.95 2.4 155.25 0 155.25L0.100006 154.85Z" fill="#A9023A"/>
</svg>
