<svg width="16" height="16" viewBox="0 0 16 16" fill="none" xmlns="http://www.w3.org/2000/svg">
<path d="M6.5 2.12489H3.5C3.26794 2.12489 3.04538 2.21708 2.88128 2.38117C2.71719 2.54526 2.625 2.76782 2.625 2.99989V12.9999C2.625 13.232 2.71719 13.4545 2.88128 13.6186C3.04538 13.7827 3.26794 13.8749 3.5 13.8749H6.5C6.61491 13.8749 6.72869 13.8523 6.83485 13.8083C6.94101 13.7643 7.03747 13.6999 7.11872 13.6186C7.19997 13.5374 7.26442 13.4409 7.30839 13.3347C7.35237 13.2286 7.375 13.1148 7.375 12.9999V2.99989C7.375 2.88498 7.35237 2.7712 7.30839 2.66504C7.26442 2.55888 7.19997 2.46242 7.11872 2.38117C7.03747 2.29992 6.94101 2.23547 6.83485 2.19149C6.72869 2.14752 6.61491 2.12489 6.5 2.12489ZM3.375 4.87489H6.625V11.1249H3.375V4.87489ZM3.5 2.87489H6.5C6.53315 2.87489 6.56495 2.88806 6.58839 2.9115C6.61183 2.93494 6.625 2.96674 6.625 2.99989V4.12489H3.375V2.99989C3.375 2.96674 3.38817 2.93494 3.41161 2.9115C3.43505 2.88806 3.46685 2.87489 3.5 2.87489ZM6.5 13.1249H3.5C3.46685 13.1249 3.43505 13.1117 3.41161 13.0883C3.38817 13.0648 3.375 13.033 3.375 12.9999V11.8749H6.625V12.9999C6.625 13.033 6.61183 13.0648 6.58839 13.0883C6.56495 13.1117 6.53315 13.1249 6.5 13.1249ZM14.3562 12.1874L12.2819 2.32239C12.2585 2.20945 12.213 2.10226 12.148 2.00698C12.083 1.9117 11.9998 1.8302 11.9032 1.76718C11.8066 1.70416 11.6985 1.66085 11.5851 1.63976C11.4717 1.61867 11.3553 1.6202 11.2425 1.64426L8.31688 2.27301C8.09046 2.32278 7.89279 2.45983 7.76678 2.65441C7.64076 2.84899 7.59655 3.08542 7.64375 3.31239L9.71813 13.1755C9.74172 13.2888 9.78757 13.3964 9.85301 13.4918C9.91845 13.5873 10.0022 13.6689 10.0994 13.7318C10.24 13.8238 10.4044 13.8729 10.5725 13.873C10.6355 13.8733 10.6984 13.8666 10.76 13.853L13.6856 13.2249C13.9112 13.1745 14.1079 13.0376 14.2334 12.8435C14.3588 12.6494 14.403 12.4137 14.3562 12.1874ZM9.18062 6.97989L12.3512 6.29864L13.2338 10.4961L10.0625 11.1755L9.18062 6.97989ZM8.76625 5.00739L11.9375 4.32426L12.1969 5.56239L9.02625 6.24364L8.76625 5.00739ZM8.475 3.00739L11.4 2.37926C11.4087 2.37834 11.4175 2.37834 11.4263 2.37926C11.4496 2.37933 11.4724 2.38629 11.4919 2.39926C11.5062 2.4084 11.5186 2.42038 11.5281 2.43446C11.5377 2.44854 11.5443 2.46442 11.5475 2.48114L11.7819 3.59489L8.61187 4.27114L8.37813 3.15989C8.37082 3.12667 8.37689 3.09192 8.39502 3.06314C8.41315 3.03437 8.44189 3.01389 8.475 3.00614V3.00739ZM13.5256 12.4949L10.6 13.1249C10.5843 13.1284 10.5681 13.1287 10.5524 13.1258C10.5366 13.1229 10.5215 13.1168 10.5081 13.108C10.4938 13.0989 10.4814 13.0869 10.4719 13.0728C10.4623 13.0587 10.4557 13.0429 10.4525 13.0261L10.2181 11.9124L13.3881 11.2311L13.625 12.3393C13.6287 12.3559 13.629 12.3732 13.626 12.39C13.623 12.4067 13.6167 12.4228 13.6074 12.4371C13.5982 12.4515 13.5862 12.4639 13.5722 12.4736C13.5581 12.4833 13.5423 12.4901 13.5256 12.4936V12.4949Z" fill="black"/>
</svg>
