<svg width="125" height="117" viewBox="0 0 125 117" fill="none" xmlns="http://www.w3.org/2000/svg">
<g clip-path="url(#clip0_277_584)">
<path d="M87.1875 43.7168H119.475C122.526 43.7168 124.999 46.1963 124.999 49.2545V78.7399C124.999 89.9798 115.91 99.0921 104.699 99.0921H104.603C93.3921 99.0935 84.3022 89.9832 84.3008 78.7429V46.6114C84.3006 46.2313 84.3751 45.8548 84.5201 45.5036C84.6651 45.1523 84.8777 44.8332 85.1458 44.5644C85.4139 44.2955 85.7322 44.0823 86.0825 43.9369C86.4329 43.7915 86.8083 43.7167 87.1875 43.7168Z" fill="#5059C9"/>
<path d="M109.011 37.8882C116.236 37.8882 122.093 32.0163 122.093 24.773C122.093 17.5296 116.236 11.6577 109.011 11.6577C101.786 11.6577 95.9297 17.5296 95.9297 24.773C95.9297 32.0163 101.786 37.8882 109.011 37.8882Z" fill="#5059C9"/>
<path d="M68.3135 37.8884C78.7492 37.8884 87.209 29.4068 87.209 18.9442C87.209 8.48161 78.7492 0 68.3135 0C57.8778 0 49.418 8.48161 49.418 18.9442C49.418 29.4068 57.8778 37.8884 68.3135 37.8884Z" fill="#7B83EB"/>
<path d="M93.509 43.7168H40.2127C37.1985 43.7917 34.8142 46.2996 34.8841 49.3215V82.9515C34.4632 101.086 48.7732 116.135 66.8606 116.579C84.948 116.135 99.2581 101.086 98.8377 82.9515V49.3215C98.9075 46.2996 96.5232 43.7917 93.509 43.7168Z" fill="#7B83EB"/>
<path opacity="0.1" d="M69.7686 43.7168V90.8438C69.7616 91.9008 69.4433 92.9322 68.8538 93.8086C68.2642 94.6849 67.4296 95.3671 66.4546 95.7696C65.8199 96.0388 65.1377 96.1773 64.4488 96.1773H37.4424C37.0645 95.2154 36.7159 94.2535 36.4248 93.2631C35.4072 89.9188 34.8881 86.4421 34.8843 82.9456V49.3127C34.8145 46.2957 37.1949 43.7917 40.2041 43.7173L69.7686 43.7168Z" fill="black"/>
<path opacity="0.2" d="M66.8604 43.7168V93.7585C66.8604 94.4493 66.7222 95.1332 66.4536 95.7696C66.0522 96.747 65.3718 97.5838 64.4977 98.1749C63.6236 98.766 62.5949 99.0851 61.5406 99.0921H38.8086C38.3145 98.1301 37.8492 97.1682 37.4424 96.1773C37.0516 95.2248 36.712 94.252 36.4248 93.2631C35.4072 89.9188 34.8881 86.4421 34.8843 82.9456V49.3127C34.8145 46.2957 37.1949 43.7917 40.2041 43.7173L66.8604 43.7168Z" fill="black"/>
<path opacity="0.2" d="M66.8609 43.7168V87.9296C66.8389 90.8658 64.4702 93.2411 61.541 93.2631H36.4248C35.4072 89.9188 34.8881 86.4421 34.8843 82.9456V49.3127C34.8145 46.2957 37.1949 43.7917 40.2041 43.7173L66.8609 43.7168Z" fill="black"/>
<path opacity="0.2" d="M63.9541 43.7168V87.9296C63.9317 90.8658 61.563 93.2411 58.6343 93.2631H36.4248C35.4072 89.9188 34.8881 86.4421 34.8843 82.9456V49.3127C34.8145 46.2957 37.1949 43.7917 40.2041 43.7173L63.9541 43.7168Z" fill="black"/>
<path opacity="0.1" d="M69.7671 28.6495V37.8298C69.273 37.8592 68.8076 37.8885 68.3135 37.8885C67.8193 37.8885 67.354 37.8592 66.8599 37.8298C65.8787 37.7645 64.9057 37.6085 63.9531 37.3638C61.0511 36.6747 58.3529 35.3067 56.0792 33.3717C53.8056 31.4367 52.0211 28.9897 50.8716 26.2306C50.4702 25.2908 50.1588 24.3148 49.9414 23.3159H64.4473C67.3804 23.3272 69.7559 25.7083 69.7671 28.6495Z" fill="black"/>
<path opacity="0.2" d="M66.8589 31.5635V37.8296C65.8777 37.7643 64.9047 37.6083 63.9522 37.3636C61.0502 36.6744 58.3521 35.3064 56.0785 33.3714C53.805 31.4364 52.0205 28.9894 50.8711 26.2305H61.5391C64.4727 26.2412 66.8477 28.6228 66.8589 31.5635Z" fill="black"/>
<path opacity="0.2" d="M66.8589 31.5635V37.8296C65.8777 37.7643 64.9047 37.6083 63.9522 37.3636C61.0502 36.6744 58.3521 35.3064 56.0785 33.3714C53.805 31.4364 52.0205 28.9894 50.8711 26.2305H61.5391C64.4727 26.2412 66.8477 28.6228 66.8589 31.5635Z" fill="black"/>
<path opacity="0.2" d="M63.9526 31.5635V37.3636C61.0505 36.6744 58.3523 35.3064 56.0787 33.3713C53.805 31.4362 52.0205 28.9891 50.8711 26.23H58.6328C61.5664 26.2412 63.9414 28.6228 63.9526 31.5635Z" fill="black"/>
<path d="M5.32861 26.23H58.6245C61.5679 26.23 63.9536 28.6219 63.9536 31.5723V85.0061C63.9536 87.9565 61.5679 90.3484 58.625 90.3484H5.32861C2.38574 90.3484 0 87.9565 0 85.0061V31.5728C0 28.6214 2.38574 26.23 5.32861 26.23Z" fill="url(#paint0_linear_277_584)"/>
<path d="M45.9995 46.5672H35.3452V75.6537H28.5576V46.5672H17.9531V40.9248H45.9995V46.5672Z" fill="white"/>
</g>
<defs>
<linearGradient id="paint0_linear_277_584" x1="1111" y1="-391.185" x2="5300.54" y2="6846.17" gradientUnits="userSpaceOnUse">
<stop stop-color="#5A62C3"/>
<stop offset="0.5" stop-color="#4D55BD"/>
<stop offset="1" stop-color="#3940AB"/>
</linearGradient>
<clipPath id="clip0_277_584">
<rect width="125" height="117" fill="white"/>
</clipPath>
</defs>
</svg>
