<svg width="18" height="18" viewBox="0 0 18 18" fill="none" xmlns="http://www.w3.org/2000/svg">
<path d="M4.212 15C3.8665 15 3.57825 14.8845 3.34725 14.6535C3.11625 14.4225 3.0005 14.134 3 13.788V4.212C3 3.8665 3.11575 3.57825 3.34725 3.34725C3.57875 3.11625 3.867 3.0005 4.212 3H13.7887C14.1337 3 14.422 3.11575 14.6535 3.34725C14.885 3.57875 15.0005 3.867 15 4.212V13.7887C15 14.1337 14.8845 14.422 14.6535 14.6535C14.4225 14.885 14.134 15.0005 13.788 15H4.212ZM8.625 10.803H3.75V13.788C3.75 13.923 3.79325 14.0337 3.87975 14.1202C3.96625 14.2067 4.077 14.25 4.212 14.25H8.625V10.803ZM9.375 10.803V14.25H13.7887C13.9233 14.25 14.0337 14.2067 14.1202 14.1202C14.2067 14.0337 14.25 13.9233 14.25 13.7887V10.803H9.375ZM8.625 10.053V6.57675H3.75V10.053H8.625ZM9.375 10.053H14.25V6.57675H9.375V10.053ZM3.75 5.82675H14.25V4.21125C14.25 4.07675 14.2067 3.96625 14.1202 3.87975C14.0337 3.79325 13.9233 3.75 13.7887 3.75H4.21125C4.07675 3.75 3.96625 3.79325 3.87975 3.87975C3.79325 3.96625 3.75 4.077 3.75 4.212V5.82675Z" fill="black"/>
</svg>
