<svg width="16" height="16" viewBox="0 0 16 16" fill="none" xmlns="http://www.w3.org/2000/svg">
<path d="M11.8797 12.7858L7.25788 8.27481C7.18393 8.20579 7.13216 8.13431 7.10258 8.06036C7.073 7.98641 7.05821 7.89767 7.05821 7.79414V1.16823H8.24141V6.88455L13.0925 4.10404L13.6915 5.13194L8.72209 7.97162L12.7745 11.9575L11.8797 12.7858ZM7.64242 15.2779C6.59726 15.2779 5.61372 15.0782 4.69182 14.6789C3.76991 14.2845 2.95646 13.7348 2.25147 13.0298C1.55141 12.3248 1.00171 11.5114 0.602385 10.5894C0.203056 9.66754 0.00339095 8.684 0.00339095 7.63884C0.00339095 6.59368 0.203056 5.61015 0.602385 4.68824C1.00171 3.76633 1.55141 2.95535 2.25147 2.25529C2.95646 1.5503 3.76744 0.998141 4.68442 0.598812C5.60633 0.199482 6.58986 -0.000182474 7.63502 -0.000182474C8.68511 -0.000182474 9.67111 0.199482 10.593 0.598812C11.5149 0.998141 12.3284 1.5503 13.0334 2.25529C13.7384 2.95535 14.2905 3.76633 14.6898 4.68824C15.0892 5.61015 15.2888 6.59368 15.2888 7.63884C15.2888 8.684 15.0892 9.66754 14.6898 10.5894C14.2905 11.5114 13.7384 12.3248 13.0334 13.0298C12.3284 13.7348 11.5149 14.2845 10.593 14.6789C9.67111 15.0782 8.68758 15.2779 7.64242 15.2779ZM7.64242 13.7693C8.49531 13.7693 9.2915 13.6115 10.031 13.296C10.7705 12.9805 11.4213 12.5417 11.9833 11.9797C12.5453 11.4177 12.9841 10.7669 13.2996 10.0274C13.6151 9.28793 13.7729 8.49173 13.7729 7.63884C13.7729 6.79088 13.6151 5.99716 13.2996 5.25766C12.9841 4.51323 12.5453 3.86 11.9833 3.29798C11.4213 2.73596 10.768 2.29719 10.0236 1.98168C9.28411 1.66616 8.48791 1.5084 7.63502 1.5084C6.78706 1.5084 5.99087 1.66616 5.24644 1.98168C4.50694 2.29719 3.85865 2.73596 3.30156 3.29798C2.74447 3.86 2.30816 4.51323 1.99264 5.25766C1.67712 5.99716 1.51936 6.79088 1.51936 7.63884C1.51936 8.49173 1.67712 9.28793 1.99264 10.0274C2.30816 10.7669 2.74447 11.4177 3.30156 11.9797C3.86358 12.5417 4.51434 12.9805 5.25383 13.296C5.99826 13.6115 6.79446 13.7693 7.64242 13.7693Z" fill="white"/>
</svg>
