<svg width="140" height="98" viewBox="0 0 140 98" fill="none" xmlns="http://www.w3.org/2000/svg">
<g clip-path="url(#clip0_112_217)">
<path d="M58.2715 10.699C62.7822 6.02006 69.0619 3.11817 76.0067 3.11817C85.2396 3.11817 93.2945 8.24357 97.5837 15.8522C101.421 14.1456 105.577 13.2662 109.779 13.2715C126.431 13.2715 139.93 26.8282 139.93 43.5508C139.93 60.2756 126.431 73.8328 109.779 73.8328C107.784 73.8338 105.795 73.6363 103.84 73.2432C100.062 79.9513 92.8641 84.4832 84.6019 84.4832C81.2607 84.4877 77.9626 83.732 74.9594 82.2739C71.1302 91.2409 62.2085 97.5286 51.8102 97.5286C40.9821 97.5286 31.7541 90.7073 28.2115 81.1409C26.6638 81.4686 25.0598 81.639 23.4143 81.639C10.5222 81.639 0.0703709 71.1269 0.0703709 58.1571C0.0611935 54.0469 1.13412 50.006 3.18222 46.4371C5.23033 42.8683 8.18211 39.8961 11.7434 37.8167C10.2651 34.4275 9.50404 30.7714 9.50779 27.0764C9.50779 12.1608 21.6708 0.0698242 36.6738 0.0698242C45.4818 0.0698242 53.3092 4.23918 58.2715 10.699Z" fill="#00A1E0"/>
<path d="M20.3284 50.6094C20.2409 50.8375 20.3602 50.8849 20.3886 50.9252C20.6511 51.1152 20.918 51.2519 21.187 51.4043C22.6138 52.1584 23.9602 52.3789 25.369 52.3789C28.2379 52.3789 30.0191 50.8599 30.0191 48.4137V48.3663C30.0191 46.1052 28.0087 45.2837 26.122 44.6913L25.877 44.6113C24.4546 44.1512 23.2274 43.7549 23.2274 42.8222V42.7732C23.2274 41.9756 23.9444 41.3882 25.0562 41.3882C26.2916 41.3882 27.7577 41.7965 28.7022 42.3164C28.7022 42.3164 28.9789 42.495 29.0806 42.2271C29.1364 42.0845 29.6144 40.8034 29.6647 40.6646C29.7183 40.5138 29.6226 40.4027 29.5252 40.3434C28.4473 39.69 26.9571 39.2441 25.4149 39.2441L25.1278 39.2463C22.5023 39.2463 20.6691 40.8252 20.6691 43.0885V43.1358C20.6691 45.5221 22.6915 46.2952 24.5859 46.8348L24.891 46.9284C26.2713 47.3504 27.4613 47.7135 27.4613 48.6815V48.7289C27.4613 49.6136 26.688 50.2724 25.4406 50.2724C24.9566 50.2724 23.4128 50.2626 21.7448 49.2129C21.5436 49.0959 21.426 49.0109 21.2707 48.9178C21.1887 48.8661 20.9841 48.7763 20.8944 49.0463L20.3284 50.6094ZM62.3284 50.6094C62.2409 50.8375 62.3601 50.8849 62.3886 50.9252C62.6511 51.1152 62.918 51.2519 63.187 51.4043C64.6133 52.1584 65.9602 52.3789 67.369 52.3789C70.2379 52.3789 72.0191 50.8599 72.0191 48.4137V48.3663C72.0191 46.1052 70.0087 45.2837 68.122 44.6913L67.877 44.6113C66.4546 44.1512 65.2269 43.7549 65.2269 42.8222V42.7732C65.2269 41.9756 65.9444 41.3882 67.0562 41.3882C68.2916 41.3882 69.7577 41.7965 70.7022 42.3164C70.7022 42.3164 70.9789 42.495 71.0806 42.2271C71.1364 42.0845 71.6144 40.8034 71.6641 40.6646C71.7183 40.5138 71.6226 40.4027 71.5247 40.3434C70.4473 39.69 68.9566 39.2441 67.4149 39.2441L67.1278 39.2463C64.5017 39.2463 62.6691 40.8252 62.6691 43.0885V43.1358C62.6691 45.5221 64.6909 46.2952 66.5859 46.8348L66.8905 46.9284C68.2713 47.3504 69.463 47.7135 69.463 48.6815V48.7289C69.463 49.6136 68.6875 50.2724 67.4406 50.2724C66.1318 50.2817 64.8482 49.9138 63.7448 49.2129C63.5436 49.0959 63.4238 49.0147 63.2729 48.9178C63.2209 48.8841 62.9776 48.7904 62.8939 49.0463L62.3284 50.6094ZM91.0005 45.8188C91.0005 47.2017 90.7413 48.2906 90.2316 49.0599C89.7274 49.8222 88.9645 50.1924 87.9003 50.1924C86.8344 50.1924 86.0754 49.8238 85.5794 49.0599C85.0773 48.2923 84.8225 47.2017 84.8225 45.8188C84.8225 44.4387 85.0773 43.3514 85.5794 42.5903C86.0754 41.8362 86.8344 41.4693 87.9003 41.4693C88.9645 41.4693 89.7269 41.8362 90.2333 42.5897C90.7419 43.352 91.0005 44.4387 91.0005 45.8188ZM93.3953 43.2561C93.1602 42.4651 92.7937 41.7671 92.3054 41.1856C91.817 40.6025 91.1996 40.1348 90.4662 39.7935C89.7351 39.4543 88.8705 39.2817 87.9003 39.2817C86.928 39.2817 86.0634 39.4543 85.3322 39.7935C84.5994 40.1343 83.9814 40.6025 83.4914 41.1856C83.0052 41.7687 82.6383 42.4672 82.4015 43.2561C82.1685 44.044 82.0515 44.9047 82.0515 45.8188C82.0515 46.7335 82.1685 47.5965 82.4015 48.3815C82.6388 49.171 83.003 49.869 83.4936 50.4526C83.9937 51.0452 84.6224 51.5171 85.3322 51.8328C86.065 52.1644 86.928 52.3326 87.9003 52.3326C88.8705 52.3326 89.7334 52.1638 90.4662 51.8328C91.1763 51.5171 91.8051 51.0452 92.3054 50.4526C92.7937 49.8712 93.1602 49.1732 93.3953 48.3815C93.6305 47.5943 93.748 46.7319 93.748 45.8188C93.748 44.9069 93.6305 44.044 93.3953 43.2561ZM113.06 49.8238C112.981 49.5919 112.756 49.679 112.756 49.679C112.407 49.8118 112.037 49.9349 111.642 49.9964C111.208 50.0602 110.769 50.0913 110.329 50.0895C109.17 50.0895 108.249 49.7465 107.589 49.0681C106.928 48.3897 106.557 47.2932 106.561 45.8091C106.566 44.4588 106.893 43.4429 107.48 42.6692C108.064 41.8999 108.952 41.5052 110.138 41.5052C111.126 41.5052 111.879 41.6179 112.668 41.8662C112.668 41.8662 112.857 41.9479 112.947 41.7012C113.156 41.1225 113.312 40.7076 113.535 40.0712C113.599 39.8904 113.443 39.8131 113.387 39.7913C113.077 39.6704 112.343 39.4739 111.789 39.3906C111.272 39.3117 110.666 39.2697 109.992 39.2697C108.986 39.2697 108.09 39.4401 107.323 39.7815C106.557 40.1207 105.908 40.5889 105.394 41.172C104.88 41.7551 104.49 42.4531 104.229 43.2425C103.97 44.0298 103.838 44.8949 103.838 45.8091C103.838 47.7865 104.374 49.3855 105.432 50.5555C106.492 51.7299 108.084 52.3266 110.16 52.3266C111.387 52.3266 112.646 52.0789 113.55 51.7239C113.55 51.7239 113.724 51.6406 113.649 51.4402L113.06 49.8238ZM117.251 44.4948C117.364 43.7271 117.578 43.0885 117.906 42.5908C118.402 41.8351 119.159 41.4203 120.223 41.4203C121.287 41.4203 121.99 41.8368 122.495 42.5908C122.829 43.0885 122.975 43.7549 123.032 44.4948H117.251ZM125.314 42.807C125.11 42.0431 124.606 41.2716 124.276 40.9188C123.753 40.3592 123.244 39.9683 122.737 39.7505C122.003 39.4397 121.212 39.2804 120.414 39.2823C119.403 39.2823 118.484 39.451 117.739 39.7995C116.992 40.149 116.364 40.6249 115.872 41.2183C115.38 41.809 115.009 42.5135 114.774 43.3128C114.537 44.1077 114.418 44.975 114.418 45.8891C114.418 46.8195 114.541 47.6858 114.786 48.4654C115.033 49.251 115.428 49.9436 115.962 50.5163C116.494 51.0934 117.179 51.5459 118 51.8611C118.815 52.1747 119.804 52.3375 120.942 52.3353C123.283 52.3271 124.517 51.8077 125.024 51.5279C125.114 51.4789 125.2 51.3912 125.092 51.1413L124.562 49.6637C124.483 49.4432 124.258 49.5249 124.258 49.5249C123.678 49.7388 122.853 50.1238 120.93 50.12C119.673 50.1178 118.741 49.7487 118.157 49.1715C117.557 48.5808 117.265 47.7124 117.213 46.4863L125.32 46.494C125.32 46.494 125.533 46.4902 125.555 46.2838C125.562 46.1967 125.834 44.6254 125.314 42.807ZM52.3277 44.4948C52.4431 43.7271 52.6542 43.0885 52.9834 42.5908C53.4795 41.8351 54.2363 41.4203 55.3 41.4203C56.3642 41.4203 57.0675 41.8368 57.5734 42.5908C57.9064 43.0885 58.0519 43.7549 58.1093 44.4948H52.3277ZM60.3887 42.807C60.1852 42.0431 59.6832 41.2716 59.3523 40.9188C58.8306 40.3592 58.3204 39.9683 57.8145 39.7505C57.0799 39.4397 56.2896 39.2804 55.4914 39.2823C54.4813 39.2823 53.5609 39.451 52.8161 39.7995C52.0685 40.149 51.4412 40.6249 50.9491 41.2183C50.4569 41.809 50.0866 42.5135 49.8515 43.3128C49.6163 44.1077 49.4949 44.975 49.4949 45.8891C49.4949 46.8195 49.618 47.6858 49.8635 48.4654C50.1102 49.251 50.505 49.9436 51.0387 50.5163C51.5709 51.0934 52.2561 51.5459 53.0769 51.8611C53.8918 52.1747 54.8816 52.3375 56.0191 52.3353C58.3603 52.3271 59.5935 51.8077 60.1016 51.5279C60.1912 51.4789 60.2766 51.3912 60.1694 51.1413L59.6416 49.6637C59.5596 49.4432 59.3348 49.5249 59.3348 49.5249C58.7551 49.7388 57.9321 50.1238 56.0055 50.12C54.7504 50.1178 53.818 49.7487 53.2344 49.1715C52.6345 48.5808 52.3414 47.7124 52.29 46.4863L60.3963 46.494C60.3963 46.494 60.6096 46.4902 60.6315 46.2838C60.6397 46.1967 60.9104 44.6254 60.3887 42.807ZM34.8053 49.7791C34.4881 49.5276 34.4444 49.4639 34.3372 49.3011C34.1775 49.0534 34.096 48.7001 34.096 48.252C34.096 47.542 34.3312 47.0324 34.819 46.6894C34.8135 46.691 35.5162 46.084 37.1705 46.1058C38.3316 46.1221 39.3695 46.2925 39.3695 46.2925V49.9621H39.3717C39.3717 49.9621 38.3414 50.182 37.182 50.2512C35.5321 50.3503 34.7993 49.7775 34.8053 49.7791ZM38.0308 44.1088C37.7021 44.0848 37.2761 44.0706 36.7659 44.0706C36.0702 44.0706 35.3987 44.1578 34.7698 44.3265C34.1624 44.4832 33.5886 44.7481 33.0761 45.1083C32.5866 45.456 32.1843 45.9113 31.9003 46.439C31.6137 46.9709 31.4683 47.5975 31.4683 48.2993C31.4683 49.0136 31.5913 49.6343 31.8385 50.1423C32.0795 50.6444 32.4434 51.0782 32.8967 51.4038C33.3468 51.731 33.903 51.9711 34.5483 52.1159C35.1837 52.2607 35.9045 52.3337 36.6937 52.3337C37.5249 52.3337 38.3534 52.2667 39.1562 52.1295C39.8395 52.0124 40.5203 51.8815 41.1983 51.737C41.4673 51.6733 41.7665 51.5921 41.7665 51.5921C41.9677 51.5426 41.9513 51.3281 41.9513 51.3281L41.9475 43.9481C41.9475 42.3295 41.5133 41.1296 40.6585 40.3858C39.8081 39.6438 38.5547 39.2692 36.9348 39.2692C36.3278 39.2692 35.3489 39.3525 34.7637 39.4695C34.7637 39.4695 32.9919 39.8104 32.2629 40.3777C32.2629 40.3777 32.1037 40.4768 32.1912 40.6989L32.7655 42.2342C32.8366 42.4324 33.0302 42.3649 33.0302 42.3649C33.0302 42.3649 33.0919 42.3415 33.1636 42.2996C34.7233 41.4546 36.6959 41.4807 36.6959 41.4807C37.5725 41.4807 38.2457 41.6549 38.7001 42.0023C39.1426 42.3393 39.3673 42.8489 39.3673 43.9242V44.265C38.6701 44.1659 38.0308 44.1088 38.0308 44.1088ZM103.415 39.9497C103.427 39.9228 103.433 39.8938 103.433 39.8645C103.433 39.8352 103.428 39.8061 103.416 39.7791C103.405 39.752 103.388 39.7275 103.367 39.7071C103.346 39.6866 103.321 39.6707 103.293 39.6601C103.156 39.6067 102.466 39.4619 101.934 39.4282C100.916 39.3666 100.35 39.5371 99.8446 39.7635C99.3426 39.9895 98.7848 40.3543 98.4736 40.7691V39.787C98.4736 39.6503 98.3763 39.5414 98.2406 39.5414H96.1625C96.0274 39.5414 95.9295 39.6503 95.9295 39.787V51.8246C95.9295 51.9596 96.0411 52.0707 96.1767 52.0707H98.3062C98.3386 52.0706 98.3705 52.0641 98.4003 52.0516C98.4301 52.0392 98.4572 52.021 98.4799 51.9982C98.5027 51.9753 98.5207 51.9482 98.5329 51.9185C98.5452 51.8887 98.5514 51.8568 98.5512 51.8246V45.8107C98.5512 45.0038 98.6409 44.198 98.8203 43.6928C98.9953 43.1925 99.2348 42.7923 99.5296 42.5043C99.8112 42.2282 100.155 42.0229 100.532 41.9054C100.908 41.7905 101.325 41.7529 101.62 41.7529C102.044 41.7529 102.51 41.8618 102.51 41.8618C102.665 41.8798 102.753 41.7845 102.805 41.6441C102.944 41.2749 103.339 40.1697 103.415 39.9497" fill="white"/>
<path d="M83.423 34.3709C83.1598 34.292 82.8923 34.2284 82.6218 34.1804C82.2578 34.121 81.8892 34.0933 81.5204 34.0976C80.0537 34.0976 78.8981 34.5098 78.0877 35.3232C77.2805 36.1322 76.7325 37.3643 76.458 38.9845L76.3579 39.5301H74.5171C74.5171 39.5301 74.294 39.5219 74.2464 39.7642L73.9456 41.4443C73.9238 41.6028 73.9932 41.704 74.2081 41.704H75.9997L74.1824 51.8035C74.0413 52.6169 73.8778 53.2855 73.6962 53.7929C73.5191 54.2927 73.3462 54.6678 73.1308 54.9417C72.923 55.203 72.7283 55.3979 72.3892 55.5106C72.1103 55.6043 71.7877 55.6478 71.4349 55.6478C71.2397 55.6478 70.9788 55.6157 70.7858 55.5765C70.6344 55.5471 70.4871 55.4995 70.3472 55.4349C70.3472 55.4349 70.1383 55.356 70.0546 55.5645C69.989 55.7371 69.5105 57.0438 69.453 57.2049C69.3973 57.3655 69.4766 57.4902 69.5783 57.5278C69.8173 57.6111 69.9944 57.6666 70.3193 57.7439C70.7699 57.8495 71.1505 57.855 71.5071 57.855C72.252 57.855 72.9334 57.7499 73.4972 57.5479C74.0632 57.3438 74.557 56.9882 74.9956 56.508C75.4676 55.9886 75.7645 55.4453 76.0473 54.7016C76.3284 53.9677 76.5695 53.0552 76.7604 51.9924L78.5875 41.704H81.2573C81.2573 41.704 81.4821 41.7117 81.528 41.4678L81.831 39.7898C81.8507 39.6292 81.7834 39.5301 81.5658 39.5301H78.9736C78.9878 39.4724 79.1054 38.5642 79.4023 37.7095C79.5298 37.3463 79.7687 37.0507 79.97 36.8487C80.1596 36.6564 80.3927 36.5121 80.6498 36.4278C80.9068 36.3445 81.1994 36.3048 81.5204 36.3048C81.7632 36.3048 82.0044 36.3326 82.1854 36.3701C82.437 36.424 82.5343 36.4518 82.5999 36.4714C82.8652 36.5509 82.9007 36.4736 82.9527 36.3462L83.5723 34.6529C83.6362 34.4706 83.4788 34.3927 83.423 34.3709ZM47.2078 51.8258C47.2078 51.9603 47.1099 52.0697 46.9748 52.0697H44.8251C44.6895 52.0697 44.5938 51.9608 44.5938 51.8258V34.6012C44.5938 34.4667 44.6895 34.3573 44.8251 34.3573H46.9743C47.1099 34.3573 47.2078 34.4662 47.2078 34.6012V51.8258Z" fill="white"/>
</g>
<defs>
<clipPath id="clip0_112_217">
<rect width="140" height="98" fill="white"/>
</clipPath>
</defs>
</svg>
