<svg width="281" height="114" viewBox="0 0 281 114" fill="none" xmlns="http://www.w3.org/2000/svg">
<path d="M254.405 59.5083H17.5859V63.0651H254.405V59.5083Z" fill="black"/>
<path d="M93.7144 90.744C93.7144 91.656 93.6686 94.4148 97.236 94.4148C99.4999 94.4148 100.918 93.3432 100.918 91.7016C100.918 89.9916 99.7057 89.6952 97.236 89.1024C92.6167 87.9396 90.0784 86.5716 90.0784 83.22C90.0784 80.028 92.3652 77.2236 97.762 77.2236C99.7743 77.2236 102.175 77.6796 103.616 79.5036C104.714 80.8944 104.714 82.4448 104.714 83.106H100.712C100.666 82.4448 100.437 80.1648 97.5562 80.1648C95.6124 80.1648 94.3547 81.2136 94.3547 82.7868C94.3547 84.588 95.7725 84.9072 98.5852 85.5912C101.947 86.3892 105.263 87.3012 105.263 91.086C105.263 94.5744 102.358 97.3788 96.9845 97.3788C89.5295 97.3788 89.4838 92.6136 89.4609 90.7212H93.7144V90.744Z" fill="black"/>
<path d="M108.809 77.4971H112.971V96.9455H108.809V77.4971Z" fill="black"/>
<path d="M117.383 77.5654H130.395V80.7346H121.545V85.3402H129.823V88.5094H121.545V93.7306H130.692V96.9454H117.383V77.5654Z" fill="black"/>
<path d="M134.375 77.5884H141.647C142.767 77.5884 144.963 77.5884 146.426 78.5004C148.21 79.6176 148.599 81.51 148.599 82.6272C148.599 83.3568 148.462 84.6108 147.478 85.5228C147.341 85.6824 146.403 86.5488 145.283 86.8452V86.8908C148.233 87.438 149.399 89.5812 149.399 91.6104C149.399 93.8904 148.05 95.418 146.541 96.1704C145.031 96.9456 142.402 96.9456 141.647 96.9456H134.375V77.5884ZM138.354 85.4772H141.258C142.447 85.4772 144.597 85.4772 144.597 82.992C144.597 80.5752 142.562 80.5752 141.19 80.5752H138.377V85.4772H138.354ZM138.354 93.8448H141.19C143.088 93.8448 145.26 93.8448 145.26 91.2456C145.26 88.4868 142.767 88.4868 140.778 88.4868H138.377V93.8448H138.354Z" fill="black"/>
<path d="M153.215 77.5654H166.227V80.7346H157.377V85.3402H165.655V88.5094H157.377V93.7306H166.524V96.9454H153.215V77.5654Z" fill="black"/>
<path d="M170.23 77.5884H174.484V93.6624H182.831V96.9684H170.253V77.5884H170.23Z" fill="black"/>
<path d="M189.575 17.0546H194.629V42.8414H216.513L213.289 47.8802H189.575V17.0546ZM149.922 47.903L131.239 18.5138C130.096 16.5986 127.031 16.5986 125.728 18.5822L107.205 47.903H113.334L118.913 39.0566H130.85L133.983 34.0178H122.046L128.564 23.8718L143.794 47.9258L149.922 47.903ZM161.287 17.0774C152.758 17.0774 147.132 23.9858 147.132 32.4902C147.132 40.9946 152.758 47.903 161.287 47.903L182.051 47.8802L185.299 42.887H161.425C155.662 42.887 152.3 38.2358 152.3 32.4902C152.3 26.7446 155.662 22.0934 161.425 22.0934H182.669L185.802 17.0546L161.287 17.0774ZM31.7411 22.0934H53.6257C59.3883 22.0934 62.7499 26.7446 62.7499 32.4902C62.7499 38.2358 59.3883 42.887 53.6257 42.887H31.7411C25.9784 42.887 22.6169 38.2358 22.6169 32.4902C22.6169 26.7446 26.0013 22.0934 31.7411 22.0934ZM31.7411 17.0774C23.2114 17.0774 17.5859 23.9858 17.5859 32.4902C17.5859 40.9946 23.2114 47.903 31.7411 47.903H53.6257C62.1554 47.903 67.7808 40.9946 67.7808 32.4902C67.7808 23.9858 62.1554 17.0774 53.6257 17.0774H31.7411ZM221.91 34.9298C222.733 39.4898 225.889 42.887 230.783 42.887H254.634L251.387 47.8802L230.646 47.903C222.116 47.903 216.49 40.9946 216.49 32.4902C216.49 23.9858 222.116 17.0774 230.646 17.0774L255.183 17.0546L252.05 22.0934H230.806C225.958 22.0934 222.802 25.4222 221.933 29.891H251.913L248.665 34.9298H221.91ZM96.3656 35.363C101.442 35.2718 105.467 31.0994 105.376 26.0606C105.284 21.1358 101.305 17.1458 96.3656 17.0774H70.5936V47.9258H76.2648V22.0934H96.3656C98.6524 22.0934 100.505 23.9402 100.505 26.2202C100.505 28.5002 98.6524 30.347 96.3656 30.347H80.2438L98.4237 47.8574H105.741L92.7297 35.3858L96.3656 35.363ZM260.465 17.0774C261.769 17.0774 262.821 18.1034 262.821 19.4942C262.821 20.885 261.792 21.911 260.465 21.911C259.139 21.911 258.11 20.885 258.11 19.4942C258.11 18.1262 259.139 17.0774 260.465 17.0774V16.5986C258.864 16.5986 257.515 17.8298 257.515 19.4942C257.515 21.1814 258.864 22.3898 260.465 22.3898C262.043 22.3898 263.392 21.1586 263.392 19.4942C263.392 17.8298 262.043 16.5986 260.465 16.5986V17.0774Z" fill="#F80000"/>
<path d="M259.846 18.2629H260.532C260.875 18.2629 261.264 18.3313 261.264 18.7645C261.264 19.2889 260.875 19.3117 260.441 19.3117H259.823V19.7449H260.418L261.31 21.2041H261.882L260.921 19.7221C261.424 19.6537 261.79 19.4029 261.79 18.8101C261.79 18.1489 261.401 17.8525 260.601 17.8525H259.32V21.2041H259.823L259.846 18.2629Z" fill="#F80000"/>
</svg>
