<svg width="215" height="59" viewBox="0 0 215 59" fill="none" xmlns="http://www.w3.org/2000/svg">
<path d="M43.6739 46.6138H6.64326C4.21801 46.6138 1.85168 45.3122 0.727641 43.1235C-0.57317 40.5799 -0.100554 37.563 1.9106 35.6108L27.7025 9.81968H9.18678C4.09935 9.81968 0.0177011 5.67871 0.0177011 0.650203H34.1501C36.5753 0.650203 38.9413 1.95183 40.0653 4.14057C41.3669 6.68408 40.8935 9.70102 38.8823 11.6528L13.0908 37.4448H34.4459C39.5329 37.4448 43.6739 41.5857 43.6739 46.6138ZM190.258 0C184.935 0 180.202 2.307 176.889 5.97455C173.577 2.307 168.844 0 163.521 0C153.701 0 145.656 8.3998 145.656 18.2195V46.6138C150.743 46.6138 154.825 42.4729 154.825 37.4448V18.1606C154.825 13.4279 158.492 9.40559 163.225 9.2284C168.194 9.05082 172.275 13.0138 172.275 17.9236V37.4448C172.275 42.5322 176.416 46.6138 181.445 46.6138V18.1012C181.445 13.369 185.112 9.34625 189.844 9.16907C194.813 8.99149 198.895 12.9549 198.895 17.8647V37.3854C198.895 42.4733 203.036 46.5545 208.064 46.5545V18.161C208.123 8.3998 200.078 0 190.258 0ZM90.0508 23.6617C90.0508 36.7348 79.4623 47.3234 66.3892 47.3234C53.316 47.3234 42.7275 36.7348 42.7275 23.6617C42.7275 10.5885 53.316 0 66.3892 0C79.4623 0 90.0508 10.5885 90.0508 23.6617ZM80.8818 23.6617C80.8818 15.676 74.3749 9.16907 66.3892 9.16907C58.4034 9.16907 51.8961 15.676 51.8961 23.6617C51.8961 31.6478 58.4034 38.1547 66.3892 38.1547C74.3749 38.1547 80.8818 31.6478 80.8818 23.6617ZM141.042 23.6617C141.042 36.7348 130.453 47.3234 117.38 47.3234C104.307 47.3234 93.7184 36.7348 93.7184 23.6617C93.7184 10.5885 104.307 0 117.38 0C130.453 0 141.042 10.5885 141.042 23.6617M131.873 23.6617C131.873 15.676 125.367 9.16907 117.38 9.16907C109.395 9.16907 102.888 15.676 102.888 23.6617C102.888 31.6478 109.395 38.1547 117.38 38.1547C125.367 38.1547 131.873 31.6478 131.873 23.6617Z" fill="#0B5CFF"/>
</svg>
